  0
SECTION
  2
HEADER
  9
$ACADVER
  1
AC1024
  9
$ACADMAINTVER
 70
     6
  9
$DWGCODEPAGE
  3
ANSI_1252
  9
$INSBASE
 10
0.0
 20
0.0
 30
0.0
  9
$EXTMIN
 10
1.000000000000000E+20
 20
1.000000000000000E+20
 30
1.000000000000000E+20
  9
$EXTMAX
 10
-1.000000000000000E+20
 20
-1.000000000000000E+20
 30
-1.000000000000000E+20
  9
$LIMMIN
 10
0.0
 20
0.0
  9
$LIMMAX
 10
12.0
 20
9.0
  9
$ORTHOMODE
 70
     0
  9
$REGENMODE
 70
     1
  9
$FILLMODE
 70
     1
  9
$QTEXTMODE
 70
     0
  9
$MIRRTEXT
 70
     1
  9
$LTSCALE
 40
1.0
  9
$ATTMODE
 70
     1
  9
$TEXTSIZE
 40
0.2
  9
$TRACEWID
 40
0.05
  9
$TEXTSTYLE
  7
Standard
  9
$CLAYER
  8
0
  9
$CELTYPE
  6
ByLayer
  9
$CECOLOR
 62
   256
  9
$CELTSCALE
 40
1.0
  9
$DISPSILH
 70
     0
  9
$DIMSCALE
 40
1.0
  9
$DIMASZ
 40
0.18
  9
$DIMEXO
 40
0.0625
  9
$DIMDLI
 40
0.38
  9
$DIMRND
 40
0.0
  9
$DIMDLE
 40
0.0
  9
$DIMEXE
 40
0.18
  9
$DIMTP
 40
0.0
  9
$DIMTM
 40
0.0
  9
$DIMTXT
 40
0.18
  9
$DIMCEN
 40
0.09
  9
$DIMTSZ
 40
0.0
  9
$DIMTOL
 70
     0
  9
$DIMLIM
 70
     0
  9
$DIMTIH
 70
     1
  9
$DIMTOH
 70
     1
  9
$DIMSE1
 70
     0
  9
$DIMSE2
 70
     0
  9
$DIMTAD
 70
     0
  9
$DIMZIN
 70
     0
  9
$DIMBLK
  1

  9
$DIMASO
 70
     1
  9
$DIMSHO
 70
     1
  9
$DIMPOST
  1

  9
$DIMAPOST
  1

  9
$DIMALT
 70
     0
  9
$DIMALTD
 70
     2
  9
$DIMALTF
 40
25.4
  9
$DIMLFAC
 40
1.0
  9
$DIMTOFL
 70
     0
  9
$DIMTVP
 40
0.0
  9
$DIMTIX
 70
     0
  9
$DIMSOXD
 70
     0
  9
$DIMSAH
 70
     0
  9
$DIMBLK1
  1

  9
$DIMBLK2
  1

  9
$DIMSTYLE
  2
Standard
  9
$DIMCLRD
 70
     0
  9
$DIMCLRE
 70
     0
  9
$DIMCLRT
 70
     0
  9
$DIMTFAC
 40
1.0
  9
$DIMGAP
 40
0.09
  9
$DIMJUST
 70
     0
  9
$DIMSD1
 70
     0
  9
$DIMSD2
 70
     0
  9
$DIMTOLJ
 70
     1
  9
$DIMTZIN
 70
     0
  9
$DIMALTZ
 70
     0
  9
$DIMALTTZ
 70
     0
  9
$DIMUPT
 70
     0
  9
$DIMDEC
 70
     4
  9
$DIMTDEC
 70
     4
  9
$DIMALTU
 70
     2
  9
$DIMALTTD
 70
     2
  9
$DIMTXSTY
  7
Standard
  9
$DIMAUNIT
 70
     0
  9
$DIMADEC
 70
     0
  9
$DIMALTRND
 40
0.0
  9
$DIMAZIN
 70
     0
  9
$DIMDSEP
 70
    46
  9
$DIMATFIT
 70
     3
  9
$DIMFRAC
 70
     0
  9
$DIMLDRBLK
  1

  9
$DIMLUNIT
 70
     2
  9
$DIMLWD
 70
    -2
  9
$DIMLWE
 70
    -2
  9
$DIMTMOVE
 70
     0
  9
$DIMFXL
 40
1.0
  9
$DIMFXLON
 70
     0
  9
$DIMJOGANG
 40
0.7853981633974483
  9
$DIMTFILL
 70
     0
  9
$DIMTFILLCLR
 70
     0
  9
$DIMARCSYM
 70
     0
  9
$DIMLTYPE
  6

  9
$DIMLTEX1
  6

  9
$DIMLTEX2
  6

  9
$DIMTXTDIRECTION
 70
     0
  9
$LUNITS
 70
     2
  9
$LUPREC
 70
     4
  9
$SKETCHINC
 40
0.1
  9
$FILLETRAD
 40
0.5
  9
$AUNITS
 70
     0
  9
$AUPREC
 70
     0
  9
$MENU
  1
.
  9
$ELEVATION
 40
0.0
  9
$PELEVATION
 40
0.0
  9
$THICKNESS
 40
0.0
  9
$LIMCHECK
 70
     0
  9
$CHAMFERA
 40
0.5
  9
$CHAMFERB
 40
0.5
  9
$CHAMFERC
 40
1.0
  9
$CHAMFERD
 40
0.0
  9
$SKPOLY
 70
     0
  9
$TDCREATE
 40
2457361.692083275
  9
$TDUCREATE
 40
2457361.650416609
  9
$TDUPDATE
 40
2457361.692084896
  9
$TDUUPDATE
 40
2457361.650418229
  9
$TDINDWG
 40
0.0000000116
  9
$TDUSRTIMER
 40
0.0000000116
  9
$USRTIMER
 70
     1
  9
$ANGBASE
 50
0.0
  9
$ANGDIR
 70
     0
  9
$PDMODE
 70
     0
  9
$PDSIZE
 40
0.0
  9
$PLINEWID
 40
0.0
  9
$SPLFRAME
 70
     0
  9
$SPLINETYPE
 70
     6
  9
$SPLINESEGS
 70
     8
  9
$HANDSEED
  5
DB
  9
$SURFTAB1
 70
     6
  9
$SURFTAB2
 70
     6
  9
$SURFTYPE
 70
     6
  9
$SURFU
 70
     6
  9
$SURFV
 70
     6
  9
$UCSBASE
  2

  9
$UCSNAME
  2

  9
$UCSORG
 10
0.0
 20
0.0
 30
0.0
  9
$UCSXDIR
 10
1.0
 20
0.0
 30
0.0
  9
$UCSYDIR
 10
0.0
 20
1.0
 30
0.0
  9
$UCSORTHOREF
  2

  9
$UCSORTHOVIEW
 70
     0
  9
$UCSORGTOP
 10
0.0
 20
0.0
 30
0.0
  9
$UCSORGBOTTOM
 10
0.0
 20
0.0
 30
0.0
  9
$UCSORGLEFT
 10
0.0
 20
0.0
 30
0.0
  9
$UCSORGRIGHT
 10
0.0
 20
0.0
 30
0.0
  9
$UCSORGFRONT
 10
0.0
 20
0.0
 30
0.0
  9
$UCSORGBACK
 10
0.0
 20
0.0
 30
0.0
  9
$PUCSBASE
  2

  9
$PUCSNAME
  2

  9
$PUCSORG
 10
0.0
 20
0.0
 30
0.0
  9
$PUCSXDIR
 10
1.0
 20
0.0
 30
0.0
  9
$PUCSYDIR
 10
0.0
 20
1.0
 30
0.0
  9
$PUCSORTHOREF
  2

  9
$PUCSORTHOVIEW
 70
     0
  9
$PUCSORGTOP
 10
0.0
 20
0.0
 30
0.0
  9
$PUCSORGBOTTOM
 10
0.0
 20
0.0
 30
0.0
  9
$PUCSORGLEFT
 10
0.0
 20
0.0
 30
0.0
  9
$PUCSORGRIGHT
 10
0.0
 20
0.0
 30
0.0
  9
$PUCSORGFRONT
 10
0.0
 20
0.0
 30
0.0
  9
$PUCSORGBACK
 10
0.0
 20
0.0
 30
0.0
  9
$USERI1
 70
     0
  9
$USERI2
 70
     0
  9
$USERI3
 70
     0
  9
$USERI4
 70
     0
  9
$USERI5
 70
     0
  9
$USERR1
 40
0.0
  9
$USERR2
 40
0.0
  9
$USERR3
 40
0.0
  9
$USERR4
 40
0.0
  9
$USERR5
 40
0.0
  9
$WORLDVIEW
 70
     1
  9
$SHADEDGE
 70
     3
  9
$SHADEDIF
 70
    70
  9
$TILEMODE
 70
     1
  9
$MAXACTVP
 70
    64
  9
$PINSBASE
 10
0.0
 20
0.0
 30
0.0
  9
$PLIMCHECK
 70
     0
  9
$PEXTMIN
 10
1.000000000000000E+20
 20
1.000000000000000E+20
 30
1.000000000000000E+20
  9
$PEXTMAX
 10
-1.000000000000000E+20
 20
-1.000000000000000E+20
 30
-1.000000000000000E+20
  9
$PLIMMIN
 10
0.0
 20
0.0
  9
$PLIMMAX
 10
12.0
 20
9.0
  9
$UNITMODE
 70
     0
  9
$VISRETAIN
 70
     1
  9
$PLINEGEN
 70
     0
  9
$PSLTSCALE
 70
     1
  9
$TREEDEPTH
 70
  3020
  9
$CMLSTYLE
  2
Standard
  9
$CMLJUST
 70
     0
  9
$CMLSCALE
 40
1.0
  9
$PROXYGRAPHICS
 70
     1
  9
$MEASUREMENT
 70
     0
  9
$CELWEIGHT
370
    -1
  9
$ENDCAPS
280
     0
  9
$JOINSTYLE
280
     0
  9
$LWDISPLAY
290
     1
  9
$INSUNITS
 70
     1
  9
$HYPERLINKBASE
  1

  9
$STYLESHEET
  1

  9
$XEDIT
290
     1
  9
$CEPSNTYPE
380
     0
  9
$PSTYLEMODE
290
     1
  9
$FINGERPRINTGUID
  2
{AB33C229-5C81-42FA-A15D-DC5D8C85EC8E}
  9
$VERSIONGUID
  2
{FAEB1C32-E019-11D5-929B-00C0DF256EC4}
  9
$EXTNAMES
290
     1
  9
$PSVPSCALE
 40
0.0
  9
$OLESTARTUP
290
     0
  9
$SORTENTS
280
   127
  9
$INDEXCTL
280
     0
  9
$HIDETEXT
280
     1
  9
$XCLIPFRAME
280
     2
  9
$HALOGAP
280
     0
  9
$OBSCOLOR
 70
   257
  9
$OBSLTYPE
280
     0
  9
$INTERSECTIONDISPLAY
280
     0
  9
$INTERSECTIONCOLOR
 70
   257
  9
$DIMASSOC
280
     2
  9
$PROJECTNAME
  1

  9
$CAMERADISPLAY
290
     0
  9
$LENSLENGTH
 40
50.0
  9
$CAMERAHEIGHT
 40
0.0
  9
$STEPSPERSEC
 40
2.0
  9
$STEPSIZE
 40
6.0
  9
$3DDWFPREC
 40
2.0
  9
$PSOLWIDTH
 40
0.25
  9
$PSOLHEIGHT
 40
4.0
  9
$LOFTANG1
 40
1.570796326794897
  9
$LOFTANG2
 40
1.570796326794897
  9
$LOFTMAG1
 40
0.0
  9
$LOFTMAG2
 40
0.0
  9
$LOFTPARAM
 70
     7
  9
$LOFTNORMALS
280
     1
  9
$LATITUDE
 40
37.795
  9
$LONGITUDE
 40
-122.394
  9
$NORTHDIRECTION
 40
0.0
  9
$TIMEZONE
 70
 -8000
  9
$LIGHTGLYPHDISPLAY
280
     1
  9
$TILEMODELIGHTSYNCH
280
     1
  9
$CMATERIAL
347
3C
  9
$SOLIDHIST
280
     1
  9
$SHOWHIST
280
     1
  9
$DWFFRAME
280
     2
  9
$DGNFRAME
280
     2
  9
$REALWORLDSCALE
290
     1
  9
$INTERFERECOLOR
 62
   256
  9
$CSHADOW
280
     0
  9
$SHADOWPLANELOCATION
 40
0.0
  0
ENDSEC
  0
SECTION
  2
CLASSES
  0
CLASS
  1
ACDBDICTIONARYWDFLT
  2
AcDbDictionaryWithDefault
  3
ObjectDBX Classes
 90
        0
 91
        4
280
     0
281
     0
  0
CLASS
  1
VISUALSTYLE
  2
AcDbVisualStyle
  3
ObjectDBX Classes
 90
     4095
 91
        4
280
     0
281
     0
  0
CLASS
  1
MATERIAL
  2
AcDbMaterial
  3
ObjectDBX Classes
 90
     1153
 91
        4
280
     0
281
     0
  0
CLASS
  1
SUN
  2
AcDbSun
  3
SCENEOE
 90
     1024
 91
        4
280
     0
281
     0
  0
ENDSEC
  0
SECTION
  2
TABLES
  0
TABLE
  2
VPORT
  5
8
330
0
100
AcDbSymbolTable
 70
     1
  0
VPORT
  5
29
330
8
100
AcDbSymbolTableRecord
100
AcDbViewportTableRecord
  2
*Active
 70
     0
 10
0.0
 20
0.0
 11
1.0
 21
1.0
 12
0.0
 22
0.0
 13
0.0
 23
0.0
 14
0.5
 24
0.5
 15
0.5
 25
0.5
 16
0.0
 26
0.0
 36
1.0
 17
105.0007777515277
 27
-148.5000416295416
 37
0.0
 40
297.0000832590831
 41
0.7070757462376333
 42
50.0
 43
0.0
 44
0.0
 50
0.0
 51
0.0
 71
     0
 72
   100
 73
     1
 74
     3
 75
     0
 76
     0
 77
     0
 78
     0
281
     0
 65
     1
110
0.0
120
0.0
130
0.0
111
1.0
121
0.0
131
0.0
112
0.0
122
1.0
132
0.0
 79
     0
146
0.0
 60
     3
 61
     5
292
     1
282
     1
141
0.0
142
0.0
 63
   250
361
3F
  0
ENDTAB
  0
TABLE
  2
LTYPE
  5
5
330
0
100
AcDbSymbolTable
 70
     1
  0
LTYPE
  5
14
330
5
100
AcDbSymbolTableRecord
100
AcDbLinetypeTableRecord
  2
ByBlock
 70
     0
  3

 72
    65
 73
     0
 40
0.0
  0
LTYPE
  5
15
330
5
100
AcDbSymbolTableRecord
100
AcDbLinetypeTableRecord
  2
ByLayer
 70
     0
  3

 72
    65
 73
     0
 40
0.0
  0
LTYPE
  5
16
330
5
100
AcDbSymbolTableRecord
100
AcDbLinetypeTableRecord
  2
Continuous
 70
     0
  3
Solid line
 72
    65
 73
     0
 40
0.0
  0
ENDTAB
  0
TABLE
  2
LAYER
  5
2
330
0
100
AcDbSymbolTable
 70
     2
  0
LAYER
  5
10
330
2
100
AcDbSymbolTableRecord
100
AcDbLayerTableRecord
  2
0
 70
     0
 62
     7
  6
Continuous
370
    -3
390
F
347
3E
  0
LAYER
  5
40
330
2
100
AcDbSymbolTableRecord
100
AcDbLayerTableRecord
  2
Abat-jour
 70
     0
 62
     7
  6
Continuous
370
    -3
390
F
347
3E
  0
ENDTAB
  0
TABLE
  2
STYLE
  5
3
330
0
100
AcDbSymbolTable
 70
     1
  0
STYLE
  5
11
330
3
100
AcDbSymbolTableRecord
100
AcDbTextStyleTableRecord
  2
Standard
 70
     0
 40
0.0
 41
1.0
 50
0.0
 71
     0
 42
0.2
  3
txt
  4

  0
ENDTAB
  0
TABLE
  2
VIEW
  5
6
330
0
100
AcDbSymbolTable
 70
     0
  0
ENDTAB
  0
TABLE
  2
UCS
  5
7
330
0
100
AcDbSymbolTable
 70
     0
  0
ENDTAB
  0
TABLE
  2
APPID
  5
9
330
0
100
AcDbSymbolTable
 70
     1
  0
APPID
  5
12
330
9
100
AcDbSymbolTableRecord
100
AcDbRegAppTableRecord
  2
ACAD
 70
     0
  0
ENDTAB
  0
TABLE
  2
DIMSTYLE
  5
A
330
0
100
AcDbSymbolTable
 70
     1
100
AcDbDimStyleTable
  0
DIMSTYLE
105
27
330
A
100
AcDbSymbolTableRecord
100
AcDbDimStyleTableRecord
  2
Standard
 70
     0
178
     0
340
11
  0
ENDTAB
  0
TABLE
  2
BLOCK_RECORD
  5
1
330
0
100
AcDbSymbolTable
 70
     4
  0
BLOCK_RECORD
  5
1F
330
1
100
AcDbSymbolTableRecord
100
AcDbBlockTableRecord
  2
*Model_Space
340
22
 70
     0
280
     1
281
     0
  0
BLOCK_RECORD
  5
1B
330
1
100
AcDbSymbolTableRecord
100
AcDbBlockTableRecord
  2
*Paper_Space
340
1E
 70
     0
280
     1
281
     0
  0
BLOCK_RECORD
  5
23
330
1
100
AcDbSymbolTableRecord
100
AcDbBlockTableRecord
  2
*Paper_Space0
340
26
 70
     0
280
     1
281
     0
  0
BLOCK_RECORD
  5
41
330
1
100
AcDbSymbolTableRecord
100
AcDbBlockTableRecord
  2
block 2
340
0
102
{BLKREFS
331
42
102
}
 70
     0
280
     1
281
     0
  0
BLOCK_RECORD
  5
5E
330
1
100
AcDbSymbolTableRecord
100
AcDbBlockTableRecord
  2
block 3
340
0
102
{BLKREFS
331
5F
102
}
 70
     0
280
     1
281
     0
  0
BLOCK_RECORD
  5
BC
330
1
100
AcDbSymbolTableRecord
100
AcDbBlockTableRecord
  2
block 4
340
0
102
{BLKREFS
331
BD
102
}
 70
     0
280
     1
281
     0
  0
ENDTAB
  0
ENDSEC
  0
SECTION
  2
BLOCKS
  0
BLOCK
  5
20
330
1F
100
AcDbEntity
  8
0
100
AcDbBlockBegin
  2
*Model_Space
 70
     0
 10
0.0
 20
0.0
 30
0.0
  3
*Model_Space
  1

  0
ENDBLK
  5
21
330
1F
100
AcDbEntity
  8
0
100
AcDbBlockEnd
  0
BLOCK
  5
1C
330
1B
100
AcDbEntity
 67
     1
  8
0
100
AcDbBlockBegin
  2
*Paper_Space
 70
     0
 10
0.0
 20
0.0
 30
0.0
  3
*Paper_Space
  1

  0
ENDBLK
  5
1D
330
1B
100
AcDbEntity
 67
     1
  8
0
100
AcDbBlockEnd
  0
BLOCK
  5
24
330
23
100
AcDbEntity
  8
0
100
AcDbBlockBegin
  2
*Paper_Space0
 70
     0
 10
0.0
 20
0.0
 30
0.0
  3
*Paper_Space0
  1

  0
ENDBLK
  5
25
330
23
100
AcDbEntity
  8
0
100
AcDbBlockEnd
  0
BLOCK
  5
43
330
41
100
AcDbEntity
  8
0
100
AcDbBlockBegin
  2
block 2
 70
     0
 10
0.0
 20
0.0
 30
0.0
  3
block 2
  1

  0
SPLINE
  5
45
330
41
100
AcDbEntity
  8
Abat-jour
 62
     1
420
 16711680
370
     5
100
AcDbSpline
210
0.0
220
0.0
230
1.0
 70
    11
 71
     3
 72
   125
 73
   121
 74
     0
 42
0.0000000001
 43
0.0000000001
 12
1.0
 22
0.0
 32
0.0
 13
1.0
 23
0.0
 33
0.0
 40
0.0
 40
0.0
 40
0.0
 40
0.0
 40
1.0
 40
1.0
 40
1.0
 40
2.0
 40
2.0
 40
2.0
 40
3.0
 40
3.0
 40
3.0
 40
4.0
 40
4.0
 40
4.0
 40
5.0
 40
5.0
 40
5.0
 40
6.0
 40
6.0
 40
6.0
 40
7.0
 40
7.0
 40
7.0
 40
8.0
 40
8.0
 40
8.0
 40
9.0
 40
9.0
 40
9.0
 40
10.0
 40
10.0
 40
10.0
 40
11.0
 40
11.0
 40
11.0
 40
12.0
 40
12.0
 40
12.0
 40
13.0
 40
13.0
 40
13.0
 40
14.0
 40
14.0
 40
14.0
 40
15.0
 40
15.0
 40
15.0
 40
16.0
 40
16.0
 40
16.0
 40
17.0
 40
17.0
 40
17.0
 40
18.0
 40
18.0
 40
18.0
 40
19.0
 40
19.0
 40
19.0
 40
20.0
 40
20.0
 40
20.0
 40
21.0
 40
21.0
 40
21.0
 40
22.0
 40
22.0
 40
22.0
 40
23.0
 40
23.0
 40
23.0
 40
24.0
 40
24.0
 40
24.0
 40
25.0
 40
25.0
 40
25.0
 40
26.0
 40
26.0
 40
26.0
 40
27.0
 40
27.0
 40
27.0
 40
28.0
 40
28.0
 40
28.0
 40
29.0
 40
29.0
 40
29.0
 40
30.0
 40
30.0
 40
30.0
 40
31.0
 40
31.0
 40
31.0
 40
32.0
 40
32.0
 40
32.0
 40
33.0
 40
33.0
 40
33.0
 40
34.0
 40
34.0
 40
34.0
 40
35.0
 40
35.0
 40
35.0
 40
36.0
 40
36.0
 40
36.0
 40
37.0
 40
37.0
 40
37.0
 40
38.0
 40
38.0
 40
38.0
 40
39.0
 40
39.0
 40
39.0
 40
40.0
 40
40.0
 40
40.0
 40
40.0
 10
180.1564856673668
 20
-283.2187999291664
 30
0.0
 10
180.6195770560175
 20
-281.8623693739085
 30
0.0
 10
179.8952890005104
 20
-280.3873702076755
 30
0.0
 10
178.5388937230307
 20
-279.9242435412466
 30
0.0
 10
178.5388937230307
 20
-279.9242435412466
 30
0.0
 10
189.8912120538743
 20
-283.7999660392582
 30
0.0
 10
189.8912120538743
 20
-283.7999660392582
 30
0.0
 10
213.8271913193724
 20
-213.6890516101928
 30
0.0
 10
212.1774260354817
 20
-141.0250138507291
 30
0.0
 10
189.9371084240881
 20
-75.95741053565912
 30
0.0
 10
189.9371084240881
 20
-75.95741053565912
 30
0.0
 10
178.7522889827819
 20
-79.77157331348745
 30
0.0
 10
178.7522889827819
 20
-79.77157331348745
 30
0.0
 10
177.8735909856034
 20
-80.24366053567063
 30
0.0
 10
177.4380162745873
 20
-81.29331553544712
 30
0.0
 10
177.7708973772932
 20
-82.26846386850734
 30
0.0
 10
178.1413837054788
 20
-83.35364359042498
 30
0.0
 10
179.3213900941254
 20
-83.93290470128534
 30
0.0
 10
180.4065345382642
 20
-83.56245275683582
 30
0.0
 10
180.4065345382642
 20
-83.56245275683582
 30
0.0
 10
168.617619555736
 20
-87.58718859022177
 30
0.0
 10
168.617619555736
 20
-87.58718859022177
 30
0.0
 10
169.7027639724627
 20
-87.21673664577226
 30
0.0
 10
170.2820956242429
 20
-86.03680081268206
 30
0.0
 10
169.9115731335981
 20
-84.95162109076409
 30
0.0
 10
169.5756581420795
 20
-83.96768859104026
 30
0.0
 10
168.5742278898003
 20
-83.4022916468275
 30
0.0
 10
167.5813701373678
 20
-83.58097359131631
 30
0.0
 10
167.5813701373678
 20
-83.58097359131631
 30
0.0
 10
148.9082078365545
 20
-89.94875359140083
 30
0.0
 10
148.9082078365545
 20
-89.94875359140083
 30
0.0
 10
147.9860114712338
 20
-90.40306081359259
 30
0.0
 10
147.5210503720811
 20
-91.48054998003153
 30
0.0
 10
147.8620806412484
 20
-92.47940497975134
 30
0.0
 10
148.2325325763393
 20
-93.56454942389081
 30
0.0
 10
149.4126094907288
 20
-94.14384581252934
 30
0.0
 10
150.4976480741249
 20
-93.77342914585766
 30
0.0
 10
150.4976480741249
 20
-93.77342914585766
 30
0.0
 10
138.7087675419129
 20
-97.79812970146577
 30
0.0
 10
138.7087675419129
 20
-97.79812970146577
 30
0.0
 10
139.7938766808628
 20
-97.42771303479378
 30
0.0
 10
140.3732788881967
 20
-96.24774192392606
 30
0.0
 10
140.0027898271856
 20
-95.16256220200842
 30
0.0
 10
139.6587275173501
 20
-94.15474664673577
 30
0.0
 10
138.6163731607229
 20
-93.58448136919421
 30
0.0
 10
137.6003045142785
 20
-93.80486164700812
 30
0.0
 10
137.6003045142785
 20
-93.80486164700812
 30
0.0
 10
119.0943941536363
 20
-100.1156327582028
 30
0.0
 10
119.0943941536363
 20
-100.1156327582028
 30
0.0
 10
118.1093327899169
 20
-100.5406594248522
 30
0.0
 10
117.600521414109
 20
-101.657659702396
 30
0.0
 10
117.9530875163178
 20
-102.6903813687729
 30
0.0
 10
118.3235747291856
 20
-103.7755258129126
 30
0.0
 10
119.5035787220244
 20
-104.3548222015512
 30
0.0
 10
120.5887231661645
 20
-103.9843702571017
 30
0.0
 10
120.5887231661645
 20
-103.9843702571017
 30
0.0
 10
108.799880250313
 20
-108.0090708127098
 30
0.0
 10
108.799880250313
 20
-108.0090708127098
 30
0.0
 10
109.884954111486
 20
-107.6386541460378
 30
0.0
 10
110.464353724473
 20
-106.4586830351701
 30
0.0
 10
110.0939043837302
 20
-105.3735385910299
 30
0.0
 10
109.7321307817537
 20
-104.3139352579939
 30
0.0
 10
108.5986205328429
 20
-103.7391544249058
 30
0.0
 10
107.5351366711139
 20
-104.0574658138113
 30
0.0
 10
107.5351366711139
 20
-104.0574658138113
 30
0.0
 10
99.35255816276302
 20
-106.8476054274692
 30
0.0
 10
99.35255816276302
 20
-106.8476054274692
 30
0.0
 10
114.9807191570502
 20
-152.5698279146351
 30
0.0
 10
116.2583759539786
 20
-203.704840788116
 30
0.0
 10
99.65108271895895
 20
-252.9918121661739
 30
0.0
 10
99.65108271895895
 20
-252.9918121661739
 30
0.0
 10
107.9146197306139
 20
-255.8130113313937
 30
0.0
 10
107.9146197306139
 20
-255.8130113313937
 30
0.0
 10
106.5581892096227
 20
-255.3498846649648
 30
0.0
 10
105.0831900806515
 20
-256.0741374426937
 30
0.0
 10
104.6201339814759
 20
-257.430497442396
 30
0.0
 10
104.1570398508388
 20
-258.7869279976545
 30
0.0
 10
104.8811895306255
 20
-260.2619977194425
 30
0.0
 10
106.2376553293939
 20
-260.7249832747607
 30
0.0
 10
106.2376553293939
 20
-260.7249832747607
 30
0.0
 10
117.0441203318069
 20
-264.4143685506458
 30
0.0
 10
117.0441203318069
 20
-264.4143685506458
 30
0.0
 10
118.4004802972456
 20
-264.8774246615196
 30
0.0
 10
119.8755147039933
 20
-264.1532777171233
 30
0.0
 10
120.3386766364996
 20
-262.7968471618654
 30
0.0
 10
120.8017327356753
 20
-261.4404166066075
 30
0.0
 10
120.0775481802979
 20
-259.9654174403744
 30
0.0
 10
118.7211176250399
 20
-259.5022907739456
 30
0.0
 10
118.7211176250399
 20
-259.5022907739456
 30
0.0
 10
137.8235070240478
 20
-266.0239877150442
 30
0.0
 10
137.8235070240478
 20
-266.0239877150442
 30
0.0
 10
136.4671470586104
 20
-265.5608257708371
 30
0.0
 10
134.9921479296382
 20
-266.2851138263442
 30
0.0
 10
134.5290212749088
 20
-267.6415091038246
 30
0.0
 10
134.0659651757332
 20
-268.997904381305
 30
0.0
 10
134.7901121018353
 20
-270.4729741030931
 30
0.0
 10
136.1465426228278
 20
-270.9359949361887
 30
0.0
 10
136.1465426228278
 20
-270.9359949361887
 30
0.0
 10
146.9530429030177
 20
-274.6253096565181
 30
0.0
 10
146.9530429030177
 20
-274.6253096565181
 30
0.0
 10
148.3095087017857
 20
-275.0884716007258
 30
0.0
 10
149.7845078307566
 20
-274.3642188229963
 30
0.0
 10
150.2475639299335
 20
-273.0078235455159
 30
0.0
 10
150.7106200291092
 20
-271.6514282680362
 30
0.0
 10
149.9865083807827
 20
-270.1763585462475
 30
0.0
 10
148.6300425820146
 20
-269.713231879818
 30
0.0
 10
148.6300425820146
 20
-269.713231879818
 30
0.0
 10
167.7323590397036
 20
-276.2348582653615
 30
0.0
 10
167.7323590397036
 20
-276.2348582653615
 30
0.0
 10
166.3759637964892
 20
-275.7718374322652
 30
0.0
 10
164.9009293897415
 20
-276.496019654439
 30
0.0
 10
164.4378732905646
 20
-277.8524149319194
 30
0.0
 10
163.974817191389
 20
-279.2088102093998
 30
0.0
 10
164.6989981710037
 20
-280.6838446534103
 30
0.0
 10
166.0553946384835
 20
-281.146865486506
 30
0.0
 10
166.0553946384835
 20
-281.146865486506
 30
0.0
 10
176.8619654742272
 20
-284.8363213179468
 30
0.0
 10
176.8619654742272
 20
-284.8363213179468
 30
0.0
 10
178.2183598347049
 20
-285.29937742882
 30
0.0
 10
179.6933590009379
 20
-284.5752304844243
 30
0.0
 10
180.1564856673668
 20
-283.2187999291664
 30
0.0
  0
POLYLINE
  5
46
330
41
100
AcDbEntity
  8
Abat-jour
 62
     1
420
 16711680
370
     5
100
AcDb2dPolyline
 66
     1
 10
0.0
 20
0.0
 30
0.0
  0
VERTEX
  5
47
330
46
100
AcDbEntity
  8
Abat-jour
 62
     1
420
 16711680
370
     5
100
AcDbVertex
100
AcDb2dVertex
 10
180.4065345382642
 20
-83.56245275683582
 30
0.0
  0
VERTEX
  5
48
330
46
100
AcDbEntity
  8
Abat-jour
 62
     1
420
 16711680
370
     5
100
AcDbVertex
100
AcDb2dVertex
 10
182.8625381486863
 20
-82.7239705346028
 30
0.0
  0
SEQEND
  5
49
330
46
100
AcDbEntity
  8
Abat-jour
 62
     1
420
 16711680
370
     5
  0
POLYLINE
  5
4A
330
41
100
AcDbEntity
  8
Abat-jour
 62
     1
420
 16711680
370
     5
100
AcDb2dPolyline
 66
     1
 10
0.0
 20
0.0
 30
0.0
  0
VERTEX
  5
4B
330
4A
100
AcDbEntity
  8
Abat-jour
 62
     1
420
 16711680
370
     5
100
AcDbVertex
100
AcDb2dVertex
 10
168.617619555736
 20
-87.58718859022177
 30
0.0
  0
VERTEX
  5
4C
330
4A
100
AcDbEntity
  8
Abat-jour
 62
     1
420
 16711680
370
     5
100
AcDbVertex
100
AcDb2dVertex
 10
166.1616148200407
 20
-88.4256708124548
 30
0.0
  0
SEQEND
  5
4D
330
4A
100
AcDbEntity
  8
Abat-jour
 62
     1
420
 16711680
370
     5
  0
POLYLINE
  5
4E
330
41
100
AcDbEntity
  8
Abat-jour
 62
     1
420
 16711680
370
     5
100
AcDb2dPolyline
 66
     1
 10
0.0
 20
0.0
 30
0.0
  0
VERTEX
  5
4F
330
4E
100
AcDbEntity
  8
Abat-jour
 62
     1
420
 16711680
370
     5
100
AcDbVertex
100
AcDb2dVertex
 10
150.4976480741249
 20
-93.77339386808015
 30
0.0
  0
VERTEX
  5
50
330
4E
100
AcDbEntity
  8
Abat-jour
 62
     1
420
 16711680
370
     5
100
AcDbVertex
100
AcDb2dVertex
 10
152.9536516225037
 20
-92.93494692362432
 30
0.0
  0
SEQEND
  5
51
330
4E
100
AcDbEntity
  8
Abat-jour
 62
     1
420
 16711680
370
     5
  0
POLYLINE
  5
52
330
41
100
AcDbEntity
  8
Abat-jour
 62
     1
420
 16711680
370
     5
100
AcDb2dPolyline
 66
     1
 10
0.0
 20
0.0
 30
0.0
  0
VERTEX
  5
53
330
52
100
AcDbEntity
  8
Abat-jour
 62
     1
420
 16711680
370
     5
100
AcDbVertex
100
AcDb2dVertex
 10
138.7086969863591
 20
-97.79816497924328
 30
0.0
  0
VERTEX
  5
54
330
52
100
AcDbEntity
  8
Abat-jour
 62
     1
420
 16711680
370
     5
100
AcDbVertex
100
AcDb2dVertex
 10
136.2526934379816
 20
-98.63664720147631
 30
0.0
  0
SEQEND
  5
55
330
52
100
AcDbEntity
  8
Abat-jour
 62
     1
420
 16711680
370
     5
  0
POLYLINE
  5
56
330
41
100
AcDbEntity
  8
Abat-jour
 62
     1
420
 16711680
370
     5
100
AcDb2dPolyline
 66
     1
 10
0.0
 20
0.0
 30
0.0
  0
VERTEX
  5
57
330
56
100
AcDbEntity
  8
Abat-jour
 62
     1
420
 16711680
370
     5
100
AcDbVertex
100
AcDb2dVertex
 10
120.5887607825263
 20
-103.9843349793241
 30
0.0
  0
VERTEX
  5
58
330
56
100
AcDbEntity
  8
Abat-jour
 62
     1
420
 16711680
370
     5
100
AcDbVertex
100
AcDb2dVertex
 10
123.0447620543635
 20
-103.1458527570911
 30
0.0
  0
SEQEND
  5
59
330
56
100
AcDbEntity
  8
Abat-jour
 62
     1
420
 16711680
370
     5
  0
POLYLINE
  5
5A
330
41
100
AcDbEntity
  8
Abat-jour
 62
     1
420
 16711680
370
     5
100
AcDb2dPolyline
 66
     1
 10
0.0
 20
0.0
 30
0.0
  0
VERTEX
  5
5B
330
5A
100
AcDbEntity
  8
Abat-jour
 62
     1
420
 16711680
370
     5
100
AcDbVertex
100
AcDb2dVertex
 10
108.7998096947592
 20
-108.0091060904873
 30
0.0
  0
VERTEX
  5
5C
330
5A
100
AcDbEntity
  8
Abat-jour
 62
     1
420
 16711680
370
     5
100
AcDbVertex
100
AcDb2dVertex
 10
106.3438061463817
 20
-108.8475883127206
 30
0.0
  0
SEQEND
  5
5D
330
5A
100
AcDbEntity
  8
Abat-jour
 62
     1
420
 16711680
370
     5
  0
INSERT
  5
5F
330
41
100
AcDbEntity
  8
Abat-jour
100
AcDbBlockReference
  2
block 3
 10
0.0
 20
0.0
 30
0.0
  0
ENDBLK
  5
44
330
41
100
AcDbEntity
  8
0
100
AcDbBlockEnd
  0
BLOCK
  5
60
330
5E
100
AcDbEntity
  8
0
100
AcDbBlockBegin
  2
block 3
 70
     0
 10
0.0
 20
0.0
 30
0.0
  3
block 3
  1

  0
SPLINE
  5
62
330
5E
100
AcDbEntity
  8
Abat-jour
 62
     1
420
 16711680
370
     5
100
AcDbSpline
210
0.0
220
0.0
230
1.0
 70
    11
 71
     3
 72
    17
 73
    13
 74
     0
 42
0.0000000001
 43
0.0000000001
 12
1.0
 22
0.0
 32
0.0
 13
1.0
 23
0.0
 33
0.0
 40
0.0
 40
0.0
 40
0.0
 40
0.0
 40
1.0
 40
1.0
 40
1.0
 40
2.0
 40
2.0
 40
2.0
 40
3.0
 40
3.0
 40
3.0
 40
4.0
 40
4.0
 40
4.0
 40
4.0
 10
157.6391373926158
 20
-140.600555870089
 30
0.0
 10
156.6871313057923
 20
-140.600555870089
 30
0.0
 10
155.9153593810374
 20
-139.8287839258374
 30
0.0
 10
155.9153593810374
 20
-138.8767425371862
 30
0.0
 10
155.9153593810374
 20
-137.9247364263132
 30
0.0
 10
156.6871313057923
 20
-137.1529644820622
 30
0.0
 10
157.6391373926158
 20
-137.1529644820622
 30
0.0
 10
158.5911787572161
 20
-137.1529644820622
 30
0.0
 10
159.3629154041941
 20
-137.9247364263132
 30
0.0
 10
159.3629154041941
 20
-138.8767425371862
 30
0.0
 10
159.3629154041941
 20
-139.8287839258374
 30
0.0
 10
158.5911787572161
 20
-140.600555870089
 30
0.0
 10
157.6391373926158
 20
-140.600555870089
 30
0.0
  0
SPLINE
  5
63
330
5E
100
AcDbEntity
  8
Abat-jour
 62
     1
420
 16711680
370
     5
100
AcDbSpline
210
0.0
220
0.0
230
1.0
 70
    11
 71
     3
 72
    17
 73
    13
 74
     0
 42
0.0000000001
 43
0.0000000001
 12
1.0
 22
0.0
 32
0.0
 13
1.0
 23
0.0
 33
0.0
 40
0.0
 40
0.0
 40
0.0
 40
0.0
 40
1.0
 40
1.0
 40
1.0
 40
2.0
 40
2.0
 40
2.0
 40
3.0
 40
3.0
 40
3.0
 40
4.0
 40
4.0
 40
4.0
 40
4.0
 10
161.0255570284432
 20
-150.0819172566075
 30
0.0
 10
160.5206656275727
 20
-150.0819172566075
 30
0.0
 10
160.1113334406559
 20
-149.672624478932
 30
0.0
 10
160.1113334406559
 20
-149.1676936457248
 30
0.0
 10
160.1113334406559
 20
-148.6627628125177
 30
0.0
 10
160.5206656275727
 20
-148.2534347570646
 30
0.0
 10
161.0255570284432
 20
-148.2534347570646
 30
0.0
 10
161.5304878488947
 20
-148.2534347570646
 30
0.0
 10
161.9398158940074
 20
-148.6627628125177
 30
0.0
 10
161.9398158940074
 20
-149.1676936457248
 30
0.0
 10
161.9398158940074
 20
-149.672624478932
 30
0.0
 10
161.5304878488947
 20
-150.0819172566075
 30
0.0
 10
161.0255570284432
 20
-150.0819172566075
 30
0.0
  0
SPLINE
  5
64
330
5E
100
AcDbEntity
  8
Abat-jour
 62
     1
420
 16711680
370
     5
100
AcDbSpline
210
0.0
220
0.0
230
1.0
 70
    11
 71
     3
 72
    17
 73
    13
 74
     0
 42
0.0000000001
 43
0.0000000001
 12
1.0
 22
0.0
 32
0.0
 13
1.0
 23
0.0
 33
0.0
 40
0.0
 40
0.0
 40
0.0
 40
0.0
 40
1.0
 40
1.0
 40
1.0
 40
2.0
 40
2.0
 40
2.0
 40
3.0
 40
3.0
 40
3.0
 40
4.0
 40
4.0
 40
4.0
 40
4.0
 10
184.0853697734717
 20
-187.3828755806158
 30
0.0
 10
183.3242517373339
 20
-187.3828755806158
 30
0.0
 10
182.7072434197418
 20
-186.7658672474368
 30
0.0
 10
182.7072434197418
 20
-186.0047491920711
 30
0.0
 10
182.7072434197418
 20
-185.2436311367061
 30
0.0
 10
183.3242517373339
 20
-184.6266228035271
 30
0.0
 10
184.0853697734717
 20
-184.6266228035271
 30
0.0
 10
184.8464878096095
 20
-184.6266228035271
 30
0.0
 10
185.4634961272017
 20
-185.2436311367061
 30
0.0
 10
185.4634961272017
 20
-186.0047491920711
 30
0.0
 10
185.4634961272017
 20
-186.7658672474368
 30
0.0
 10
184.8464878096095
 20
-187.3828755806158
 30
0.0
 10
184.0853697734717
 20
-187.3828755806158
 30
0.0
  0
SPLINE
  5
65
330
5E
100
AcDbEntity
  8
Abat-jour
 62
     1
420
 16711680
370
     5
100
AcDbSpline
210
0.0
220
0.0
230
1.0
 70
    11
 71
     3
 72
    17
 73
    13
 74
     0
 42
0.0000000001
 43
0.0000000001
 12
1.0
 22
0.0
 32
0.0
 13
1.0
 23
0.0
 33
0.0
 40
0.0
 40
0.0
 40
0.0
 40
0.0
 40
1.0
 40
1.0
 40
1.0
 40
2.0
 40
2.0
 40
2.0
 40
3.0
 40
3.0
 40
3.0
 40
4.0
 40
4.0
 40
4.0
 40
4.0
 10
176.7576156235128
 20
-193.3574494680108
 30
0.0
 10
175.9097449820493
 20
-193.3574494680108
 30
0.0
 10
175.2224280551397
 20
-192.6700972459607
 30
0.0
 10
175.2224280551397
 20
-191.8222311350612
 30
0.0
 10
175.2224280551397
 20
-190.9743650241623
 30
0.0
 10
175.9097449820493
 20
-190.2870128021115
 30
0.0
 10
176.7576156235128
 20
-190.2870128021115
 30
0.0
 10
177.6055124387866
 20
-190.2870128021115
 30
0.0
 10
178.2928293656962
 20
-190.9743650241623
 30
0.0
 10
178.2928293656962
 20
-191.8222311350612
 30
0.0
 10
178.2928293656962
 20
-192.6700972459607
 30
0.0
 10
177.6055124387866
 20
-193.3574494680108
 30
0.0
 10
176.7576156235128
 20
-193.3574494680108
 30
0.0
  0
SPLINE
  5
66
330
5E
100
AcDbEntity
  8
Abat-jour
 62
     1
420
 16711680
370
     5
100
AcDbSpline
210
0.0
220
0.0
230
1.0
 70
    11
 71
     3
 72
    17
 73
    13
 74
     0
 42
0.0000000001
 43
0.0000000001
 12
1.0
 22
0.0
 32
0.0
 13
1.0
 23
0.0
 33
0.0
 40
0.0
 40
0.0
 40
0.0
 40
0.0
 40
1.0
 40
1.0
 40
1.0
 40
2.0
 40
2.0
 40
2.0
 40
3.0
 40
3.0
 40
3.0
 40
4.0
 40
4.0
 40
4.0
 40
4.0
 10
142.302617783883
 20
-174.6974805837872
 30
0.0
 10
141.4923578045544
 20
-174.6974805837872
 30
0.0
 10
140.8355208768673
 20
-174.040643639507
 30
0.0
 10
140.8355208768673
 20
-173.2303836397095
 30
0.0
 10
140.8355208768673
 20
-172.4201236399121
 30
0.0
 10
141.4923578045544
 20
-171.7632866956319
 30
0.0
 10
142.302617783883
 20
-171.7632866956319
 30
0.0
 10
143.1128777632115
 20
-171.7632866956319
 30
0.0
 10
143.7697184095382
 20
-172.4201236399121
 30
0.0
 10
143.7697184095382
 20
-173.2303836397095
 30
0.0
 10
143.7697184095382
 20
-174.040643639507
 30
0.0
 10
143.1128777632115
 20
-174.6974805837872
 30
0.0
 10
142.302617783883
 20
-174.6974805837872
 30
0.0
  0
SPLINE
  5
67
330
5E
100
AcDbEntity
  8
Abat-jour
 62
     1
420
 16711680
370
     5
100
AcDbSpline
210
0.0
220
0.0
230
1.0
 70
    11
 71
     3
 72
    17
 73
    13
 74
     0
 42
0.0000000001
 43
0.0000000001
 12
1.0
 22
0.0
 32
0.0
 13
1.0
 23
0.0
 33
0.0
 40
0.0
 40
0.0
 40
0.0
 40
0.0
 40
1.0
 40
1.0
 40
1.0
 40
2.0
 40
2.0
 40
2.0
 40
3.0
 40
3.0
 40
3.0
 40
4.0
 40
4.0
 40
4.0
 40
4.0
 10
168.050103238121
 20
-175.3603853058437
 30
0.0
 10
167.2042127041459
 20
-175.3603853058437
 30
0.0
 10
166.5184832771959
 20
-174.6746558615704
 30
0.0
 10
166.5184832771959
 20
-173.8287653062261
 30
0.0
 10
166.5184832771959
 20
-172.9828747508824
 30
0.0
 10
167.2042127041459
 20
-172.2971453066091
 30
0.0
 10
168.050103238121
 20
-172.2971453066091
 30
0.0
 10
168.8959937720961
 20
-172.2971453066091
 30
0.0
 10
169.5817231990461
 20
-172.9828747508824
 30
0.0
 10
169.5817231990461
 20
-173.8287653062261
 30
0.0
 10
169.5817231990461
 20
-174.6746558615704
 30
0.0
 10
168.8959937720961
 20
-175.3603853058437
 30
0.0
 10
168.050103238121
 20
-175.3603853058437
 30
0.0
  0
SPLINE
  5
68
330
5E
100
AcDbEntity
  8
Abat-jour
 62
     1
420
 16711680
370
     5
100
AcDbSpline
210
0.0
220
0.0
230
1.0
 70
    11
 71
     3
 72
    17
 73
    13
 74
     0
 42
0.0000000001
 43
0.0000000001
 12
1.0
 22
0.0
 32
0.0
 13
1.0
 23
0.0
 33
0.0
 40
0.0
 40
0.0
 40
0.0
 40
0.0
 40
1.0
 40
1.0
 40
1.0
 40
2.0
 40
2.0
 40
2.0
 40
3.0
 40
3.0
 40
3.0
 40
4.0
 40
4.0
 40
4.0
 40
4.0
 10
161.8993522839286
 20
-198.0197605779565
 30
0.0
 10
161.2117884125809
 20
-198.0197605779565
 30
0.0
 10
160.6543995379122
 20
-197.462371689207
 30
0.0
 10
160.6543995379122
 20
-196.7747725227123
 30
0.0
 10
160.6543995379122
 20
-196.0872086339951
 30
0.0
 10
161.2117884125809
 20
-195.5298197452456
 30
0.0
 10
161.8993522839286
 20
-195.5298197452456
 30
0.0
 10
162.5869161552763
 20
-195.5298197452456
 30
0.0
 10
163.144305029945
 20
-196.0872086339951
 30
0.0
 10
163.144305029945
 20
-196.7747725227123
 30
0.0
 10
163.144305029945
 20
-197.462371689207
 30
0.0
 10
162.5869161552763
 20
-198.0197605779565
 30
0.0
 10
161.8993522839286
 20
-198.0197605779565
 30
0.0
  0
SPLINE
  5
69
330
5E
100
AcDbEntity
  8
Abat-jour
 62
     1
420
 16711680
370
     5
100
AcDbSpline
210
0.0
220
0.0
230
1.0
 70
    11
 71
     3
 72
    17
 73
    13
 74
     0
 42
0.0000000001
 43
0.0000000001
 12
1.0
 22
0.0
 32
0.0
 13
1.0
 23
0.0
 33
0.0
 40
0.0
 40
0.0
 40
0.0
 40
0.0
 40
1.0
 40
1.0
 40
1.0
 40
2.0
 40
2.0
 40
2.0
 40
3.0
 40
3.0
 40
3.0
 40
4.0
 40
4.0
 40
4.0
 40
4.0
 10
153.9021624879539
 20
-174.1219941950419
 30
0.0
 10
153.2126936166549
 20
-174.1219941950419
 30
0.0
 10
152.6537525198035
 20
-173.5630530840706
 30
0.0
 10
152.6537525198035
 20
-172.8735841953539
 30
0.0
 10
152.6537525198035
 20
-172.1840800288597
 30
0.0
 10
153.2126936166549
 20
-171.6251389178884
 30
0.0
 10
153.9021624879539
 20
-171.6251389178884
 30
0.0
 10
154.5916666370299
 20
-171.6251389178884
 30
0.0
 10
155.1506077338812
 20
-172.1840800288597
 30
0.0
 10
155.1506077338812
 20
-172.8735841953539
 30
0.0
 10
155.1506077338812
 20
-173.5630530840706
 30
0.0
 10
154.5916666370299
 20
-174.1219941950419
 30
0.0
 10
153.9021624879539
 20
-174.1219941950419
 30
0.0
  0
SPLINE
  5
6A
330
5E
100
AcDbEntity
  8
Abat-jour
 62
     1
420
 16711680
370
     5
100
AcDbSpline
210
0.0
220
0.0
230
1.0
 70
    11
 71
     3
 72
    17
 73
    13
 74
     0
 42
0.0000000001
 43
0.0000000001
 12
1.0
 22
0.0
 32
0.0
 13
1.0
 23
0.0
 33
0.0
 40
0.0
 40
0.0
 40
0.0
 40
0.0
 40
1.0
 40
1.0
 40
1.0
 40
2.0
 40
2.0
 40
2.0
 40
3.0
 40
3.0
 40
3.0
 40
4.0
 40
4.0
 40
4.0
 40
4.0
 10
179.7810223832848
 20
-196.567903633875
 30
0.0
 10
179.2772910072471
 20
-196.567903633875
 30
0.0
 10
178.868950739887
 20
-196.1595633561989
 30
0.0
 10
178.868950739887
 20
-195.6558319674364
 30
0.0
 10
178.868950739887
 20
-195.1521358564508
 30
0.0
 10
179.2772910072471
 20
-194.7437603009978
 30
0.0
 10
179.7810223832848
 20
-194.7437603009978
 30
0.0
 10
180.2847537593224
 20
-194.7437603009978
 30
0.0
 10
180.6930940266826
 20
-195.1521358564508
 30
0.0
 10
180.6930940266826
 20
-195.6558319674364
 30
0.0
 10
180.6930940266826
 20
-196.1595633561989
 30
0.0
 10
180.2847537593224
 20
-196.567903633875
 30
0.0
 10
179.7810223832848
 20
-196.567903633875
 30
0.0
  0
SPLINE
  5
6B
330
5E
100
AcDbEntity
  8
Abat-jour
 62
     1
420
 16711680
370
     5
100
AcDbSpline
210
0.0
220
0.0
230
1.0
 70
    11
 71
     3
 72
    17
 73
    13
 74
     0
 42
0.0000000001
 43
0.0000000001
 12
1.0
 22
0.0
 32
0.0
 13
1.0
 23
0.0
 33
0.0
 40
0.0
 40
0.0
 40
0.0
 40
0.0
 40
1.0
 40
1.0
 40
1.0
 40
2.0
 40
2.0
 40
2.0
 40
3.0
 40
3.0
 40
3.0
 40
4.0
 40
4.0
 40
4.0
 40
4.0
 10
153.0214880659774
 20
-160.3249964207134
 30
0.0
 10
152.1979989203197
 20
-160.3249964207134
 30
0.0
 10
151.5304375484617
 20
-159.6574350319916
 30
0.0
 10
151.5304375484617
 20
-158.8339458655306
 30
0.0
 10
151.5304375484617
 20
-158.0104566990697
 30
0.0
 10
152.1979989203197
 20
-157.3428953103478
 30
0.0
 10
153.0214880659774
 20
-157.3428953103478
 30
0.0
 10
153.8449772116351
 20
-157.3428953103478
 30
0.0
 10
154.5125738612699
 20
-158.0104566990697
 30
0.0
 10
154.5125738612699
 20
-158.8339458655306
 30
0.0
 10
154.5125738612699
 20
-159.6574350319916
 30
0.0
 10
153.8449772116351
 20
-160.3249964207134
 30
0.0
 10
153.0214880659774
 20
-160.3249964207134
 30
0.0
  0
SPLINE
  5
6C
330
5E
100
AcDbEntity
  8
Abat-jour
 62
     1
420
 16711680
370
     5
100
AcDbSpline
210
0.0
220
0.0
230
1.0
 70
    11
 71
     3
 72
    17
 73
    13
 74
     0
 42
0.0000000001
 43
0.0000000001
 12
1.0
 22
0.0
 32
0.0
 13
1.0
 23
0.0
 33
0.0
 40
0.0
 40
0.0
 40
0.0
 40
0.0
 40
1.0
 40
1.0
 40
1.0
 40
2.0
 40
2.0
 40
2.0
 40
3.0
 40
3.0
 40
3.0
 40
4.0
 40
4.0
 40
4.0
 40
4.0
 10
158.9422631927036
 20
-183.5391147482431
 30
0.0
 10
158.0594368263375
 20
-183.5391147482431
 30
0.0
 10
157.3437565668182
 20
-182.8234344706446
 30
0.0
 10
157.3437565668182
 20
-181.9406080819763
 30
0.0
 10
157.3437565668182
 20
-181.0577816933079
 30
0.0
 10
158.0594368263375
 20
-180.3421014157094
 30
0.0
 10
158.9422631927036
 20
-180.3421014157094
 30
0.0
 10
159.8250895590697
 20
-180.3421014157094
 30
0.0
 10
160.5407739609013
 20
-181.0577816933079
 30
0.0
 10
160.5407739609013
 20
-181.9406080819763
 30
0.0
 10
160.5407739609013
 20
-182.8234344706446
 30
0.0
 10
159.8250895590697
 20
-183.5391147482431
 30
0.0
 10
158.9422631927036
 20
-183.5391147482431
 30
0.0
  0
SPLINE
  5
6D
330
5E
100
AcDbEntity
  8
Abat-jour
 62
     1
420
 16711680
370
     5
100
AcDbSpline
210
0.0
220
0.0
230
1.0
 70
    11
 71
     3
 72
    17
 73
    13
 74
     0
 42
0.0000000001
 43
0.0000000001
 12
1.0
 22
0.0
 32
0.0
 13
1.0
 23
0.0
 33
0.0
 40
0.0
 40
0.0
 40
0.0
 40
0.0
 40
1.0
 40
1.0
 40
1.0
 40
2.0
 40
2.0
 40
2.0
 40
3.0
 40
3.0
 40
3.0
 40
4.0
 40
4.0
 40
4.0
 40
4.0
 10
190.9104907104595
 20
-199.112031133239
 30
0.0
 10
190.1390715634734
 20
-199.112031133239
 30
0.0
 10
189.5137072869916
 20
-198.4866619667288
 30
0.0
 10
189.5137072869916
 20
-197.7152075224768
 30
0.0
 10
189.5137072869916
 20
-196.9437883560029
 30
0.0
 10
190.1390715634734
 20
-196.3183839117152
 30
0.0
 10
190.9104907104595
 20
-196.3183839117152
 30
0.0
 10
191.6819451352225
 20
-196.3183839117152
 30
0.0
 10
192.3073142859347
 20
-196.9437883560029
 30
0.0
 10
192.3073142859347
 20
-197.7152075224768
 30
0.0
 10
192.3073142859347
 20
-198.4866619667288
 30
0.0
 10
191.6819451352225
 20
-199.112031133239
 30
0.0
 10
190.9104907104595
 20
-199.112031133239
 30
0.0
  0
SPLINE
  5
6E
330
5E
100
AcDbEntity
  8
Abat-jour
 62
     1
420
 16711680
370
     5
100
AcDbSpline
210
0.0
220
0.0
230
1.0
 70
    11
 71
     3
 72
    17
 73
    13
 74
     0
 42
0.0000000001
 43
0.0000000001
 12
1.0
 22
0.0
 32
0.0
 13
1.0
 23
0.0
 33
0.0
 40
0.0
 40
0.0
 40
0.0
 40
0.0
 40
1.0
 40
1.0
 40
1.0
 40
2.0
 40
2.0
 40
2.0
 40
3.0
 40
3.0
 40
3.0
 40
4.0
 40
4.0
 40
4.0
 40
4.0
 10
181.6019906701613
 20
-147.6905072572054
 30
0.0
 10
180.8760798553475
 20
-147.6905072572054
 30
0.0
 10
180.2876112592495
 20
-147.1020386462411
 30
0.0
 10
180.2876112592495
 20
-146.376092535312
 30
0.0
 10
180.2876112592495
 20
-145.6501817021597
 30
0.0
 10
180.8760798553475
 20
-145.061713091196
 30
0.0
 10
181.6019906701613
 20
-145.061713091196
 30
0.0
 10
182.327936762752
 20
-145.061713091196
 30
0.0
 10
182.9164100664184
 20
-145.6501817021597
 30
0.0
 10
182.9164100664184
 20
-146.376092535312
 30
0.0
 10
182.9164100664184
 20
-147.1020386462411
 30
0.0
 10
182.327936762752
 20
-147.6905072572054
 30
0.0
 10
181.6019906701613
 20
-147.6905072572054
 30
0.0
  0
SPLINE
  5
6F
330
5E
100
AcDbEntity
  8
Abat-jour
 62
     1
420
 16711680
370
     5
100
AcDbSpline
210
0.0
220
0.0
230
1.0
 70
    11
 71
     3
 72
    17
 73
    13
 74
     0
 42
0.0000000001
 43
0.0000000001
 12
1.0
 22
0.0
 32
0.0
 13
1.0
 23
0.0
 33
0.0
 40
0.0
 40
0.0
 40
0.0
 40
0.0
 40
1.0
 40
1.0
 40
1.0
 40
2.0
 40
2.0
 40
2.0
 40
3.0
 40
3.0
 40
3.0
 40
4.0
 40
4.0
 40
4.0
 40
4.0
 10
184.1912736596588
 20
-177.7993497496784
 30
0.0
 10
183.3291906260968
 20
-177.7993497496784
 30
0.0
 10
182.6303072887116
 20
-177.1004616942973
 30
0.0
 10
182.6303072887116
 20
-176.2383786389573
 30
0.0
 10
182.6303072887116
 20
-175.3762603058398
 30
0.0
 10
183.3291906260968
 20
-174.6773722504587
 30
0.0
 10
184.1912736596588
 20
-174.6773722504587
 30
0.0
 10
185.0533919709976
 20
-174.6773722504587
 30
0.0
 10
185.7522800087231
 20
-175.3762603058398
 30
0.0
 10
185.7522800087231
 20
-176.2383786389573
 30
0.0
 10
185.7522800087231
 20
-177.1004616942973
 30
0.0
 10
185.0533919709976
 20
-177.7993497496784
 30
0.0
 10
184.1912736596588
 20
-177.7993497496784
 30
0.0
  0
SPLINE
  5
70
330
5E
100
AcDbEntity
  8
Abat-jour
 62
     1
420
 16711680
370
     5
100
AcDbSpline
210
0.0
220
0.0
230
1.0
 70
    11
 71
     3
 72
    17
 73
    13
 74
     0
 42
0.0000000001
 43
0.0000000001
 12
1.0
 22
0.0
 32
0.0
 13
1.0
 23
0.0
 33
0.0
 40
0.0
 40
0.0
 40
0.0
 40
0.0
 40
1.0
 40
1.0
 40
1.0
 40
2.0
 40
2.0
 40
2.0
 40
3.0
 40
3.0
 40
3.0
 40
4.0
 40
4.0
 40
4.0
 40
4.0
 10
187.8841160654465
 20
-197.3125469670223
 30
0.0
 10
187.3207299687086
 20
-197.3125469670223
 30
0.0
 10
186.864023869249
 20
-196.855840856025
 30
0.0
 10
186.864023869249
 20
-196.2924547450549
 30
0.0
 10
186.864023869249
 20
-195.7290686340847
 30
0.0
 10
187.3207299687086
 20
-195.2723625230874
 30
0.0
 10
187.8841160654465
 20
-195.2723625230874
 30
0.0
 10
188.4475021621844
 20
-195.2723625230874
 30
0.0
 10
188.904208261644
 20
-195.7290686340847
 30
0.0
 10
188.904208261644
 20
-196.2924547450549
 30
0.0
 10
188.904208261644
 20
-196.855840856025
 30
0.0
 10
188.4475021621844
 20
-197.3125469670223
 30
0.0
 10
187.8841160654465
 20
-197.3125469670223
 30
0.0
  0
SPLINE
  5
71
330
5E
100
AcDbEntity
  8
Abat-jour
 62
     1
420
 16711680
370
     5
100
AcDbSpline
210
0.0
220
0.0
230
1.0
 70
    11
 71
     3
 72
    17
 73
    13
 74
     0
 42
0.0000000001
 43
0.0000000001
 12
1.0
 22
0.0
 32
0.0
 13
1.0
 23
0.0
 33
0.0
 40
0.0
 40
0.0
 40
0.0
 40
0.0
 40
1.0
 40
1.0
 40
1.0
 40
2.0
 40
2.0
 40
2.0
 40
3.0
 40
3.0
 40
3.0
 40
4.0
 40
4.0
 40
4.0
 40
4.0
 10
177.4871202195849
 20
-207.1750847423345
 30
0.0
 10
176.5284113551547
 20
-207.1750847423345
 30
0.0
 10
175.7512066527606
 20
-206.3978800203063
 30
0.0
 10
175.7512066527606
 20
-205.4391358538796
 30
0.0
 10
175.7512066527606
 20
-204.4804269652304
 30
0.0
 10
176.5284113551547
 20
-203.7032222432023
 30
0.0
 10
177.4871202195849
 20
-203.7032222432023
 30
0.0
 10
178.4458643617919
 20
-203.7032222432023
 30
0.0
 10
179.223069064186
 20
-204.4804269652304
 30
0.0
 10
179.223069064186
 20
-205.4391358538796
 30
0.0
 10
179.223069064186
 20
-206.3978800203063
 30
0.0
 10
178.4458643617919
 20
-207.1750847423345
 30
0.0
 10
177.4871202195849
 20
-207.1750847423345
 30
0.0
  0
SPLINE
  5
72
330
5E
100
AcDbEntity
  8
Abat-jour
 62
     1
420
 16711680
370
     5
100
AcDbSpline
210
0.0
220
0.0
230
1.0
 70
    11
 71
     3
 72
    17
 73
    13
 74
     0
 42
0.0000000001
 43
0.0000000001
 12
1.0
 22
0.0
 32
0.0
 13
1.0
 23
0.0
 33
0.0
 40
0.0
 40
0.0
 40
0.0
 40
0.0
 40
1.0
 40
1.0
 40
1.0
 40
2.0
 40
2.0
 40
2.0
 40
3.0
 40
3.0
 40
3.0
 40
4.0
 40
4.0
 40
4.0
 40
4.0
 10
166.2730600705792
 20
-209.5931294639518
 30
0.0
 10
165.6023194116803
 20
-209.5931294639518
 30
0.0
 10
165.0585830366633
 20
-209.0493930751993
 30
0.0
 10
165.0585830366633
 20
-208.3786214087001
 30
0.0
 10
165.0585830366633
 20
-207.707885019979
 30
0.0
 10
165.6023194116803
 20
-207.1641486312258
 30
0.0
 10
166.2730600705792
 20
-207.1641486312258
 30
0.0
 10
166.9438274330111
 20
-207.1641486312258
 30
0.0
 10
167.4875638080281
 20
-207.707885019979
 30
0.0
 10
167.4875638080281
 20
-208.3786214087001
 30
0.0
 10
167.4875638080281
 20
-209.0493930751993
 30
0.0
 10
166.9438274330111
 20
-209.5931294639518
 30
0.0
 10
166.2730600705792
 20
-209.5931294639518
 30
0.0
  0
SPLINE
  5
73
330
5E
100
AcDbEntity
  8
Abat-jour
 62
     1
420
 16711680
370
     5
100
AcDbSpline
210
0.0
220
0.0
230
1.0
 70
    11
 71
     3
 72
    17
 73
    13
 74
     0
 42
0.0000000001
 43
0.0000000001
 12
1.0
 22
0.0
 32
0.0
 13
1.0
 23
0.0
 33
0.0
 40
0.0
 40
0.0
 40
0.0
 40
0.0
 40
1.0
 40
1.0
 40
1.0
 40
2.0
 40
2.0
 40
2.0
 40
3.0
 40
3.0
 40
3.0
 40
4.0
 40
4.0
 40
4.0
 40
4.0
 10
170.4740040096155
 20
-221.5829877942881
 30
0.0
 10
169.7527145835727
 20
-221.5829877942881
 30
0.0
 10
169.1679854318237
 20
-220.9982586277672
 30
0.0
 10
169.1679854318237
 20
-220.2769691835033
 30
0.0
 10
169.1679854318237
 20
-219.5556797392388
 30
0.0
 10
169.7527145835727
 20
-218.9709858504961
 30
0.0
 10
170.4740040096155
 20
-218.9709858504961
 30
0.0
 10
171.1952934356583
 20
-218.9709858504961
 30
0.0
 10
171.7799873096304
 20
-219.5556797392388
 30
0.0
 10
171.7799873096304
 20
-220.2769691835033
 30
0.0
 10
171.7799873096304
 20
-220.9982586277672
 30
0.0
 10
171.1952934356583
 20
-221.5829877942881
 30
0.0
 10
170.4740040096155
 20
-221.5829877942881
 30
0.0
  0
SPLINE
  5
74
330
5E
100
AcDbEntity
  8
Abat-jour
 62
     1
420
 16711680
370
     5
100
AcDbSpline
210
0.0
220
0.0
230
1.0
 70
    11
 71
     3
 72
    17
 73
    13
 74
     0
 42
0.0000000001
 43
0.0000000001
 12
1.0
 22
0.0
 32
0.0
 13
1.0
 23
0.0
 33
0.0
 40
0.0
 40
0.0
 40
0.0
 40
0.0
 40
1.0
 40
1.0
 40
1.0
 40
2.0
 40
2.0
 40
2.0
 40
3.0
 40
3.0
 40
3.0
 40
4.0
 40
4.0
 40
4.0
 40
4.0
 10
161.6930478447474
 20
-207.2216161312112
 30
0.0
 10
160.7232970361545
 20
-207.2216161312112
 30
0.0
 10
159.9371317784335
 20
-206.4354861314077
 30
0.0
 10
159.9371317784335
 20
-205.4657352983173
 30
0.0
 10
159.9371317784335
 20
-204.4959844652262
 30
0.0
 10
160.7232970361545
 20
-203.7098544654228
 30
0.0
 10
161.6930478447474
 20
-203.7098544654228
 30
0.0
 10
162.6627986533404
 20
-203.7098544654228
 30
0.0
 10
163.4489286332845
 20
-204.4959844652262
 30
0.0
 10
163.4489286332845
 20
-205.4657352983173
 30
0.0
 10
163.4489286332845
 20
-206.4354861314077
 30
0.0
 10
162.6627986533404
 20
-207.2216161312112
 30
0.0
 10
161.6930478447474
 20
-207.2216161312112
 30
0.0
  0
SPLINE
  5
75
330
5E
100
AcDbEntity
  8
Abat-jour
 62
     1
420
 16711680
370
     5
100
AcDbSpline
210
0.0
220
0.0
230
1.0
 70
    11
 71
     3
 72
    17
 73
    13
 74
     0
 42
0.0000000001
 43
0.0000000001
 12
1.0
 22
0.0
 32
0.0
 13
1.0
 23
0.0
 33
0.0
 40
0.0
 40
0.0
 40
0.0
 40
0.0
 40
1.0
 40
1.0
 40
1.0
 40
2.0
 40
2.0
 40
2.0
 40
3.0
 40
3.0
 40
3.0
 40
4.0
 40
4.0
 40
4.0
 40
4.0
 10
156.36197603631
 20
-154.5800808665943
 30
0.0
 10
155.6129582776412
 20
-154.5800808665943
 30
0.0
 10
155.005792459798
 20
-153.972879755635
 30
0.0
 10
155.005792459798
 20
-153.2238619780445
 30
0.0
 10
155.005792459798
 20
-152.4748794782315
 30
0.0
 10
155.6129582776412
 20
-151.8676783672722
 30
0.0
 10
156.36197603631
 20
-151.8676783672722
 30
0.0
 10
157.1109937949787
 20
-151.8676783672722
 30
0.0
 10
157.7181596128219
 20
-152.4748794782315
 30
0.0
 10
157.7181596128219
 20
-153.2238619780445
 30
0.0
 10
157.7181596128219
 20
-153.972879755635
 30
0.0
 10
157.1109937949787
 20
-154.5800808665943
 30
0.0
 10
156.36197603631
 20
-154.5800808665943
 30
0.0
  0
SPLINE
  5
76
330
5E
100
AcDbEntity
  8
Abat-jour
 62
     1
420
 16711680
370
     5
100
AcDbSpline
210
0.0
220
0.0
230
1.0
 70
    11
 71
     3
 72
    17
 73
    13
 74
     0
 42
0.0000000001
 43
0.0000000001
 12
1.0
 22
0.0
 32
0.0
 13
1.0
 23
0.0
 33
0.0
 40
0.0
 40
0.0
 40
0.0
 40
0.0
 40
1.0
 40
1.0
 40
1.0
 40
2.0
 40
2.0
 40
2.0
 40
3.0
 40
3.0
 40
3.0
 40
4.0
 40
4.0
 40
4.0
 40
4.0
 10
148.858957338839
 20
-183.7591775259657
 30
0.0
 10
148.2005329111924
 20
-183.7591775259657
 30
0.0
 10
147.6667801470318
 20
-183.2254247483217
 30
0.0
 10
147.6667801470318
 20
-182.5670003040416
 30
0.0
 10
147.6667801470318
 20
-181.9085758597621
 30
0.0
 10
148.2005329111924
 20
-181.3747878043399
 30
0.0
 10
148.858957338839
 20
-181.3747878043399
 30
0.0
 10
149.5173817664857
 20
-181.3747878043399
 30
0.0
 10
150.0511698084232
 20
-181.9085758597621
 30
0.0
 10
150.0511698084232
 20
-182.5670003040416
 30
0.0
 10
150.0511698084232
 20
-183.2254247483217
 30
0.0
 10
149.5173817664857
 20
-183.7591775259657
 30
0.0
 10
148.858957338839
 20
-183.7591775259657
 30
0.0
  0
SPLINE
  5
77
330
5E
100
AcDbEntity
  8
Abat-jour
 62
     1
420
 16711680
370
     5
100
AcDbSpline
210
0.0
220
0.0
230
1.0
 70
    11
 71
     3
 72
    17
 73
    13
 74
     0
 42
0.0000000001
 43
0.0000000001
 12
1.0
 22
0.0
 32
0.0
 13
1.0
 23
0.0
 33
0.0
 40
0.0
 40
0.0
 40
0.0
 40
0.0
 40
1.0
 40
1.0
 40
1.0
 40
2.0
 40
2.0
 40
2.0
 40
3.0
 40
3.0
 40
3.0
 40
4.0
 40
4.0
 40
4.0
 40
4.0
 10
158.1610368237454
 20
-210.1234955749302
 30
0.0
 10
157.5292823954184
 20
-210.1234955749302
 30
0.0
 10
157.0171549084839
 20
-209.6113680750584
 30
0.0
 10
157.0171549084839
 20
-208.9796489085498
 30
0.0
 10
157.0171549084839
 20
-208.3478944642631
 30
0.0
 10
157.5292823954184
 20
-207.8357669643912
 30
0.0
 10
158.1610368237454
 20
-207.8357669643912
 30
0.0
 10
158.7927600724488
 20
-207.8357669643912
 30
0.0
 10
159.304918739007
 20
-208.3478944642631
 30
0.0
 10
159.304918739007
 20
-208.9796489085498
 30
0.0
 10
159.304918739007
 20
-209.6113680750584
 30
0.0
 10
158.7927600724488
 20
-210.1234955749302
 30
0.0
 10
158.1610368237454
 20
-210.1234955749302
 30
0.0
  0
SPLINE
  5
78
330
5E
100
AcDbEntity
  8
Abat-jour
 62
     1
420
 16711680
370
     5
100
AcDbSpline
210
0.0
220
0.0
230
1.0
 70
    11
 71
     3
 72
    17
 73
    13
 74
     0
 42
0.0000000001
 43
0.0000000001
 12
1.0
 22
0.0
 32
0.0
 13
1.0
 23
0.0
 33
0.0
 40
0.0
 40
0.0
 40
0.0
 40
0.0
 40
1.0
 40
1.0
 40
1.0
 40
2.0
 40
2.0
 40
2.0
 40
3.0
 40
3.0
 40
3.0
 40
4.0
 40
4.0
 40
4.0
 40
4.0
 10
181.1286687377923
 20
-171.2308039179869
 30
0.0
 10
180.4217373669388
 20
-171.2308039179869
 30
0.0
 10
179.8486545116298
 20
-170.6577164181303
 30
0.0
 10
179.8486545116298
 20
-169.95074975164
 30
0.0
 10
179.8486545116298
 20
-169.243818362928
 30
0.0
 10
180.4217373669388
 20
-168.6707308630713
 30
0.0
 10
181.1286687377923
 20
-168.6707308630713
 30
0.0
 10
181.8356353864228
 20
-168.6707308630713
 30
0.0
 10
182.4087228718021
 20
-169.243818362928
 30
0.0
 10
182.4087228718021
 20
-169.95074975164
 30
0.0
 10
182.4087228718021
 20
-170.6577164181303
 30
0.0
 10
181.8356353864228
 20
-171.2308039179869
 30
0.0
 10
181.1286687377923
 20
-171.2308039179869
 30
0.0
  0
SPLINE
  5
79
330
5E
100
AcDbEntity
  8
Abat-jour
 62
     1
420
 16711680
370
     5
100
AcDbSpline
210
0.0
220
0.0
230
1.0
 70
    11
 71
     3
 72
    17
 73
    13
 74
     0
 42
0.0000000001
 43
0.0000000001
 12
1.0
 22
0.0
 32
0.0
 13
1.0
 23
0.0
 33
0.0
 40
0.0
 40
0.0
 40
0.0
 40
0.0
 40
1.0
 40
1.0
 40
1.0
 40
2.0
 40
2.0
 40
2.0
 40
3.0
 40
3.0
 40
3.0
 40
4.0
 40
4.0
 40
4.0
 40
4.0
 10
151.9381075380611
 20
-178.6112678050308
 30
0.0
 10
151.0145706171781
 20
-178.6112678050308
 30
0.0
 10
150.2658703585012
 20
-177.8625675274399
 30
0.0
 10
150.2658703585012
 20
-176.9390305832266
 30
0.0
 10
150.2658703585012
 20
-176.0154936390133
 30
0.0
 10
151.0145706171781
 20
-175.2667933614224
 30
0.0
 10
151.9381075380611
 20
-175.2667933614224
 30
0.0
 10
152.8616797367211
 20
-175.2667933614224
 30
0.0
 10
153.610344717621
 20
-176.0154936390133
 30
0.0
 10
153.610344717621
 20
-176.9390305832266
 30
0.0
 10
153.610344717621
 20
-177.8625675274399
 30
0.0
 10
152.8616797367211
 20
-178.6112678050308
 30
0.0
 10
151.9381075380611
 20
-178.6112678050308
 30
0.0
  0
SPLINE
  5
7A
330
5E
100
AcDbEntity
  8
Abat-jour
 62
     1
420
 16711680
370
     5
100
AcDbSpline
210
0.0
220
0.0
230
1.0
 70
    11
 71
     3
 72
    17
 73
    13
 74
     0
 42
0.0000000001
 43
0.0000000001
 12
1.0
 22
0.0
 32
0.0
 13
1.0
 23
0.0
 33
0.0
 40
0.0
 40
0.0
 40
0.0
 40
0.0
 40
1.0
 40
1.0
 40
1.0
 40
2.0
 40
2.0
 40
2.0
 40
3.0
 40
3.0
 40
3.0
 40
4.0
 40
4.0
 40
4.0
 40
4.0
 10
185.7522800087231
 20
-182.3896941929748
 30
0.0
 10
184.9151030856368
 20
-182.3896941929748
 30
0.0
 10
184.2364292140623
 20
-181.7110203042561
 30
0.0
 10
184.2364292140623
 20
-180.8738433600207
 30
0.0
 10
184.2364292140623
 20
-180.0366664157853
 30
0.0
 10
184.9151030856368
 20
-179.3579925270665
 30
0.0
 10
185.7522800087231
 20
-179.3579925270665
 30
0.0
 10
186.5894569318093
 20
-179.3579925270665
 30
0.0
 10
187.2681308033838
 20
-180.0366664157853
 30
0.0
 10
187.2681308033838
 20
-180.8738433600207
 30
0.0
 10
187.2681308033838
 20
-181.7110203042561
 30
0.0
 10
186.5894569318093
 20
-182.3896941929748
 30
0.0
 10
185.7522800087231
 20
-182.3896941929748
 30
0.0
  0
SPLINE
  5
7B
330
5E
100
AcDbEntity
  8
Abat-jour
 62
     1
420
 16711680
370
     5
100
AcDbSpline
210
0.0
220
0.0
230
1.0
 70
    11
 71
     3
 72
    17
 73
    13
 74
     0
 42
0.0000000001
 43
0.0000000001
 12
1.0
 22
0.0
 32
0.0
 13
1.0
 23
0.0
 33
0.0
 40
0.0
 40
0.0
 40
0.0
 40
0.0
 40
1.0
 40
1.0
 40
1.0
 40
2.0
 40
2.0
 40
2.0
 40
3.0
 40
3.0
 40
3.0
 40
4.0
 40
4.0
 40
4.0
 40
4.0
 10
153.9298908205799
 20
-187.1670461362251
 30
0.0
 10
153.2600363932248
 20
-187.1670461362251
 30
0.0
 10
152.7170055737454
 20
-186.6240153030274
 30
0.0
 10
152.7170055737454
 20
-185.9541608587508
 30
0.0
 10
152.7170055737454
 20
-185.2843064144735
 30
0.0
 10
153.2600363932248
 20
-184.7412755812758
 30
0.0
 10
153.9298908205799
 20
-184.7412755812758
 30
0.0
 10
154.5997452479349
 20
-184.7412755812758
 30
0.0
 10
155.1427760674144
 20
-185.2843064144735
 30
0.0
 10
155.1427760674144
 20
-185.9541608587508
 30
0.0
 10
155.1427760674144
 20
-186.6240153030274
 30
0.0
 10
154.5997452479349
 20
-187.1670461362251
 30
0.0
 10
153.9298908205799
 20
-187.1670461362251
 30
0.0
  0
SPLINE
  5
7C
330
5E
100
AcDbEntity
  8
Abat-jour
 62
     1
420
 16711680
370
     5
100
AcDbSpline
210
0.0
220
0.0
230
1.0
 70
    11
 71
     3
 72
    17
 73
    13
 74
     0
 42
0.0000000001
 43
0.0000000001
 12
1.0
 22
0.0
 32
0.0
 13
1.0
 23
0.0
 33
0.0
 40
0.0
 40
0.0
 40
0.0
 40
0.0
 40
1.0
 40
1.0
 40
1.0
 40
2.0
 40
2.0
 40
2.0
 40
3.0
 40
3.0
 40
3.0
 40
4.0
 40
4.0
 40
4.0
 40
4.0
 10
163.3580178022705
 20
-176.2846630833901
 30
0.0
 10
162.7958664277233
 20
-176.2846630833901
 30
0.0
 10
162.3401481060163
 20
-175.828944750171
 30
0.0
 10
162.3401481060163
 20
-175.2667933614224
 30
0.0
 10
162.3401481060163
 20
-174.7046419726744
 30
0.0
 10
162.7958664277233
 20
-174.2489236394546
 30
0.0
 10
163.3580178022705
 20
-174.2489236394546
 30
0.0
 10
163.9201691768177
 20
-174.2489236394546
 30
0.0
 10
164.3758874985247
 20
-174.7046419726744
 30
0.0
 10
164.3758874985247
 20
-175.2667933614224
 30
0.0
 10
164.3758874985247
 20
-175.828944750171
 30
0.0
 10
163.9201691768177
 20
-176.2846630833901
 30
0.0
 10
163.3580178022705
 20
-176.2846630833901
 30
0.0
  0
SPLINE
  5
7D
330
5E
100
AcDbEntity
  8
Abat-jour
 62
     1
420
 16711680
370
     5
100
AcDbSpline
210
0.0
220
0.0
230
1.0
 70
    11
 71
     3
 72
    17
 73
    13
 74
     0
 42
0.0000000001
 43
0.0000000001
 12
1.0
 22
0.0
 32
0.0
 13
1.0
 23
0.0
 33
0.0
 40
0.0
 40
0.0
 40
0.0
 40
0.0
 40
1.0
 40
1.0
 40
1.0
 40
2.0
 40
2.0
 40
2.0
 40
3.0
 40
3.0
 40
3.0
 40
4.0
 40
4.0
 40
4.0
 40
4.0
 10
147.4339115418616
 20
-167.7475819744133
 30
0.0
 10
146.7423260039499
 20
-167.7475819744133
 30
0.0
 10
146.1816915738085
 20
-167.1869122523314
 30
0.0
 10
146.1816915738085
 20
-166.4953266969487
 30
0.0
 10
146.1816915738085
 20
-165.8037411415661
 30
0.0
 10
146.7423260039499
 20
-165.2431066972617
 30
0.0
 10
147.4339115418616
 20
-165.2431066972617
 30
0.0
 10
148.1254970797734
 20
-165.2431066972617
 30
0.0
 10
148.6861315099148
 20
-165.8037411415661
 30
0.0
 10
148.6861315099148
 20
-166.4953266969487
 30
0.0
 10
148.6861315099148
 20
-167.1869122523314
 30
0.0
 10
148.1254970797734
 20
-167.7475819744133
 30
0.0
 10
147.4339115418616
 20
-167.7475819744133
 30
0.0
  0
SPLINE
  5
7E
330
5E
100
AcDbEntity
  8
Abat-jour
 62
     1
420
 16711680
370
     5
100
AcDbSpline
210
0.0
220
0.0
230
1.0
 70
    11
 71
     3
 72
    17
 73
    13
 74
     0
 42
0.0000000001
 43
0.0000000001
 12
1.0
 22
0.0
 32
0.0
 13
1.0
 23
0.0
 33
0.0
 40
0.0
 40
0.0
 40
0.0
 40
0.0
 40
1.0
 40
1.0
 40
1.0
 40
2.0
 40
2.0
 40
2.0
 40
3.0
 40
3.0
 40
3.0
 40
4.0
 40
4.0
 40
4.0
 40
4.0
 10
182.2240084320701
 20
-203.7647819654088
 30
0.0
 10
181.4859620620103
 20
-203.7647819654088
 30
0.0
 10
180.8876862439403
 20
-203.1665061322255
 30
0.0
 10
180.8876862439403
 20
-202.4284597435212
 30
0.0
 10
180.8876862439403
 20
-201.6904486325944
 30
0.0
 10
181.4859620620103
 20
-201.0921727994104
 30
0.0
 10
182.2240084320701
 20
-201.0921727994104
 30
0.0
 10
182.962019524353
 20
-201.0921727994104
 30
0.0
 10
183.5603306201999
 20
-201.6904486325944
 30
0.0
 10
183.5603306201999
 20
-202.4284597435212
 30
0.0
 10
183.5603306201999
 20
-203.1665061322255
 30
0.0
 10
182.962019524353
 20
-203.7647819654088
 30
0.0
 10
182.2240084320701
 20
-203.7647819654088
 30
0.0
  0
SPLINE
  5
7F
330
5E
100
AcDbEntity
  8
Abat-jour
 62
     1
420
 16711680
370
     5
100
AcDbSpline
210
0.0
220
0.0
230
1.0
 70
    11
 71
     3
 72
    17
 73
    13
 74
     0
 42
0.0000000001
 43
0.0000000001
 12
1.0
 22
0.0
 32
0.0
 13
1.0
 23
0.0
 33
0.0
 40
0.0
 40
0.0
 40
0.0
 40
0.0
 40
1.0
 40
1.0
 40
1.0
 40
2.0
 40
2.0
 40
2.0
 40
3.0
 40
3.0
 40
3.0
 40
4.0
 40
4.0
 40
4.0
 40
4.0
 10
172.2996642408168
 20
-166.6010541969221
 30
0.0
 10
171.7278820331819
 20
-166.6010541969221
 30
0.0
 10
171.2643673227849
 20
-166.1375394748161
 30
0.0
 10
171.2643673227849
 20
-165.5657572527366
 30
0.0
 10
171.2643673227849
 20
-164.9940103084353
 30
0.0
 10
171.7278820331819
 20
-164.5304955863286
 30
0.0
 10
172.2996642408168
 20
-164.5304955863286
 30
0.0
 10
172.8714464484516
 20
-164.5304955863286
 30
0.0
 10
173.3349656243693
 20
-164.9940103084353
 30
0.0
 10
173.3349656243693
 20
-165.5657572527366
 30
0.0
 10
173.3349656243693
 20
-166.1375394748161
 30
0.0
 10
172.8714464484516
 20
-166.6010541969221
 30
0.0
 10
172.2996642408168
 20
-166.6010541969221
 30
0.0
  0
SPLINE
  5
80
330
5E
100
AcDbEntity
  8
Abat-jour
 62
     1
420
 16711680
370
     5
100
AcDbSpline
210
0.0
220
0.0
230
1.0
 70
    11
 71
     3
 72
    17
 73
    13
 74
     0
 42
0.0000000001
 43
0.0000000001
 12
1.0
 22
0.0
 32
0.0
 13
1.0
 23
0.0
 33
0.0
 40
0.0
 40
0.0
 40
0.0
 40
0.0
 40
1.0
 40
1.0
 40
1.0
 40
2.0
 40
2.0
 40
2.0
 40
3.0
 40
3.0
 40
3.0
 40
4.0
 40
4.0
 40
4.0
 40
4.0
 10
172.0660239580193
 20
-148.9084372569009
 30
0.0
 10
171.1611798254175
 20
-148.9084372569009
 30
0.0
 10
170.4276137330212
 20
-148.1749064237512
 30
0.0
 10
170.4276137330212
 20
-147.2700314239772
 30
0.0
 10
170.4276137330212
 20
-146.3651564242033
 30
0.0
 10
171.1611798254175
 20
-145.6315903132754
 30
0.0
 10
172.0660239580193
 20
-145.6315903132754
 30
0.0
 10
172.9708989577939
 20
-145.6315903132754
 30
0.0
 10
173.7044605938663
 20
-146.3651564242033
 30
0.0
 10
173.7044605938663
 20
-147.2700314239772
 30
0.0
 10
173.7044605938663
 20
-148.1749064237512
 30
0.0
 10
172.9708989577939
 20
-148.9084372569009
 30
0.0
 10
172.0660239580193
 20
-148.9084372569009
 30
0.0
  0
SPLINE
  5
81
330
5E
100
AcDbEntity
  8
Abat-jour
 62
     1
420
 16711680
370
     5
100
AcDbSpline
210
0.0
220
0.0
230
1.0
 70
    11
 71
     3
 72
    17
 73
    13
 74
     0
 42
0.0000000001
 43
0.0000000001
 12
1.0
 22
0.0
 32
0.0
 13
1.0
 23
0.0
 33
0.0
 40
0.0
 40
0.0
 40
0.0
 40
0.0
 40
1.0
 40
1.0
 40
1.0
 40
2.0
 40
2.0
 40
2.0
 40
3.0
 40
3.0
 40
3.0
 40
4.0
 40
4.0
 40
4.0
 40
4.0
 10
136.3614168243445
 20
-174.2426089172337
 30
0.0
 10
135.8023698941626
 20
-174.2426089172337
 30
0.0
 10
135.3491915723908
 20
-173.789430584014
 30
0.0
 10
135.3491915723908
 20
-173.2303836397095
 30
0.0
 10
135.3491915723908
 20
-172.6713366954044
 30
0.0
 10
135.8023698941626
 20
-172.2181230844066
 30
0.0
 10
136.3614168243445
 20
-172.2181230844066
 30
0.0
 10
136.9204637545265
 20
-172.2181230844066
 30
0.0
 10
137.3736773540752
 20
-172.6713366954044
 30
0.0
 10
137.3736773540752
 20
-173.2303836397095
 30
0.0
 10
137.3736773540752
 20
-173.789430584014
 30
0.0
 10
136.9204637545265
 20
-174.2426089172337
 30
0.0
 10
136.3614168243445
 20
-174.2426089172337
 30
0.0
  0
SPLINE
  5
82
330
5E
100
AcDbEntity
  8
Abat-jour
 62
     1
420
 16711680
370
     5
100
AcDbSpline
210
0.0
220
0.0
230
1.0
 70
    11
 71
     3
 72
    17
 73
    13
 74
     0
 42
0.0000000001
 43
0.0000000001
 12
1.0
 22
0.0
 32
0.0
 13
1.0
 23
0.0
 33
0.0
 40
0.0
 40
0.0
 40
0.0
 40
0.0
 40
1.0
 40
1.0
 40
1.0
 40
2.0
 40
2.0
 40
2.0
 40
3.0
 40
3.0
 40
3.0
 40
4.0
 40
4.0
 40
4.0
 40
4.0
 10
172.4353072929118
 20
-161.782603642571
 30
0.0
 10
171.749507310408
 20
-161.782603642571
 30
0.0
 10
171.1935295468144
 20
-161.22666114271
 30
0.0
 10
171.1935295468144
 20
-160.5408258651041
 30
0.0
 10
171.1935295468144
 20
-159.8550258652751
 30
0.0
 10
171.749507310408
 20
-159.2990480876366
 30
0.0
 10
172.4353072929118
 20
-159.2990480876366
 30
0.0
 10
173.1211425531924
 20
-159.2990480876366
 30
0.0
 10
173.6770850390092
 20
-159.8550258652751
 30
0.0
 10
173.6770850390092
 20
-160.5408258651041
 30
0.0
 10
173.6770850390092
 20
-161.22666114271
 30
0.0
 10
173.1211425531924
 20
-161.782603642571
 30
0.0
 10
172.4353072929118
 20
-161.782603642571
 30
0.0
  0
SPLINE
  5
83
330
5E
100
AcDbEntity
  8
Abat-jour
 62
     1
420
 16711680
370
     5
100
AcDbSpline
210
0.0
220
0.0
230
1.0
 70
    11
 71
     3
 72
    17
 73
    13
 74
     0
 42
0.0000000001
 43
0.0000000001
 12
1.0
 22
0.0
 32
0.0
 13
1.0
 23
0.0
 33
0.0
 40
0.0
 40
0.0
 40
0.0
 40
0.0
 40
1.0
 40
1.0
 40
1.0
 40
2.0
 40
2.0
 40
2.0
 40
3.0
 40
3.0
 40
3.0
 40
4.0
 40
4.0
 40
4.0
 40
4.0
 10
146.4703343442223
 20
-205.5395011316322
 30
0.0
 10
145.9464240798106
 20
-205.5395011316322
 30
0.0
 10
145.5217149239792
 20
-205.1147919650716
 30
0.0
 10
145.5217149239792
 20
-204.5908816874248
 30
0.0
 10
145.5217149239792
 20
-204.0669714097781
 30
0.0
 10
145.9464240798106
 20
-203.6422269654399
 30
0.0
 10
146.4703343442223
 20
-203.6422269654399
 30
0.0
 10
146.994244608634
 20
-203.6422269654399
 30
0.0
 10
147.4189537644655
 20
-204.0669714097781
 30
0.0
 10
147.4189537644655
 20
-204.5908816874248
 30
0.0
 10
147.4189537644655
 20
-205.1147919650716
 30
0.0
 10
146.994244608634
 20
-205.5395011316322
 30
0.0
 10
146.4703343442223
 20
-205.5395011316322
 30
0.0
  0
SPLINE
  5
84
330
5E
100
AcDbEntity
  8
Abat-jour
 62
     1
420
 16711680
370
     5
100
AcDbSpline
210
0.0
220
0.0
230
1.0
 70
    11
 71
     3
 72
    17
 73
    13
 74
     0
 42
0.0000000001
 43
0.0000000001
 12
1.0
 22
0.0
 32
0.0
 13
1.0
 23
0.0
 33
0.0
 40
0.0
 40
0.0
 40
0.0
 40
0.0
 40
1.0
 40
1.0
 40
1.0
 40
2.0
 40
2.0
 40
2.0
 40
3.0
 40
3.0
 40
3.0
 40
4.0
 40
4.0
 40
4.0
 40
4.0
 10
167.552827695252
 20
-202.900864465625
 30
0.0
 10
166.8188382695332
 20
-202.900864465625
 30
0.0
 10
166.2238432847128
 20
-202.3058694657734
 30
0.0
 10
166.2238432847128
 20
-201.5719152992903
 30
0.0
 10
166.2238432847128
 20
-200.8379258550295
 30
0.0
 10
166.8188382695332
 20
-200.2429308551786
 30
0.0
 10
167.552827695252
 20
-200.2429308551786
 30
0.0
 10
168.2867818431939
 20
-200.2429308551786
 30
0.0
 10
168.8817768280144
 20
-200.8379258550295
 30
0.0
 10
168.8817768280144
 20
-201.5719152992903
 30
0.0
 10
168.8817768280144
 20
-202.3058694657734
 30
0.0
 10
168.2867818431939
 20
-202.900864465625
 30
0.0
 10
167.552827695252
 20
-202.900864465625
 30
0.0
  0
SPLINE
  5
85
330
5E
100
AcDbEntity
  8
Abat-jour
 62
     1
420
 16711680
370
     5
100
AcDbSpline
210
0.0
220
0.0
230
1.0
 70
    11
 71
     3
 72
    17
 73
    13
 74
     0
 42
0.0000000001
 43
0.0000000001
 12
1.0
 22
0.0
 32
0.0
 13
1.0
 23
0.0
 33
0.0
 40
0.0
 40
0.0
 40
0.0
 40
0.0
 40
1.0
 40
1.0
 40
1.0
 40
2.0
 40
2.0
 40
2.0
 40
3.0
 40
3.0
 40
3.0
 40
4.0
 40
4.0
 40
4.0
 40
4.0
 10
179.2621568409666
 20
-250.9035483425129
 30
0.0
 10
178.7654457425276
 20
-250.9035483425129
 30
0.0
 10
178.3627545120014
 20
-250.5008525092803
 30
0.0
 10
178.3627545120014
 20
-250.0041413982936
 30
0.0
 10
178.3627545120014
 20
-249.5074302873069
 30
0.0
 10
178.7654457425276
 20
-249.1047697318518
 30
0.0
 10
179.2621568409666
 20
-249.1047697318518
 30
0.0
 10
179.7588679394055
 20
-249.1047697318518
 30
0.0
 10
180.1615284846883
 20
-249.5074302873069
 30
0.0
 10
180.1615284846883
 20
-250.0041413982936
 30
0.0
 10
180.1615284846883
 20
-250.5008525092803
 30
0.0
 10
179.7588679394055
 20
-250.9035483425129
 30
0.0
 10
179.2621568409666
 20
-250.9035483425129
 30
0.0
  0
SPLINE
  5
86
330
5E
100
AcDbEntity
  8
Abat-jour
 62
     1
420
 16711680
370
     5
100
AcDbSpline
210
0.0
220
0.0
230
1.0
 70
    11
 71
     3
 72
    17
 73
    13
 74
     0
 42
0.0000000001
 43
0.0000000001
 12
1.0
 22
0.0
 32
0.0
 13
1.0
 23
0.0
 33
0.0
 40
0.0
 40
0.0
 40
0.0
 40
0.0
 40
1.0
 40
1.0
 40
1.0
 40
2.0
 40
2.0
 40
2.0
 40
3.0
 40
3.0
 40
3.0
 40
4.0
 40
4.0
 40
4.0
 40
4.0
 10
165.0076772046286
 20
-199.3502972442905
 30
0.0
 10
164.4144461086521
 20
-199.3502972442905
 30
0.0
 10
163.9335394542544
 20
-198.869355299966
 30
0.0
 10
163.9335394542544
 20
-198.2761241890032
 30
0.0
 10
163.9335394542544
 20
-197.6828930780405
 30
0.0
 10
164.4144461086521
 20
-197.2019864114941
 30
0.0
 10
165.0076772046286
 20
-197.2019864114941
 30
0.0
 10
165.6009083006052
 20
-197.2019864114941
 30
0.0
 10
166.0818149550029
 20
-197.6828930780405
 30
0.0
 10
166.0818149550029
 20
-198.2761241890032
 30
0.0
 10
166.0818149550029
 20
-198.869355299966
 30
0.0
 10
165.6009083006052
 20
-199.3502972442905
 30
0.0
 10
165.0076772046286
 20
-199.3502972442905
 30
0.0
  0
SPLINE
  5
87
330
5E
100
AcDbEntity
  8
Abat-jour
 62
     1
420
 16711680
370
     5
100
AcDbSpline
210
0.0
220
0.0
230
1.0
 70
    11
 71
     3
 72
    17
 73
    13
 74
     0
 42
0.0000000001
 43
0.0000000001
 12
1.0
 22
0.0
 32
0.0
 13
1.0
 23
0.0
 33
0.0
 40
0.0
 40
0.0
 40
0.0
 40
0.0
 40
1.0
 40
1.0
 40
1.0
 40
2.0
 40
2.0
 40
2.0
 40
3.0
 40
3.0
 40
3.0
 40
4.0
 40
4.0
 40
4.0
 40
4.0
 10
180.6930940266826
 20
-132.4658530943452
 30
0.0
 10
180.0424659877259
 20
-132.4658530943452
 30
0.0
 10
179.5149926678495
 20
-131.9384150389214
 30
0.0
 10
179.5149926678495
 20
-131.2877517057501
 30
0.0
 10
179.5149926678495
 20
-130.6371236503577
 30
0.0
 10
180.0424659877259
 20
-130.1096503171564
 30
0.0
 10
180.6930940266826
 20
-130.1096503171564
 30
0.0
 10
181.3437573434161
 20
-130.1096503171564
 30
0.0
 10
181.8711953855156
 20
-130.6371236503577
 30
0.0
 10
181.8711953855156
 20
-131.2877517057501
 30
0.0
 10
181.8711953855156
 20
-131.9384150389214
 30
0.0
 10
181.3437573434161
 20
-132.4658530943452
 30
0.0
 10
180.6930940266826
 20
-132.4658530943452
 30
0.0
  0
SPLINE
  5
88
330
5E
100
AcDbEntity
  8
Abat-jour
 62
     1
420
 16711680
370
     5
100
AcDbSpline
210
0.0
220
0.0
230
1.0
 70
    11
 71
     3
 72
    17
 73
    13
 74
     0
 42
0.0000000001
 43
0.0000000001
 12
1.0
 22
0.0
 32
0.0
 13
1.0
 23
0.0
 33
0.0
 40
0.0
 40
0.0
 40
0.0
 40
0.0
 40
1.0
 40
1.0
 40
1.0
 40
2.0
 40
2.0
 40
2.0
 40
3.0
 40
3.0
 40
3.0
 40
4.0
 40
4.0
 40
4.0
 40
4.0
 10
129.9636155986771
 20
-183.6978294704255
 30
0.0
 10
129.3390578368331
 20
-183.6978294704255
 30
0.0
 10
128.8327545243834
 20
-183.1915228038855
 30
0.0
 10
128.8327545243834
 20
-182.5670003040416
 30
0.0
 10
128.8327545243834
 20
-181.9424425264201
 30
0.0
 10
129.3390578368331
 20
-181.4361358598801
 30
0.0
 10
129.9636155986771
 20
-181.4361358598801
 30
0.0
 10
130.5881767461663
 20
-181.4361358598801
 30
0.0
 10
131.094444736494
 20
-181.9424425264201
 30
0.0
 10
131.094444736494
 20
-182.5670003040416
 30
0.0
 10
131.094444736494
 20
-183.1915228038855
 30
0.0
 10
130.5881767461663
 20
-183.6978294704255
 30
0.0
 10
129.9636155986771
 20
-183.6978294704255
 30
0.0
  0
SPLINE
  5
89
330
5E
100
AcDbEntity
  8
Abat-jour
 62
     1
420
 16711680
370
     5
100
AcDbSpline
210
0.0
220
0.0
230
1.0
 70
    11
 71
     3
 72
    17
 73
    13
 74
     0
 42
0.0000000001
 43
0.0000000001
 12
1.0
 22
0.0
 32
0.0
 13
1.0
 23
0.0
 33
0.0
 40
0.0
 40
0.0
 40
0.0
 40
0.0
 40
1.0
 40
1.0
 40
1.0
 40
2.0
 40
2.0
 40
2.0
 40
3.0
 40
3.0
 40
3.0
 40
4.0
 40
4.0
 40
4.0
 40
4.0
 10
162.1647117216032
 20
-171.9021753067078
 30
0.0
 10
161.2643211829424
 20
-171.9021753067078
 30
0.0
 10
160.5344550965278
 20
-171.1722780846682
 30
0.0
 10
160.5344550965278
 20
-170.2719186404489
 30
0.0
 10
160.5344550965278
 20
-169.3715591962295
 30
0.0
 10
161.2643211829424
 20
-168.6416619741899
 30
0.0
 10
162.1647117216032
 20
-168.6416619741899
 30
0.0
 10
163.0650711430775
 20
-168.6416619741899
 30
0.0
 10
163.7949683466785
 20
-169.3715591962295
 30
0.0
 10
163.7949683466785
 20
-170.2719186404489
 30
0.0
 10
163.7949683466785
 20
-171.1722780846682
 30
0.0
 10
163.0650711430775
 20
-171.9021753067078
 30
0.0
 10
162.1647117216032
 20
-171.9021753067078
 30
0.0
  0
SPLINE
  5
8A
330
5E
100
AcDbEntity
  8
Abat-jour
 62
     1
420
 16711680
370
     5
100
AcDbSpline
210
0.0
220
0.0
230
1.0
 70
    11
 71
     3
 72
    17
 73
    13
 74
     0
 42
0.0000000001
 43
0.0000000001
 12
1.0
 22
0.0
 32
0.0
 13
1.0
 23
0.0
 33
0.0
 40
0.0
 40
0.0
 40
0.0
 40
0.0
 40
1.0
 40
1.0
 40
1.0
 40
2.0
 40
2.0
 40
2.0
 40
3.0
 40
3.0
 40
3.0
 40
4.0
 40
4.0
 40
4.0
 40
4.0
 10
166.708066050137
 20
-190.6118153020305
 30
0.0
 10
166.1518413421053
 20
-190.6118153020305
 30
0.0
 10
165.7009207980536
 20
-190.1608947465875
 30
0.0
 10
165.7009207980536
 20
-189.6046700245044
 30
0.0
 10
165.7009207980536
 20
-189.0484453024214
 30
0.0
 10
166.1518413421053
 20
-188.5975247469783
 30
0.0
 10
166.708066050137
 20
-188.5975247469783
 30
0.0
 10
167.2642907581688
 20
-188.5975247469783
 30
0.0
 10
167.7152156257742
 20
-189.0484453024214
 30
0.0
 10
167.7152156257742
 20
-189.6046700245044
 30
0.0
 10
167.7152156257742
 20
-190.1608947465875
 30
0.0
 10
167.2642907581688
 20
-190.6118153020305
 30
0.0
 10
166.708066050137
 20
-190.6118153020305
 30
0.0
  0
SPLINE
  5
8B
330
5E
100
AcDbEntity
  8
Abat-jour
 62
     1
420
 16711680
370
     5
100
AcDbSpline
210
0.0
220
0.0
230
1.0
 70
    11
 71
     3
 72
    17
 73
    13
 74
     0
 42
0.0000000001
 43
0.0000000001
 12
1.0
 22
0.0
 32
0.0
 13
1.0
 23
0.0
 33
0.0
 40
0.0
 40
0.0
 40
0.0
 40
0.0
 40
1.0
 40
1.0
 40
1.0
 40
2.0
 40
2.0
 40
2.0
 40
3.0
 40
3.0
 40
3.0
 40
4.0
 40
4.0
 40
4.0
 40
4.0
 10
189.0254628426686
 20
-153.0658175336394
 30
0.0
 10
188.1491227253523
 20
-153.0658175336394
 30
0.0
 10
187.4386988545878
 20
-152.3554289227061
 30
0.0
 10
187.4386988545878
 20
-151.4790936451469
 30
0.0
 10
187.4386988545878
 20
-150.6027583675883
 30
0.0
 10
188.1491227253523
 20
-149.8923697566549
 30
0.0
 10
189.0254628426686
 20
-149.8923697566549
 30
0.0
 10
189.9017628424496
 20
-149.8923697566549
 30
0.0
 10
190.6121818291811
 20
-150.6027583675883
 30
0.0
 10
190.6121818291811
 20
-151.4790936451469
 30
0.0
 10
190.6121818291811
 20
-152.3554289227061
 30
0.0
 10
189.9017628424496
 20
-153.0658175336394
 30
0.0
 10
189.0254628426686
 20
-153.0658175336394
 30
0.0
  0
SPLINE
  5
8C
330
5E
100
AcDbEntity
  8
Abat-jour
 62
     1
420
 16711680
370
     5
100
AcDbSpline
210
0.0
220
0.0
230
1.0
 70
    11
 71
     3
 72
    17
 73
    13
 74
     0
 42
0.0000000001
 43
0.0000000001
 12
1.0
 22
0.0
 32
0.0
 13
1.0
 23
0.0
 33
0.0
 40
0.0
 40
0.0
 40
0.0
 40
0.0
 40
1.0
 40
1.0
 40
1.0
 40
2.0
 40
2.0
 40
2.0
 40
3.0
 40
3.0
 40
3.0
 40
4.0
 40
4.0
 40
4.0
 40
4.0
 10
161.4024647966053
 20
-226.8581444596359
 30
0.0
 10
160.7808350902421
 20
-226.8581444596359
 30
0.0
 10
160.2768961831896
 20
-226.3542014042063
 30
0.0
 10
160.2768961831896
 20
-225.7325716821396
 30
0.0
 10
160.2768961831896
 20
-225.1109419600722
 30
0.0
 10
160.7808350902421
 20
-224.6069989046432
 30
0.0
 10
161.4024647966053
 20
-224.6069989046432
 30
0.0
 10
162.0240945029684
 20
-224.6069989046432
 30
0.0
 10
162.5280022678904
 20
-225.1109419600722
 30
0.0
 10
162.5280022678904
 20
-225.7325716821396
 30
0.0
 10
162.5280022678904
 20
-226.3542014042063
 30
0.0
 10
162.0240945029684
 20
-226.8581444596359
 30
0.0
 10
161.4024647966053
 20
-226.8581444596359
 30
0.0
  0
SPLINE
  5
8D
330
5E
100
AcDbEntity
  8
Abat-jour
 62
     1
420
 16711680
370
     5
100
AcDbSpline
210
0.0
220
0.0
230
1.0
 70
    11
 71
     3
 72
    17
 73
    13
 74
     0
 42
0.0000000001
 43
0.0000000001
 12
1.0
 22
0.0
 32
0.0
 13
1.0
 23
0.0
 33
0.0
 40
0.0
 40
0.0
 40
0.0
 40
0.0
 40
1.0
 40
1.0
 40
1.0
 40
2.0
 40
2.0
 40
2.0
 40
3.0
 40
3.0
 40
3.0
 40
4.0
 40
4.0
 40
4.0
 40
4.0
 10
174.9184041740072
 20
-186.6548480807976
 30
0.0
 10
174.1510066935851
 20
-186.6548480807976
 30
0.0
 10
173.5288830983457
 20
-186.0327597476199
 30
0.0
 10
173.5288830983457
 20
-185.2653269700339
 30
0.0
 10
173.5288830983457
 20
-184.4979294702255
 30
0.0
 10
174.1510066935851
 20
-183.8758058592702
 30
0.0
 10
174.9184041740072
 20
-183.8758058592702
 30
0.0
 10
175.6858369322061
 20
-183.8758058592702
 30
0.0
 10
176.3079252496686
 20
-184.4979294702255
 30
0.0
 10
176.3079252496686
 20
-185.2653269700339
 30
0.0
 10
176.3079252496686
 20
-186.0327597476199
 30
0.0
 10
175.6858369322061
 20
-186.6548480807976
 30
0.0
 10
174.9184041740072
 20
-186.6548480807976
 30
0.0
  0
SPLINE
  5
8E
330
5E
100
AcDbEntity
  8
Abat-jour
 62
     1
420
 16711680
370
     5
100
AcDbSpline
210
0.0
220
0.0
230
1.0
 70
    11
 71
     3
 72
    17
 73
    13
 74
     0
 42
0.0000000001
 43
0.0000000001
 12
1.0
 22
0.0
 32
0.0
 13
1.0
 23
0.0
 33
0.0
 40
0.0
 40
0.0
 40
0.0
 40
0.0
 40
1.0
 40
1.0
 40
1.0
 40
2.0
 40
2.0
 40
2.0
 40
3.0
 40
3.0
 40
3.0
 40
4.0
 40
4.0
 40
4.0
 40
4.0
 10
153.9995684069806
 20
-166.9215880857311
 30
0.0
 10
153.1712069510466
 20
-166.9215880857311
 30
0.0
 10
152.4996944681783
 20
-166.2500755858989
 30
0.0
 10
152.4996944681783
 20
-165.4217180861056
 30
0.0
 10
152.4996944681783
 20
-164.5933605863129
 30
0.0
 10
153.1712069510466
 20
-163.9218128087032
 30
0.0
 10
153.9995684069806
 20
-163.9218128087032
 30
0.0
 10
154.8279571865572
 20
-163.9218128087032
 30
0.0
 10
155.4994696694255
 20
-164.5933605863129
 30
0.0
 10
155.4994696694255
 20
-165.4217180861056
 30
0.0
 10
155.4994696694255
 20
-166.2500755858989
 30
0.0
 10
154.8279571865572
 20
-166.9215880857311
 30
0.0
 10
153.9995684069806
 20
-166.9215880857311
 30
0.0
  0
SPLINE
  5
8F
330
5E
100
AcDbEntity
  8
Abat-jour
 62
     1
420
 16711680
370
     5
100
AcDbSpline
210
0.0
220
0.0
230
1.0
 70
    11
 71
     3
 72
    17
 73
    13
 74
     0
 42
0.0000000001
 43
0.0000000001
 12
1.0
 22
0.0
 32
0.0
 13
1.0
 23
0.0
 33
0.0
 40
0.0
 40
0.0
 40
0.0
 40
0.0
 40
1.0
 40
1.0
 40
1.0
 40
2.0
 40
2.0
 40
2.0
 40
3.0
 40
3.0
 40
3.0
 40
4.0
 40
4.0
 40
4.0
 40
4.0
 10
162.0606775575907
 20
-163.7686014198523
 30
0.0
 10
161.2375411897017
 20
-163.7686014198523
 30
0.0
 10
160.5702620400588
 20
-163.1013222533525
 30
0.0
 10
160.5702620400588
 20
-162.2781858646694
 30
0.0
 10
160.5702620400588
 20
-161.4550494759862
 30
0.0
 10
161.2375411897017
 20
-160.7878055872646
 30
0.0
 10
162.0606775575907
 20
-160.7878055872646
 30
0.0
 10
162.8837786477027
 20
-160.7878055872646
 30
0.0
 10
163.5510577973457
 20
-161.4550494759862
 30
0.0
 10
163.5510577973457
 20
-162.2781858646694
 30
0.0
 10
163.5510577973457
 20
-163.1013222533525
 30
0.0
 10
162.8837786477027
 20
-163.7686014198523
 30
0.0
 10
162.0606775575907
 20
-163.7686014198523
 30
0.0
  0
SPLINE
  5
90
330
5E
100
AcDbEntity
  8
Abat-jour
 62
     1
420
 16711680
370
     5
100
AcDbSpline
210
0.0
220
0.0
230
1.0
 70
    11
 71
     3
 72
    17
 73
    13
 74
     0
 42
0.0000000001
 43
0.0000000001
 12
1.0
 22
0.0
 32
0.0
 13
1.0
 23
0.0
 33
0.0
 40
0.0
 40
0.0
 40
0.0
 40
0.0
 40
1.0
 40
1.0
 40
1.0
 40
2.0
 40
2.0
 40
2.0
 40
3.0
 40
3.0
 40
3.0
 40
4.0
 40
4.0
 40
4.0
 40
4.0
 10
136.5026337651862
 20
-135.4638644824843
 30
0.0
 10
135.6747701751957
 20
-135.4638644824843
 30
0.0
 10
135.003645747873
 20
-134.792740038208
 30
0.0
 10
135.003645747873
 20
-133.9648764273032
 30
0.0
 10
135.003645747873
 20
-133.1369775386215
 30
0.0
 10
135.6747701751957
 20
-132.4658530943452
 30
0.0
 10
136.5026337651862
 20
-132.4658530943452
 30
0.0
 10
137.3305326329537
 20
-132.4658530943452
 30
0.0
 10
138.0016570602763
 20
-133.1369775386215
 30
0.0
 10
138.0016570602763
 20
-133.9648764273032
 30
0.0
 10
138.0016570602763
 20
-134.792740038208
 30
0.0
 10
137.3305326329537
 20
-135.4638644824843
 30
0.0
 10
136.5026337651862
 20
-135.4638644824843
 30
0.0
  0
SPLINE
  5
91
330
5E
100
AcDbEntity
  8
Abat-jour
 62
     1
420
 16711680
370
     5
100
AcDbSpline
210
0.0
220
0.0
230
1.0
 70
    11
 71
     3
 72
    17
 73
    13
 74
     0
 42
0.0000000001
 43
0.0000000001
 12
1.0
 22
0.0
 32
0.0
 13
1.0
 23
0.0
 33
0.0
 40
0.0
 40
0.0
 40
0.0
 40
0.0
 40
1.0
 40
1.0
 40
1.0
 40
2.0
 40
2.0
 40
2.0
 40
3.0
 40
3.0
 40
3.0
 40
4.0
 40
4.0
 40
4.0
 40
4.0
 10
146.2816335157032
 20
-209.84204946389
 30
0.0
 10
145.7713795201485
 20
-209.84204946389
 30
0.0
 10
145.3577438170513
 20
-209.4284175195488
 30
0.0
 10
145.3577438170513
 20
-208.9181597418983
 30
0.0
 10
145.3577438170513
 20
-208.4079019642485
 30
0.0
 10
145.7713795201485
 20
-207.9942700199072
 30
0.0
 10
146.2816335157032
 20
-207.9942700199072
 30
0.0
 10
146.7918912804632
 20
-207.9942700199072
 30
0.0
 10
147.205523214355
 20
-208.4079019642485
 30
0.0
 10
147.205523214355
 20
-208.9181597418983
 30
0.0
 10
147.205523214355
 20
-209.4284175195488
 30
0.0
 10
146.7918912804632
 20
-209.84204946389
 30
0.0
 10
146.2816335157032
 20
-209.84204946389
 30
0.0
  0
SPLINE
  5
92
330
5E
100
AcDbEntity
  8
Abat-jour
 62
     1
420
 16711680
370
     5
100
AcDbSpline
210
0.0
220
0.0
230
1.0
 70
    11
 71
     3
 72
    17
 73
    13
 74
     0
 42
0.0000000001
 43
0.0000000001
 12
1.0
 22
0.0
 32
0.0
 13
1.0
 23
0.0
 33
0.0
 40
0.0
 40
0.0
 40
0.0
 40
0.0
 40
1.0
 40
1.0
 40
1.0
 40
2.0
 40
2.0
 40
2.0
 40
3.0
 40
3.0
 40
3.0
 40
4.0
 40
4.0
 40
4.0
 40
4.0
 10
142.9415688786931
 20
-158.2909503101111
 30
0.0
 10
142.1271108439161
 20
-158.2909503101111
 30
0.0
 10
141.4668872496487
 20
-157.6307266991647
 30
0.0
 10
141.4668872496487
 20
-156.8162686438129
 30
0.0
 10
141.4668872496487
 20
-156.001810588461
 30
0.0
 10
142.1271108439161
 20
-155.3415869775146
 30
0.0
 10
142.9415688786931
 20
-155.3415869775146
 30
0.0
 10
143.7559916356932
 20
-155.3415869775146
 30
0.0
 10
144.4162505077375
 20
-156.001810588461
 30
0.0
 10
144.4162505077375
 20
-156.8162686438129
 30
0.0
 10
144.4162505077375
 20
-157.6307266991647
 30
0.0
 10
143.7559916356932
 20
-158.2909503101111
 30
0.0
 10
142.9415688786931
 20
-158.2909503101111
 30
0.0
  0
SPLINE
  5
93
330
5E
100
AcDbEntity
  8
Abat-jour
 62
     1
420
 16711680
370
     5
100
AcDbSpline
210
0.0
220
0.0
230
1.0
 70
    11
 71
     3
 72
    17
 73
    13
 74
     0
 42
0.0000000001
 43
0.0000000001
 12
1.0
 22
0.0
 32
0.0
 13
1.0
 23
0.0
 33
0.0
 40
0.0
 40
0.0
 40
0.0
 40
0.0
 40
1.0
 40
1.0
 40
1.0
 40
2.0
 40
2.0
 40
2.0
 40
3.0
 40
3.0
 40
3.0
 40
4.0
 40
4.0
 40
4.0
 40
4.0
 10
158.9987429134849
 20
-217.1996886287171
 30
0.0
 10
158.431299872406
 20
-217.1996886287171
 30
0.0
 10
157.9712776619199
 20
-216.7397016843874
 30
0.0
 10
157.9712776619199
 20
-216.1722586289736
 30
0.0
 10
157.9712776619199
 20
-215.6047802957823
 30
0.0
 10
158.431299872406
 20
-215.1447933514532
 30
0.0
 10
158.9987429134849
 20
-215.1447933514532
 30
0.0
 10
159.5661859545638
 20
-215.1447933514532
 30
0.0
 10
160.0262081650498
 20
-215.6047802957823
 30
0.0
 10
160.0262081650498
 20
-216.1722586289736
 30
0.0
 10
160.0262081650498
 20
-216.7397016843874
 30
0.0
 10
159.5661859545638
 20
-217.1996886287171
 30
0.0
 10
158.9987429134849
 20
-217.1996886287171
 30
0.0
  0
SPLINE
  5
94
330
5E
100
AcDbEntity
  8
Abat-jour
 62
     1
420
 16711680
370
     5
100
AcDbSpline
210
0.0
220
0.0
230
1.0
 70
    11
 71
     3
 72
    17
 73
    13
 74
     0
 42
0.0000000001
 43
0.0000000001
 12
1.0
 22
0.0
 32
0.0
 13
1.0
 23
0.0
 33
0.0
 40
0.0
 40
0.0
 40
0.0
 40
0.0
 40
1.0
 40
1.0
 40
1.0
 40
2.0
 40
2.0
 40
2.0
 40
3.0
 40
3.0
 40
3.0
 40
4.0
 40
4.0
 40
4.0
 40
4.0
 10
149.3532342706734
 20
-222.9268241828406
 30
0.0
 10
148.410862852822
 20
-222.9268241828406
 30
0.0
 10
147.6468834808727
 20
-222.162848627476
 30
0.0
 10
147.6468834808727
 20
-221.2204380721563
 30
0.0
 10
147.6468834808727
 20
-220.2780275168359
 30
0.0
 10
148.410862852822
 20
-219.5140519614719
 30
0.0
 10
149.3532342706734
 20
-219.5140519614719
 30
0.0
 10
150.2956448021861
 20
-219.5140519614719
 30
0.0
 10
151.059620338251
 20
-220.2780275168359
 30
0.0
 10
151.059620338251
 20
-221.2204380721563
 30
0.0
 10
151.059620338251
 20
-222.162848627476
 30
0.0
 10
150.2956448021861
 20
-222.9268241828406
 30
0.0
 10
149.3532342706734
 20
-222.9268241828406
 30
0.0
  0
SPLINE
  5
95
330
5E
100
AcDbEntity
  8
Abat-jour
 62
     1
420
 16711680
370
     5
100
AcDbSpline
210
0.0
220
0.0
230
1.0
 70
    11
 71
     3
 72
    17
 73
    13
 74
     0
 42
0.0000000001
 43
0.0000000001
 12
1.0
 22
0.0
 32
0.0
 13
1.0
 23
0.0
 33
0.0
 40
0.0
 40
0.0
 40
0.0
 40
0.0
 40
1.0
 40
1.0
 40
1.0
 40
2.0
 40
2.0
 40
2.0
 40
3.0
 40
3.0
 40
3.0
 40
4.0
 40
4.0
 40
4.0
 40
4.0
 10
177.8450838215635
 20
-198.472374466732
 30
0.0
 10
177.2444796702196
 20
-198.472374466732
 30
0.0
 10
176.7576156235128
 20
-197.9855058557425
 30
0.0
 10
176.7576156235128
 20
-197.3849016892262
 30
0.0
 10
176.7576156235128
 20
-196.7843328004874
 30
0.0
 10
177.2444796702196
 20
-196.2974641894979
 30
0.0
 10
177.8450838215635
 20
-196.2974641894979
 30
0.0
 10
178.4456572897587
 20
-196.2974641894979
 30
0.0
 10
178.9325212938207
 20
-196.7843328004874
 30
0.0
 10
178.9325212938207
 20
-197.3849016892262
 30
0.0
 10
178.9325212938207
 20
-197.9855058557425
 30
0.0
 10
178.4456572897587
 20
-198.472374466732
 30
0.0
 10
177.8450838215635
 20
-198.472374466732
 30
0.0
  0
SPLINE
  5
96
330
5E
100
AcDbEntity
  8
Abat-jour
 62
     1
420
 16711680
370
     5
100
AcDbSpline
210
0.0
220
0.0
230
1.0
 70
    11
 71
     3
 72
    17
 73
    13
 74
     0
 42
0.0000000001
 43
0.0000000001
 12
1.0
 22
0.0
 32
0.0
 13
1.0
 23
0.0
 33
0.0
 40
0.0
 40
0.0
 40
0.0
 40
0.0
 40
1.0
 40
1.0
 40
1.0
 40
2.0
 40
2.0
 40
2.0
 40
3.0
 40
3.0
 40
3.0
 40
4.0
 40
4.0
 40
4.0
 40
4.0
 10
155.0356767400555
 20
-224.3447439047084
 30
0.0
 10
154.1323852598582
 20
-224.3447439047084
 30
0.0
 10
153.4001244452064
 20
-223.6124830715583
 30
0.0
 10
153.4001244452064
 20
-222.7091955717842
 30
0.0
 10
153.4001244452064
 20
-221.8059080720096
 30
0.0
 10
154.1323852598582
 20
-221.0736472388595
 30
0.0
 10
155.0356767400555
 20
-221.0736472388595
 30
0.0
 10
155.9389602137687
 20
-221.0736472388595
 30
0.0
 10
156.6712210284205
 20
-221.8059080720096
 30
0.0
 10
156.6712210284205
 20
-222.7091955717842
 30
0.0
 10
156.6712210284205
 20
-223.6124830715583
 30
0.0
 10
155.9389602137687
 20
-224.3447439047084
 30
0.0
 10
155.0356767400555
 20
-224.3447439047084
 30
0.0
  0
SPLINE
  5
97
330
5E
100
AcDbEntity
  8
Abat-jour
 62
     1
420
 16711680
370
     5
100
AcDbSpline
210
0.0
220
0.0
230
1.0
 70
    11
 71
     3
 72
    17
 73
    13
 74
     0
 42
0.0000000001
 43
0.0000000001
 12
1.0
 22
0.0
 32
0.0
 13
1.0
 23
0.0
 33
0.0
 40
0.0
 40
0.0
 40
0.0
 40
0.0
 40
1.0
 40
1.0
 40
1.0
 40
2.0
 40
2.0
 40
2.0
 40
3.0
 40
3.0
 40
3.0
 40
4.0
 40
4.0
 40
4.0
 40
4.0
 10
148.6319095668537
 20
-213.1956961297177
 30
0.0
 10
147.6872765353978
 20
-213.1956961297177
 30
0.0
 10
146.9214665549352
 20
-212.4298861299092
 30
0.0
 10
146.9214665549352
 20
-211.4852530745897
 30
0.0
 10
146.9214665549352
 20
-210.5406200192703
 30
0.0
 10
147.6872765353978
 20
-209.7748100194618
 30
0.0
 10
148.6319095668537
 20
-209.7748100194618
 30
0.0
 10
149.5765425983097
 20
-209.7748100194618
 30
0.0
 10
150.3423525787722
 20
-210.5406200192703
 30
0.0
 10
150.3423525787722
 20
-211.4852530745897
 30
0.0
 10
150.3423525787722
 20
-212.4298861299092
 30
0.0
 10
149.5765425983097
 20
-213.1956961297177
 30
0.0
 10
148.6319095668537
 20
-213.1956961297177
 30
0.0
  0
SPLINE
  5
98
330
5E
100
AcDbEntity
  8
Abat-jour
 62
     1
420
 16711680
370
     5
100
AcDbSpline
210
0.0
220
0.0
230
1.0
 70
    11
 71
     3
 72
    17
 73
    13
 74
     0
 42
0.0000000001
 43
0.0000000001
 12
1.0
 22
0.0
 32
0.0
 13
1.0
 23
0.0
 33
0.0
 40
0.0
 40
0.0
 40
0.0
 40
0.0
 40
1.0
 40
1.0
 40
1.0
 40
2.0
 40
2.0
 40
2.0
 40
3.0
 40
3.0
 40
3.0
 40
4.0
 40
4.0
 40
4.0
 40
4.0
 10
143.2520133152174
 20
-190.076616135498
 30
0.0
 10
142.5288541670001
 20
-190.076616135498
 30
0.0
 10
141.9426433486222
 20
-189.490405302311
 30
0.0
 10
141.9426433486222
 20
-188.7672814136026
 30
0.0
 10
141.9426433486222
 20
-188.0441222471168
 30
0.0
 10
142.5288541670001
 20
-187.4579114139304
 30
0.0
 10
143.2520133152174
 20
-187.4579114139304
 30
0.0
 10
143.9751371856579
 20
-187.4579114139304
 30
0.0
 10
144.5613832818126
 20
-188.0441222471168
 30
0.0
 10
144.5613832818126
 20
-188.7672814136026
 30
0.0
 10
144.5613832818126
 20
-189.490405302311
 30
0.0
 10
143.9751371856579
 20
-190.076616135498
 30
0.0
 10
143.2520133152174
 20
-190.076616135498
 30
0.0
  0
SPLINE
  5
99
330
5E
100
AcDbEntity
  8
Abat-jour
 62
     1
420
 16711680
370
     5
100
AcDbSpline
210
0.0
220
0.0
230
1.0
 70
    11
 71
     3
 72
    17
 73
    13
 74
     0
 42
0.0000000001
 43
0.0000000001
 12
1.0
 22
0.0
 32
0.0
 13
1.0
 23
0.0
 33
0.0
 40
0.0
 40
0.0
 40
0.0
 40
0.0
 40
1.0
 40
1.0
 40
1.0
 40
2.0
 40
2.0
 40
2.0
 40
3.0
 40
3.0
 40
3.0
 40
4.0
 40
4.0
 40
4.0
 40
4.0
 10
132.8511369138992
 20
-151.989210311686
 30
0.0
 10
132.2528258180523
 20
-151.989210311686
 30
0.0
 10
131.7677916637599
 20
-151.5042114229185
 30
0.0
 10
131.7677916637599
 20
-150.905900311957
 30
0.0
 10
131.7677916637599
 20
-150.3075892009955
 30
0.0
 10
132.2528258180523
 20
-149.822590312228
 30
0.0
 10
132.8511369138992
 20
-149.822590312228
 30
0.0
 10
133.4494127319693
 20
-149.822590312228
 30
0.0
 10
133.9344468862617
 20
-150.3075892009955
 30
0.0
 10
133.9344468862617
 20
-150.905900311957
 30
0.0
 10
133.9344468862617
 20
-151.5042114229185
 30
0.0
 10
133.4494127319693
 20
-151.989210311686
 30
0.0
 10
132.8511369138992
 20
-151.989210311686
 30
0.0
  0
SPLINE
  5
9A
330
5E
100
AcDbEntity
  8
Abat-jour
 62
     1
420
 16711680
370
     5
100
AcDbSpline
210
0.0
220
0.0
230
1.0
 70
    11
 71
     3
 72
    17
 73
    13
 74
     0
 42
0.0000000001
 43
0.0000000001
 12
1.0
 22
0.0
 32
0.0
 13
1.0
 23
0.0
 33
0.0
 40
0.0
 40
0.0
 40
0.0
 40
0.0
 40
1.0
 40
1.0
 40
1.0
 40
2.0
 40
2.0
 40
2.0
 40
3.0
 40
3.0
 40
3.0
 40
4.0
 40
4.0
 40
4.0
 40
4.0
 10
151.4207628520693
 20
-142.8342036473082
 30
0.0
 10
150.5235745185933
 20
-142.8342036473082
 30
0.0
 10
149.7962525927044
 20
-142.1068817030462
 30
0.0
 10
149.7962525927044
 20
-141.209697258826
 30
0.0
 10
149.7962525927044
 20
-140.3125128146058
 30
0.0
 10
150.5235745185933
 20
-139.5851908703425
 30
0.0
 10
151.4207628520693
 20
-139.5851908703425
 30
0.0
 10
152.3179433617041
 20
-139.5851908703425
 30
0.0
 10
153.045265287593
 20
-140.3125128146058
 30
0.0
 10
153.045265287593
 20
-141.209697258826
 30
0.0
 10
153.045265287593
 20
-142.1068817030462
 30
0.0
 10
152.3179433617041
 20
-142.8342036473082
 30
0.0
 10
151.4207628520693
 20
-142.8342036473082
 30
0.0
  0
SPLINE
  5
9B
330
5E
100
AcDbEntity
  8
Abat-jour
 62
     1
420
 16711680
370
     5
100
AcDbSpline
210
0.0
220
0.0
230
1.0
 70
    11
 71
     3
 72
    17
 73
    13
 74
     0
 42
0.0000000001
 43
0.0000000001
 12
1.0
 22
0.0
 32
0.0
 13
1.0
 23
0.0
 33
0.0
 40
0.0
 40
0.0
 40
0.0
 40
0.0
 40
1.0
 40
1.0
 40
1.0
 40
2.0
 40
2.0
 40
2.0
 40
3.0
 40
3.0
 40
3.0
 40
4.0
 40
4.0
 40
4.0
 40
4.0
 10
159.2736626286933
 20
-157.703716421369
 30
0.0
 10
158.3061343200437
 20
-157.703716421369
 30
0.0
 10
157.5217682289434
 20
-156.9193855882312
 30
0.0
 10
157.5217682289434
 20
-155.9518219773624
 30
0.0
 10
157.5217682289434
 20
-154.9842936442711
 30
0.0
 10
158.3061343200437
 20
-154.1999275333558
 30
0.0
 10
159.2736626286933
 20
-154.1999275333558
 30
0.0
 10
160.2412262151198
 20
-154.1999275333558
 30
0.0
 10
161.0255570284432
 20
-154.9842936442711
 30
0.0
 10
161.0255570284432
 20
-155.9518219773624
 30
0.0
 10
161.0255570284432
 20
-156.9193855882312
 30
0.0
 10
160.2412262151198
 20
-157.703716421369
 30
0.0
 10
159.2736626286933
 20
-157.703716421369
 30
0.0
  0
SPLINE
  5
9C
330
5E
100
AcDbEntity
  8
Abat-jour
 62
     1
420
 16711680
370
     5
100
AcDbSpline
210
0.0
220
0.0
230
1.0
 70
    11
 71
     3
 72
    17
 73
    13
 74
     0
 42
0.0000000001
 43
0.0000000001
 12
1.0
 22
0.0
 32
0.0
 13
1.0
 23
0.0
 33
0.0
 40
0.0
 40
0.0
 40
0.0
 40
0.0
 40
1.0
 40
1.0
 40
1.0
 40
2.0
 40
2.0
 40
2.0
 40
3.0
 40
3.0
 40
3.0
 40
4.0
 40
4.0
 40
4.0
 40
4.0
 10
144.5346780047161
 20
-165.0919766972992
 30
0.0
 10
143.9372488532912
 20
-165.0919766972992
 30
0.0
 10
143.4529555323132
 20
-164.6076833640872
 30
0.0
 10
143.4529555323132
 20
-164.0102541975701
 30
0.0
 10
143.4529555323132
 20
-163.4128603088305
 30
0.0
 10
143.9372488532912
 20
-162.9285669756179
 30
0.0
 10
144.5346780047161
 20
-162.9285669756179
 30
0.0
 10
145.1320718783643
 20
-162.9285669756179
 30
0.0
 10
145.6163651993422
 20
-163.4128603088305
 30
0.0
 10
145.6163651993422
 20
-164.0102541975701
 30
0.0
 10
145.6163651993422
 20
-164.6076833640872
 30
0.0
 10
145.1320718783643
 20
-165.0919766972992
 30
0.0
 10
144.5346780047161
 20
-165.0919766972992
 30
0.0
  0
SPLINE
  5
9D
330
5E
100
AcDbEntity
  8
Abat-jour
 62
     1
420
 16711680
370
     5
100
AcDbSpline
210
0.0
220
0.0
230
1.0
 70
    11
 71
     3
 72
    17
 73
    13
 74
     0
 42
0.0000000001
 43
0.0000000001
 12
1.0
 22
0.0
 32
0.0
 13
1.0
 23
0.0
 33
0.0
 40
0.0
 40
0.0
 40
0.0
 40
0.0
 40
1.0
 40
1.0
 40
1.0
 40
2.0
 40
2.0
 40
2.0
 40
3.0
 40
3.0
 40
3.0
 40
4.0
 40
4.0
 40
4.0
 40
4.0
 10
161.480746183497
 20
-211.2063469635489
 30
0.0
 10
160.6999078700846
 20
-211.2063469635489
 30
0.0
 10
160.0669187195668
 20
-210.5733225192625
 30
0.0
 10
160.0669187195668
 20
-209.7924841861242
 30
0.0
 10
160.0669187195668
 20
-209.0116458529865
 30
0.0
 10
160.6999078700846
 20
-208.3786214087001
 30
0.0
 10
161.480746183497
 20
-208.3786214087001
 30
0.0
 10
162.2616239604713
 20
-208.3786214087001
 30
0.0
 10
162.8946089252042
 20
-209.0116458529865
 30
0.0
 10
162.8946089252042
 20
-209.7924841861242
 30
0.0
 10
162.8946089252042
 20
-210.5733225192625
 30
0.0
 10
162.2616239604713
 20
-211.2063469635489
 30
0.0
 10
161.480746183497
 20
-211.2063469635489
 30
0.0
  0
SPLINE
  5
9E
330
5E
100
AcDbEntity
  8
Abat-jour
 62
     1
420
 16711680
370
     5
100
AcDbSpline
210
0.0
220
0.0
230
1.0
 70
    11
 71
     3
 72
    17
 73
    13
 74
     0
 42
0.0000000001
 43
0.0000000001
 12
1.0
 22
0.0
 32
0.0
 13
1.0
 23
0.0
 33
0.0
 40
0.0
 40
0.0
 40
0.0
 40
0.0
 40
1.0
 40
1.0
 40
1.0
 40
2.0
 40
2.0
 40
2.0
 40
3.0
 40
3.0
 40
3.0
 40
4.0
 40
4.0
 40
4.0
 40
4.0
 10
129.9636155986771
 20
-193.9622164123039
 30
0.0
 10
129.1515564527278
 20
-193.9622164123039
 30
0.0
 10
128.4932378584118
 20
-193.3039330791352
 30
0.0
 10
128.4932378584118
 20
-192.4918739126714
 30
0.0
 10
128.4932378584118
 20
-191.6798147462083
 30
0.0
 10
129.1515564527278
 20
-191.0214961352613
 30
0.0
 10
129.9636155986771
 20
-191.0214961352613
 30
0.0
 10
130.7756747446265
 20
-191.0214961352613
 30
0.0
 10
131.4339933389425
 20
-191.6798147462083
 30
0.0
 10
131.4339933389425
 20
-192.4918739126714
 30
0.0
 10
131.4339933389425
 20
-193.3039330791352
 30
0.0
 10
130.7756747446265
 20
-193.9622164123039
 30
0.0
 10
129.9636155986771
 20
-193.9622164123039
 30
0.0
  0
SPLINE
  5
9F
330
5E
100
AcDbEntity
  8
Abat-jour
 62
     1
420
 16711680
370
     5
100
AcDbSpline
210
0.0
220
0.0
230
1.0
 70
    11
 71
     3
 72
    17
 73
    13
 74
     0
 42
0.0000000001
 43
0.0000000001
 12
1.0
 22
0.0
 32
0.0
 13
1.0
 23
0.0
 33
0.0
 40
0.0
 40
0.0
 40
0.0
 40
0.0
 40
1.0
 40
1.0
 40
1.0
 40
2.0
 40
2.0
 40
2.0
 40
3.0
 40
3.0
 40
3.0
 40
4.0
 40
4.0
 40
4.0
 40
4.0
 10
184.0026786644702
 20
-233.6538791801589
 30
0.0
 10
183.2429364616306
 20
-233.6538791801589
 30
0.0
 10
182.6270570328986
 20
-233.0379997358682
 30
0.0
 10
182.6270570328986
 20
-232.2782575138361
 30
0.0
 10
182.6270570328986
 20
-231.5185152918039
 30
0.0
 10
183.2429364616306
 20
-230.9026005697357
 30
0.0
 10
184.0026786644702
 20
-230.9026005697357
 30
0.0
 10
184.7624208673098
 20
-230.9026005697357
 30
0.0
 10
185.3783355738187
 20
-231.5185152918039
 30
0.0
 10
185.3783355738187
 20
-232.2782575138361
 30
0.0
 10
185.3783355738187
 20
-233.0379997358682
 30
0.0
 10
184.7624208673098
 20
-233.6538791801589
 30
0.0
 10
184.0026786644702
 20
-233.6538791801589
 30
0.0
  0
SPLINE
  5
A0
330
5E
100
AcDbEntity
  8
Abat-jour
 62
     1
420
 16711680
370
     5
100
AcDbSpline
210
0.0
220
0.0
230
1.0
 70
    11
 71
     3
 72
    17
 73
    13
 74
     0
 42
0.0000000001
 43
0.0000000001
 12
1.0
 22
0.0
 32
0.0
 13
1.0
 23
0.0
 33
0.0
 40
0.0
 40
0.0
 40
0.0
 40
0.0
 40
1.0
 40
1.0
 40
1.0
 40
2.0
 40
2.0
 40
2.0
 40
3.0
 40
3.0
 40
3.0
 40
4.0
 40
4.0
 40
4.0
 40
4.0
 10
132.6960910845214
 20
-210.7827666858766
 30
0.0
 10
131.9097141601391
 20
-210.7827666858766
 30
0.0
 10
131.2722447319579
 20
-210.1452972415919
 30
0.0
 10
131.2722447319579
 20
-209.3589202973439
 30
0.0
 10
131.2722447319579
 20
-208.572578630874
 30
0.0
 10
131.9097141601391
 20
-207.9351091865887
 30
0.0
 10
132.6960910845214
 20
-207.9351091865887
 30
0.0
 10
133.4824327311269
 20
-207.9351091865887
 30
0.0
 10
134.119937437085
 20
-208.572578630874
 30
0.0
 10
134.119937437085
 20
-209.3589202973439
 30
0.0
 10
134.119937437085
 20
-210.1452972415919
 30
0.0
 10
133.4824327311269
 20
-210.7827666858766
 30
0.0
 10
132.6960910845214
 20
-210.7827666858766
 30
0.0
  0
SPLINE
  5
A1
330
5E
100
AcDbEntity
  8
Abat-jour
 62
     1
420
 16711680
370
     5
100
AcDbSpline
210
0.0
220
0.0
230
1.0
 70
    11
 71
     3
 72
    17
 73
    13
 74
     0
 42
0.0000000001
 43
0.0000000001
 12
1.0
 22
0.0
 32
0.0
 13
1.0
 23
0.0
 33
0.0
 40
0.0
 40
0.0
 40
0.0
 40
0.0
 40
1.0
 40
1.0
 40
1.0
 40
2.0
 40
2.0
 40
2.0
 40
3.0
 40
3.0
 40
3.0
 40
4.0
 40
4.0
 40
4.0
 40
4.0
 10
130.0853944844592
 20
-202.6842236323456
 30
0.0
 10
129.2061311735577
 20
-202.6842236323456
 30
0.0
 10
128.4933436917425
 20
-201.9714361325242
 30
0.0
 10
128.4933436917425
 20
-201.0921727994104
 30
0.0
 10
128.4933436917425
 20
-200.212874188519
 30
0.0
 10
129.2061311735577
 20
-199.5000866886976
 30
0.0
 10
130.0853944844592
 20
-199.5000866886976
 30
0.0
 10
130.9646930731375
 20
-199.5000866886976
 30
0.0
 10
131.6774805549528
 20
-200.212874188519
 30
0.0
 10
131.6774805549528
 20
-201.0921727994104
 30
0.0
 10
131.6774805549528
 20
-201.9714361325242
 30
0.0
 10
130.9646930731375
 20
-202.6842236323456
 30
0.0
 10
130.0853944844592
 20
-202.6842236323456
 30
0.0
  0
SPLINE
  5
A2
330
5E
100
AcDbEntity
  8
Abat-jour
 62
     1
420
 16711680
370
     5
100
AcDbSpline
210
0.0
220
0.0
230
1.0
 70
    11
 71
     3
 72
    17
 73
    13
 74
     0
 42
0.0000000001
 43
0.0000000001
 12
1.0
 22
0.0
 32
0.0
 13
1.0
 23
0.0
 33
0.0
 40
0.0
 40
0.0
 40
0.0
 40
0.0
 40
1.0
 40
1.0
 40
1.0
 40
2.0
 40
2.0
 40
2.0
 40
3.0
 40
3.0
 40
3.0
 40
4.0
 40
4.0
 40
4.0
 40
4.0
 10
129.3826258912772
 20
-161.6208197537225
 30
0.0
 10
128.7074445196136
 20
-161.6208197537225
 30
0.0
 10
128.1600745335782
 20
-161.0734850316373
 30
0.0
 10
128.1600745335782
 20
-160.3983036429174
 30
0.0
 10
128.1600745335782
 20
-159.7230869764193
 30
0.0
 10
128.7074445196136
 20
-159.175752254334
 30
0.0
 10
129.3826258912772
 20
-159.175752254334
 30
0.0
 10
130.0578072629408
 20
-159.175752254334
 30
0.0
 10
130.6051772489762
 20
-159.7230869764193
 30
0.0
 10
130.6051772489762
 20
-160.3983036429174
 30
0.0
 10
130.6051772489762
 20
-161.0734850316373
 30
0.0
 10
130.0578072629408
 20
-161.6208197537225
 30
0.0
 10
129.3826258912772
 20
-161.6208197537225
 30
0.0
  0
SPLINE
  5
A3
330
5E
100
AcDbEntity
  8
Abat-jour
 62
     1
420
 16711680
370
     5
100
AcDbSpline
210
0.0
220
0.0
230
1.0
 70
    11
 71
     3
 72
    17
 73
    13
 74
     0
 42
0.0000000001
 43
0.0000000001
 12
1.0
 22
0.0
 32
0.0
 13
1.0
 23
0.0
 33
0.0
 40
0.0
 40
0.0
 40
0.0
 40
0.0
 40
1.0
 40
1.0
 40
1.0
 40
2.0
 40
2.0
 40
2.0
 40
3.0
 40
3.0
 40
3.0
 40
4.0
 40
4.0
 40
4.0
 40
4.0
 10
130.6051772489762
 20
-242.5666686223753
 30
0.0
 10
130.0463772632324
 20
-242.5666686223753
 30
0.0
 10
129.5934106081218
 20
-242.113701955822
 30
0.0
 10
129.5934106081218
 20
-241.5549372337389
 30
0.0
 10
129.5934106081218
 20
-240.996137233879
 30
0.0
 10
130.0463772632324
 20
-240.5431705673257
 30
0.0
 10
130.6051772489762
 20
-240.5431705673257
 30
0.0
 10
131.1639419569431
 20
-240.5431705673257
 30
0.0
 10
131.6169438898306
 20
-240.996137233879
 30
0.0
 10
131.6169438898306
 20
-241.5549372337389
 30
0.0
 10
131.6169438898306
 20
-242.113701955822
 30
0.0
 10
131.1639419569431
 20
-242.5666686223753
 30
0.0
 10
130.6051772489762
 20
-242.5666686223753
 30
0.0
  0
SPLINE
  5
A4
330
5E
100
AcDbEntity
  8
Abat-jour
 62
     1
420
 16711680
370
     5
100
AcDbSpline
210
0.0
220
0.0
230
1.0
 70
    11
 71
     3
 72
    17
 73
    13
 74
     0
 42
0.0000000001
 43
0.0000000001
 12
1.0
 22
0.0
 32
0.0
 13
1.0
 23
0.0
 33
0.0
 40
0.0
 40
0.0
 40
0.0
 40
0.0
 40
1.0
 40
1.0
 40
1.0
 40
2.0
 40
2.0
 40
2.0
 40
3.0
 40
3.0
 40
3.0
 40
4.0
 40
4.0
 40
4.0
 40
4.0
 10
131.4339933389425
 20
-123.965284485359
 30
0.0
 10
130.9209133520322
 20
-123.965284485359
 30
0.0
 10
130.5050236404202
 20
-123.5493594854629
 30
0.0
 10
130.5050236404202
 20
-123.0363147633692
 30
0.0
 10
130.5050236404202
 20
-122.5232347634972
 30
0.0
 10
130.9209133520322
 20
-122.1073450413787
 30
0.0
 10
131.4339933389425
 20
-122.1073450413787
 30
0.0
 10
131.9470380480758
 20
-122.1073450413787
 30
0.0
 10
132.3629630374647
 20
-122.5232347634972
 30
0.0
 10
132.3629630374647
 20
-123.0363147633692
 30
0.0
 10
132.3629630374647
 20
-123.5493594854629
 30
0.0
 10
131.9470380480758
 20
-123.965284485359
 30
0.0
 10
131.4339933389425
 20
-123.965284485359
 30
0.0
  0
SPLINE
  5
A5
330
5E
100
AcDbEntity
  8
Abat-jour
 62
     1
420
 16711680
370
     5
100
AcDbSpline
210
0.0
220
0.0
230
1.0
 70
    11
 71
     3
 72
    17
 73
    13
 74
     0
 42
0.0000000001
 43
0.0000000001
 12
1.0
 22
0.0
 32
0.0
 13
1.0
 23
0.0
 33
0.0
 40
0.0
 40
0.0
 40
0.0
 40
0.0
 40
1.0
 40
1.0
 40
1.0
 40
2.0
 40
2.0
 40
2.0
 40
3.0
 40
3.0
 40
3.0
 40
4.0
 40
4.0
 40
4.0
 40
4.0
 10
126.0687726424873
 20
-196.025401967344
 30
0.0
 10
125.2571721076374
 20
-196.025401967344
 30
0.0
 10
124.5992415688671
 20
-195.367471411953
 30
0.0
 10
124.5992415688671
 20
-194.5558708566002
 30
0.0
 10
124.5992415688671
 20
-193.7442703012473
 30
0.0
 10
125.2571721076374
 20
-193.0863397458563
 30
0.0
 10
126.0687726424873
 20
-193.0863397458563
 30
0.0
 10
126.8803731773372
 20
-193.0863397458563
 30
0.0
 10
127.5383037161075
 20
-193.7442703012473
 30
0.0
 10
127.5383037161075
 20
-194.5558708566002
 30
0.0
 10
127.5383037161075
 20
-195.367471411953
 30
0.0
 10
126.8803731773372
 20
-196.025401967344
 30
0.0
 10
126.0687726424873
 20
-196.025401967344
 30
0.0
  0
SPLINE
  5
A6
330
5E
100
AcDbEntity
  8
Abat-jour
 62
     1
420
 16711680
370
     5
100
AcDbSpline
210
0.0
220
0.0
230
1.0
 70
    11
 71
     3
 72
    17
 73
    13
 74
     0
 42
0.0000000001
 43
0.0000000001
 12
1.0
 22
0.0
 32
0.0
 13
1.0
 23
0.0
 33
0.0
 40
0.0
 40
0.0
 40
0.0
 40
0.0
 40
1.0
 40
1.0
 40
1.0
 40
2.0
 40
2.0
 40
2.0
 40
3.0
 40
3.0
 40
3.0
 40
4.0
 40
4.0
 40
4.0
 40
4.0
 10
127.3488973320508
 20
-207.4844002978127
 30
0.0
 10
126.7224698480323
 20
-207.4844002978127
 30
0.0
 10
126.2146462498769
 20
-206.9766119646059
 30
0.0
 10
126.2146462498769
 20
-206.3501844647625
 30
0.0
 10
126.2146462498769
 20
-205.723756964919
 30
0.0
 10
126.7224698480323
 20
-205.2159686317129
 30
0.0
 10
127.3488973320508
 20
-205.2159686317129
 30
0.0
 10
127.9752895382925
 20
-205.2159686317129
 30
0.0
 10
128.4831131364479
 20
-205.723756964919
 30
0.0
 10
128.4831131364479
 20
-206.3501844647625
 30
0.0
 10
128.4831131364479
 20
-206.9766119646059
 30
0.0
 10
127.9752895382925
 20
-207.4844002978127
 30
0.0
 10
127.3488973320508
 20
-207.4844002978127
 30
0.0
  0
SPLINE
  5
A7
330
5E
100
AcDbEntity
  8
Abat-jour
 62
     1
420
 16711680
370
     5
100
AcDbSpline
210
0.0
220
0.0
230
1.0
 70
    11
 71
     3
 72
    17
 73
    13
 74
     0
 42
0.0000000001
 43
0.0000000001
 12
1.0
 22
0.0
 32
0.0
 13
1.0
 23
0.0
 33
0.0
 40
0.0
 40
0.0
 40
0.0
 40
0.0
 40
1.0
 40
1.0
 40
1.0
 40
2.0
 40
2.0
 40
2.0
 40
3.0
 40
3.0
 40
3.0
 40
4.0
 40
4.0
 40
4.0
 40
4.0
 10
144.7256366109555
 20
-201.1451247438418
 30
0.0
 10
144.2273380125571
 20
-201.1451247438418
 30
0.0
 10
143.8234074673066
 20
-200.7411941883871
 30
0.0
 10
143.8234074673066
 20
-200.2429308551786
 30
0.0
 10
143.8234074673066
 20
-199.7446675219695
 30
0.0
 10
144.2273380125571
 20
-199.3407369665147
 30
0.0
 10
144.7256366109555
 20
-199.3407369665147
 30
0.0
 10
145.2238999315771
 20
-199.3407369665147
 30
0.0
 10
145.6278304768275
 20
-199.7446675219695
 30
0.0
 10
145.6278304768275
 20
-200.2429308551786
 30
0.0
 10
145.6278304768275
 20
-200.7411941883871
 30
0.0
 10
145.2238999315771
 20
-201.1451247438418
 30
0.0
 10
144.7256366109555
 20
-201.1451247438418
 30
0.0
  0
SPLINE
  5
A8
330
5E
100
AcDbEntity
  8
Abat-jour
 62
     1
420
 16711680
370
     5
100
AcDbSpline
210
0.0
220
0.0
230
1.0
 70
    11
 71
     3
 72
    17
 73
    13
 74
     0
 42
0.0000000001
 43
0.0000000001
 12
1.0
 22
0.0
 32
0.0
 13
1.0
 23
0.0
 33
0.0
 40
0.0
 40
0.0
 40
0.0
 40
0.0
 40
1.0
 40
1.0
 40
1.0
 40
2.0
 40
2.0
 40
2.0
 40
3.0
 40
3.0
 40
3.0
 40
4.0
 40
4.0
 40
4.0
 40
4.0
 10
153.045265287593
 20
-209.8651564083283
 30
0.0
 10
152.2627689186672
 20
-209.8651564083283
 30
0.0
 10
151.6284039348512
 20
-209.2308266862646
 30
0.0
 10
151.6284039348512
 20
-208.4482950197938
 30
0.0
 10
151.6284039348512
 20
-207.6657986311006
 30
0.0
 10
152.2627689186672
 20
-207.0314689090369
 30
0.0
 10
153.045265287593
 20
-207.0314689090369
 30
0.0
 10
153.8277656292454
 20
-207.0314689090369
 30
0.0
 10
154.4621266403347
 20
-207.6657986311006
 30
0.0
 10
154.4621266403347
 20
-208.4482950197938
 30
0.0
 10
154.4621266403347
 20
-209.2308266862646
 30
0.0
 10
153.8277656292454
 20
-209.8651564083283
 30
0.0
 10
153.045265287593
 20
-209.8651564083283
 30
0.0
  0
SPLINE
  5
A9
330
5E
100
AcDbEntity
  8
Abat-jour
 62
     1
420
 16711680
370
     5
100
AcDbSpline
210
0.0
220
0.0
230
1.0
 70
    11
 71
     3
 72
    17
 73
    13
 74
     0
 42
0.0000000001
 43
0.0000000001
 12
1.0
 22
0.0
 32
0.0
 13
1.0
 23
0.0
 33
0.0
 40
0.0
 40
0.0
 40
0.0
 40
0.0
 40
1.0
 40
1.0
 40
1.0
 40
2.0
 40
2.0
 40
2.0
 40
3.0
 40
3.0
 40
3.0
 40
4.0
 40
4.0
 40
4.0
 40
4.0
 10
153.9921600736488
 20
-203.3413427988485
 30
0.0
 10
153.1050963971777
 20
-203.3413427988485
 30
0.0
 10
152.3860294710782
 20
-202.6222758545838
 30
0.0
 10
152.3860294710782
 20
-201.7352161325829
 30
0.0
 10
152.3860294710782
 20
-200.8481916883602
 30
0.0
 10
153.1050963971777
 20
-200.129089466318
 30
0.0
 10
153.9921600736488
 20
-200.129089466318
 30
0.0
 10
154.8791805185837
 20
-200.129089466318
 30
0.0
 10
155.5982827224601
 20
-200.8481916883602
 30
0.0
 10
155.5982827224601
 20
-201.7352161325829
 30
0.0
 10
155.5982827224601
 20
-202.6222758545838
 30
0.0
 10
154.8791805185837
 20
-203.3413427988485
 30
0.0
 10
153.9921600736488
 20
-203.3413427988485
 30
0.0
  0
SPLINE
  5
AA
330
5E
100
AcDbEntity
  8
Abat-jour
 62
     1
420
 16711680
370
     5
100
AcDbSpline
210
0.0
220
0.0
230
1.0
 70
    11
 71
     3
 72
    17
 73
    13
 74
     0
 42
0.0000000001
 43
0.0000000001
 12
1.0
 22
0.0
 32
0.0
 13
1.0
 23
0.0
 33
0.0
 40
0.0
 40
0.0
 40
0.0
 40
0.0
 40
1.0
 40
1.0
 40
1.0
 40
2.0
 40
2.0
 40
2.0
 40
3.0
 40
3.0
 40
3.0
 40
4.0
 40
4.0
 40
4.0
 40
4.0
 10
139.4559517439502
 20
-177.184599194276
 30
0.0
 10
138.5281073246232
 20
-177.184599194276
 30
0.0
 10
137.7759851215892
 20
-176.432476972242
 30
0.0
 10
137.7759851215892
 20
-175.5046361391405
 30
0.0
 10
137.7759851215892
 20
-174.5768305838172
 30
0.0
 10
138.5281073246232
 20
-173.824673084005
 30
0.0
 10
139.4559517439502
 20
-173.824673084005
 30
0.0
 10
140.3837572992729
 20
-173.824673084005
 30
0.0
 10
141.1359111469815
 20
-174.5768305838172
 30
0.0
 10
141.1359111469815
 20
-175.5046361391405
 30
0.0
 10
141.1359111469815
 20
-176.432476972242
 30
0.0
 10
140.3837572992729
 20
-177.184599194276
 30
0.0
 10
139.4559517439502
 20
-177.184599194276
 30
0.0
  0
SPLINE
  5
AB
330
5E
100
AcDbEntity
  8
Abat-jour
 62
     1
420
 16711680
370
     5
100
AcDbSpline
210
0.0
220
0.0
230
1.0
 70
    11
 71
     3
 72
    17
 73
    13
 74
     0
 42
0.0000000001
 43
0.0000000001
 12
1.0
 22
0.0
 32
0.0
 13
1.0
 23
0.0
 33
0.0
 40
0.0
 40
0.0
 40
0.0
 40
0.0
 40
1.0
 40
1.0
 40
1.0
 40
2.0
 40
2.0
 40
2.0
 40
3.0
 40
3.0
 40
3.0
 40
4.0
 40
4.0
 40
4.0
 40
4.0
 10
192.3073142859347
 20
-172.8856139175734
 30
0.0
 10
191.7642129109014
 20
-172.8856139175734
 30
0.0
 10
191.32391097769
 20
-172.4453119732387
 30
0.0
 10
191.32391097769
 20
-171.9021753067078
 30
0.0
 10
191.32391097769
 20
-171.3590739179551
 30
0.0
 10
191.7642129109014
 20
-170.9187719736205
 30
0.0
 10
192.3073142859347
 20
-170.9187719736205
 30
0.0
 10
192.8504509387448
 20
-170.9187719736205
 30
0.0
 10
193.2907528719562
 20
-171.3590739179551
 30
0.0
 10
193.2907528719562
 20
-171.9021753067078
 30
0.0
 10
193.2907528719562
 20
-172.4453119732387
 30
0.0
 10
192.8504509387448
 20
-172.8856139175734
 30
0.0
 10
192.3073142859347
 20
-172.8856139175734
 30
0.0
  0
SPLINE
  5
AC
330
5E
100
AcDbEntity
  8
Abat-jour
 62
     1
420
 16711680
370
     5
100
AcDbSpline
210
0.0
220
0.0
230
1.0
 70
    11
 71
     3
 72
    17
 73
    13
 74
     0
 42
0.0000000001
 43
0.0000000001
 12
1.0
 22
0.0
 32
0.0
 13
1.0
 23
0.0
 33
0.0
 40
0.0
 40
0.0
 40
0.0
 40
0.0
 40
1.0
 40
1.0
 40
1.0
 40
2.0
 40
2.0
 40
2.0
 40
3.0
 40
3.0
 40
3.0
 40
4.0
 40
4.0
 40
4.0
 40
4.0
 10
137.8097812318381
 20
-199.6340364108862
 30
0.0
 10
137.0098929189116
 20
-199.6340364108862
 30
0.0
 10
136.3614168243445
 20
-198.9855955777147
 30
0.0
 10
136.3614168243445
 20
-198.1857072445817
 30
0.0
 10
136.3614168243445
 20
-197.3858189114481
 30
0.0
 10
137.0098929189116
 20
-196.7373780782773
 30
0.0
 10
137.8097812318381
 20
-196.7373780782773
 30
0.0
 10
138.6096695447646
 20
-196.7373780782773
 30
0.0
 10
139.2581103615548
 20
-197.3858189114481
 30
0.0
 10
139.2581103615548
 20
-198.1857072445817
 30
0.0
 10
139.2581103615548
 20
-198.9855955777147
 30
0.0
 10
138.6096695447646
 20
-199.6340364108862
 30
0.0
 10
137.8097812318381
 20
-199.6340364108862
 30
0.0
  0
SPLINE
  5
AD
330
5E
100
AcDbEntity
  8
Abat-jour
 62
     1
420
 16711680
370
     5
100
AcDbSpline
210
0.0
220
0.0
230
1.0
 70
    11
 71
     3
 72
    17
 73
    13
 74
     0
 42
0.0000000001
 43
0.0000000001
 12
1.0
 22
0.0
 32
0.0
 13
1.0
 23
0.0
 33
0.0
 40
0.0
 40
0.0
 40
0.0
 40
0.0
 40
1.0
 40
1.0
 40
1.0
 40
2.0
 40
2.0
 40
2.0
 40
3.0
 40
3.0
 40
3.0
 40
4.0
 40
4.0
 40
4.0
 40
4.0
 10
171.7762478652814
 20
-191.8222311350612
 30
0.0
 10
171.2711053781686
 20
-191.8222311350612
 30
0.0
 10
170.8616406249869
 20
-191.4127266907192
 30
0.0
 10
170.8616406249869
 20
-190.9076194686232
 30
0.0
 10
170.8616406249869
 20
-190.4024769687496
 30
0.0
 10
171.2711053781686
 20
-189.9929725244077
 30
0.0
 10
171.7762478652814
 20
-189.9929725244077
 30
0.0
 10
172.2813903523941
 20
-189.9929725244077
 30
0.0
 10
172.6908595086143
 20
-190.4024769687496
 30
0.0
 10
172.6908595086143
 20
-190.9076194686232
 30
0.0
 10
172.6908595086143
 20
-191.4127266907192
 30
0.0
 10
172.2813903523941
 20
-191.8222311350612
 30
0.0
 10
171.7762478652814
 20
-191.8222311350612
 30
0.0
  0
SPLINE
  5
AE
330
5E
100
AcDbEntity
  8
Abat-jour
 62
     1
420
 16711680
370
     5
100
AcDbSpline
210
0.0
220
0.0
230
1.0
 70
    11
 71
     3
 72
    17
 73
    13
 74
     0
 42
0.0000000001
 43
0.0000000001
 12
1.0
 22
0.0
 32
0.0
 13
1.0
 23
0.0
 33
0.0
 40
0.0
 40
0.0
 40
0.0
 40
0.0
 40
1.0
 40
1.0
 40
1.0
 40
2.0
 40
2.0
 40
2.0
 40
3.0
 40
3.0
 40
3.0
 40
4.0
 40
4.0
 40
4.0
 40
4.0
 10
175.5196786031118
 20
-177.3724886386737
 30
0.0
 10
174.6127267351608
 20
-177.3724886386737
 30
0.0
 10
173.8774628116749
 20
-176.6372644721908
 30
0.0
 10
173.8774628116749
 20
-175.7303080835291
 30
0.0
 10
173.8774628116749
 20
-174.8233516948667
 30
0.0
 10
174.6127267351608
 20
-174.0880922506057
 30
0.0
 10
175.5196786031118
 20
-174.0880922506057
 30
0.0
 10
176.4266349688623
 20
-174.0880922506057
 30
0.0
 10
177.1618591167719
 20
-174.8233516948667
 30
0.0
 10
177.1618591167719
 20
-175.7303080835291
 30
0.0
 10
177.1618591167719
 20
-176.6372644721908
 30
0.0
 10
176.4266349688623
 20
-177.3724886386737
 30
0.0
 10
175.5196786031118
 20
-177.3724886386737
 30
0.0
  0
SPLINE
  5
AF
330
5E
100
AcDbEntity
  8
Abat-jour
 62
     1
420
 16711680
370
     5
100
AcDbSpline
210
0.0
220
0.0
230
1.0
 70
    11
 71
     3
 72
    17
 73
    13
 74
     0
 42
0.0000000001
 43
0.0000000001
 12
1.0
 22
0.0
 32
0.0
 13
1.0
 23
0.0
 33
0.0
 40
0.0
 40
0.0
 40
0.0
 40
0.0
 40
1.0
 40
1.0
 40
1.0
 40
2.0
 40
2.0
 40
2.0
 40
3.0
 40
3.0
 40
3.0
 40
4.0
 40
4.0
 40
4.0
 40
4.0
 10
145.2750879858267
 20
-183.0932389150213
 30
0.0
 10
144.3712360644415
 20
-183.0932389150213
 30
0.0
 10
143.6385166386902
 20
-182.3605194707602
 30
0.0
 10
143.6385166386902
 20
-181.4566675265414
 30
0.0
 10
143.6385166386902
 20
-180.5527803045451
 30
0.0
 10
144.3712360644415
 20
-179.820060860284
 30
0.0
 10
145.2750879858267
 20
-179.820060860284
 30
0.0
 10
146.1789751849888
 20
-179.820060860284
 30
0.0
 10
146.9116946107401
 20
-180.5527803045451
 30
0.0
 10
146.9116946107401
 20
-181.4566675265414
 30
0.0
 10
146.9116946107401
 20
-182.3605194707602
 30
0.0
 10
146.1789751849888
 20
-183.0932389150213
 30
0.0
 10
145.2750879858267
 20
-183.0932389150213
 30
0.0
  0
SPLINE
  5
B0
330
5E
100
AcDbEntity
  8
Abat-jour
 62
     1
420
 16711680
370
     5
100
AcDbSpline
210
0.0
220
0.0
230
1.0
 70
    11
 71
     3
 72
    17
 73
    13
 74
     0
 42
0.0000000001
 43
0.0000000001
 12
1.0
 22
0.0
 32
0.0
 13
1.0
 23
0.0
 33
0.0
 40
0.0
 40
0.0
 40
0.0
 40
0.0
 40
1.0
 40
1.0
 40
1.0
 40
2.0
 40
2.0
 40
2.0
 40
3.0
 40
3.0
 40
3.0
 40
4.0
 40
4.0
 40
4.0
 40
4.0
 10
172.7922831171379
 20
-181.576153359845
 30
0.0
 10
172.205225632115
 20
-181.576153359845
 30
0.0
 10
171.7293284220339
 20
-181.1002561377417
 30
0.0
 10
171.7293284220339
 20
-180.5132339156666
 30
0.0
 10
171.7293284220339
 20
-179.9261764158134
 30
0.0
 10
172.205225632115
 20
-179.4502791937101
 30
0.0
 10
172.7922831171379
 20
-179.4502791937101
 30
0.0
 10
173.3793053243839
 20
-179.4502791937101
 30
0.0
 10
173.855202534465
 20
-179.9261764158134
 30
0.0
 10
173.855202534465
 20
-180.5132339156666
 30
0.0
 10
173.855202534465
 20
-181.1002561377417
 30
0.0
 10
173.3793053243839
 20
-181.576153359845
 30
0.0
 10
172.7922831171379
 20
-181.576153359845
 30
0.0
  0
SPLINE
  5
B1
330
5E
100
AcDbEntity
  8
Abat-jour
 62
     1
420
 16711680
370
     5
100
AcDbSpline
210
0.0
220
0.0
230
1.0
 70
    11
 71
     3
 72
    17
 73
    13
 74
     0
 42
0.0000000001
 43
0.0000000001
 12
1.0
 22
0.0
 32
0.0
 13
1.0
 23
0.0
 33
0.0
 40
0.0
 40
0.0
 40
0.0
 40
0.0
 40
1.0
 40
1.0
 40
1.0
 40
2.0
 40
2.0
 40
2.0
 40
3.0
 40
3.0
 40
3.0
 40
4.0
 40
4.0
 40
4.0
 40
4.0
 10
166.19607967431
 20
-222.7719194606573
 30
0.0
 10
165.2790691421493
 20
-222.7719194606573
 30
0.0
 10
164.5356605500041
 20
-222.0285108497322
 30
0.0
 10
164.5356605500041
 20
-221.111465016628
 30
0.0
 10
164.5356605500041
 20
-220.1944544613013
 30
0.0
 10
165.2790691421493
 20
-219.4510458503762
 30
0.0
 10
166.19607967431
 20
-219.4510458503762
 30
0.0
 10
167.1131254842475
 20
-219.4510458503762
 30
0.0
 10
167.8565340763927
 20
-220.1944544613013
 30
0.0
 10
167.8565340763927
 20
-221.111465016628
 30
0.0
 10
167.8565340763927
 20
-222.0285108497322
 30
0.0
 10
167.1131254842475
 20
-222.7719194606573
 30
0.0
 10
166.19607967431
 20
-222.7719194606573
 30
0.0
  0
SPLINE
  5
B2
330
5E
100
AcDbEntity
  8
Abat-jour
 62
     1
420
 16711680
370
     5
100
AcDbSpline
210
0.0
220
0.0
230
1.0
 70
    11
 71
     3
 72
    17
 73
    13
 74
     0
 42
0.0000000001
 43
0.0000000001
 12
1.0
 22
0.0
 32
0.0
 13
1.0
 23
0.0
 33
0.0
 40
0.0
 40
0.0
 40
0.0
 40
0.0
 40
1.0
 40
1.0
 40
1.0
 40
2.0
 40
2.0
 40
2.0
 40
3.0
 40
3.0
 40
3.0
 40
4.0
 40
4.0
 40
4.0
 40
4.0
 10
163.4787072934993
 20
-184.1340744703165
 30
0.0
 10
162.8695264258441
 20
-184.1340744703165
 30
0.0
 10
162.3757081051091
 20
-183.6402561371069
 30
0.0
 10
162.3757081051091
 20
-183.0311147483699
 30
0.0
 10
162.3757081051091
 20
-182.4219380818561
 30
0.0
 10
162.8695264258441
 20
-181.9281197486458
 30
0.0
 10
163.4787072934993
 20
-181.9281197486458
 30
0.0
 10
164.0878444503178
 20
-181.9281197486458
 30
0.0
 10
164.5816627710527
 20
-182.4219380818561
 30
0.0
 10
164.5816627710527
 20
-183.0311147483699
 30
0.0
 10
164.5816627710527
 20
-183.6402561371069
 30
0.0
 10
164.0878444503178
 20
-184.1340744703165
 30
0.0
 10
163.4787072934993
 20
-184.1340744703165
 30
0.0
  0
SPLINE
  5
B3
330
5E
100
AcDbEntity
  8
Abat-jour
 62
     1
420
 16711680
370
     5
100
AcDbSpline
210
0.0
220
0.0
230
1.0
 70
    11
 71
     3
 72
    17
 73
    13
 74
     0
 42
0.0000000001
 43
0.0000000001
 12
1.0
 22
0.0
 32
0.0
 13
1.0
 23
0.0
 33
0.0
 40
0.0
 40
0.0
 40
0.0
 40
0.0
 40
1.0
 40
1.0
 40
1.0
 40
2.0
 40
2.0
 40
2.0
 40
3.0
 40
3.0
 40
3.0
 40
4.0
 40
4.0
 40
4.0
 40
4.0
 10
167.5831665833669
 20
-181.5469080820747
 30
0.0
 10
166.6678493844963
 20
-181.5469080820747
 30
0.0
 10
165.9258166256494
 20
-180.8048753044824
 30
0.0
 10
165.9258166256494
 20
-179.8895228047114
 30
0.0
 10
165.9258166256494
 20
-178.9741703049397
 30
0.0
 10
166.6678493844963
 20
-178.2321375273475
 30
0.0
 10
167.5831665833669
 20
-178.2321375273475
 30
0.0
 10
168.4985190600143
 20
-178.2321375273475
 30
0.0
 10
169.2405518188612
 20
-178.9741703049397
 30
0.0
 10
169.2405518188612
 20
-179.8895228047114
 30
0.0
 10
169.2405518188612
 20
-180.8048753044824
 30
0.0
 10
168.4985190600143
 20
-181.5469080820747
 30
0.0
 10
167.5831665833669
 20
-181.5469080820747
 30
0.0
  0
SPLINE
  5
B4
330
5E
100
AcDbEntity
  8
Abat-jour
 62
     1
420
 16711680
370
     5
100
AcDbSpline
210
0.0
220
0.0
230
1.0
 70
    11
 71
     3
 72
    17
 73
    13
 74
     0
 42
0.0000000001
 43
0.0000000001
 12
1.0
 22
0.0
 32
0.0
 13
1.0
 23
0.0
 33
0.0
 40
0.0
 40
0.0
 40
0.0
 40
0.0
 40
1.0
 40
1.0
 40
1.0
 40
2.0
 40
2.0
 40
2.0
 40
3.0
 40
3.0
 40
3.0
 40
4.0
 40
4.0
 40
4.0
 40
4.0
 10
126.0846476420823
 20
-190.79540085754
 30
0.0
 10
125.4229776589629
 20
-190.79540085754
 30
0.0
 10
124.8865823031472
 20
-190.2590375243409
 30
0.0
 10
124.8865823031472
 20
-189.5973675245066
 30
0.0
 10
124.8865823031472
 20
-188.9356975246716
 30
0.0
 10
125.4229776589629
 20
-188.399298913695
 30
0.0
 10
126.0846476420823
 20
-188.399298913695
 30
0.0
 10
126.7463176252017
 20
-188.399298913695
 30
0.0
 10
127.2826809448513
 20
-188.9356975246716
 30
0.0
 10
127.2826809448513
 20
-189.5973675245066
 30
0.0
 10
127.2826809448513
 20
-190.2590375243409
 30
0.0
 10
126.7463176252017
 20
-190.79540085754
 30
0.0
 10
126.0846476420823
 20
-190.79540085754
 30
0.0
  0
SPLINE
  5
B5
330
5E
100
AcDbEntity
  8
Abat-jour
 62
     1
420
 16711680
370
     5
100
AcDbSpline
210
0.0
220
0.0
230
1.0
 70
    11
 71
     3
 72
    17
 73
    13
 74
     0
 42
0.0000000001
 43
0.0000000001
 12
1.0
 22
0.0
 32
0.0
 13
1.0
 23
0.0
 33
0.0
 40
0.0
 40
0.0
 40
0.0
 40
0.0
 40
1.0
 40
1.0
 40
1.0
 40
2.0
 40
2.0
 40
2.0
 40
3.0
 40
3.0
 40
3.0
 40
4.0
 40
4.0
 40
4.0
 40
4.0
 10
128.3369220290664
 20
-167.5687589189023
 30
0.0
 10
127.7760406544868
 20
-167.5687589189023
 30
0.0
 10
127.3213453883093
 20
-167.1140283634608
 30
0.0
 10
127.3213453883093
 20
-166.5531469747119
 30
0.0
 10
127.3213453883093
 20
-165.9922303081854
 30
0.0
 10
127.7760406544868
 20
-165.5375350305214
 30
0.0
 10
128.3369220290664
 20
-165.5375350305214
 30
0.0
 10
128.8978386814229
 20
-165.5375350305214
 30
0.0
 10
129.3525339476005
 20
-165.9922303081854
 30
0.0
 10
129.3525339476005
 20
-166.5531469747119
 30
0.0
 10
129.3525339476005
 20
-167.1140283634608
 30
0.0
 10
128.8978386814229
 20
-167.5687589189023
 30
0.0
 10
128.3369220290664
 20
-167.5687589189023
 30
0.0
  0
SPLINE
  5
B6
330
5E
100
AcDbEntity
  8
Abat-jour
 62
     1
420
 16711680
370
     5
100
AcDbSpline
210
0.0
220
0.0
230
1.0
 70
    11
 71
     3
 72
    17
 73
    13
 74
     0
 42
0.0000000001
 43
0.0000000001
 12
1.0
 22
0.0
 32
0.0
 13
1.0
 23
0.0
 33
0.0
 40
0.0
 40
0.0
 40
0.0
 40
0.0
 40
1.0
 40
1.0
 40
1.0
 40
2.0
 40
2.0
 40
2.0
 40
3.0
 40
3.0
 40
3.0
 40
4.0
 40
4.0
 40
4.0
 40
4.0
 10
168.1758685126902
 20
-122.1073450413787
 30
0.0
 10
167.4953249189412
 20
-122.1073450413787
 30
0.0
 10
166.9436157663498
 20
-121.5556358748503
 30
0.0
 10
166.9436157663498
 20
-120.8750922639095
 30
0.0
 10
166.9436157663498
 20
-120.1945133751906
 30
0.0
 10
167.4953249189412
 20
-119.6428394864396
 30
0.0
 10
168.1758685126902
 20
-119.6428394864396
 30
0.0
 10
168.8564517366002
 20
-119.6428394864396
 30
0.0
 10
169.4081212590306
 20
-120.1945133751906
 30
0.0
 10
169.4081212590306
 20
-120.8750922639095
 30
0.0
 10
169.4081212590306
 20
-121.5556358748503
 30
0.0
 10
168.8564517366002
 20
-122.1073450413787
 30
0.0
 10
168.1758685126902
 20
-122.1073450413787
 30
0.0
  0
SPLINE
  5
B7
330
5E
100
AcDbEntity
  8
Abat-jour
 62
     1
420
 16711680
370
     5
100
AcDbSpline
210
0.0
220
0.0
230
1.0
 70
    11
 71
     3
 72
    17
 73
    13
 74
     0
 42
0.0000000001
 43
0.0000000001
 12
1.0
 22
0.0
 32
0.0
 13
1.0
 23
0.0
 33
0.0
 40
0.0
 40
0.0
 40
0.0
 40
0.0
 40
1.0
 40
1.0
 40
1.0
 40
2.0
 40
2.0
 40
2.0
 40
3.0
 40
3.0
 40
3.0
 40
4.0
 40
4.0
 40
4.0
 40
4.0
 10
137.6390015139728
 20
-167.7075064188675
 30
0.0
 10
136.8525187562599
 20
-167.7075064188675
 30
0.0
 10
136.214943494748
 20
-167.0699311412496
 30
0.0
 10
136.214943494748
 20
-166.2834483636684
 30
0.0
 10
136.214943494748
 20
-165.4969655860872
 30
0.0
 10
136.8525187562599
 20
-164.8593903084687
 30
0.0
 10
137.6390015139728
 20
-164.8593903084687
 30
0.0
 10
138.4254489939089
 20
-164.8593903084687
 30
0.0
 10
139.0630242554208
 20
-165.4969655860872
 30
0.0
 10
139.0630242554208
 20
-166.2834483636684
 30
0.0
 10
139.0630242554208
 20
-167.0699311412496
 30
0.0
 10
138.4254489939089
 20
-167.7075064188675
 30
0.0
 10
137.6390015139728
 20
-167.7075064188675
 30
0.0
  0
SPLINE
  5
B8
330
5E
100
AcDbEntity
  8
Abat-jour
 62
     1
420
 16711680
370
     5
100
AcDbSpline
210
0.0
220
0.0
230
1.0
 70
    11
 71
     3
 72
    17
 73
    13
 74
     0
 42
0.0000000001
 43
0.0000000001
 12
1.0
 22
0.0
 32
0.0
 13
1.0
 23
0.0
 33
0.0
 40
0.0
 40
0.0
 40
0.0
 40
0.0
 40
1.0
 40
1.0
 40
1.0
 40
2.0
 40
2.0
 40
2.0
 40
3.0
 40
3.0
 40
3.0
 40
4.0
 40
4.0
 40
4.0
 40
4.0
 10
152.2509508634132
 20
-182.5154947484993
 30
0.0
 10
151.6980461853333
 20
-182.5154947484993
 30
0.0
 10
151.249802833399
 20
-182.0672905819445
 30
0.0
 10
151.249802833399
 20
-181.5143466931939
 30
0.0
 10
151.249802833399
 20
-180.9614380822208
 30
0.0
 10
151.6980461853333
 20
-180.5132339156666
 30
0.0
 10
152.2509508634132
 20
-180.5132339156666
 30
0.0
 10
152.8038594604184
 20
-180.5132339156666
 30
0.0
 10
153.2520988934273
 20
-180.9614380822208
 30
0.0
 10
153.2520988934273
 20
-181.5143466931939
 30
0.0
 10
153.2520988934273
 20
-182.0672905819445
 30
0.0
 10
152.8038594604184
 20
-182.5154947484993
 30
0.0
 10
152.2509508634132
 20
-182.5154947484993
 30
0.0
  0
SPLINE
  5
B9
330
5E
100
AcDbEntity
  8
Abat-jour
 62
     1
420
 16711680
370
     5
100
AcDbSpline
210
0.0
220
0.0
230
1.0
 70
    11
 71
     3
 72
    17
 73
    13
 74
     0
 42
0.0000000001
 43
0.0000000001
 12
1.0
 22
0.0
 32
0.0
 13
1.0
 23
0.0
 33
0.0
 40
0.0
 40
0.0
 40
0.0
 40
0.0
 40
1.0
 40
1.0
 40
1.0
 40
2.0
 40
2.0
 40
2.0
 40
3.0
 40
3.0
 40
3.0
 40
4.0
 40
4.0
 40
4.0
 40
4.0
 10
141.3684269743828
 20
-228.1258866815413
 30
0.0
 10
140.4996058854372
 20
-228.1258866815413
 30
0.0
 10
139.7952850700726
 20
-227.4215658483836
 30
0.0
 10
139.7952850700726
 20
-226.5527447374899
 30
0.0
 10
139.7952850700726
 20
-225.6839236265956
 30
0.0
 10
140.4996058854372
 20
-224.9796027934386
 30
0.0
 10
141.3684269743828
 20
-224.9796027934386
 30
0.0
 10
142.2372517432543
 20
-224.9796027934386
 30
0.0
 10
142.9415688786931
 20
-225.6839236265956
 30
0.0
 10
142.9415688786931
 20
-226.5527447374899
 30
0.0
 10
142.9415688786931
 20
-227.4215658483836
 30
0.0
 10
142.2372517432543
 20
-228.1258866815413
 30
0.0
 10
141.3684269743828
 20
-228.1258866815413
 30
0.0
  0
SPLINE
  5
BA
330
5E
100
AcDbEntity
  8
Abat-jour
 62
     1
420
 16711680
370
     5
100
AcDbSpline
210
0.0
220
0.0
230
1.0
 70
    11
 71
     3
 72
    17
 73
    13
 74
     0
 42
0.0000000001
 43
0.0000000001
 12
1.0
 22
0.0
 32
0.0
 13
1.0
 23
0.0
 33
0.0
 40
0.0
 40
0.0
 40
0.0
 40
0.0
 40
1.0
 40
1.0
 40
1.0
 40
2.0
 40
2.0
 40
2.0
 40
3.0
 40
3.0
 40
3.0
 40
4.0
 40
4.0
 40
4.0
 40
4.0
 10
150.0040386985144
 20
-194.8308964120869
 30
0.0
 10
149.0408142786439
 20
-194.8308964120869
 30
0.0
 10
148.2599406874546
 20
-194.0500228011711
 30
0.0
 10
148.2599406874546
 20
-193.0867983569673
 30
0.0
 10
148.2599406874546
 20
-192.1235739127635
 30
0.0
 10
149.0408142786439
 20
-191.3427003018477
 30
0.0
 10
150.0040386985144
 20
-191.3427003018477
 30
0.0
 10
150.967263118385
 20
-191.3427003018477
 30
0.0
 10
151.7481406297651
 20
-192.1235739127635
 30
0.0
 10
151.7481406297651
 20
-193.0867983569673
 30
0.0
 10
151.7481406297651
 20
-194.0500228011711
 30
0.0
 10
150.967263118385
 20
-194.8308964120869
 30
0.0
 10
150.0040386985144
 20
-194.8308964120869
 30
0.0
  0
SPLINE
  5
BB
330
5E
100
AcDbEntity
  8
Abat-jour
 62
     1
420
 16711680
370
     5
100
AcDbSpline
210
0.0
220
0.0
230
1.0
 70
    11
 71
     3
 72
    17
 73
    13
 74
     0
 42
0.0000000001
 43
0.0000000001
 12
1.0
 22
0.0
 32
0.0
 13
1.0
 23
0.0
 33
0.0
 40
0.0
 40
0.0
 40
0.0
 40
0.0
 40
1.0
 40
1.0
 40
1.0
 40
2.0
 40
2.0
 40
2.0
 40
3.0
 40
3.0
 40
3.0
 40
4.0
 40
4.0
 40
4.0
 40
4.0
 10
135.6084832324424
 20
-193.5667172457361
 30
0.0
 10
134.8183350784427
 20
-193.5667172457361
 30
0.0
 10
134.1777577133876
 20
-192.9261786347854
 30
0.0
 10
134.1777577133876
 20
-192.1360269683165
 30
0.0
 10
134.1777577133876
 20
-191.3458753018469
 30
0.0
 10
134.8183350784427
 20
-190.7053366908962
 30
0.0
 10
135.6084832324424
 20
-190.7053366908962
 30
0.0
 10
136.3986348789506
 20
-190.7053366908962
 30
0.0
 10
137.0391734737202
 20
-191.3458753018469
 30
0.0
 10
137.0391734737202
 20
-192.1360269683165
 30
0.0
 10
137.0391734737202
 20
-192.9261786347854
 30
0.0
 10
136.3986348789506
 20
-193.5667172457361
 30
0.0
 10
135.6084832324424
 20
-193.5667172457361
 30
0.0
  0
ENDBLK
  5
61
330
5E
100
AcDbEntity
  8
0
100
AcDbBlockEnd
  0
BLOCK
  5
BE
330
BC
100
AcDbEntity
  8
0
100
AcDbBlockBegin
  2
block 4
 70
     0
 10
0.0
 20
0.0
 30
0.0
  3
block 4
  1

  0
SPLINE
  5
C0
330
BC
100
AcDbEntity
  8
Abat-jour
 62
     1
420
 16711680
370
     5
100
AcDbSpline
210
0.0
220
0.0
230
1.0
 70
    11
 71
     3
 72
   125
 73
   121
 74
     0
 42
0.0000000001
 43
0.0000000001
 12
1.0
 22
0.0
 32
0.0
 13
1.0
 23
0.0
 33
0.0
 40
0.0
 40
0.0
 40
0.0
 40
0.0
 40
1.0
 40
1.0
 40
1.0
 40
2.0
 40
2.0
 40
2.0
 40
3.0
 40
3.0
 40
3.0
 40
4.0
 40
4.0
 40
4.0
 40
5.0
 40
5.0
 40
5.0
 40
6.0
 40
6.0
 40
6.0
 40
7.0
 40
7.0
 40
7.0
 40
8.0
 40
8.0
 40
8.0
 40
9.0
 40
9.0
 40
9.0
 40
10.0
 40
10.0
 40
10.0
 40
11.0
 40
11.0
 40
11.0
 40
12.0
 40
12.0
 40
12.0
 40
13.0
 40
13.0
 40
13.0
 40
14.0
 40
14.0
 40
14.0
 40
15.0
 40
15.0
 40
15.0
 40
16.0
 40
16.0
 40
16.0
 40
17.0
 40
17.0
 40
17.0
 40
18.0
 40
18.0
 40
18.0
 40
19.0
 40
19.0
 40
19.0
 40
20.0
 40
20.0
 40
20.0
 40
21.0
 40
21.0
 40
21.0
 40
22.0
 40
22.0
 40
22.0
 40
23.0
 40
23.0
 40
23.0
 40
24.0
 40
24.0
 40
24.0
 40
25.0
 40
25.0
 40
25.0
 40
26.0
 40
26.0
 40
26.0
 40
27.0
 40
27.0
 40
27.0
 40
28.0
 40
28.0
 40
28.0
 40
29.0
 40
29.0
 40
29.0
 40
30.0
 40
30.0
 40
30.0
 40
31.0
 40
31.0
 40
31.0
 40
32.0
 40
32.0
 40
32.0
 40
33.0
 40
33.0
 40
33.0
 40
34.0
 40
34.0
 40
34.0
 40
35.0
 40
35.0
 40
35.0
 40
36.0
 40
36.0
 40
36.0
 40
37.0
 40
37.0
 40
37.0
 40
38.0
 40
38.0
 40
38.0
 40
39.0
 40
39.0
 40
39.0
 40
40.0
 40
40.0
 40
40.0
 40
40.0
 10
29.84507198842142
 20
-13.78128332969597
 30
0.0
 10
29.38198059964849
 20
-15.13771388491251
 30
0.0
 10
30.10626865502268
 20
-16.61271305121035
 30
0.0
 10
31.46266393246137
 20
-17.07583971776113
 30
0.0
 10
31.46266393246137
 20
-17.07583971776113
 30
0.0
 10
20.11034560196616
 20
-13.20011721873021
 30
0.0
 10
20.11034560196616
 20
-13.20011721873021
 30
0.0
 10
-3.825633669827573
 20
-83.31103164564689
 30
0.0
 10
-2.175868392462065
 20
-155.9750694052585
 30
0.0
 10
20.06444921308896
 20
-221.0426727223251
 30
0.0
 10
20.06444921308896
 20
-221.0426727223251
 30
0.0
 10
31.24926865473717
 20
-217.228509945501
 30
0.0
 10
31.24926865473717
 20
-217.228509945501
 30
0.0
 10
32.12796665195889
 20
-216.7564227233968
 30
0.0
 10
32.56354136306868
 20
-215.7067677236594
 30
0.0
 10
32.23066026045007
 20
-214.7316193905694
 30
0.0
 10
31.860173932362
 20
-213.6464396686183
 30
0.0
 10
30.68016754376809
 20
-213.0671785576521
 30
0.0
 10
29.59502309959525
 20
-213.4376305020041
 30
0.0
 10
29.59502309959525
 20
-213.4376305020041
 30
0.0
 10
41.38393808248605
 20
-209.4128946696769
 30
0.0
 10
41.38393808248605
 20
-209.4128946696769
 30
0.0
 10
40.29879366572595
 20
-209.7833466140289
 30
0.0
 10
39.71946201383927
 20
-210.9632824470671
 30
0.0
 10
40.08998450438645
 20
-212.0484621690182
 30
0.0
 10
40.42589949581654
 20
-213.0323946687722
 30
0.0
 10
41.42732974804571
 20
-213.5977916130751
 30
0.0
 10
42.42018750049358
 20
-213.4191096686755
 30
0.0
 10
42.42018750049358
 20
-213.4191096686755
 30
0.0
 10
61.0933498018793
 20
-207.0513296702674
 30
0.0
 10
61.0933498018793
 20
-207.0513296702674
 30
0.0
 10
62.015546167241
 20
-206.5970224481587
 30
0.0
 10
62.48050726648996
 20
-205.5195332817615
 30
0.0
 10
62.13947699741259
 20
-204.5206782820109
 30
0.0
 10
61.76902506241916
 20
-203.435533837838
 30
0.0
 10
60.58894814808099
 20
-202.8562374490936
 30
0.0
 10
59.50390956465152
 20
-203.2266541156681
 30
0.0
 10
59.50390956465152
 20
-203.2266541156681
 30
0.0
 10
71.29279009722545
 20
-199.2019535611185
 30
0.0
 10
71.29279009722545
 20
-199.2019535611185
 30
0.0
 10
70.20768095824222
 20
-199.5723702276929
 30
0.0
 10
69.62827875080178
 20
-200.7523413385087
 30
0.0
 10
69.99876781171633
 20
-201.8375210604597
 30
0.0
 10
70.34283012146095
 20
-202.8453366157631
 30
0.0
 10
71.3851844780365
 20
-203.4156018933984
 30
0.0
 10
72.40125312450176
 20
-203.1952216156756
 30
0.0
 10
72.40125312450176
 20
-203.1952216156756
 30
0.0
 10
90.90716348570999
 20
-196.8844505061426
 30
0.0
 10
90.90716348570999
 20
-196.8844505061426
 30
0.0
 10
91.89222484946787
 20
-196.4594238395817
 30
0.0
 10
92.40103622537589
 20
-195.3424235620835
 30
0.0
 10
92.04847012325949
 20
-194.3097018956749
 30
0.0
 10
91.67798291048919
 20
-193.224557451502
 30
0.0
 10
90.49797891770271
 20
-192.6452610627576
 30
0.0
 10
89.41283447352954
 20
-193.0157130071096
 30
0.0
 10
89.41283447352954
 20
-193.0157130071096
 30
0.0
 10
101.2016773897417
 20
-188.99101245256
 30
0.0
 10
101.2016773897417
 20
-188.99101245256
 30
0.0
 10
100.1166035285354
 20
-189.3614291191344
 30
0.0
 10
99.53720391544276
 20
-190.5414002299502
 30
0.0
 10
99.90765325608837
 20
-191.6265446741237
 30
0.0
 10
100.2694268579699
 20
-192.6861480071921
 30
0.0
 10
101.4029371068294
 20
-193.2609288403819
 30
0.0
 10
102.4664209685865
 20
-192.9426174515721
 30
0.0
 10
102.4664209685865
 20
-192.9426174515721
 30
0.0
 10
110.6489994771877
 20
-190.1524778386488
 30
0.0
 10
110.6489994771877
 20
-190.1524778386488
 30
0.0
 10
95.02083848700644
 20
-144.4302553500796
 30
0.0
 10
93.74318169466905
 20
-93.29524247648416
 30
0.0
 10
110.3504749341145
 20
-44.00827109991718
 30
0.0
 10
110.3504749341145
 20
-44.00827109991718
 30
0.0
 10
102.0869379227124
 20
-41.18707193395564
 30
0.0
 10
102.0869379227124
 20
-41.18707193395564
 30
0.0
 10
103.4433684436625
 20
-41.65019860050641
 30
0.0
 10
104.9183675726988
 20
-40.92594582290974
 30
0.0
 10
105.3814236719964
 20
-39.56958582324888
 30
0.0
 10
105.8445178027545
 20
-38.21315526803235
 30
0.0
 10
105.1203681231009
 20
-36.73808554617914
 30
0.0
 10
103.7639023243739
 20
-36.27509999073909
 30
0.0
 10
103.7639023243739
 20
-36.27509999073909
 30
0.0
 10
92.95743732229204
 20
-32.58571471388371
 30
0.0
 10
92.95743732229204
 20
-32.58571471388371
 30
0.0
 10
91.60107735689566
 20
-32.12265860288829
 30
0.0
 10
90.12604295008248
 20
-32.84680554715177
 30
0.0
 10
89.66288101745428
 20
-34.2032361023683
 30
0.0
 10
89.19982491815671
 20
-35.55966665758484
 30
0.0
 10
89.92400947340161
 20
-37.03466582388268
 30
0.0
 10
91.28044002861814
 20
-37.49779249043346
 30
0.0
 10
91.28044002861814
 20
-37.49779249043346
 30
0.0
 10
72.17805063019613
 20
-30.97609554761963
 30
0.0
 10
72.17805063019613
 20
-30.97609554761963
 30
0.0
 10
73.5344105955925
 20
-31.43925749194825
 30
0.0
 10
75.00940972462881
 20
-30.71496943657373
 30
0.0
 10
75.47253637948013
 20
-29.35857415913503
 30
0.0
 10
75.93559247877769
 20
-28.00217888169634
 30
0.0
 10
75.21144555280777
 20
-26.52710915984282
 30
0.0
 10
73.85501503185765
 20
-26.06408832662524
 30
0.0
 10
73.85501503185765
 20
-26.06408832662524
 30
0.0
 10
63.04851475199888
 20
-22.37477360532554
 30
0.0
 10
63.04851475199888
 20
-22.37477360532554
 30
0.0
 10
61.69204895327187
 20
-21.91161166099661
 30
0.0
 10
60.21704982423557
 20
-22.6358644385936
 30
0.0
 10
59.75399372493801
 20
-23.99225971603198
 30
0.0
 10
59.29093762564044
 20
-25.34865499347067
 30
0.0
 10
60.01504927383348
 20
-26.8237247153242
 30
0.0
 10
61.37151507256048
 20
-27.28685138187529
 30
0.0
 10
61.37151507256048
 20
-27.28685138187529
 30
0.0
 10
42.26919861545674
 20
-20.76522499461682
 30
0.0
 10
42.26919861545674
 20
-20.76522499461682
 30
0.0
 10
43.62559385862999
 20
-21.2282458278344
 30
0.0
 10
45.10062826544317
 20
-20.50406360579309
 30
0.0
 10
45.56368436474074
 20
-19.14766832835439
 30
0.0
 10
46.0267404640383
 20
-17.79127305091569
 30
0.0
 10
45.30255948455702
 20
-16.31623860684001
 30
0.0
 10
43.94616301711825
 20
-15.85321777362243
 30
0.0
 10
43.94616301711825
 20
-15.85321777362243
 30
0.0
 10
33.13959218170573
 20
-12.16376194121138
 30
0.0
 10
33.13959218170573
 20
-12.16376194121138
 30
0.0
 10
31.78319782127036
 20
-11.70070583021628
 30
0.0
 10
30.3081986549722
 20
-12.42485277447943
 30
0.0
 10
29.84507198842142
 20
-13.78128332969597
 30
0.0
  0
POLYLINE
  5
C1
330
BC
100
AcDbEntity
  8
Abat-jour
 62
     1
420
 16711680
370
     5
100
AcDb2dPolyline
 66
     1
 10
0.0
 20
0.0
 30
0.0
  0
VERTEX
  5
C2
330
C1
100
AcDbEntity
  8
Abat-jour
 62
     1
420
 16711680
370
     5
100
AcDbVertex
100
AcDb2dVertex
 10
29.59502309959525
 20
-213.4376305020041
 30
0.0
  0
VERTEX
  5
C3
330
C1
100
AcDbEntity
  8
Abat-jour
 62
     1
420
 16711680
370
     5
100
AcDbVertex
100
AcDb2dVertex
 10
27.13901948909805
 20
-214.2761127240167
 30
0.0
  0
SEQEND
  5
C4
330
C1
100
AcDbEntity
  8
Abat-jour
 62
     1
420
 16711680
370
     5
  0
POLYLINE
  5
C5
330
BC
100
AcDbEntity
  8
Abat-jour
 62
     1
420
 16711680
370
     5
100
AcDb2dPolyline
 66
     1
 10
0.0
 20
0.0
 30
0.0
  0
VERTEX
  5
C6
330
C5
100
AcDbEntity
  8
Abat-jour
 62
     1
420
 16711680
370
     5
100
AcDbVertex
100
AcDb2dVertex
 10
41.38393808248605
 20
-209.4128946696769
 30
0.0
  0
VERTEX
  5
C7
330
C5
100
AcDbEntity
  8
Abat-jour
 62
     1
420
 16711680
370
     5
100
AcDbVertex
100
AcDb2dVertex
 10
43.8399428182561
 20
-208.5744124476643
 30
0.0
  0
SEQEND
  5
C8
330
C5
100
AcDbEntity
  8
Abat-jour
 62
     1
420
 16711680
370
     5
  0
POLYLINE
  5
C9
330
BC
100
AcDbEntity
  8
Abat-jour
 62
     1
420
 16711680
370
     5
100
AcDb2dPolyline
 66
     1
 10
0.0
 20
0.0
 30
0.0
  0
VERTEX
  5
CA
330
C9
100
AcDbEntity
  8
Abat-jour
 62
     1
420
 16711680
370
     5
100
AcDbVertex
100
AcDb2dVertex
 10
59.50390956465152
 20
-203.2266893934456
 30
0.0
  0
VERTEX
  5
CB
330
C9
100
AcDbEntity
  8
Abat-jour
 62
     1
420
 16711680
370
     5
100
AcDbVertex
100
AcDb2dVertex
 10
57.04790601619828
 20
-204.0651363376807
 30
0.0
  0
SEQEND
  5
CC
330
C9
100
AcDbEntity
  8
Abat-jour
 62
     1
420
 16711680
370
     5
  0
POLYLINE
  5
CD
330
BC
100
AcDbEntity
  8
Abat-jour
 62
     1
420
 16711680
370
     5
100
AcDb2dPolyline
 66
     1
 10
0.0
 20
0.0
 30
0.0
  0
VERTEX
  5
CE
330
CD
100
AcDbEntity
  8
Abat-jour
 62
     1
420
 16711680
370
     5
100
AcDbVertex
100
AcDb2dVertex
 10
71.29286065277921
 20
-199.2019182833409
 30
0.0
  0
VERTEX
  5
CF
330
CD
100
AcDbEntity
  8
Abat-jour
 62
     1
420
 16711680
370
     5
100
AcDbVertex
100
AcDb2dVertex
 10
73.74886420123245
 20
-198.3634360613283
 30
0.0
  0
SEQEND
  5
D0
330
CD
100
AcDbEntity
  8
Abat-jour
 62
     1
420
 16711680
370
     5
  0
POLYLINE
  5
D1
330
BC
100
AcDbEntity
  8
Abat-jour
 62
     1
420
 16711680
370
     5
100
AcDb2dPolyline
 66
     1
 10
0.0
 20
0.0
 30
0.0
  0
VERTEX
  5
D2
330
D1
100
AcDbEntity
  8
Abat-jour
 62
     1
420
 16711680
370
     5
100
AcDbVertex
100
AcDb2dVertex
 10
89.41279685716779
 20
-193.0157482848871
 30
0.0
  0
VERTEX
  5
D3
330
D1
100
AcDbEntity
  8
Abat-jour
 62
     1
420
 16711680
370
     5
100
AcDbVertex
100
AcDb2dVertex
 10
86.95679558525451
 20
-193.8542305068997
 30
0.0
  0
SEQEND
  5
D4
330
D1
100
AcDbEntity
  8
Abat-jour
 62
     1
420
 16711680
370
     5
  0
POLYLINE
  5
D5
330
BC
100
AcDbEntity
  8
Abat-jour
 62
     1
420
 16711680
370
     5
100
AcDb2dPolyline
 66
     1
 10
0.0
 20
0.0
 30
0.0
  0
VERTEX
  5
D6
330
D5
100
AcDbEntity
  8
Abat-jour
 62
     1
420
 16711680
370
     5
100
AcDbVertex
100
AcDb2dVertex
 10
101.2017479452955
 20
-188.9909771747825
 30
0.0
  0
VERTEX
  5
D7
330
D5
100
AcDbEntity
  8
Abat-jour
 62
     1
420
 16711680
370
     5
100
AcDbVertex
100
AcDb2dVertex
 10
103.6577514937487
 20
-188.1524949527699
 30
0.0
  0
SEQEND
  5
D8
330
D5
100
AcDbEntity
  8
Abat-jour
 62
     1
420
 16711680
370
     5
  0
ENDBLK
  5
BF
330
BC
100
AcDbEntity
  8
0
100
AcDbBlockEnd
  0
ENDSEC
  0
SECTION
  2
ENTITIES
  0
INSERT
  5
42
330
1F
100
AcDbEntity
  8
Abat-jour
100
AcDbBlockReference
  2
block 2
 10
0.0
 20
0.0
 30
0.0
  0
INSERT
  5
BD
330
1F
100
AcDbEntity
  8
Abat-jour
100
AcDbBlockReference
  2
block 4
 10
0.0
 20
0.0
 30
0.0
  0
ENDSEC
  0
SECTION
  2
OBJECTS
  0
DICTIONARY
  5
C
330
0
100
AcDbDictionary
281
     1
  3
ACAD_GROUP
350
D
  3
ACAD_LAYOUT
350
1A
  3
ACAD_MATERIAL
350
3B
  3
ACAD_MLEADERSTYLE
350
DA
  3
ACAD_MLINESTYLE
350
17
  3
ACAD_PLOTSETTINGS
350
19
  3
ACAD_PLOTSTYLENAME
350
E
  3
ACAD_TABLESTYLE
350
D9
  3
ACAD_VISUALSTYLE
350
2A
  0
SUN
  5
3F
330
29
100
AcDbSun
 90
        1
290
     0
 63
     7
421
 16777215
 40
1.0
291
     1
 91
  2455826
 92
 54000000
292
     0
 70
     2
 71
   256
280
     1
  0
DICTIONARY
  5
D
102
{ACAD_REACTORS
330
C
102
}
330
C
100
AcDbDictionary
281
     1
  0
DICTIONARY
  5
1A
102
{ACAD_REACTORS
330
C
102
}
330
C
100
AcDbDictionary
281
     1
  3
Layout1
350
1E
  3
Layout2
350
26
  3
Model
350
22
  0
DICTIONARY
  5
3B
102
{ACAD_REACTORS
330
C
102
}
330
C
100
AcDbDictionary
281
     1
  3
ByBlock
350
3D
  3
ByLayer
350
3C
  3
Global
350
3E
  0
DICTIONARY
  5
DA
102
{ACAD_REACTORS
330
C
102
}
330
C
100
AcDbDictionary
281
     1
  0
DICTIONARY
  5
17
102
{ACAD_REACTORS
330
C
102
}
330
C
100
AcDbDictionary
281
     1
  3
Standard
350
18
  0
DICTIONARY
  5
19
102
{ACAD_REACTORS
330
C
102
}
330
C
100
AcDbDictionary
281
     1
  0
ACDBDICTIONARYWDFLT
  5
E
102
{ACAD_REACTORS
330
C
102
}
330
C
100
AcDbDictionary
281
     1
  3
Normal
350
F
100
AcDbDictionaryWithDefault
340
F
  0
DICTIONARY
  5
D9
102
{ACAD_REACTORS
330
C
102
}
330
C
100
AcDbDictionary
281
     1
  0
DICTIONARY
  5
2A
102
{ACAD_REACTORS
330
C
102
}
330
C
100
AcDbDictionary
281
     1
  3
2dWireframe
350
2F
  3
3D Hidden
350
31
  3
3dWireframe
350
30
  3
Basic
350
32
  3
Brighten
350
36
  3
ColorChange
350
3A
  3
Conceptual
350
34
  3
Dim
350
35
  3
Facepattern
350
39
  3
Flat
350
2B
  3
FlatWithEdges
350
2C
  3
Gouraud
350
2D
  3
GouraudWithEdges
350
2E
  3
Linepattern
350
38
  3
Realistic
350
33
  3
Thicken
350
37
  0
LAYOUT
  5
1E
102
{ACAD_REACTORS
330
1A
102
}
330
1A
100
AcDbPlotSettings
  1

  2
none_device
  4

  6

 40
0.0
 41
0.0
 42
0.0
 43
0.0
 44
0.0
 45
0.0
 46
0.0
 47
0.0
 48
0.0
 49
0.0
140
0.0
141
0.0
142
1.0
143
1.0
 70
   688
 72
     0
 73
     0
 74
     5
  7

 75
    16
 76
     0
 77
     2
 78
   300
147
1.0
148
0.0
149
0.0
100
AcDbLayout
  1
Layout1
 70
     1
 71
     1
 10
0.0
 20
0.0
 11
12.0
 21
9.0
 12
0.0
 22
0.0
 32
0.0
 14
1.000000000000000E+20
 24
1.000000000000000E+20
 34
1.000000000000000E+20
 15
-1.000000000000000E+20
 25
-1.000000000000000E+20
 35
-1.000000000000000E+20
146
0.0
 13
0.0
 23
0.0
 33
0.0
 16
1.0
 26
0.0
 36
0.0
 17
0.0
 27
1.0
 37
0.0
 76
     0
330
1B
  0
LAYOUT
  5
26
102
{ACAD_REACTORS
330
1A
102
}
330
1A
100
AcDbPlotSettings
  1

  2
none_device
  4

  6

 40
0.0
 41
0.0
 42
0.0
 43
0.0
 44
0.0
 45
0.0
 46
0.0
 47
0.0
 48
0.0
 49
0.0
140
0.0
141
0.0
142
1.0
143
1.0
 70
   688
 72
     0
 73
     0
 74
     5
  7

 75
    16
 76
     0
 77
     2
 78
   300
147
1.0
148
0.0
149
0.0
100
AcDbLayout
  1
Layout2
 70
     1
 71
     2
 10
0.0
 20
0.0
 11
0.0
 21
0.0
 12
0.0
 22
0.0
 32
0.0
 14
0.0
 24
0.0
 34
0.0
 15
0.0
 25
0.0
 35
0.0
146
0.0
 13
0.0
 23
0.0
 33
0.0
 16
1.0
 26
0.0
 36
0.0
 17
0.0
 27
1.0
 37
0.0
 76
     0
330
23
  0
LAYOUT
  5
22
102
{ACAD_REACTORS
330
1A
102
}
330
1A
100
AcDbPlotSettings
  1

  2
none_device
  4

  6

 40
0.0
 41
0.0
 42
0.0
 43
0.0
 44
0.0
 45
0.0
 46
0.0
 47
0.0
 48
0.0
 49
0.0
140
0.0
141
0.0
142
1.0
143
1.0
 70
  1712
 72
     0
 73
     0
 74
     0
  7

 75
     0
 76
     0
 77
     2
 78
   300
147
1.0
148
0.0
149
0.0
100
AcDbLayout
  1
Model
 70
     1
 71
     0
 10
0.0
 20
0.0
 11
12.0
 21
9.0
 12
0.0
 22
0.0
 32
0.0
 14
1.000000000000000E+20
 24
1.000000000000000E+20
 34
1.000000000000000E+20
 15
-1.000000000000000E+20
 25
-1.000000000000000E+20
 35
-1.000000000000000E+20
146
0.0
 13
0.0
 23
0.0
 33
0.0
 16
1.0
 26
0.0
 36
0.0
 17
0.0
 27
1.0
 37
0.0
 76
     0
330
1F
331
29
  0
MATERIAL
  5
3D
102
{ACAD_REACTORS
330
3B
102
}
330
3B
100
AcDbMaterial
  1
ByBlock
 72
     1
 94
      127
  0
MATERIAL
  5
3C
102
{ACAD_REACTORS
330
3B
102
}
330
3B
100
AcDbMaterial
  1
ByLayer
 72
     1
 94
      127
  0
MATERIAL
  5
3E
102
{ACAD_REACTORS
330
3B
102
}
330
3B
100
AcDbMaterial
  1
Global
 72
     1
 94
      127
  0
MLINESTYLE
  5
18
102
{ACAD_REACTORS
330
17
102
}
330
17
100
AcDbMlineStyle
  2
Standard
 70
     0
  3

 62
   256
 51
90.0
 52
90.0
 71
     2
 49
0.5
 62
   256
  6
BYLAYER
 49
-0.5
 62
   256
  6
BYLAYER
  0
ACDBPLACEHOLDER
  5
F
102
{ACAD_REACTORS
330
E
102
}
330
E
  0
VISUALSTYLE
  5
2F
102
{ACAD_REACTORS
330
2A
102
}
330
2A
100
AcDbVisualStyle
  2
2dWireframe
 70
     4
177
     2
291
     0
 71
     0
176
     1
 72
     2
176
     1
 73
     0
176
     1
 90
        0
176
     1
 40
-0.6
176
     1
 41
-30.0
176
     1
 62
     5
 63
     7
421
 16777215
176
     1
 74
     1
176
     1
 91
        4
176
     1
 64
     7
176
     1
 65
   257
176
     1
 75
     1
176
     1
175
     1
176
     1
 42
1.0
176
     1
 92
        0
176
     1
 66
   257
176
     1
 43
1.0
176
     1
 76
     1
176
     1
 77
     6
176
     1
 78
     2
176
     1
 67
     7
176
     1
 79
     5
176
     1
170
     0
176
     1
171
     0
176
     1
290
     0
176
     1
 93
        1
176
     1
 44
0.0
176
     1
173
     0
176
     1
  0
VISUALSTYLE
  5
31
102
{ACAD_REACTORS
330
2A
102
}
330
2A
100
AcDbVisualStyle
  2
3D Hidden
 70
     6
177
     2
291
     0
 71
     1
176
     1
 72
     2
176
     1
 73
     2
176
     1
 90
        0
176
     1
 40
-0.6
176
     1
 41
-30.0
176
     1
 62
     5
 63
     7
421
 16777215
176
     1
 74
     2
176
     1
 91
        2
176
     1
 64
     7
176
     1
 65
   257
176
     1
 75
     2
176
     1
175
     1
176
     1
 42
40.0
176
     1
 92
        0
176
     1
 66
   257
176
     1
 43
1.0
176
     1
 76
     1
176
     1
 77
     6
176
     1
 78
     2
176
     1
 67
     7
176
     1
 79
     3
176
     1
170
     0
176
     1
171
     0
176
     1
290
     0
176
     1
 93
        1
176
     1
 44
0.0
176
     1
173
     0
176
     1
  0
VISUALSTYLE
  5
30
102
{ACAD_REACTORS
330
2A
102
}
330
2A
100
AcDbVisualStyle
  2
3dWireframe
 70
     5
177
     2
291
     0
 71
     0
176
     1
 72
     2
176
     1
 73
     0
176
     1
 90
        0
176
     1
 40
-0.6
176
     1
 41
-30.0
176
     1
 62
     5
 63
     7
421
 16777215
176
     1
 74
     1
176
     1
 91
        4
176
     1
 64
     7
176
     1
 65
   257
176
     1
 75
     1
176
     1
175
     1
176
     1
 42
1.0
176
     1
 92
        0
176
     1
 66
   257
176
     1
 43
1.0
176
     1
 76
     1
176
     1
 77
     6
176
     1
 78
     2
176
     1
 67
     7
176
     1
 79
     5
176
     1
170
     0
176
     1
171
     0
176
     1
290
     0
176
     1
 93
        1
176
     1
 44
0.0
176
     1
173
     0
176
     1
  0
VISUALSTYLE
  5
32
102
{ACAD_REACTORS
330
2A
102
}
330
2A
100
AcDbVisualStyle
  2
Basic
 70
     7
177
     2
291
     1
 71
     1
176
     1
 72
     0
176
     1
 73
     1
176
     1
 90
        0
176
     1
 40
-0.6
176
     1
 41
-30.0
176
     1
 62
     5
 63
     7
421
 16777215
176
     1
 74
     0
176
     1
 91
        4
176
     1
 64
     7
176
     1
 65
   257
176
     1
 75
     1
176
     1
175
     1
176
     1
 42
1.0
176
     1
 92
        8
176
     1
 66
     7
176
     1
 43
1.0
176
     1
 76
     1
176
     1
 77
     6
176
     1
 78
     2
176
     1
 67
     7
176
     1
 79
     5
176
     1
170
     0
176
     1
171
     0
176
     1
290
     0
176
     1
 93
        1
176
     1
 44
0.0
176
     1
173
     0
176
     1
  0
VISUALSTYLE
  5
36
102
{ACAD_REACTORS
330
2A
102
}
330
2A
100
AcDbVisualStyle
  2
Brighten
 70
    12
177
     2
291
     1
 71
     2
176
     1
 72
     2
176
     1
 73
     0
176
     1
 90
        0
176
     1
 40
-0.6
176
     1
 41
-30.0
176
     1
 62
     5
 63
     7
421
 16777215
176
     1
 74
     1
176
     1
 91
        4
176
     1
 64
     7
176
     1
 65
   257
176
     1
 75
     1
176
     1
175
     1
176
     1
 42
1.0
176
     1
 92
        8
176
     1
 66
     7
176
     1
 43
1.0
176
     1
 76
     1
176
     1
 77
     6
176
     1
 78
     2
176
     1
 67
     7
176
     1
 79
     5
176
     1
170
     0
176
     1
171
     0
176
     1
290
     0
176
     1
 93
        1
176
     1
 44
50.0
176
     1
173
     0
176
     1
  0
VISUALSTYLE
  5
3A
102
{ACAD_REACTORS
330
2A
102
}
330
2A
100
AcDbVisualStyle
  2
ColorChange
 70
    16
177
     2
291
     1
 71
     2
176
     1
 72
     2
176
     1
 73
     3
176
     1
 90
        0
176
     1
 40
-0.6
176
     1
 41
-30.0
176
     1
 62
     5
 63
     8
421
  8421504
176
     1
 74
     1
176
     1
 91
        4
176
     1
 64
     7
176
     1
 65
   257
176
     1
 75
     1
176
     1
175
     1
176
     1
 42
1.0
176
     1
 92
        8
176
     1
 66
     8
424
  8421504
176
     1
 43
1.0
176
     1
 76
     1
176
     1
 77
     6
176
     1
 78
     2
176
     1
 67
     7
176
     1
 79
     5
176
     1
170
     0
176
     1
171
     0
176
     1
290
     0
176
     1
 93
        1
176
     1
 44
0.0
176
     1
173
     0
176
     1
  0
VISUALSTYLE
  5
34
102
{ACAD_REACTORS
330
2A
102
}
330
2A
100
AcDbVisualStyle
  2
Conceptual
 70
     9
177
     2
291
     0
 71
     3
176
     1
 72
     2
176
     1
 73
     0
176
     1
 90
        0
176
     1
 40
-0.6
176
     1
 41
-30.0
176
     1
 62
     5
 63
     7
421
 16777215
176
     1
 74
     2
176
     1
 91
        2
176
     1
 64
     7
176
     1
 65
   257
176
     1
 75
     1
176
     1
175
     1
176
     1
 42
40.0
176
     1
 92
        8
176
     1
 66
     7
176
     1
 43
1.0
176
     1
 76
     1
176
     1
 77
     6
176
     1
 78
     2
176
     1
 67
     7
176
     1
 79
     3
176
     1
170
     0
176
     1
171
     0
176
     1
290
     0
176
     1
 93
        1
176
     1
 44
0.0
176
     1
173
     0
176
     1
  0
VISUALSTYLE
  5
35
102
{ACAD_REACTORS
330
2A
102
}
330
2A
100
AcDbVisualStyle
  2
Dim
 70
    11
177
     2
291
     1
 71
     2
176
     1
 72
     2
176
     1
 73
     0
176
     1
 90
        0
176
     1
 40
-0.6
176
     1
 41
-30.0
176
     1
 62
     5
 63
     7
421
 16777215
176
     1
 74
     1
176
     1
 91
        4
176
     1
 64
     7
176
     1
 65
   257
176
     1
 75
     1
176
     1
175
     1
176
     1
 42
1.0
176
     1
 92
        8
176
     1
 66
     7
176
     1
 43
1.0
176
     1
 76
     1
176
     1
 77
     6
176
     1
 78
     2
176
     1
 67
     7
176
     1
 79
     5
176
     1
170
     0
176
     1
171
     0
176
     1
290
     0
176
     1
 93
        1
176
     1
 44
-50.0
176
     1
173
     0
176
     1
  0
VISUALSTYLE
  5
39
102
{ACAD_REACTORS
330
2A
102
}
330
2A
100
AcDbVisualStyle
  2
Facepattern
 70
    15
177
     2
291
     1
 71
     2
176
     1
 72
     2
176
     1
 73
     0
176
     1
 90
        0
176
     1
 40
-0.6
176
     1
 41
-30.0
176
     1
 62
     5
 63
     7
421
 16777215
176
     1
 74
     1
176
     1
 91
        4
176
     1
 64
     7
176
     1
 65
   257
176
     1
 75
     1
176
     1
175
     1
176
     1
 42
1.0
176
     1
 92
        8
176
     1
 66
     7
176
     1
 43
1.0
176
     1
 76
     1
176
     1
 77
     6
176
     1
 78
     2
176
     1
 67
     7
176
     1
 79
     5
176
     1
170
     0
176
     1
171
     0
176
     1
290
     0
176
     1
 93
        1
176
     1
 44
0.0
176
     1
173
     0
176
     1
  0
VISUALSTYLE
  5
2B
102
{ACAD_REACTORS
330
2A
102
}
330
2A
100
AcDbVisualStyle
  2
Flat
 70
     0
177
     2
291
     1
 71
     2
176
     1
 72
     1
176
     1
 73
     1
176
     1
 90
        2
176
     1
 40
-0.6
176
     1
 41
30.0
176
     1
 62
     5
 63
     7
421
 16777215
176
     1
 74
     0
176
     1
 91
        4
176
     1
 64
     7
176
     1
 65
   257
176
     1
 75
     1
176
     1
175
     1
176
     1
 42
1.0
176
     1
 92
        8
176
     1
 66
     7
176
     1
 43
1.0
176
     1
 76
     1
176
     1
 77
     6
176
     1
 78
     2
176
     1
 67
     7
176
     1
 79
     5
176
     1
170
     0
176
     1
171
     0
176
     1
290
     0
176
     1
 93
       13
176
     1
 44
0.0
176
     1
173
     0
176
     1
  0
VISUALSTYLE
  5
2C
102
{ACAD_REACTORS
330
2A
102
}
330
2A
100
AcDbVisualStyle
  2
FlatWithEdges
 70
     1
177
     2
291
     1
 71
     2
176
     1
 72
     1
176
     1
 73
     1
176
     1
 90
        2
176
     1
 40
-0.6
176
     1
 41
30.0
176
     1
 62
     5
 63
     7
421
 16777215
176
     1
 74
     1
176
     1
 91
        4
176
     1
 64
     7
176
     1
 65
   257
176
     1
 75
     1
176
     1
175
     1
176
     1
 42
1.0
176
     1
 92
        0
176
     1
 66
   257
176
     1
 43
1.0
176
     1
 76
     1
176
     1
 77
     6
176
     1
 78
     2
176
     1
 67
     7
176
     1
 79
     5
176
     1
170
     0
176
     1
171
     0
176
     1
290
     0
176
     1
 93
       13
176
     1
 44
0.0
176
     1
173
     0
176
     1
  0
VISUALSTYLE
  5
2D
102
{ACAD_REACTORS
330
2A
102
}
330
2A
100
AcDbVisualStyle
  2
Gouraud
 70
     2
177
     2
291
     1
 71
     2
176
     1
 72
     2
176
     1
 73
     1
176
     1
 90
        2
176
     1
 40
-0.6
176
     1
 41
30.0
176
     1
 62
     5
 63
     7
421
 16777215
176
     1
 74
     0
176
     1
 91
        4
176
     1
 64
     7
176
     1
 65
   257
176
     1
 75
     1
176
     1
175
     1
176
     1
 42
1.0
176
     1
 92
        0
176
     1
 66
     7
176
     1
 43
1.0
176
     1
 76
     1
176
     1
 77
     6
176
     1
 78
     2
176
     1
 67
     7
176
     1
 79
     5
176
     1
170
     0
176
     1
171
     0
176
     1
290
     0
176
     1
 93
       13
176
     1
 44
0.0
176
     1
173
     0
176
     1
  0
VISUALSTYLE
  5
2E
102
{ACAD_REACTORS
330
2A
102
}
330
2A
100
AcDbVisualStyle
  2
GouraudWithEdges
 70
     3
177
     2
291
     1
 71
     2
176
     1
 72
     2
176
     1
 73
     1
176
     1
 90
        2
176
     1
 40
-0.6
176
     1
 41
30.0
176
     1
 62
     5
 63
     7
421
 16777215
176
     1
 74
     1
176
     1
 91
        4
176
     1
 64
     7
176
     1
 65
   257
176
     1
 75
     1
176
     1
175
     1
176
     1
 42
1.0
176
     1
 92
        0
176
     1
 66
   257
176
     1
 43
1.0
176
     1
 76
     1
176
     1
 77
     6
176
     1
 78
     2
176
     1
 67
     7
176
     1
 79
     5
176
     1
170
     0
176
     1
171
     0
176
     1
290
     0
176
     1
 93
       13
176
     1
 44
0.0
176
     1
173
     0
176
     1
  0
VISUALSTYLE
  5
38
102
{ACAD_REACTORS
330
2A
102
}
330
2A
100
AcDbVisualStyle
  2
Linepattern
 70
    14
177
     2
291
     1
 71
     2
176
     1
 72
     2
176
     1
 73
     0
176
     1
 90
        0
176
     1
 40
-0.6
176
     1
 41
-30.0
176
     1
 62
     5
 63
     7
421
 16777215
176
     1
 74
     1
176
     1
 91
        4
176
     1
 64
     7
176
     1
 65
   257
176
     1
 75
     7
176
     1
175
     7
176
     1
 42
1.0
176
     1
 92
        8
176
     1
 66
     7
176
     1
 43
1.0
176
     1
 76
     1
176
     1
 77
     6
176
     1
 78
     2
176
     1
 67
     7
176
     1
 79
     5
176
     1
170
     0
176
     1
171
     0
176
     1
290
     0
176
     1
 93
        1
176
     1
 44
0.0
176
     1
173
     0
176
     1
  0
VISUALSTYLE
  5
33
102
{ACAD_REACTORS
330
2A
102
}
330
2A
100
AcDbVisualStyle
  2
Realistic
 70
     8
177
     2
291
     0
 71
     2
176
     1
 72
     2
176
     1
 73
     0
176
     1
 90
        0
176
     1
 40
-0.6
176
     1
 41
-30.0
176
     1
 62
     5
 63
     7
421
 16777215
176
     1
 74
     1
176
     1
 91
        0
176
     1
 64
     7
176
     1
 65
   257
176
     1
 75
     1
176
     1
175
     1
176
     1
 42
1.0
176
     1
 92
        8
176
     1
 66
     8
424
  7895160
176
     1
 43
1.0
176
     1
 76
     1
176
     1
 77
     6
176
     1
 78
     2
176
     1
 67
     7
176
     1
 79
     5
176
     1
170
     0
176
     1
171
     0
176
     1
290
     0
176
     1
 93
       13
176
     1
 44
0.0
176
     1
173
     0
176
     1
  0
VISUALSTYLE
  5
37
102
{ACAD_REACTORS
330
2A
102
}
330
2A
100
AcDbVisualStyle
  2
Thicken
 70
    13
177
     2
291
     1
 71
     2
176
     1
 72
     2
176
     1
 73
     0
176
     1
 90
        0
176
     1
 40
-0.6
176
     1
 41
-30.0
176
     1
 62
     5
 63
     7
421
 16777215
176
     1
 74
     1
176
     1
 91
        4
176
     1
 64
     7
176
     1
 65
   257
176
     1
 75
     1
176
     1
175
     1
176
     1
 42
1.0
176
     1
 92
       12
176
     1
 66
     7
176
     1
 43
1.0
176
     1
 76
     1
176
     1
 77
     6
176
     1
 78
     2
176
     1
 67
     7
176
     1
 79
     5
176
     1
170
     0
176
     1
171
     0
176
     1
290
     0
176
     1
 93
        1
176
     1
 44
0.0
176
     1
173
     0
176
     1
  0
ENDSEC
  0
EOF
