<?xml version="1.0" encoding="utf-8"?>
<!-- Generator: Adobe Illustrator 19.0.0, SVG Export Plug-In . SVG Version: 6.00 Build 0)  -->
<svg version="1.1" id="Abat-jour" xmlns="http://www.w3.org/2000/svg" xmlns:xlink="http://www.w3.org/1999/xlink" x="0px" y="0px"
	 viewBox="0 0 595.3 841.9" style="enable-background:new 0 0 595.3 841.9;" xml:space="preserve">
<style type="text/css">
	.st0{fill:none;stroke:#FF0000;stroke-width:0.1;stroke-miterlimit:10;}
</style>
<g id="Particules">
	<path id="XMLID_98_" class="st0" d="M510.7,802.8c1.3-3.8-0.7-8-4.6-9.3l32.2,11c67.9-198.7,63.2-404.7,0.1-589.2l-31.7,10.8
		c-2.5,1.3-3.7,4.3-2.8,7.1c1.1,3.1,4.4,4.7,7.5,3.7L478,248.3c3.1-1.1,4.7-4.4,3.7-7.5c-1-2.8-3.8-4.4-6.6-3.9L422.1,255
		c-2.6,1.3-3.9,4.3-3,7.2c1.1,3.1,4.4,4.7,7.5,3.7l-33.4,11.4c3.1-1.1,4.7-4.4,3.7-7.5c-1-2.9-3.9-4.5-6.8-3.8l-52.5,17.9
		c-2.8,1.2-4.2,4.4-3.2,7.3c1.1,3.1,4.4,4.7,7.5,3.7l-33.4,11.4c3.1-1.1,4.7-4.4,3.7-7.5c-1-3-4.2-4.6-7.3-3.7l-23.2,7.9
		c44.3,129.6,47.9,274.6,0.8,414.3l23.4,8c-3.8-1.3-8,0.7-9.3,4.6c-1.3,3.8,0.7,8,4.6,9.3l30.6,10.5c3.8,1.3,8-0.7,9.3-4.6
		c1.3-3.8-0.7-8-4.6-9.3l54.1,18.5c-3.8-1.3-8,0.7-9.3,4.6c-1.3,3.8,0.7,8,4.6,9.3l30.6,10.5c3.8,1.3,8-0.7,9.3-4.6
		c1.3-3.8-0.7-8-4.6-9.3l54.1,18.5c-3.8-1.3-8,0.7-9.3,4.6s0.7,8,4.6,9.3l30.6,10.5C505.2,808.7,509.4,806.7,510.7,802.8z"/>
	<line id="XMLID_97_" class="st0" x1="511.4" y1="236.9" x2="518.4" y2="234.5"/>
	<line id="XMLID_96_" class="st0" x1="478" y1="248.3" x2="471" y2="250.7"/>
	<line id="XMLID_95_" class="st0" x1="426.6" y1="265.8" x2="433.6" y2="263.4"/>
	<line id="XMLID_94_" class="st0" x1="393.2" y1="277.2" x2="386.2" y2="279.6"/>
	<line id="XMLID_93_" class="st0" x1="341.8" y1="294.8" x2="348.8" y2="292.4"/>
	<line id="XMLID_92_" class="st0" x1="308.4" y1="306.2" x2="301.4" y2="308.5"/>
	<g id="XMLID_99_">
		<circle id="XMLID_91_" class="st0" cx="446.9" cy="393.7" r="4.9"/>
		<circle id="XMLID_90_" class="st0" cx="456.5" cy="422.8" r="2.6"/>
		<circle id="XMLID_89_" class="st0" cx="521.8" cy="527.3" r="3.9"/>
		<circle id="XMLID_88_" class="st0" cx="501" cy="543.7" r="4.4"/>
		<circle id="XMLID_87_" class="st0" cx="403.4" cy="491" r="4.2"/>
		<circle id="XMLID_86_" class="st0" cx="476.4" cy="492.7" r="4.3"/>
		<circle id="XMLID_85_" class="st0" cx="458.9" cy="557.8" r="3.5"/>
		<circle id="XMLID_84_" class="st0" cx="436.3" cy="490" r="3.5"/>
		<circle id="XMLID_83_" class="st0" cx="509.6" cy="554.6" r="2.6"/>
		<circle id="XMLID_82_" class="st0" cx="433.8" cy="450.2" r="4.2"/>
		<circle id="XMLID_81_" class="st0" cx="450.5" cy="515.7" r="4.5"/>
		<circle id="XMLID_80_" class="st0" cx="541.2" cy="560.5" r="4"/>
		<circle id="XMLID_79_" class="st0" cx="514.8" cy="414.9" r="3.7"/>
		<circle id="XMLID_78_" class="st0" cx="522.1" cy="499.6" r="4.4"/>
		<circle id="XMLID_77_" class="st0" cx="532.6" cy="556.4" r="2.9"/>
		<circle id="XMLID_76_" class="st0" cx="503.1" cy="582.3" r="4.9"/>
		<circle id="XMLID_75_" class="st0" cx="471.3" cy="590.7" r="3.4"/>
		<circle id="XMLID_74_" class="st0" cx="483.2" cy="624.4" r="3.7"/>
		<circle id="XMLID_73_" class="st0" cx="458.3" cy="582.4" r="5"/>
		<circle id="XMLID_72_" class="st0" cx="443.2" cy="434.3" r="3.8"/>
		<circle id="XMLID_71_" class="st0" cx="422" cy="517.5" r="3.4"/>
		<circle id="XMLID_70_" class="st0" cx="448.3" cy="592.4" r="3.2"/>
		<circle id="XMLID_69_" class="st0" cx="513.4" cy="481.8" r="3.6"/>
		<circle id="XMLID_68_" class="st0" cx="430.7" cy="501.6" r="4.7"/>
		<circle id="XMLID_67_" class="st0" cx="526.5" cy="512.7" r="4.3"/>
		<circle id="XMLID_66_" class="st0" cx="436.3" cy="527.1" r="3.4"/>
		<circle id="XMLID_65_" class="st0" cx="463.1" cy="496.8" r="2.9"/>
		<circle id="XMLID_64_" class="st0" cx="417.9" cy="472" r="3.5"/>
		<circle id="XMLID_63_" class="st0" cx="516.5" cy="573.8" r="3.8"/>
		<circle id="XMLID_62_" class="st0" cx="488.4" cy="469.3" r="2.9"/>
		<circle id="XMLID_61_" class="st0" cx="487.7" cy="417.5" r="4.6"/>
		<circle id="XMLID_60_" class="st0" cx="386.5" cy="491" r="2.9"/>
		<circle id="XMLID_59_" class="st0" cx="488.8" cy="455.1" r="3.5"/>
		<circle id="XMLID_58_" class="st0" cx="415.2" cy="579.9" r="2.7"/>
		<circle id="XMLID_57_" class="st0" cx="475" cy="571.4" r="3.8"/>
		<circle id="XMLID_56_" class="st0" cx="508.1" cy="708.7" r="2.5"/>
		<circle id="XMLID_55_" class="st0" cx="467.7" cy="562" r="3"/>
		<circle id="XMLID_54_" class="st0" cx="512.2" cy="372.2" r="3.3"/>
		<circle id="XMLID_53_" class="st0" cx="368.4" cy="517.5" r="3.2"/>
		<circle id="XMLID_52_" class="st0" cx="459.7" cy="482.7" r="4.6"/>
		<circle id="XMLID_51_" class="st0" cx="472.6" cy="537.5" r="2.9"/>
		<circle id="XMLID_50_" class="st0" cx="535.8" cy="429.4" r="4.5"/>
		<circle id="XMLID_49_" class="st0" cx="457.5" cy="639.9" r="3.2"/>
		<circle id="XMLID_48_" class="st0" cx="495.8" cy="525.2" r="3.9"/>
		<circle id="XMLID_47_" class="st0" cx="436.5" cy="468.9" r="4.3"/>
		<circle id="XMLID_46_" class="st0" cx="459.4" cy="460" r="4.2"/>
		<circle id="XMLID_45_" class="st0" cx="386.9" cy="379.7" r="4.2"/>
		<circle id="XMLID_44_" class="st0" cx="414.7" cy="592.2" r="2.6"/>
		<circle id="XMLID_43_" class="st0" cx="405.2" cy="444.5" r="4.2"/>
		<circle id="XMLID_42_" class="st0" cx="450.7" cy="612.8" r="2.9"/>
		<circle id="XMLID_41_" class="st0" cx="423.4" cy="627.1" r="4.8"/>
		<circle id="XMLID_40_" class="st0" cx="504.1" cy="559.5" r="3.1"/>
		<circle id="XMLID_39_" class="st0" cx="439.5" cy="631.3" r="4.6"/>
		<circle id="XMLID_38_" class="st0" cx="421.3" cy="599.5" r="4.8"/>
		<circle id="XMLID_37_" class="st0" cx="406.1" cy="535.1" r="3.7"/>
		<circle id="XMLID_36_" class="st0" cx="376.6" cy="427.8" r="3.1"/>
		<circle id="XMLID_35_" class="st0" cx="429.2" cy="400.3" r="4.6"/>
		<circle id="XMLID_34_" class="st0" cx="451.5" cy="442.1" r="5"/>
		<circle id="XMLID_33_" class="st0" cx="409.7" cy="464.9" r="3.1"/>
		<circle id="XMLID_32_" class="st0" cx="457.7" cy="594.7" r="4"/>
		<circle id="XMLID_31_" class="st0" cx="368.4" cy="545.6" r="4.2"/>
		<circle id="XMLID_30_" class="st0" cx="521.6" cy="658.4" r="3.9"/>
		<circle id="XMLID_29_" class="st0" cx="376.1" cy="593.5" r="4"/>
		<circle id="XMLID_28_" class="st0" cx="368.7" cy="570" r="4.5"/>
		<circle id="XMLID_27_" class="st0" cx="366.8" cy="454.7" r="3.5"/>
		<circle id="XMLID_26_" class="st0" cx="370.2" cy="684.7" r="2.9"/>
		<circle id="XMLID_25_" class="st0" cx="372.6" cy="348.8" r="2.6"/>
		<circle id="XMLID_24_" class="st0" cx="357.4" cy="551.5" r="4.2"/>
		<circle id="XMLID_23_" class="st0" cx="361" cy="584.9" r="3.2"/>
		<circle id="XMLID_22_" class="st0" cx="410.2" cy="567.6" r="2.6"/>
		<circle id="XMLID_21_" class="st0" cx="433.8" cy="590.9" r="4"/>
		<circle id="XMLID_20_" class="st0" cx="436.5" cy="571.8" r="4.6"/>
		<circle id="XMLID_19_" class="st0" cx="395.3" cy="497.5" r="4.8"/>
		<circle id="XMLID_18_" class="st0" cx="545.1" cy="487.3" r="2.8"/>
		<circle id="XMLID_17_" class="st0" cx="390.6" cy="561.8" r="4.1"/>
		<circle id="XMLID_16_" class="st0" cx="486.9" cy="541.2" r="2.6"/>
		<circle id="XMLID_15_" class="st0" cx="497.5" cy="498.1" r="4.7"/>
		<circle id="XMLID_14_" class="st0" cx="411.8" cy="514.4" r="4.6"/>
		<circle id="XMLID_13_" class="st0" cx="489.8" cy="511.7" r="3"/>
		<circle id="XMLID_12_" class="st0" cx="471.1" cy="626.8" r="4.7"/>
		<circle id="XMLID_11_" class="st0" cx="463.4" cy="518.8" r="3.1"/>
		<circle id="XMLID_10_" class="st0" cx="475" cy="509.9" r="4.7"/>
		<circle id="XMLID_9_" class="st0" cx="357.4" cy="537.4" r="3.4"/>
		<circle id="XMLID_8_" class="st0" cx="363.8" cy="472.1" r="2.9"/>
		<circle id="XMLID_7_" class="st0" cx="476.7" cy="342.6" r="3.5"/>
		<circle id="XMLID_6_" class="st0" cx="390.2" cy="471.4" r="4"/>
		<circle id="XMLID_5_" class="st0" cx="431.6" cy="514.5" r="2.8"/>
		<circle id="XMLID_4_" class="st0" cx="400.7" cy="642.2" r="4.5"/>
		<circle id="XMLID_3_" class="st0" cx="425.2" cy="547.3" r="4.9"/>
		<circle id="XMLID_2_" class="st0" cx="384.4" cy="544.6" r="4.1"/>
	</g>
</g>
<g id="Basique">
	<path id="XMLID_197_" class="st0" d="M84.6,39.1c-1.3,3.8,0.7,8,4.6,9.3L57,37.4c-67.9,198.7-63.2,404.7-0.1,589.2l31.7-10.8
		c2.5-1.3,3.7-4.3,2.8-7.1c-1.1-3.1-4.4-4.7-7.5-3.7l33.4-11.4c-3.1,1.1-4.7,4.4-3.7,7.5c1,2.8,3.8,4.4,6.6,3.9l52.9-18.1
		c2.6-1.3,3.9-4.3,3-7.2c-1.1-3.1-4.4-4.7-7.5-3.7l33.4-11.4c-3.1,1.1-4.7,4.4-3.7,7.5c1,2.9,3.9,4.5,6.8,3.8l52.5-17.9
		c2.8-1.2,4.2-4.4,3.2-7.3c-1.1-3.1-4.4-4.7-7.5-3.7l33.4-11.4c-3.1,1.1-4.7,4.4-3.7,7.5c1,3,4.2,4.6,7.3,3.7l23.2-7.9
		c-44.3-129.6-47.9-274.6-0.8-414.3l-23.4-8c3.8,1.3,8-0.7,9.3-4.6c1.3-3.8-0.7-8-4.6-9.3l-30.6-10.5c-3.8-1.3-8,0.7-9.3,4.6
		c-1.3,3.8,0.7,8,4.6,9.3l-54.1-18.5c3.8,1.3,8-0.7,9.3-4.6c1.3-3.8-0.7-8-4.6-9.3l-30.6-10.5c-3.8-1.3-8,0.7-9.3,4.6
		c-1.3,3.8,0.7,8,4.6,9.3l-54.1-18.5c3.8,1.3,8-0.7,9.3-4.6c1.3-3.8-0.7-8-4.6-9.3L93.9,34.5C90.1,33.2,85.9,35.2,84.6,39.1z"/>
	<line id="XMLID_196_" class="st0" x1="83.9" y1="605" x2="76.9" y2="607.4"/>
	<line id="XMLID_195_" class="st0" x1="117.3" y1="593.6" x2="124.3" y2="591.2"/>
	<line id="XMLID_194_" class="st0" x1="168.7" y1="576.1" x2="161.7" y2="578.5"/>
	<line id="XMLID_193_" class="st0" x1="202.1" y1="564.7" x2="209.1" y2="562.3"/>
	<line id="XMLID_192_" class="st0" x1="253.5" y1="547.1" x2="246.5" y2="549.5"/>
	<line id="XMLID_191_" class="st0" x1="286.9" y1="535.7" x2="293.8" y2="533.3"/>
</g>
</svg>
