<?xml version="1.0" encoding="UTF-8" standalone="no"?>
<!-- Generator: Adobe Illustrator 19.0.0, SVG Export Plug-In . SVG Version: 6.00 Build 0)  -->

<svg
   xmlns:dc="http://purl.org/dc/elements/1.1/"
   xmlns:cc="http://creativecommons.org/ns#"
   xmlns:rdf="http://www.w3.org/1999/02/22-rdf-syntax-ns#"
   xmlns:svg="http://www.w3.org/2000/svg"
   xmlns="http://www.w3.org/2000/svg"
   xmlns:sodipodi="http://sodipodi.sourceforge.net/DTD/sodipodi-0.dtd"
   xmlns:inkscape="http://www.inkscape.org/namespaces/inkscape"
   version="1.1"
   id="Base"
   x="0px"
   y="0px"
   viewBox="0 0 580.72939 341.35435"
   xml:space="preserve"
   inkscape:version="0.91 r13725"
   sodipodi:docname="Base.svg"
   width="580.72937"
   height="341.35437"><metadata
     id="metadata24"><rdf:RDF><cc:Work
         rdf:about=""><dc:format>image/svg+xml</dc:format><dc:type
           rdf:resource="http://purl.org/dc/dcmitype/StillImage" /><dc:title></dc:title></cc:Work></rdf:RDF></metadata><defs
     id="defs22" /><sodipodi:namedview
     pagecolor="#ffffff"
     bordercolor="#666666"
     borderopacity="1"
     objecttolerance="10"
     gridtolerance="10"
     guidetolerance="10"
     inkscape:pageopacity="0"
     inkscape:pageshadow="2"
     inkscape:window-width="1920"
     inkscape:window-height="1017"
     id="namedview20"
     showgrid="false"
     fit-margin-top="0"
     fit-margin-left="0"
     fit-margin-right="0"
     fit-margin-bottom="0"
     inkscape:zoom="0.62028862"
     inkscape:cx="277.46746"
     inkscape:cy="194.90947"
     inkscape:window-x="-8"
     inkscape:window-y="-8"
     inkscape:window-maximized="1"
     inkscape:current-layer="Base" /><style
     type="text/css"
     id="style3">
	.st0{fill:none;stroke:#FF0000;stroke-width:0.2835;stroke-miterlimit:10;}
</style><g
     id="Base_02"
     transform="matrix(1.25,0,0,1.25,0.17718749,0.17718749)"><path
       id="Cut"
       class="st0"
       d="M 116.2,0 C 52,0 0,52 0,116.2 c 0,64.2 52,116.2 116.2,116.2 64.2,0 116.2,-52 116.2,-116.2 C 232.4,52 180.4,0 116.2,0 Z m 0,144.6 c -15.7,0 -28.3,-12.7 -28.3,-28.3 0,-15.7 12.7,-28.3 28.3,-28.3 15.7,0 28.3,12.7 28.3,28.3 0.1,15.6 -12.6,28.3 -28.3,28.3 z"
       inkscape:connector-curvature="0"
       style="fill:none;stroke:#ff0000;stroke-width:0.28349999;stroke-miterlimit:10" /></g><g
     id="Base_01"
     transform="matrix(1.25,0,0,1.25,0.17718749,0.17718749)"><g
       id="Scan_1_"><g
         id="Cercle"><path
           id="XMLID_49_"
           d="m 225,265.6 -10.1,0 c -16.1,0 -29.1,-13.1 -29.1,-29.1 0,-16.1 13.1,-29.1 29.1,-29.1 0.4,0 0.7,0.3 0.7,0.7 0,0.4 -0.3,0.7 -0.7,0.7 -15.3,0 -27.7,12.4 -27.7,27.7 0,15.3 12.4,27.7 27.7,27.7 l 10.1,0 c 0.4,0 0.7,0.3 0.7,0.7 0,0.4 -0.4,0.7 -0.7,0.7 z"
           inkscape:connector-curvature="0" /></g><g
         id="FabLamp"><path
           id="XMLID_46_"
           d="m 232.8,257 c 0.1,0.1 0.2,0.3 0.2,0.5 0,0.2 -0.1,0.4 -0.2,0.5 -0.1,0.1 -0.3,0.2 -0.6,0.2 l -2.9,0 0,2.2 2,0 c 0.2,0 0.4,0.1 0.6,0.2 0.1,0.1 0.2,0.3 0.2,0.5 0,0.2 -0.1,0.4 -0.2,0.5 -0.1,0.1 -0.3,0.2 -0.6,0.2 l -2,0 0,3 c 0,0.2 -0.1,0.3 -0.2,0.4 -0.1,0.1 -0.3,0.2 -0.6,0.2 -0.2,0 -0.4,-0.1 -0.6,-0.2 -0.1,-0.1 -0.2,-0.3 -0.2,-0.4 l 0,-7.4 c 0,-0.2 0.1,-0.3 0.2,-0.4 0.1,-0.1 0.3,-0.2 0.6,-0.2 l 3.6,0 c 0.3,0 0.5,0.1 0.7,0.2 z"
           inkscape:connector-curvature="0" /><path
           id="XMLID_43_"
           d="m 239.1,265.6 c -0.2,0 -0.4,-0.1 -0.5,-0.2 -0.1,-0.1 -0.2,-0.3 -0.2,-0.4 l 0,-0.2 -0.1,0 c -0.1,0.1 -0.2,0.2 -0.3,0.3 -0.1,0.1 -0.2,0.2 -0.3,0.3 -0.1,0.1 -0.3,0.1 -0.5,0.2 -0.2,0 -0.4,0.1 -0.7,0.1 -0.4,0 -0.8,-0.1 -1.1,-0.2 -0.3,-0.2 -0.6,-0.4 -0.8,-0.6 -0.2,-0.2 -0.4,-0.5 -0.5,-0.9 -0.1,-0.3 -0.2,-0.6 -0.2,-1 l 0,-1.2 c 0,-0.4 0.1,-0.7 0.2,-1.1 0.1,-0.4 0.3,-0.7 0.6,-1 0.3,-0.3 0.6,-0.5 1,-0.7 0.4,-0.2 0.8,-0.3 1.4,-0.3 0.5,0 0.9,0.1 1.3,0.2 0.4,0.1 0.6,0.3 0.9,0.6 0.3,0.3 0.4,0.5 0.5,0.8 0.1,0.3 0.2,0.7 0.2,1.1 l 0,3.7 c 0,0.2 -0.1,0.3 -0.2,0.4 -0.1,0.1 -0.5,0.1 -0.7,0.1 z m -0.8,-4.4 c 0,-0.4 -0.1,-0.8 -0.3,-0.9 -0.2,-0.2 -0.5,-0.3 -0.9,-0.3 -0.2,0 -0.4,0 -0.6,0.1 -0.2,0.1 -0.3,0.2 -0.5,0.3 -0.1,0.1 -0.2,0.3 -0.3,0.5 -0.1,0.2 -0.1,0.4 -0.1,0.6 l 0,1.3 c 0,0.3 0.1,0.6 0.4,0.8 0.2,0.2 0.5,0.3 0.9,0.3 0.2,0 0.4,0 0.6,-0.1 0.2,-0.1 0.3,-0.2 0.5,-0.3 0.1,-0.1 0.3,-0.3 0.3,-0.5 0,-0.2 0.1,-0.4 0.1,-0.7 l 0,-1.1 z"
           inkscape:connector-curvature="0" /><path
           id="XMLID_40_"
           d="m 243.4,259.2 0,0 c 0.3,-0.2 0.5,-0.4 0.7,-0.5 0.3,-0.1 0.6,-0.2 0.9,-0.2 0.5,0 0.9,0.1 1.3,0.2 0.4,0.2 0.6,0.4 0.9,0.7 0.2,0.3 0.4,0.6 0.5,1 0.1,0.4 0.2,0.8 0.2,1.2 l 0,0.8 c 0,0.4 -0.1,0.8 -0.2,1.2 -0.1,0.4 -0.3,0.7 -0.6,1 -0.2,0.3 -0.6,0.5 -0.9,0.7 -0.4,0.2 -0.8,0.2 -1.3,0.2 -0.5,0 -1,-0.1 -1.4,-0.2 -0.4,-0.1 -0.7,-0.3 -1,-0.6 -0.3,-0.2 -0.5,-0.5 -0.6,-0.8 -0.1,-0.3 -0.2,-0.7 -0.2,-1.1 l 0,-5.9 c 0,-0.2 0.1,-0.3 0.2,-0.4 0.1,-0.1 0.3,-0.2 0.6,-0.2 0.2,0 0.4,0.1 0.6,0.2 0.2,0.1 0.2,0.3 0.2,0.4 l 0,2.3 z m 1.4,0.8 c -0.4,0 -0.7,0.1 -1,0.3 -0.3,0.2 -0.4,0.6 -0.4,1 l 0,1.5 c 0,0.4 0.1,0.7 0.4,0.9 0.3,0.2 0.7,0.3 1.1,0.3 0.4,0 0.8,-0.1 1,-0.4 0.2,-0.3 0.4,-0.7 0.4,-1.1 l 0,-0.8 c 0,-0.6 -0.1,-1 -0.4,-1.3 -0.3,-0.2 -0.7,-0.4 -1.1,-0.4 z"
           inkscape:connector-curvature="0" /><path
           id="XMLID_38_"
           d="m 249.6,257.3 c 0,-0.2 0.1,-0.3 0.2,-0.4 0.1,-0.1 0.3,-0.2 0.6,-0.2 0.2,0 0.4,0.1 0.5,0.2 0.1,0.1 0.2,0.3 0.2,0.4 l 0,6.6 2.8,0 c 0.2,0 0.4,0.1 0.6,0.2 0.2,0.1 0.2,0.3 0.2,0.5 0,0.2 -0.1,0.4 -0.2,0.5 -0.1,0.1 -0.3,0.2 -0.6,0.2 l -3.7,0 c -0.2,0 -0.4,-0.1 -0.5,-0.2 -0.1,-0.1 -0.2,-0.3 -0.2,-0.4 l 0,-7.4 z"
           inkscape:connector-curvature="0" /><path
           id="XMLID_35_"
           d="m 260.9,265.6 c -0.2,0 -0.4,-0.1 -0.5,-0.2 -0.1,-0.1 -0.2,-0.3 -0.2,-0.4 l 0,-0.2 -0.1,0 c -0.1,0.1 -0.2,0.2 -0.3,0.3 -0.1,0.1 -0.2,0.2 -0.3,0.3 -0.1,0.1 -0.3,0.1 -0.5,0.2 -0.2,0 -0.4,0.1 -0.7,0.1 -0.4,0 -0.8,-0.1 -1.1,-0.2 -0.3,-0.2 -0.6,-0.4 -0.8,-0.6 -0.2,-0.2 -0.4,-0.5 -0.5,-0.9 -0.1,-0.3 -0.2,-0.6 -0.2,-1 l 0,-1.2 c 0,-0.4 0.1,-0.7 0.2,-1.1 0.1,-0.4 0.3,-0.7 0.6,-1 0.3,-0.3 0.6,-0.5 1,-0.7 0.4,-0.2 0.8,-0.3 1.4,-0.3 0.5,0 0.9,0.1 1.3,0.2 0.4,0.1 0.6,0.3 0.9,0.6 0.3,0.3 0.4,0.5 0.5,0.8 0.1,0.3 0.2,0.7 0.2,1.1 l 0,3.7 c 0,0.2 -0.1,0.3 -0.2,0.4 -0.3,0 -0.5,0.1 -0.7,0.1 z m -0.8,-4.4 c 0,-0.4 -0.1,-0.8 -0.3,-0.9 -0.2,-0.2 -0.5,-0.3 -0.9,-0.3 -0.2,0 -0.4,0 -0.6,0.1 -0.2,0.1 -0.3,0.2 -0.5,0.3 -0.1,0.1 -0.2,0.3 -0.3,0.5 -0.1,0.2 -0.1,0.4 -0.1,0.6 l 0,1.3 c 0,0.3 0.1,0.6 0.4,0.8 0.2,0.2 0.5,0.3 0.9,0.3 0.2,0 0.4,0 0.6,-0.1 0.2,-0.1 0.3,-0.2 0.5,-0.3 0.1,-0.1 0.3,-0.3 0.3,-0.5 0,-0.2 0.1,-0.4 0.1,-0.7 l 0,-1.1 z"
           inkscape:connector-curvature="0" /><path
           id="XMLID_31_"
           d="m 270.4,258.6 c 0.5,0 0.9,0.1 1.3,0.2 0.3,0.1 0.6,0.4 0.8,0.6 0.2,0.3 0.3,0.6 0.4,0.9 0.1,0.4 0.1,0.7 0.1,1.2 l 0,3.4 c 0,0.2 -0.1,0.3 -0.2,0.4 -0.1,0.1 -0.3,0.2 -0.6,0.2 -0.2,0 -0.4,-0.1 -0.5,-0.2 -0.1,-0.1 -0.2,-0.3 -0.2,-0.4 l 0,-3.4 c 0,-0.5 -0.1,-0.8 -0.3,-1.1 -0.2,-0.2 -0.5,-0.3 -0.9,-0.3 -0.8,0 -1.2,0.5 -1.2,1.4 l 0,3.5 0,0.1 0,0 c 0,0 0,0 0,0 0,0 0,0 0,0 -0.1,0.1 -0.1,0.2 -0.3,0.2 -0.1,0.1 -0.2,0.1 -0.4,0.1 l -0.1,0 c -0.2,0 -0.4,0 -0.5,-0.1 -0.1,-0.1 -0.2,-0.2 -0.3,-0.4 l 0,0 0,-3.5 c 0,-1 -0.4,-1.4 -1.2,-1.4 -0.4,0 -0.8,0.1 -0.9,0.3 -0.2,0.2 -0.3,0.6 -0.3,1.1 l 0,3.4 c 0,0.2 -0.1,0.3 -0.2,0.4 -0.1,0.1 -0.3,0.2 -0.6,0.2 -0.2,0 -0.4,-0.1 -0.6,-0.2 -0.1,-0.1 -0.2,-0.3 -0.2,-0.4 l 0,-3.4 c 0,-0.4 0,-0.8 0.1,-1.2 0.1,-0.4 0.2,-0.7 0.4,-0.9 0.2,-0.3 0.5,-0.5 0.8,-0.6 0.3,-0.1 0.8,-0.2 1.3,-0.2 0.5,0 0.9,0.1 1.3,0.3 0.3,0.2 0.6,0.4 0.8,0.8 0.2,-0.3 0.5,-0.6 0.8,-0.8 0.4,-0.1 0.8,-0.2 1.4,-0.2 z"
           inkscape:connector-curvature="0" /><path
           id="XMLID_8_"
           d="m 276.6,264.8 0,2.9 c 0,0.2 -0.1,0.3 -0.2,0.4 -0.1,0.1 -0.3,0.2 -0.6,0.2 -0.2,0 -0.4,-0.1 -0.6,-0.2 -0.1,-0.1 -0.2,-0.3 -0.2,-0.4 l 0,-6.4 c 0,-0.4 0.1,-0.7 0.2,-1.1 0.1,-0.3 0.3,-0.6 0.6,-0.8 0.2,-0.2 0.6,-0.4 0.9,-0.6 0.4,-0.1 0.8,-0.2 1.3,-0.2 0.5,0 1,0.1 1.4,0.2 0.4,0.2 0.7,0.4 1,0.7 0.3,0.3 0.4,0.6 0.6,1 0.1,0.4 0.2,0.8 0.2,1.2 l 0,0.8 c 0,0.4 -0.1,0.8 -0.2,1.2 -0.1,0.4 -0.3,0.7 -0.5,1 -0.2,0.3 -0.5,0.5 -0.9,0.7 -0.3,0.2 -0.8,0.2 -1.3,0.2 -0.4,0 -0.7,-0.1 -0.9,-0.2 -0.3,-0.1 -0.5,-0.3 -0.7,-0.5 l -0.1,-0.1 z m 0,-2.2 c 0,0.5 0.1,0.8 0.4,1.1 0.3,0.2 0.6,0.3 1,0.3 0.5,0 0.8,-0.1 1.1,-0.4 0.3,-0.3 0.4,-0.7 0.4,-1.1 l 0,-0.9 c 0,-0.5 -0.1,-0.8 -0.4,-1.1 -0.3,-0.3 -0.6,-0.4 -1.1,-0.4 -0.4,0 -0.7,0.1 -1,0.3 -0.3,0.2 -0.4,0.5 -0.4,0.9 l 0,1.3 z"
           inkscape:connector-curvature="0" /></g></g><path
       id="Cut_2_"
       class="st0"
       d="m 348.1,40.3 c -64.2,0 -116.2,52 -116.2,116.2 l 0,26.7 c 0,9.4 -7.6,17 -17,17 -20,0 -36.3,16.2 -36.3,36.3 0,20 16.2,36.3 36.3,36.3 l 17,0 116.2,0 c 64.2,0 116.2,-52 116.2,-116.2 0,-64.3 -52.1,-116.3 -116.2,-116.3 z m 6.2,122 -12.5,0 c -1.4,-1.5 -2.3,-3.5 -2.3,-5.8 0,-4.7 3.8,-8.5 8.5,-8.5 4.7,0 8.5,3.8 8.5,8.5 0.1,2.2 -0.8,4.2 -2.2,5.8 z"
       inkscape:connector-curvature="0"
       style="fill:none;stroke:#ff0000;stroke-width:0.28349999;stroke-miterlimit:10" /></g></svg>