  0
SECTION
  2
HEADER
  9
$ACADVER
  1
AC1024
  9
$ACADMAINTVER
 70
     6
  9
$DWGCODEPAGE
  3
ANSI_1252
  9
$INSBASE
 10
0.0
 20
0.0
 30
0.0
  9
$EXTMIN
 10
1.000000000000000E+20
 20
1.000000000000000E+20
 30
1.000000000000000E+20
  9
$EXTMAX
 10
-1.000000000000000E+20
 20
-1.000000000000000E+20
 30
-1.000000000000000E+20
  9
$LIMMIN
 10
0.0
 20
0.0
  9
$LIMMAX
 10
12.0
 20
9.0
  9
$ORTHOMODE
 70
     0
  9
$REGENMODE
 70
     1
  9
$FILLMODE
 70
     1
  9
$QTEXTMODE
 70
     0
  9
$MIRRTEXT
 70
     1
  9
$LTSCALE
 40
1.0
  9
$ATTMODE
 70
     1
  9
$TEXTSIZE
 40
0.2
  9
$TRACEWID
 40
0.05
  9
$TEXTSTYLE
  7
Standard
  9
$CLAYER
  8
0
  9
$CELTYPE
  6
ByLayer
  9
$CECOLOR
 62
   256
  9
$CELTSCALE
 40
1.0
  9
$DISPSILH
 70
     0
  9
$DIMSCALE
 40
1.0
  9
$DIMASZ
 40
0.18
  9
$DIMEXO
 40
0.0625
  9
$DIMDLI
 40
0.38
  9
$DIMRND
 40
0.0
  9
$DIMDLE
 40
0.0
  9
$DIMEXE
 40
0.18
  9
$DIMTP
 40
0.0
  9
$DIMTM
 40
0.0
  9
$DIMTXT
 40
0.18
  9
$DIMCEN
 40
0.09
  9
$DIMTSZ
 40
0.0
  9
$DIMTOL
 70
     0
  9
$DIMLIM
 70
     0
  9
$DIMTIH
 70
     1
  9
$DIMTOH
 70
     1
  9
$DIMSE1
 70
     0
  9
$DIMSE2
 70
     0
  9
$DIMTAD
 70
     0
  9
$DIMZIN
 70
     0
  9
$DIMBLK
  1

  9
$DIMASO
 70
     1
  9
$DIMSHO
 70
     1
  9
$DIMPOST
  1

  9
$DIMAPOST
  1

  9
$DIMALT
 70
     0
  9
$DIMALTD
 70
     2
  9
$DIMALTF
 40
25.4
  9
$DIMLFAC
 40
1.0
  9
$DIMTOFL
 70
     0
  9
$DIMTVP
 40
0.0
  9
$DIMTIX
 70
     0
  9
$DIMSOXD
 70
     0
  9
$DIMSAH
 70
     0
  9
$DIMBLK1
  1

  9
$DIMBLK2
  1

  9
$DIMSTYLE
  2
Standard
  9
$DIMCLRD
 70
     0
  9
$DIMCLRE
 70
     0
  9
$DIMCLRT
 70
     0
  9
$DIMTFAC
 40
1.0
  9
$DIMGAP
 40
0.09
  9
$DIMJUST
 70
     0
  9
$DIMSD1
 70
     0
  9
$DIMSD2
 70
     0
  9
$DIMTOLJ
 70
     1
  9
$DIMTZIN
 70
     0
  9
$DIMALTZ
 70
     0
  9
$DIMALTTZ
 70
     0
  9
$DIMUPT
 70
     0
  9
$DIMDEC
 70
     4
  9
$DIMTDEC
 70
     4
  9
$DIMALTU
 70
     2
  9
$DIMALTTD
 70
     2
  9
$DIMTXSTY
  7
Standard
  9
$DIMAUNIT
 70
     0
  9
$DIMADEC
 70
     0
  9
$DIMALTRND
 40
0.0
  9
$DIMAZIN
 70
     0
  9
$DIMDSEP
 70
    46
  9
$DIMATFIT
 70
     3
  9
$DIMFRAC
 70
     0
  9
$DIMLDRBLK
  1

  9
$DIMLUNIT
 70
     2
  9
$DIMLWD
 70
    -2
  9
$DIMLWE
 70
    -2
  9
$DIMTMOVE
 70
     0
  9
$DIMFXL
 40
1.0
  9
$DIMFXLON
 70
     0
  9
$DIMJOGANG
 40
0.7853981633974483
  9
$DIMTFILL
 70
     0
  9
$DIMTFILLCLR
 70
     0
  9
$DIMARCSYM
 70
     0
  9
$DIMLTYPE
  6

  9
$DIMLTEX1
  6

  9
$DIMLTEX2
  6

  9
$DIMTXTDIRECTION
 70
     0
  9
$LUNITS
 70
     2
  9
$LUPREC
 70
     4
  9
$SKETCHINC
 40
0.1
  9
$FILLETRAD
 40
0.5
  9
$AUNITS
 70
     0
  9
$AUPREC
 70
     0
  9
$MENU
  1
.
  9
$ELEVATION
 40
0.0
  9
$PELEVATION
 40
0.0
  9
$THICKNESS
 40
0.0
  9
$LIMCHECK
 70
     0
  9
$CHAMFERA
 40
0.5
  9
$CHAMFERB
 40
0.5
  9
$CHAMFERC
 40
1.0
  9
$CHAMFERD
 40
0.0
  9
$SKPOLY
 70
     0
  9
$TDCREATE
 40
2457360.709681146
  9
$TDUCREATE
 40
2457360.668014479
  9
$TDUPDATE
 40
2457360.709682188
  9
$TDUUPDATE
 40
2457360.668015521
  9
$TDINDWG
 40
0.0000000116
  9
$TDUSRTIMER
 40
0.0000000116
  9
$USRTIMER
 70
     1
  9
$ANGBASE
 50
0.0
  9
$ANGDIR
 70
     0
  9
$PDMODE
 70
     0
  9
$PDSIZE
 40
0.0
  9
$PLINEWID
 40
0.0
  9
$SPLFRAME
 70
     0
  9
$SPLINETYPE
 70
     6
  9
$SPLINESEGS
 70
     8
  9
$HANDSEED
  5
6F
  9
$SURFTAB1
 70
     6
  9
$SURFTAB2
 70
     6
  9
$SURFTYPE
 70
     6
  9
$SURFU
 70
     6
  9
$SURFV
 70
     6
  9
$UCSBASE
  2

  9
$UCSNAME
  2

  9
$UCSORG
 10
0.0
 20
0.0
 30
0.0
  9
$UCSXDIR
 10
1.0
 20
0.0
 30
0.0
  9
$UCSYDIR
 10
0.0
 20
1.0
 30
0.0
  9
$UCSORTHOREF
  2

  9
$UCSORTHOVIEW
 70
     0
  9
$UCSORGTOP
 10
0.0
 20
0.0
 30
0.0
  9
$UCSORGBOTTOM
 10
0.0
 20
0.0
 30
0.0
  9
$UCSORGLEFT
 10
0.0
 20
0.0
 30
0.0
  9
$UCSORGRIGHT
 10
0.0
 20
0.0
 30
0.0
  9
$UCSORGFRONT
 10
0.0
 20
0.0
 30
0.0
  9
$UCSORGBACK
 10
0.0
 20
0.0
 30
0.0
  9
$PUCSBASE
  2

  9
$PUCSNAME
  2

  9
$PUCSORG
 10
0.0
 20
0.0
 30
0.0
  9
$PUCSXDIR
 10
1.0
 20
0.0
 30
0.0
  9
$PUCSYDIR
 10
0.0
 20
1.0
 30
0.0
  9
$PUCSORTHOREF
  2

  9
$PUCSORTHOVIEW
 70
     0
  9
$PUCSORGTOP
 10
0.0
 20
0.0
 30
0.0
  9
$PUCSORGBOTTOM
 10
0.0
 20
0.0
 30
0.0
  9
$PUCSORGLEFT
 10
0.0
 20
0.0
 30
0.0
  9
$PUCSORGRIGHT
 10
0.0
 20
0.0
 30
0.0
  9
$PUCSORGFRONT
 10
0.0
 20
0.0
 30
0.0
  9
$PUCSORGBACK
 10
0.0
 20
0.0
 30
0.0
  9
$USERI1
 70
     0
  9
$USERI2
 70
     0
  9
$USERI3
 70
     0
  9
$USERI4
 70
     0
  9
$USERI5
 70
     0
  9
$USERR1
 40
0.0
  9
$USERR2
 40
0.0
  9
$USERR3
 40
0.0
  9
$USERR4
 40
0.0
  9
$USERR5
 40
0.0
  9
$WORLDVIEW
 70
     1
  9
$SHADEDGE
 70
     3
  9
$SHADEDIF
 70
    70
  9
$TILEMODE
 70
     1
  9
$MAXACTVP
 70
    64
  9
$PINSBASE
 10
0.0
 20
0.0
 30
0.0
  9
$PLIMCHECK
 70
     0
  9
$PEXTMIN
 10
1.000000000000000E+20
 20
1.000000000000000E+20
 30
1.000000000000000E+20
  9
$PEXTMAX
 10
-1.000000000000000E+20
 20
-1.000000000000000E+20
 30
-1.000000000000000E+20
  9
$PLIMMIN
 10
0.0
 20
0.0
  9
$PLIMMAX
 10
12.0
 20
9.0
  9
$UNITMODE
 70
     0
  9
$VISRETAIN
 70
     1
  9
$PLINEGEN
 70
     0
  9
$PSLTSCALE
 70
     1
  9
$TREEDEPTH
 70
  3020
  9
$CMLSTYLE
  2
Standard
  9
$CMLJUST
 70
     0
  9
$CMLSCALE
 40
1.0
  9
$PROXYGRAPHICS
 70
     1
  9
$MEASUREMENT
 70
     0
  9
$CELWEIGHT
370
    -1
  9
$ENDCAPS
280
     0
  9
$JOINSTYLE
280
     0
  9
$LWDISPLAY
290
     1
  9
$INSUNITS
 70
     1
  9
$HYPERLINKBASE
  1

  9
$STYLESHEET
  1

  9
$XEDIT
290
     1
  9
$CEPSNTYPE
380
     0
  9
$PSTYLEMODE
290
     1
  9
$FINGERPRINTGUID
  2
{B6F15B38-B0E5-4333-A6F9-CEE1B0FAD8EE}
  9
$VERSIONGUID
  2
{FAEB1C32-E019-11D5-929B-00C0DF256EC4}
  9
$EXTNAMES
290
     1
  9
$PSVPSCALE
 40
0.0
  9
$OLESTARTUP
290
     0
  9
$SORTENTS
280
   127
  9
$INDEXCTL
280
     0
  9
$HIDETEXT
280
     1
  9
$XCLIPFRAME
280
     2
  9
$HALOGAP
280
     0
  9
$OBSCOLOR
 70
   257
  9
$OBSLTYPE
280
     0
  9
$INTERSECTIONDISPLAY
280
     0
  9
$INTERSECTIONCOLOR
 70
   257
  9
$DIMASSOC
280
     2
  9
$PROJECTNAME
  1

  9
$CAMERADISPLAY
290
     0
  9
$LENSLENGTH
 40
50.0
  9
$CAMERAHEIGHT
 40
0.0
  9
$STEPSPERSEC
 40
2.0
  9
$STEPSIZE
 40
6.0
  9
$3DDWFPREC
 40
2.0
  9
$PSOLWIDTH
 40
0.25
  9
$PSOLHEIGHT
 40
4.0
  9
$LOFTANG1
 40
1.570796326794897
  9
$LOFTANG2
 40
1.570796326794897
  9
$LOFTMAG1
 40
0.0
  9
$LOFTMAG2
 40
0.0
  9
$LOFTPARAM
 70
     7
  9
$LOFTNORMALS
280
     1
  9
$LATITUDE
 40
37.795
  9
$LONGITUDE
 40
-122.394
  9
$NORTHDIRECTION
 40
0.0
  9
$TIMEZONE
 70
 -8000
  9
$LIGHTGLYPHDISPLAY
280
     1
  9
$TILEMODELIGHTSYNCH
280
     1
  9
$CMATERIAL
347
3C
  9
$SOLIDHIST
280
     1
  9
$SHOWHIST
280
     1
  9
$DWFFRAME
280
     2
  9
$DGNFRAME
280
     2
  9
$REALWORLDSCALE
290
     1
  9
$INTERFERECOLOR
 62
   256
  9
$CSHADOW
280
     0
  9
$SHADOWPLANELOCATION
 40
0.0
  0
ENDSEC
  0
SECTION
  2
CLASSES
  0
CLASS
  1
ACDBDICTIONARYWDFLT
  2
AcDbDictionaryWithDefault
  3
ObjectDBX Classes
 90
        0
 91
        4
280
     0
281
     0
  0
CLASS
  1
VISUALSTYLE
  2
AcDbVisualStyle
  3
ObjectDBX Classes
 90
     4095
 91
        4
280
     0
281
     0
  0
CLASS
  1
MATERIAL
  2
AcDbMaterial
  3
ObjectDBX Classes
 90
     1153
 91
        4
280
     0
281
     0
  0
CLASS
  1
SUN
  2
AcDbSun
  3
SCENEOE
 90
     1024
 91
        4
280
     0
281
     0
  0
ENDSEC
  0
SECTION
  2
TABLES
  0
TABLE
  2
VPORT
  5
8
330
0
100
AcDbSymbolTable
 70
     1
  0
VPORT
  5
29
330
8
100
AcDbSymbolTableRecord
100
AcDbViewportTableRecord
  2
*Active
 70
     0
 10
0.0
 20
0.0
 11
1.0
 21
1.0
 12
0.0
 22
0.0
 13
0.0
 23
0.0
 14
0.5
 24
0.5
 15
0.5
 25
0.5
 16
0.0
 26
0.0
 36
1.0
 17
81.89259537116412
 27
-48.10210464093245
 37
0.0
 40
96.20420928186489
 41
1.702474267653513
 42
50.0
 43
0.0
 44
0.0
 50
0.0
 51
0.0
 71
     0
 72
   100
 73
     1
 74
     3
 75
     0
 76
     0
 77
     0
 78
     0
281
     0
 65
     1
110
0.0
120
0.0
130
0.0
111
1.0
121
0.0
131
0.0
112
0.0
122
1.0
132
0.0
 79
     0
146
0.0
 60
     3
 61
     5
292
     1
282
     1
141
0.0
142
0.0
 63
   250
361
3F
  0
ENDTAB
  0
TABLE
  2
LTYPE
  5
5
330
0
100
AcDbSymbolTable
 70
     1
  0
LTYPE
  5
14
330
5
100
AcDbSymbolTableRecord
100
AcDbLinetypeTableRecord
  2
ByBlock
 70
     0
  3

 72
    65
 73
     0
 40
0.0
  0
LTYPE
  5
15
330
5
100
AcDbSymbolTableRecord
100
AcDbLinetypeTableRecord
  2
ByLayer
 70
     0
  3

 72
    65
 73
     0
 40
0.0
  0
LTYPE
  5
16
330
5
100
AcDbSymbolTableRecord
100
AcDbLinetypeTableRecord
  2
Continuous
 70
     0
  3
Solid line
 72
    65
 73
     0
 40
0.0
  0
ENDTAB
  0
TABLE
  2
LAYER
  5
2
330
0
100
AcDbSymbolTable
 70
     2
  0
LAYER
  5
10
330
2
100
AcDbSymbolTableRecord
100
AcDbLayerTableRecord
  2
0
 70
     0
 62
     7
  6
Continuous
370
    -3
390
F
347
3E
  0
LAYER
  5
40
330
2
100
AcDbSymbolTableRecord
100
AcDbLayerTableRecord
  2
Base
 70
     0
 62
     7
  6
Continuous
370
    -3
390
F
347
3E
  0
ENDTAB
  0
TABLE
  2
STYLE
  5
3
330
0
100
AcDbSymbolTable
 70
     1
  0
STYLE
  5
11
330
3
100
AcDbSymbolTableRecord
100
AcDbTextStyleTableRecord
  2
Standard
 70
     0
 40
0.0
 41
1.0
 50
0.0
 71
     0
 42
0.2
  3
txt
  4

  0
ENDTAB
  0
TABLE
  2
VIEW
  5
6
330
0
100
AcDbSymbolTable
 70
     0
  0
ENDTAB
  0
TABLE
  2
UCS
  5
7
330
0
100
AcDbSymbolTable
 70
     0
  0
ENDTAB
  0
TABLE
  2
APPID
  5
9
330
0
100
AcDbSymbolTable
 70
     1
  0
APPID
  5
12
330
9
100
AcDbSymbolTableRecord
100
AcDbRegAppTableRecord
  2
ACAD
 70
     0
  0
ENDTAB
  0
TABLE
  2
DIMSTYLE
  5
A
330
0
100
AcDbSymbolTable
 70
     1
100
AcDbDimStyleTable
  0
DIMSTYLE
105
27
330
A
100
AcDbSymbolTableRecord
100
AcDbDimStyleTableRecord
  2
Standard
 70
     0
178
     0
340
11
  0
ENDTAB
  0
TABLE
  2
BLOCK_RECORD
  5
1
330
0
100
AcDbSymbolTable
 70
     6
  0
BLOCK_RECORD
  5
1F
330
1
100
AcDbSymbolTableRecord
100
AcDbBlockTableRecord
  2
*Model_Space
340
22
 70
     0
280
     1
281
     0
  0
BLOCK_RECORD
  5
1B
330
1
100
AcDbSymbolTableRecord
100
AcDbBlockTableRecord
  2
*Paper_Space
340
1E
 70
     0
280
     1
281
     0
  0
BLOCK_RECORD
  5
23
330
1
100
AcDbSymbolTableRecord
100
AcDbBlockTableRecord
  2
*Paper_Space0
340
26
 70
     0
280
     1
281
     0
  0
BLOCK_RECORD
  5
41
330
1
100
AcDbSymbolTableRecord
100
AcDbBlockTableRecord
  2
block 2
340
0
102
{BLKREFS
331
42
102
}
 70
     0
280
     1
281
     0
  0
BLOCK_RECORD
  5
47
330
1
100
AcDbSymbolTableRecord
100
AcDbBlockTableRecord
  2
block 3
340
0
102
{BLKREFS
331
48
102
}
 70
     0
280
     1
281
     0
  0
BLOCK_RECORD
  5
4B
330
1
100
AcDbSymbolTableRecord
100
AcDbBlockTableRecord
  2
block 4
340
0
102
{BLKREFS
331
4C
102
}
 70
     0
280
     1
281
     0
  0
BLOCK_RECORD
  5
4F
330
1
100
AcDbSymbolTableRecord
100
AcDbBlockTableRecord
  2
block 5
340
0
102
{BLKREFS
331
50
102
}
 70
     0
280
     1
281
     0
  0
BLOCK_RECORD
  5
55
330
1
100
AcDbSymbolTableRecord
100
AcDbBlockTableRecord
  2
block 6
340
0
102
{BLKREFS
331
56
102
}
 70
     0
280
     1
281
     0
  0
ENDTAB
  0
ENDSEC
  0
SECTION
  2
BLOCKS
  0
BLOCK
  5
20
330
1F
100
AcDbEntity
  8
0
100
AcDbBlockBegin
  2
*Model_Space
 70
     0
 10
0.0
 20
0.0
 30
0.0
  3
*Model_Space
  1

  0
ENDBLK
  5
21
330
1F
100
AcDbEntity
  8
0
100
AcDbBlockEnd
  0
BLOCK
  5
1C
330
1B
100
AcDbEntity
 67
     1
  8
0
100
AcDbBlockBegin
  2
*Paper_Space
 70
     0
 10
0.0
 20
0.0
 30
0.0
  3
*Paper_Space
  1

  0
ENDBLK
  5
1D
330
1B
100
AcDbEntity
 67
     1
  8
0
100
AcDbBlockEnd
  0
BLOCK
  5
24
330
23
100
AcDbEntity
  8
0
100
AcDbBlockBegin
  2
*Paper_Space0
 70
     0
 10
0.0
 20
0.0
 30
0.0
  3
*Paper_Space0
  1

  0
ENDBLK
  5
25
330
23
100
AcDbEntity
  8
0
100
AcDbBlockEnd
  0
BLOCK
  5
43
330
41
100
AcDbEntity
  8
0
100
AcDbBlockBegin
  2
block 2
 70
     0
 10
0.0
 20
0.0
 30
0.0
  3
block 2
  1

  0
SPLINE
  5
45
330
41
100
AcDbEntity
  8
Base
 62
     1
420
 16711680
370
     9
100
AcDbSpline
210
0.0
220
0.0
230
1.0
 70
    11
 71
     3
 72
    17
 73
    13
 74
     0
 42
0.0000000001
 43
0.0000000001
 12
1.0
 22
0.0
 32
0.0
 13
1.0
 23
0.0
 33
0.0
 40
0.0
 40
0.0
 40
0.0
 40
0.0
 40
1.0
 40
1.0
 40
1.0
 40
2.0
 40
2.0
 40
2.0
 40
3.0
 40
3.0
 40
3.0
 40
4.0
 40
4.0
 40
4.0
 40
4.0
 10
40.99997280942601
 20
0.0
 30
0.0
 10
18.35633199822453
 20
0.0
 30
0.0
 10
0.0
 20
-18.35633305096646
 30
0.0
 10
0.0
 20
-41.00008026752739
 30
0.0
 10
0.0
 20
-63.64365109520008
 30
0.0
 10
18.35633199822453
 20
-81.99998414616654
 30
0.0
 10
40.99997280942601
 20
-81.99998414616654
 30
0.0
 10
63.6436863729776
 20
-81.99998414616654
 30
0.0
 10
82.00001676342775
 20
-63.64365109520008
 30
0.0
 10
82.00001676342775
 20
-41.00008026752739
 30
0.0
 10
82.00001676342775
 20
-18.35633305096646
 30
0.0
 10
63.6436863729776
 20
0.0
 30
0.0
 10
40.99997280942601
 20
0.0
 30
0.0
  0
SPLINE
  5
46
330
41
100
AcDbEntity
  8
Base
 62
     1
420
 16711680
370
     9
100
AcDbSpline
210
0.0
220
0.0
230
1.0
 70
    11
 71
     3
 72
    17
 73
    13
 74
     0
 42
0.0000000001
 43
0.0000000001
 12
1.0
 22
0.0
 32
0.0
 13
1.0
 23
0.0
 33
0.0
 40
0.0
 40
0.0
 40
0.0
 40
0.0
 40
1.0
 40
1.0
 40
1.0
 40
2.0
 40
2.0
 40
2.0
 40
3.0
 40
3.0
 40
3.0
 40
4.0
 40
4.0
 40
4.0
 40
4.0
 10
40.99997280942601
 20
-50.99998970947184
 30
0.0
 10
35.47716628365788
 20
-50.99998970947184
 30
0.0
 10
30.99999306454675
 20
-46.52292221059125
 30
0.0
 10
30.99999306454675
 20
-41.00008026752739
 30
0.0
 10
30.99999306454675
 20
-35.47716776890849
 30
0.0
 10
35.47716628365788
 20
-30.99999443669438
 30
0.0
 10
40.99997280942601
 20
-30.99999443669438
 30
0.0
 10
46.52284989074791
 20
-30.99999443669438
 30
0.0
 10
50.99998783208216
 20
-35.47716776890849
 30
0.0
 10
50.99998783208216
 20
-41.00008026752739
 30
0.0
 10
50.99998783208216
 20
-46.52292221059125
 30
0.0
 10
46.52284989074791
 20
-50.99998970947184
 30
0.0
 10
40.99997280942601
 20
-50.99998970947184
 30
0.0
  0
ENDBLK
  5
44
330
41
100
AcDbEntity
  8
0
100
AcDbBlockEnd
  0
BLOCK
  5
49
330
47
100
AcDbEntity
  8
0
100
AcDbBlockBegin
  2
block 3
 70
     0
 10
0.0
 20
0.0
 30
0.0
  3
block 3
  1

  0
INSERT
  5
4C
330
47
100
AcDbEntity
  8
Base
100
AcDbBlockReference
  2
block 4
 10
0.0
 20
0.0
 30
0.0
  0
SPLINE
  5
6B
330
47
100
AcDbEntity
  8
Base
 62
     1
420
 16711680
370
     9
100
AcDbSpline
210
0.0
220
0.0
230
1.0
 70
    11
 71
     3
 72
    32
 73
    28
 74
     0
 42
0.0000000001
 43
0.0000000001
 12
1.0
 22
0.0
 32
0.0
 13
1.0
 23
0.0
 33
0.0
 40
0.0
 40
0.0
 40
0.0
 40
0.0
 40
1.0
 40
1.0
 40
1.0
 40
2.0
 40
2.0
 40
2.0
 40
3.0
 40
3.0
 40
3.0
 40
4.0
 40
4.0
 40
4.0
 40
5.0
 40
5.0
 40
5.0
 40
6.0
 40
6.0
 40
6.0
 40
7.0
 40
7.0
 40
7.0
 40
8.0
 40
8.0
 40
8.0
 40
9.0
 40
9.0
 40
9.0
 40
9.0
 10
122.7851820661034
 20
-14.20422513569771
 30
0.0
 10
100.141505977125
 20
-14.20422513569771
 30
0.0
 10
81.78517338987854
 20
-32.56055818666417
 30
0.0
 10
81.78517338987854
 20
-55.20419956989222
 30
0.0
 10
81.78517338987854
 20
-55.20419956989222
 30
0.0
 10
81.78517338987854
 20
-64.61810984531674
 30
0.0
 10
81.78517338987854
 20
-64.61810984531674
 30
0.0
 10
81.78517338987854
 20
-67.93185734448821
 30
0.0
 10
79.09891438439881
 20
-70.61818956603926
 30
0.0
 10
75.78519965406173
 20
-70.61818956603926
 30
0.0
 10
68.71980177875949
 20
-70.61818956603926
 30
0.0
 10
62.99213938842577
 20
-76.34574845349626
 30
0.0
 10
62.99213938842577
 20
-83.41118178506332
 30
0.0
 10
62.99213938842577
 20
-90.47657983885222
 30
0.0
 10
68.71980177875949
 20
-96.20420928186489
 30
0.0
 10
75.78519965406173
 20
-96.20420928186489
 30
0.0
 10
75.78519965406173
 20
-96.20420928186489
 30
0.0
 10
81.78517338987854
 20
-96.20420928186489
 30
0.0
 10
81.78517338987854
 20
-96.20420928186489
 30
0.0
 10
81.78517338987854
 20
-96.20420928186489
 30
0.0
 10
122.7851820661034
 20
-96.20420928186489
 30
0.0
 10
122.7851820661034
 20
-96.20420928186489
 30
0.0
 10
145.4288581550817
 20
-96.20420928186489
 30
0.0
 10
163.7851907423282
 20
-77.84787623089844
 30
0.0
 10
163.7851907423282
 20
-55.20419956989222
 30
0.0
 10
163.7851907423282
 20
-32.56055818666417
 30
0.0
 10
145.4288581550817
 20
-14.20422513569771
 30
0.0
 10
122.7851820661034
 20
-14.20422513569771
 30
0.0
  0
SPLINE
  5
6C
330
47
100
AcDbEntity
  8
Base
 62
     1
420
 16711680
370
     9
100
AcDbSpline
210
0.0
220
0.0
230
1.0
 70
    11
 71
     3
 72
    20
 73
    16
 74
     0
 42
0.0000000001
 43
0.0000000001
 12
1.0
 22
0.0
 32
0.0
 13
1.0
 23
0.0
 33
0.0
 40
0.0
 40
0.0
 40
0.0
 40
0.0
 40
1.0
 40
1.0
 40
1.0
 40
2.0
 40
2.0
 40
2.0
 40
3.0
 40
3.0
 40
3.0
 40
4.0
 40
4.0
 40
4.0
 40
5.0
 40
5.0
 40
5.0
 40
5.0
 10
124.9847199284828
 20
-57.23948040271671
 30
0.0
 10
124.9847199284828
 20
-57.23948040271671
 30
0.0
 10
120.5856479555515
 20
-57.23948040271671
 30
0.0
 10
120.5856479555515
 20
-57.23948040271671
 30
0.0
 10
120.0903126904108
 20
-56.70445762507303
 30
0.0
 10
119.785195198195
 20
-55.9908234585848
 30
0.0
 10
119.785195198195
 20
-55.20419956989222
 30
0.0
 10
119.785195198195
 20
-53.54737873697309
 30
0.0
 10
121.1283259972622
 20
-52.2041420706422
 30
0.0
 10
122.7851820661034
 20
-52.2041420706422
 30
0.0
 10
124.4420381349446
 20
-52.2041420706422
 30
0.0
 10
125.7852042117887
 20
-53.54737873697309
 30
0.0
 10
125.7852042117887
 20
-55.20419956989222
 30
0.0
 10
125.7852042117887
 20
-55.9908234585848
 30
0.0
 10
125.480051441796
 20
-56.70445762507303
 30
0.0
 10
124.9847199284828
 20
-57.23948040271671
 30
0.0
  0
ENDBLK
  5
4A
330
47
100
AcDbEntity
  8
0
100
AcDbBlockEnd
  0
BLOCK
  5
4D
330
4B
100
AcDbEntity
  8
0
100
AcDbBlockBegin
  2
block 4
 70
     0
 10
0.0
 20
0.0
 30
0.0
  3
block 4
  1

  0
INSERT
  5
50
330
4B
100
AcDbEntity
  8
Base
100
AcDbBlockReference
  2
block 5
 10
0.0
 20
0.0
 30
0.0
  0
INSERT
  5
56
330
4B
100
AcDbEntity
  8
Base
100
AcDbBlockReference
  2
block 6
 10
0.0
 20
0.0
 30
0.0
  0
ENDBLK
  5
4E
330
4B
100
AcDbEntity
  8
0
100
AcDbBlockEnd
  0
BLOCK
  5
51
330
4F
100
AcDbEntity
  8
0
100
AcDbBlockBegin
  2
block 5
 70
     0
 10
0.0
 20
0.0
 30
0.0
  3
block 5
  1

  0
SPLINE
  5
53
330
4F
100
AcDbEntity
  8
Base
370
     0
100
AcDbSpline
210
0.0
220
0.0
230
1.0
 70
    11
 71
     3
 72
    35
 73
    31
 74
     0
 42
0.0000000001
 43
0.0000000001
 12
1.0
 22
0.0
 32
0.0
 13
1.0
 23
0.0
 33
0.0
 40
0.0
 40
0.0
 40
0.0
 40
0.0
 40
1.0
 40
1.0
 40
1.0
 40
2.0
 40
2.0
 40
2.0
 40
3.0
 40
3.0
 40
3.0
 40
4.0
 40
4.0
 40
4.0
 40
5.0
 40
5.0
 40
5.0
 40
6.0
 40
6.0
 40
6.0
 40
7.0
 40
7.0
 40
7.0
 40
8.0
 40
8.0
 40
8.0
 40
9.0
 40
9.0
 40
9.0
 40
10.0
 40
10.0
 40
10.0
 40
10.0
 10
79.35867393803122
 20
-93.69356894605303
 30
0.0
 10
79.35867393803122
 20
-93.69356894605303
 30
0.0
 10
75.78507639118156
 20
-93.69356894605303
 30
0.0
 10
75.78507639118156
 20
-93.69356894605303
 30
0.0
 10
70.1154827511059
 20
-93.69356894605303
 30
0.0
 10
65.5028444059049
 20
-89.08093060085203
 30
0.0
 10
65.5028444059049
 20
-83.41133696077637
 30
0.0
 10
65.5028444059049
 20
-77.74139881115218
 30
0.0
 10
70.1154827511059
 20
-73.12876046595117
 30
0.0
 10
75.78507639118156
 20
-73.12876046595117
 30
0.0
 10
75.92322472014008
 20
-73.12876046595117
 30
0.0
 10
76.03501806863645
 20
-73.2407260692218
 30
0.0
 10
76.03501806863645
 20
-73.37887439818032
 30
0.0
 10
76.03501806863645
 20
-73.51702272713884
 30
0.0
 10
75.92322472014008
 20
-73.62898833040946
 30
0.0
 10
75.78507639118156
 20
-73.62898833040946
 30
0.0
 10
70.39109038992589
 20
-73.62898833040946
 30
0.0
 10
66.00272776081465
 20
-78.0173509595207
 30
0.0
 10
66.00272776081465
 20
-83.41133696077637
 30
0.0
 10
66.00272776081465
 20
-88.80532296203204
 30
0.0
 10
70.39109038992589
 20
-93.19334108159475
 30
0.0
 10
75.78507639118156
 20
-93.19334108159475
 30
0.0
 10
75.78507639118156
 20
-93.19334108159475
 30
0.0
 10
79.35867393803122
 20
-93.19334108159475
 30
0.0
 10
79.35867393803122
 20
-93.19334108159475
 30
0.0
 10
79.49682226698974
 20
-93.19334108159475
 30
0.0
 10
79.6086156154861
 20
-93.30530668486537
 30
0.0
 10
79.6086156154861
 20
-93.4434550138239
 30
0.0
 10
79.6086156154861
 20
-93.58160334278242
 30
0.0
 10
79.49682226698974
 20
-93.69356894605303
 30
0.0
 10
79.35867393803122
 20
-93.69356894605303
 30
0.0
  0
HATCH
  5
54
330
4F
100
AcDbEntity
  8
Base
 62
     7
420
 16777215
100
AcDbHatch
 10
0.0
 20
0.0
 30
0.0
210
0.0
220
0.0
230
1.0
  2
SOLID
 70
     1
 71
     0
 91
        1
 92
        1
 93
        1
 72
     4
 94
        3
 73
     0
 74
     1
 95
       35
 96
       31
 40
0.0
 40
0.0
 40
0.0
 40
0.0
 40
1.0
 40
1.0
 40
1.0
 40
2.0
 40
2.0
 40
2.0
 40
3.0
 40
3.0
 40
3.0
 40
4.0
 40
4.0
 40
4.0
 40
5.0
 40
5.0
 40
5.0
 40
6.0
 40
6.0
 40
6.0
 40
7.0
 40
7.0
 40
7.0
 40
8.0
 40
8.0
 40
8.0
 40
9.0
 40
9.0
 40
9.0
 40
10.0
 40
10.0
 40
10.0
 40
10.0
 10
79.35867393803122
 20
-93.69356894605303
 10
79.35867393803122
 20
-93.69356894605303
 10
75.78507639118156
 20
-93.69356894605303
 10
75.78507639118156
 20
-93.69356894605303
 10
70.1154827511059
 20
-93.69356894605303
 10
65.5028444059049
 20
-89.08093060085203
 10
65.5028444059049
 20
-83.41133696077637
 10
65.5028444059049
 20
-77.74139881115218
 10
70.1154827511059
 20
-73.12876046595117
 10
75.78507639118156
 20
-73.12876046595117
 10
75.92322472014008
 20
-73.12876046595117
 10
76.03501806863645
 20
-73.2407260692218
 10
76.03501806863645
 20
-73.37887439818032
 10
76.03501806863645
 20
-73.51702272713884
 10
75.92322472014008
 20
-73.62898833040946
 10
75.78507639118156
 20
-73.62898833040946
 10
70.39109038992589
 20
-73.62898833040946
 10
66.00272776081465
 20
-78.0173509595207
 10
66.00272776081465
 20
-83.41133696077637
 10
66.00272776081465
 20
-88.80532296203204
 10
70.39109038992589
 20
-93.19334108159475
 10
75.78507639118156
 20
-93.19334108159475
 10
75.78507639118156
 20
-93.19334108159475
 10
79.35867393803122
 20
-93.19334108159475
 10
79.35867393803122
 20
-93.19334108159475
 10
79.49682226698974
 20
-93.19334108159475
 10
79.6086156154861
 20
-93.30530668486537
 10
79.6086156154861
 20
-93.4434550138239
 10
79.6086156154861
 20
-93.58160334278242
 10
79.49682226698974
 20
-93.69356894605303
 10
79.35867393803122
 20
-93.69356894605303
 97
        0
 97
        0
 75
     2
 76
     1
 98
        0
  0
ENDBLK
  5
52
330
4F
100
AcDbEntity
  8
0
100
AcDbBlockEnd
  0
BLOCK
  5
57
330
55
100
AcDbEntity
  8
0
100
AcDbBlockBegin
  2
block 6
 70
     0
 10
0.0
 20
0.0
 30
0.0
  3
block 6
  1

  0
SPLINE
  5
59
330
55
100
AcDbEntity
  8
Base
370
     0
100
AcDbSpline
210
0.0
220
0.0
230
1.0
 70
    11
 71
     3
 72
    68
 73
    64
 74
     0
 42
0.0000000001
 43
0.0000000001
 12
1.0
 22
0.0
 32
0.0
 13
1.0
 23
0.0
 33
0.0
 40
0.0
 40
0.0
 40
0.0
 40
0.0
 40
1.0
 40
1.0
 40
1.0
 40
2.0
 40
2.0
 40
2.0
 40
3.0
 40
3.0
 40
3.0
 40
4.0
 40
4.0
 40
4.0
 40
5.0
 40
5.0
 40
5.0
 40
6.0
 40
6.0
 40
6.0
 40
7.0
 40
7.0
 40
7.0
 40
8.0
 40
8.0
 40
8.0
 40
9.0
 40
9.0
 40
9.0
 40
10.0
 40
10.0
 40
10.0
 40
11.0
 40
11.0
 40
11.0
 40
12.0
 40
12.0
 40
12.0
 40
13.0
 40
13.0
 40
13.0
 40
14.0
 40
14.0
 40
14.0
 40
15.0
 40
15.0
 40
15.0
 40
16.0
 40
16.0
 40
16.0
 40
17.0
 40
17.0
 40
17.0
 40
18.0
 40
18.0
 40
18.0
 40
19.0
 40
19.0
 40
19.0
 40
20.0
 40
20.0
 40
20.0
 40
21.0
 40
21.0
 40
21.0
 40
21.0
 10
82.11323064885737
 20
-90.6743680072055
 30
0.0
 10
82.15870590926266
 20
-90.71984326761081
 30
0.0
 10
82.18144353946532
 20
-90.78151047679678
 30
0.0
 10
82.18144353946532
 20
-90.85971414431195
 30
0.0
 10
82.18144353946532
 20
-90.93206114950219
 30
0.0
 10
82.15870590926266
 20
-90.99062777275144
 30
0.0
 10
82.11323064885737
 20
-91.03610303315673
 30
0.0
 10
82.06775538845207
 20
-91.08157829356203
 30
0.0
 10
82.00126504558675
 20
-91.10431592376469
 30
0.0
 10
81.91358736548715
 20
-91.10431592376469
 30
0.0
 10
81.91358736548715
 20
-91.10431592376469
 30
0.0
 10
80.90779173856845
 20
-91.10431592376469
 30
0.0
 10
80.90779173856845
 20
-91.10431592376469
 30
0.0
 10
80.90779173856845
 20
-91.10431592376469
 30
0.0
 10
80.90779173856845
 20
-91.8891086753046
 30
0.0
 10
80.90779173856845
 20
-91.8891086753046
 30
0.0
 10
80.90779173856845
 20
-91.8891086753046
 30
0.0
 10
81.61748140852993
 20
-91.8891086753046
 30
0.0
 10
81.61748140852993
 20
-91.8891086753046
 30
0.0
 10
81.70515908862953
 20
-91.8891086753046
 30
0.0
 10
81.7718216862691
 20
-91.91184630550725
 30
0.0
 10
81.81712469190015
 20
-91.95732156591255
 30
0.0
 10
81.86259995230544
 20
-92.00279682631785
 30
0.0
 10
81.8853375825081
 20
-92.06480854505234
 30
0.0
 10
81.8853375825081
 20
-92.14301221256751
 30
0.0
 10
81.8853375825081
 20
-92.21501470820924
 30
0.0
 10
81.86259995230544
 20
-92.27392584100701
 30
0.0
 10
81.81712469190015
 20
-92.31905659186378
 30
0.0
 10
81.7718216862691
 20
-92.36453185226908
 30
0.0
 10
81.70515908862953
 20
-92.38726948247172
 30
0.0
 10
81.61748140852993
 20
-92.38726948247172
 30
0.0
 10
81.61748140852993
 20
-92.38726948247172
 30
0.0
 10
80.90779173856845
 20
-92.38726948247172
 30
0.0
 10
80.90779173856845
 20
-92.38726948247172
 30
0.0
 10
80.90779173856845
 20
-92.38726948247172
 30
0.0
 10
80.90779173856845
 20
-93.44009066276408
 30
0.0
 10
80.90779173856845
 20
-93.44009066276408
 30
0.0
 10
80.90779173856845
 20
-93.49659022872217
 30
0.0
 10
80.88350381539745
 20
-93.54757764190387
 30
0.0
 10
80.83492796905541
 20
-93.59305290230917
 30
0.0
 10
80.7863521227134
 20
-93.63818365316594
 30
0.0
 10
80.72123981804218
 20
-93.6609212833686
 30
0.0
 10
80.63976330981602
 20
-93.6609212833686
 30
0.0
 10
80.55518621565314
 20
-93.6609212833686
 30
0.0
 10
80.48714557981945
 20
-93.63818365316594
 30
0.0
 10
80.4354691475407
 20
-93.59305290230917
 30
0.0
 10
80.38362046048769
 20
-93.54757764190387
 30
0.0
 10
80.35778224434831
 20
-93.49659022872217
 30
0.0
 10
80.35778224434831
 20
-93.44009066276408
 30
0.0
 10
80.35778224434831
 20
-93.44009066276408
 30
0.0
 10
80.35778224434831
 20
-90.82698573720208
 30
0.0
 10
80.35778224434831
 20
-90.82698573720208
 30
0.0
 10
80.35778224434831
 20
-90.77048617124397
 30
0.0
 10
80.38362046048769
 20
-90.71984326761081
 30
0.0
 10
80.4354691475407
 20
-90.6743680072055
 30
0.0
 10
80.48714557981945
 20
-90.6288927468002
 30
0.0
 10
80.55518621565314
 20
-90.60615511659756
 30
0.0
 10
80.63976330981602
 20
-90.60615511659756
 30
0.0
 10
80.63976330981602
 20
-90.60615511659756
 30
0.0
 10
81.91358736548715
 20
-90.60615511659756
 30
0.0
 10
81.91358736548715
 20
-90.60615511659756
 30
0.0
 10
82.00126504558675
 20
-90.60615511659756
 30
0.0
 10
82.06775538845207
 20
-90.6288927468002
 30
0.0
 10
82.11323064885737
 20
-90.6743680072055
 30
0.0
  0
HATCH
  5
5A
330
55
100
AcDbEntity
  8
Base
 62
     7
420
 16777215
100
AcDbHatch
 10
0.0
 20
0.0
 30
0.0
210
0.0
220
0.0
230
1.0
  2
SOLID
 70
     1
 71
     0
 91
        1
 92
        1
 93
        1
 72
     4
 94
        3
 73
     0
 74
     1
 95
       68
 96
       64
 40
0.0
 40
0.0
 40
0.0
 40
0.0
 40
1.0
 40
1.0
 40
1.0
 40
2.0
 40
2.0
 40
2.0
 40
3.0
 40
3.0
 40
3.0
 40
4.0
 40
4.0
 40
4.0
 40
5.0
 40
5.0
 40
5.0
 40
6.0
 40
6.0
 40
6.0
 40
7.0
 40
7.0
 40
7.0
 40
8.0
 40
8.0
 40
8.0
 40
9.0
 40
9.0
 40
9.0
 40
10.0
 40
10.0
 40
10.0
 40
11.0
 40
11.0
 40
11.0
 40
12.0
 40
12.0
 40
12.0
 40
13.0
 40
13.0
 40
13.0
 40
14.0
 40
14.0
 40
14.0
 40
15.0
 40
15.0
 40
15.0
 40
16.0
 40
16.0
 40
16.0
 40
17.0
 40
17.0
 40
17.0
 40
18.0
 40
18.0
 40
18.0
 40
19.0
 40
19.0
 40
19.0
 40
20.0
 40
20.0
 40
20.0
 40
21.0
 40
21.0
 40
21.0
 40
21.0
 10
82.11323064885737
 20
-90.6743680072055
 10
82.15870590926266
 20
-90.71984326761081
 10
82.18144353946532
 20
-90.78151047679678
 10
82.18144353946532
 20
-90.85971414431195
 10
82.18144353946532
 20
-90.93206114950219
 10
82.15870590926266
 20
-90.99062777275144
 10
82.11323064885737
 20
-91.03610303315673
 10
82.06775538845207
 20
-91.08157829356203
 10
82.00126504558675
 20
-91.10431592376469
 10
81.91358736548715
 20
-91.10431592376469
 10
81.91358736548715
 20
-91.10431592376469
 10
80.90779173856845
 20
-91.10431592376469
 10
80.90779173856845
 20
-91.10431592376469
 10
80.90779173856845
 20
-91.10431592376469
 10
80.90779173856845
 20
-91.8891086753046
 10
80.90779173856845
 20
-91.8891086753046
 10
80.90779173856845
 20
-91.8891086753046
 10
81.61748140852993
 20
-91.8891086753046
 10
81.61748140852993
 20
-91.8891086753046
 10
81.70515908862953
 20
-91.8891086753046
 10
81.7718216862691
 20
-91.91184630550725
 10
81.81712469190015
 20
-91.95732156591255
 10
81.86259995230544
 20
-92.00279682631785
 10
81.8853375825081
 20
-92.06480854505234
 10
81.8853375825081
 20
-92.14301221256751
 10
81.8853375825081
 20
-92.21501470820924
 10
81.86259995230544
 20
-92.27392584100701
 10
81.81712469190015
 20
-92.31905659186378
 10
81.7718216862691
 20
-92.36453185226908
 10
81.70515908862953
 20
-92.38726948247172
 10
81.61748140852993
 20
-92.38726948247172
 10
81.61748140852993
 20
-92.38726948247172
 10
80.90779173856845
 20
-92.38726948247172
 10
80.90779173856845
 20
-92.38726948247172
 10
80.90779173856845
 20
-92.38726948247172
 10
80.90779173856845
 20
-93.44009066276408
 10
80.90779173856845
 20
-93.44009066276408
 10
80.90779173856845
 20
-93.49659022872217
 10
80.88350381539745
 20
-93.54757764190387
 10
80.83492796905541
 20
-93.59305290230917
 10
80.7863521227134
 20
-93.63818365316594
 10
80.72123981804218
 20
-93.6609212833686
 10
80.63976330981602
 20
-93.6609212833686
 10
80.55518621565314
 20
-93.6609212833686
 10
80.48714557981945
 20
-93.63818365316594
 10
80.4354691475407
 20
-93.59305290230917
 10
80.38362046048769
 20
-93.54757764190387
 10
80.35778224434831
 20
-93.49659022872217
 10
80.35778224434831
 20
-93.44009066276408
 10
80.35778224434831
 20
-93.44009066276408
 10
80.35778224434831
 20
-90.82698573720208
 10
80.35778224434831
 20
-90.82698573720208
 10
80.35778224434831
 20
-90.77048617124397
 10
80.38362046048769
 20
-90.71984326761081
 10
80.4354691475407
 20
-90.6743680072055
 10
80.48714557981945
 20
-90.6288927468002
 10
80.55518621565314
 20
-90.60615511659756
 10
80.63976330981602
 20
-90.60615511659756
 10
80.63976330981602
 20
-90.60615511659756
 10
81.91358736548715
 20
-90.60615511659756
 10
81.91358736548715
 20
-90.60615511659756
 10
82.00126504558675
 20
-90.60615511659756
 10
82.06775538845207
 20
-90.6288927468002
 10
82.11323064885737
 20
-90.6743680072055
 97
        0
 97
        0
 75
     2
 76
     1
 98
        0
  0
SPLINE
  5
5B
330
55
100
AcDbEntity
  8
Base
370
     0
100
AcDbSpline
210
0.0
220
0.0
230
1.0
 70
    11
 71
     3
 72
    77
 73
    73
 74
     0
 42
0.0000000001
 43
0.0000000001
 12
1.0
 22
0.0
 32
0.0
 13
1.0
 23
0.0
 33
0.0
 40
0.0
 40
0.0
 40
0.0
 40
0.0
 40
1.0
 40
1.0
 40
1.0
 40
2.0
 40
2.0
 40
2.0
 40
3.0
 40
3.0
 40
3.0
 40
4.0
 40
4.0
 40
4.0
 40
5.0
 40
5.0
 40
5.0
 40
6.0
 40
6.0
 40
6.0
 40
7.0
 40
7.0
 40
7.0
 40
8.0
 40
8.0
 40
8.0
 40
9.0
 40
9.0
 40
9.0
 40
10.0
 40
10.0
 40
10.0
 40
11.0
 40
11.0
 40
11.0
 40
12.0
 40
12.0
 40
12.0
 40
13.0
 40
13.0
 40
13.0
 40
14.0
 40
14.0
 40
14.0
 40
15.0
 40
15.0
 40
15.0
 40
16.0
 40
16.0
 40
16.0
 40
17.0
 40
17.0
 40
17.0
 40
18.0
 40
18.0
 40
18.0
 40
19.0
 40
19.0
 40
19.0
 40
20.0
 40
20.0
 40
20.0
 40
21.0
 40
21.0
 40
21.0
 40
22.0
 40
22.0
 40
22.0
 40
23.0
 40
23.0
 40
23.0
 40
24.0
 40
24.0
 40
24.0
 40
24.0
 10
84.33876233232877
 20
-93.68469244221681
 30
0.0
 10
84.26021415526507
 20
-93.68469244221681
 30
0.0
 10
84.19682439833647
 20
-93.66195481201417
 30
0.0
 10
84.14824855199446
 20
-93.61647955160888
 30
0.0
 10
84.09967270565242
 20
-93.57100429120356
 30
0.0
 10
84.07555703725568
 20
-93.52001687802188
 30
0.0
 10
84.07555703725568
 20
-93.46351731206377
 30
0.0
 10
84.07555703725568
 20
-93.46351731206377
 30
0.0
 10
84.07555703725568
 20
-93.38841423048532
 30
0.0
 10
84.07555703725568
 20
-93.38841423048532
 30
0.0
 10
84.07555703725568
 20
-93.38841423048532
 30
0.0
 10
84.0331823627871
 20
-93.37428933899581
 30
0.0
 10
84.0331823627871
 20
-93.37428933899581
 30
0.0
 10
84.00493257980806
 20
-93.41528597527028
 30
0.0
 10
83.97461573953785
 20
-93.4528375160595
 30
0.0
 10
83.94154282287946
 20
-93.487288470912
 30
0.0
 10
83.90881441576958
 20
-93.5217394257645
 30
0.0
 10
83.86885130814069
 20
-93.55240077558322
 30
0.0
 10
83.82165349999276
 20
-93.57892801081965
 30
0.0
 10
83.77480020139338
 20
-93.60545524605607
 30
0.0
 10
83.71898965453232
 20
-93.62578130941904
 30
0.0
 10
83.65491087850667
 20
-93.63990620090857
 30
0.0
 10
83.5904875929325
 20
-93.65403109239809
 30
0.0
 10
83.51159490632028
 20
-93.6609212833686
 30
0.0
 10
83.41754379957295
 20
-93.6609212833686
 30
0.0
 10
83.26699312686755
 20
-93.6609212833686
 30
0.0
 10
83.135390479331
 20
-93.63370502903511
 30
0.0
 10
83.02273585696332
 20
-93.57892801081965
 30
0.0
 10
82.90973672504714
 20
-93.52415099260418
 30
0.0
 10
82.81740816604244
 20
-93.4528375160595
 30
0.0
 10
82.74540567040071
 20
-93.36498758118563
 30
0.0
 10
82.673403174759
 20
-93.27713764631176
 30
0.0
 10
82.61931517564058
 20
-93.17688536769099
 30
0.0
 10
82.58314167304545
 20
-93.06423074532331
 30
0.0
 10
82.54731267999885
 20
-92.95123161340713
 30
0.0
 10
82.52905367392702
 20
-92.83547640510272
 30
0.0
 10
82.52905367392702
 20
-92.71627610131308
 30
0.0
 10
82.52905367392702
 20
-92.71627610131308
 30
0.0
 10
82.52905367392702
 20
-92.30286464308311
 30
0.0
 10
82.52905367392702
 20
-92.30286464308311
 30
0.0
 10
82.52905367392702
 20
-92.17126199554656
 30
0.0
 10
82.55282483277526
 20
-92.04103738620412
 30
0.0
 10
82.59967813137465
 20
-91.9125353246043
 30
0.0
 10
82.64687593952257
 20
-91.784377772553
 30
0.0
 10
82.71543333967904
 20
-91.66827805470008
 30
0.0
 10
82.80638386048965
 20
-91.56492519014259
 30
0.0
 10
82.89733438130024
 20
-91.4615723255851
 30
0.0
 10
83.01171155141053
 20
-91.377511995745
 30
0.0
 10
83.14951537082052
 20
-91.31343321971936
 30
0.0
 10
83.28731919023052
 20
-91.2493544436937
 30
0.0
 10
83.44889416848874
 20
-91.21697054613236
 30
0.0
 10
83.63355128649813
 20
-91.21697054613236
 30
0.0
 10
83.80615057030914
 20
-91.21697054613236
 30
0.0
 10
83.95497869527193
 20
-91.24039719543205
 30
0.0
 10
84.0800356613865
 20
-91.28759500357998
 30
0.0
 10
84.2054371370496
 20
-91.33444830217938
 30
0.0
 10
84.30810098251004
 20
-91.3995606068506
 30
0.0
 10
84.38802719776784
 20
-91.48258740804512
 30
0.0
 10
84.46795341302564
 20
-91.56561420923964
 30
0.0
 10
84.52686454582341
 20
-91.66345492102073
 30
0.0
 10
84.56441608661264
 20
-91.77645405293693
 30
0.0
 10
84.60196762740185
 20
-91.8891086753046
 30
0.0
 10
84.6205711430222
 20
-92.01313211277359
 30
0.0
 10
84.6205711430222
 20
-92.14783534624686
 30
0.0
 10
84.6205711430222
 20
-92.14783534624686
 30
0.0
 10
84.6205711430222
 20
-93.46351731206377
 30
0.0
 10
84.6205711430222
 20
-93.46351731206377
 30
0.0
 10
84.6205711430222
 20
-93.52001687802188
 30
0.0
 10
84.59542194597988
 20
-93.57100429120356
 30
0.0
 10
84.54546806144376
 20
-93.61647955160888
 30
0.0
 10
84.49551417690763
 20
-93.66195481201417
 30
0.0
 10
84.42626775765412
 20
-93.68469244221681
 30
0.0
 10
84.33876233232877
 20
-93.68469244221681
 30
0.0
  0
SPLINE
  5
5C
330
55
100
AcDbEntity
  8
Base
370
     0
100
AcDbSpline
210
0.0
220
0.0
230
1.0
 70
    11
 71
     3
 72
    47
 73
    43
 74
     0
 42
0.0000000001
 43
0.0000000001
 12
1.0
 22
0.0
 32
0.0
 13
1.0
 23
0.0
 33
0.0
 40
0.0
 40
0.0
 40
0.0
 40
0.0
 40
1.0
 40
1.0
 40
1.0
 40
2.0
 40
2.0
 40
2.0
 40
3.0
 40
3.0
 40
3.0
 40
4.0
 40
4.0
 40
4.0
 40
5.0
 40
5.0
 40
5.0
 40
6.0
 40
6.0
 40
6.0
 40
7.0
 40
7.0
 40
7.0
 40
8.0
 40
8.0
 40
8.0
 40
9.0
 40
9.0
 40
9.0
 40
10.0
 40
10.0
 40
10.0
 40
11.0
 40
11.0
 40
11.0
 40
12.0
 40
12.0
 40
12.0
 40
13.0
 40
13.0
 40
13.0
 40
14.0
 40
14.0
 40
14.0
 40
14.0
 10
84.07555703725568
 20
-92.15713710405704
 30
0.0
 10
84.07555703725568
 20
-92.00038525947816
 30
0.0
 10
84.03697196782088
 20
-91.89014220395018
 30
0.0
 10
83.96049084804834
 20
-91.825718918376
 30
0.0
 10
83.88366521872726
 20
-91.76164014235036
 30
0.0
 10
83.77480020139338
 20
-91.72925624478901
 30
0.0
 10
83.63355128649813
 20
-91.72925624478901
 30
0.0
 10
83.55224703304623
 20
-91.72925624478901
 30
0.0
 10
83.47852198966189
 20
-91.74441466492411
 30
0.0
 10
83.41272066589362
 20
-91.77404248609726
 30
0.0
 10
83.34691934212533
 20
-91.80367030727041
 30
0.0
 10
83.29076428571577
 20
-91.84466694354488
 30
0.0
 10
83.24356647756784
 20
-91.89634337582362
 30
0.0
 10
83.19671317896845
 20
-91.94801980810237
 30
0.0
 10
83.15985065727628
 20
-92.00658643135162
 30
0.0
 10
83.13332342203985
 20
-92.07238775511989
 30
0.0
 10
83.1064516772549
 20
-92.13818907888816
 30
0.0
 10
83.09336031441096
 20
-92.20881353633578
 30
0.0
 10
83.09336031441096
 20
-92.28391661791423
 30
0.0
 10
83.09336031441096
 20
-92.28391661791423
 30
0.0
 10
83.09336031441096
 20
-92.73522412648197
 30
0.0
 10
83.09336031441096
 20
-92.73522412648197
 30
0.0
 10
83.09336031441096
 20
-92.84787874884962
 30
0.0
 10
83.135390479331
 20
-92.94503044153367
 30
0.0
 10
83.22013982826815
 20
-93.02667920453409
 30
0.0
 10
83.30454466765677
 20
-93.107983457986
 30
0.0
 10
83.40962007995688
 20
-93.14863558471194
 30
0.0
 10
83.53502155561998
 20
-93.14863558471194
 30
0.0
 10
83.60392346532498
 20
-93.14863558471194
 30
0.0
 10
83.6704138081903
 20
-93.1369222600621
 30
0.0
 10
83.73483709376447
 20
-93.1134956107624
 30
0.0
 10
83.79891586979012
 20
-93.09006896146269
 30
0.0
 10
83.85610445484527
 20
-93.05561800661019
 30
0.0
 10
83.90640284892991
 20
-93.01014274620489
 30
0.0
 10
83.95635673346604
 20
-92.9646674857996
 30
0.0
 10
83.99700886019198
 20
-92.90747890074445
 30
0.0
 10
84.02835922910776
 20
-92.83857699103946
 30
0.0
 10
84.05970959802353
 20
-92.76967508133446
 30
0.0
 10
84.07555703725568
 20
-92.68974886607667
 30
0.0
 10
84.07555703725568
 20
-92.59879834526606
 30
0.0
 10
84.07555703725568
 20
-92.59879834526606
 30
0.0
 10
84.07555703725568
 20
-92.15713710405704
 30
0.0
 10
84.07555703725568
 20
-92.15713710405704
 30
0.0
  0
HATCH
  5
5D
330
55
100
AcDbEntity
  8
Base
 62
     7
420
 16777215
100
AcDbHatch
 10
0.0
 20
0.0
 30
0.0
210
0.0
220
0.0
230
1.0
  2
SOLID
 70
     1
 71
     0
 91
        2
 92
        1
 93
        1
 72
     4
 94
        3
 73
     0
 74
     1
 95
       77
 96
       73
 40
0.0
 40
0.0
 40
0.0
 40
0.0
 40
1.0
 40
1.0
 40
1.0
 40
2.0
 40
2.0
 40
2.0
 40
3.0
 40
3.0
 40
3.0
 40
4.0
 40
4.0
 40
4.0
 40
5.0
 40
5.0
 40
5.0
 40
6.0
 40
6.0
 40
6.0
 40
7.0
 40
7.0
 40
7.0
 40
8.0
 40
8.0
 40
8.0
 40
9.0
 40
9.0
 40
9.0
 40
10.0
 40
10.0
 40
10.0
 40
11.0
 40
11.0
 40
11.0
 40
12.0
 40
12.0
 40
12.0
 40
13.0
 40
13.0
 40
13.0
 40
14.0
 40
14.0
 40
14.0
 40
15.0
 40
15.0
 40
15.0
 40
16.0
 40
16.0
 40
16.0
 40
17.0
 40
17.0
 40
17.0
 40
18.0
 40
18.0
 40
18.0
 40
19.0
 40
19.0
 40
19.0
 40
20.0
 40
20.0
 40
20.0
 40
21.0
 40
21.0
 40
21.0
 40
22.0
 40
22.0
 40
22.0
 40
23.0
 40
23.0
 40
23.0
 40
24.0
 40
24.0
 40
24.0
 40
24.0
 10
84.33876233232877
 20
-93.68469244221681
 10
84.26021415526507
 20
-93.68469244221681
 10
84.19682439833647
 20
-93.66195481201417
 10
84.14824855199446
 20
-93.61647955160888
 10
84.09967270565242
 20
-93.57100429120356
 10
84.07555703725568
 20
-93.52001687802188
 10
84.07555703725568
 20
-93.46351731206377
 10
84.07555703725568
 20
-93.46351731206377
 10
84.07555703725568
 20
-93.38841423048532
 10
84.07555703725568
 20
-93.38841423048532
 10
84.07555703725568
 20
-93.38841423048532
 10
84.0331823627871
 20
-93.37428933899581
 10
84.0331823627871
 20
-93.37428933899581
 10
84.00493257980806
 20
-93.41528597527028
 10
83.97461573953785
 20
-93.4528375160595
 10
83.94154282287946
 20
-93.487288470912
 10
83.90881441576958
 20
-93.5217394257645
 10
83.86885130814069
 20
-93.55240077558322
 10
83.82165349999276
 20
-93.57892801081965
 10
83.77480020139338
 20
-93.60545524605607
 10
83.71898965453232
 20
-93.62578130941904
 10
83.65491087850667
 20
-93.63990620090857
 10
83.5904875929325
 20
-93.65403109239809
 10
83.51159490632028
 20
-93.6609212833686
 10
83.41754379957295
 20
-93.6609212833686
 10
83.26699312686755
 20
-93.6609212833686
 10
83.135390479331
 20
-93.63370502903511
 10
83.02273585696332
 20
-93.57892801081965
 10
82.90973672504714
 20
-93.52415099260418
 10
82.81740816604244
 20
-93.4528375160595
 10
82.74540567040071
 20
-93.36498758118563
 10
82.673403174759
 20
-93.27713764631176
 10
82.61931517564058
 20
-93.17688536769099
 10
82.58314167304545
 20
-93.06423074532331
 10
82.54731267999885
 20
-92.95123161340713
 10
82.52905367392702
 20
-92.83547640510272
 10
82.52905367392702
 20
-92.71627610131308
 10
82.52905367392702
 20
-92.71627610131308
 10
82.52905367392702
 20
-92.30286464308311
 10
82.52905367392702
 20
-92.30286464308311
 10
82.52905367392702
 20
-92.17126199554656
 10
82.55282483277526
 20
-92.04103738620412
 10
82.59967813137465
 20
-91.9125353246043
 10
82.64687593952257
 20
-91.784377772553
 10
82.71543333967904
 20
-91.66827805470008
 10
82.80638386048965
 20
-91.56492519014259
 10
82.89733438130024
 20
-91.4615723255851
 10
83.01171155141053
 20
-91.377511995745
 10
83.14951537082052
 20
-91.31343321971936
 10
83.28731919023052
 20
-91.2493544436937
 10
83.44889416848874
 20
-91.21697054613236
 10
83.63355128649813
 20
-91.21697054613236
 10
83.80615057030914
 20
-91.21697054613236
 10
83.95497869527193
 20
-91.24039719543205
 10
84.0800356613865
 20
-91.28759500357998
 10
84.2054371370496
 20
-91.33444830217938
 10
84.30810098251004
 20
-91.3995606068506
 10
84.38802719776784
 20
-91.48258740804512
 10
84.46795341302564
 20
-91.56561420923964
 10
84.52686454582341
 20
-91.66345492102073
 10
84.56441608661264
 20
-91.77645405293693
 10
84.60196762740185
 20
-91.8891086753046
 10
84.6205711430222
 20
-92.01313211277359
 10
84.6205711430222
 20
-92.14783534624686
 10
84.6205711430222
 20
-92.14783534624686
 10
84.6205711430222
 20
-93.46351731206377
 10
84.6205711430222
 20
-93.46351731206377
 10
84.6205711430222
 20
-93.52001687802188
 10
84.59542194597988
 20
-93.57100429120356
 10
84.54546806144376
 20
-93.61647955160888
 10
84.49551417690763
 20
-93.66195481201417
 10
84.42626775765412
 20
-93.68469244221681
 10
84.33876233232877
 20
-93.68469244221681
 97
        0
 97
        0
 92
        1
 93
        1
 72
     4
 94
        3
 73
     0
 74
     1
 95
       47
 96
       43
 40
0.0
 40
0.0
 40
0.0
 40
0.0
 40
1.0
 40
1.0
 40
1.0
 40
2.0
 40
2.0
 40
2.0
 40
3.0
 40
3.0
 40
3.0
 40
4.0
 40
4.0
 40
4.0
 40
5.0
 40
5.0
 40
5.0
 40
6.0
 40
6.0
 40
6.0
 40
7.0
 40
7.0
 40
7.0
 40
8.0
 40
8.0
 40
8.0
 40
9.0
 40
9.0
 40
9.0
 40
10.0
 40
10.0
 40
10.0
 40
11.0
 40
11.0
 40
11.0
 40
12.0
 40
12.0
 40
12.0
 40
13.0
 40
13.0
 40
13.0
 40
14.0
 40
14.0
 40
14.0
 40
14.0
 10
84.07555703725568
 20
-92.15713710405704
 10
84.07555703725568
 20
-92.00038525947816
 10
84.03697196782088
 20
-91.89014220395018
 10
83.96049084804834
 20
-91.825718918376
 10
83.88366521872726
 20
-91.76164014235036
 10
83.77480020139338
 20
-91.72925624478901
 10
83.63355128649813
 20
-91.72925624478901
 10
83.55224703304623
 20
-91.72925624478901
 10
83.47852198966189
 20
-91.74441466492411
 10
83.41272066589362
 20
-91.77404248609726
 10
83.34691934212533
 20
-91.80367030727041
 10
83.29076428571577
 20
-91.84466694354488
 10
83.24356647756784
 20
-91.89634337582362
 10
83.19671317896845
 20
-91.94801980810237
 10
83.15985065727628
 20
-92.00658643135162
 10
83.13332342203985
 20
-92.07238775511989
 10
83.1064516772549
 20
-92.13818907888816
 10
83.09336031441096
 20
-92.20881353633578
 10
83.09336031441096
 20
-92.28391661791423
 10
83.09336031441096
 20
-92.28391661791423
 10
83.09336031441096
 20
-92.73522412648197
 10
83.09336031441096
 20
-92.73522412648197
 10
83.09336031441096
 20
-92.84787874884962
 10
83.135390479331
 20
-92.94503044153367
 10
83.22013982826815
 20
-93.02667920453409
 10
83.30454466765677
 20
-93.107983457986
 10
83.40962007995688
 20
-93.14863558471194
 10
83.53502155561998
 20
-93.14863558471194
 10
83.60392346532498
 20
-93.14863558471194
 10
83.6704138081903
 20
-93.1369222600621
 10
83.73483709376447
 20
-93.1134956107624
 10
83.79891586979012
 20
-93.09006896146269
 10
83.85610445484527
 20
-93.05561800661019
 10
83.90640284892991
 20
-93.01014274620489
 10
83.95635673346604
 20
-92.9646674857996
 10
83.99700886019198
 20
-92.90747890074445
 10
84.02835922910776
 20
-92.83857699103946
 10
84.05970959802353
 20
-92.76967508133446
 10
84.07555703725568
 20
-92.68974886607667
 10
84.07555703725568
 20
-92.59879834526606
 10
84.07555703725568
 20
-92.59879834526606
 10
84.07555703725568
 20
-92.15713710405704
 10
84.07555703725568
 20
-92.15713710405704
 97
        0
 97
        0
 75
     2
 76
     1
 98
        0
  0
SPLINE
  5
5E
330
55
100
AcDbEntity
  8
Base
370
     0
100
AcDbSpline
210
0.0
220
0.0
230
1.0
 70
    11
 71
     3
 72
    71
 73
    67
 74
     0
 42
0.0000000001
 43
0.0000000001
 12
1.0
 22
0.0
 32
0.0
 13
1.0
 23
0.0
 33
0.0
 40
0.0
 40
0.0
 40
0.0
 40
0.0
 40
1.0
 40
1.0
 40
1.0
 40
2.0
 40
2.0
 40
2.0
 40
3.0
 40
3.0
 40
3.0
 40
4.0
 40
4.0
 40
4.0
 40
5.0
 40
5.0
 40
5.0
 40
6.0
 40
6.0
 40
6.0
 40
7.0
 40
7.0
 40
7.0
 40
8.0
 40
8.0
 40
8.0
 40
9.0
 40
9.0
 40
9.0
 40
10.0
 40
10.0
 40
10.0
 40
11.0
 40
11.0
 40
11.0
 40
12.0
 40
12.0
 40
12.0
 40
13.0
 40
13.0
 40
13.0
 40
14.0
 40
14.0
 40
14.0
 40
15.0
 40
15.0
 40
15.0
 40
16.0
 40
16.0
 40
16.0
 40
17.0
 40
17.0
 40
17.0
 40
18.0
 40
18.0
 40
18.0
 40
19.0
 40
19.0
 40
19.0
 40
20.0
 40
20.0
 40
20.0
 40
21.0
 40
21.0
 40
21.0
 40
22.0
 40
22.0
 40
22.0
 40
22.0
 10
85.86149453680919
 20
-91.44744743409557
 30
0.0
 10
85.86149453680919
 20
-91.44744743409557
 30
0.0
 10
85.88974431978825
 20
-91.4615723255851
 30
0.0
 10
85.88974431978825
 20
-91.4615723255851
 30
0.0
 10
85.9524450576198
 20
-91.3830241485214
 30
0.0
 10
86.03064872513497
 20
-91.32273497752952
 30
0.0
 10
86.12469983188228
 20
-91.28036030306096
 30
0.0
 10
86.2187509386296
 20
-91.23833013814091
 30
0.0
 10
86.32520438912383
 20
-91.21697054613236
 30
0.0
 10
86.44440469291347
 20
-91.21697054613236
 30
0.0
 10
86.61665946717596
 20
-91.21697054613236
 30
0.0
 10
86.76548759213875
 20
-91.24453131001435
 30
0.0
 10
86.89088906780185
 20
-91.29930832822983
 30
0.0
 10
87.01594603391642
 20
-91.3540853464453
 30
0.0
 10
87.11929889847391
 20
-91.43091097576637
 30
0.0
 10
87.20094766147433
 20
-91.52978521619305
 30
0.0
 10
87.28225191492623
 20
-91.62831494707119
 30
0.0
 10
87.34357461456368
 20
-91.74441466492411
 30
0.0
 10
87.38422674128962
 20
-91.87739535065475
 30
0.0
 10
87.42487886801557
 20
-92.01072054593392
 30
0.0
 10
87.44520493137854
 20
-92.15713710405704
 30
0.0
 10
87.44520493137854
 20
-92.31698953457263
 30
0.0
 10
87.44520493137854
 20
-92.31698953457263
 30
0.0
 10
87.44520493137854
 20
-92.5894965874559
 30
0.0
 10
87.44520493137854
 20
-92.5894965874559
 30
0.0
 10
87.44520493137854
 20
-92.73694667422458
 30
0.0
 10
87.42418984891852
 20
-92.87543951273163
 30
0.0
 10
87.38181517444995
 20
-93.00531961252555
 30
0.0
 10
87.33944049998138
 20
-93.13554422186799
 30
0.0
 10
87.27467270485867
 20
-93.24992139197829
 30
0.0
 10
87.18682276998481
 20
-93.34845112285643
 30
0.0
 10
87.09897283511094
 20
-93.4473253632831
 30
0.0
 10
86.99010781777704
 20
-93.52552903079827
 30
0.0
 10
86.86022771798312
 20
-93.58340663495046
 30
0.0
 10
86.73000310864067
 20
-93.64162874865119
 30
0.0
 10
86.57738537864411
 20
-93.67056755072728
 30
0.0
 10
86.40203001844489
 20
-93.67056755072728
 30
0.0
 10
86.2201289768237
 20
-93.67056755072728
 30
0.0
 10
86.06131007495368
 20
-93.64679639187906
 30
0.0
 10
85.92488429373779
 20
-93.59994309327966
 30
0.0
 10
85.7884585125219
 20
-93.55308979468028
 30
0.0
 10
85.67511487105718
 20
-93.487288470912
 30
0.0
 10
85.58416435024658
 20
-93.40253912197485
 30
0.0
 10
85.49321382943599
 20
-93.31813428258623
 30
0.0
 10
85.42500093882803
 20
-93.21857102306251
 30
0.0
 10
85.37952567842274
 20
-93.10419385295222
 30
0.0
 10
85.33439492756597
 20
-92.98981668284192
 30
0.0
 10
85.31165729736333
 20
-92.86510422627588
 30
0.0
 10
85.31165729736333
 20
-92.73040099280261
 30
0.0
 10
85.31165729736333
 20
-92.73040099280261
 30
0.0
 10
85.31165729736333
 20
-90.63888352370743
 30
0.0
 10
85.31165729736333
 20
-90.63888352370743
 30
0.0
 10
85.31165729736333
 20
-90.58272846729787
 30
0.0
 10
85.3374955135027
 20
-90.53174105411617
 30
0.0
 10
85.38917194578144
 20
-90.48626579371087
 30
0.0
 10
85.4408483780602
 20
-90.44079053330557
 30
0.0
 10
85.50906126866813
 20
-90.41805290310292
 30
0.0
 10
85.59346610805676
 20
-90.41805290310292
 30
0.0
 10
85.67511487105718
 20
-90.41805290310292
 30
0.0
 10
85.73988266617988
 20
-90.44079053330557
 30
0.0
 10
85.7884585125219
 20
-90.48626579371087
 30
0.0
 10
85.83703435886392
 20
-90.53174105411617
 30
0.0
 10
85.86149453680919
 20
-90.58272846729787
 30
0.0
 10
85.86149453680919
 20
-90.63888352370743
 30
0.0
 10
85.86149453680919
 20
-90.63888352370743
 30
0.0
 10
85.86149453680919
 20
-91.44744743409557
 30
0.0
 10
85.86149453680919
 20
-91.44744743409557
 30
0.0
  0
SPLINE
  5
5F
330
55
100
AcDbEntity
  8
Base
370
     0
100
AcDbSpline
210
0.0
220
0.0
230
1.0
 70
    11
 71
     3
 72
    35
 73
    31
 74
     0
 42
0.0000000001
 43
0.0000000001
 12
1.0
 22
0.0
 32
0.0
 13
1.0
 23
0.0
 33
0.0
 40
0.0
 40
0.0
 40
0.0
 40
0.0
 40
1.0
 40
1.0
 40
1.0
 40
2.0
 40
2.0
 40
2.0
 40
3.0
 40
3.0
 40
3.0
 40
4.0
 40
4.0
 40
4.0
 40
5.0
 40
5.0
 40
5.0
 40
6.0
 40
6.0
 40
6.0
 40
7.0
 40
7.0
 40
7.0
 40
8.0
 40
8.0
 40
8.0
 40
9.0
 40
9.0
 40
9.0
 40
10.0
 40
10.0
 40
10.0
 40
10.0
 10
86.35483221029698
 20
-91.72925624478901
 30
0.0
 10
86.21702839088698
 20
-91.72925624478901
 30
0.0
 10
86.10196220167964
 20
-91.7678413142238
 30
0.0
 10
86.00963364267494
 20
-91.84466694354488
 30
0.0
 10
85.91696057412172
 20
-91.92149257286594
 30
0.0
 10
85.86769570868265
 20
-92.04275993394674
 30
0.0
 10
85.86149453680919
 20
-92.20881353633578
 30
0.0
 10
85.86149453680919
 20
-92.20881353633578
 30
0.0
 10
85.86149453680919
 20
-92.74934901797148
 30
0.0
 10
85.86149453680919
 20
-92.74934901797148
 30
0.0
 10
85.86149453680919
 20
-92.8902534233182
 30
0.0
 10
85.91317096908794
 20
-92.99360628787569
 30
0.0
 10
86.01652383364544
 20
-93.05940761164398
 30
0.0
 10
86.11987669820293
 20
-93.12520893541225
 30
0.0
 10
86.24837875980275
 20
-93.15828185207064
 30
0.0
 10
86.40203001844489
 20
-93.15828185207064
 30
0.0
 10
86.54913559566506
 20
-93.15828185207064
 30
0.0
 10
86.66764688035765
 20
-93.107983457986
 30
0.0
 10
86.75687485342563
 20
-93.00773117936522
 30
0.0
 10
86.8461028264936
 20
-92.90747890074445
 30
0.0
 10
86.89088906780185
 20
-92.77449821501381
 30
0.0
 10
86.89088906780185
 20
-92.60810010307624
 30
0.0
 10
86.89088906780185
 20
-92.60810010307624
 30
0.0
 10
86.89088906780185
 20
-92.3262912923828
 30
0.0
 10
86.89088906780185
 20
-92.3262912923828
 30
0.0
 10
86.89088906780185
 20
-92.13198790701472
 30
0.0
 10
86.84127969281425
 20
-91.98384880114897
 30
0.0
 10
86.7427499619361
 20
-91.8822184843341
 30
0.0
 10
86.64387572150943
 20
-91.7802436579707
 30
0.0
 10
86.51468464081256
 20
-91.72925624478901
 30
0.0
 10
86.35483221029698
 20
-91.72925624478901
 30
0.0
  0
HATCH
  5
60
330
55
100
AcDbEntity
  8
Base
 62
     7
420
 16777215
100
AcDbHatch
 10
0.0
 20
0.0
 30
0.0
210
0.0
220
0.0
230
1.0
  2
SOLID
 70
     1
 71
     0
 91
        2
 92
        1
 93
        1
 72
     4
 94
        3
 73
     0
 74
     1
 95
       71
 96
       67
 40
0.0
 40
0.0
 40
0.0
 40
0.0
 40
1.0
 40
1.0
 40
1.0
 40
2.0
 40
2.0
 40
2.0
 40
3.0
 40
3.0
 40
3.0
 40
4.0
 40
4.0
 40
4.0
 40
5.0
 40
5.0
 40
5.0
 40
6.0
 40
6.0
 40
6.0
 40
7.0
 40
7.0
 40
7.0
 40
8.0
 40
8.0
 40
8.0
 40
9.0
 40
9.0
 40
9.0
 40
10.0
 40
10.0
 40
10.0
 40
11.0
 40
11.0
 40
11.0
 40
12.0
 40
12.0
 40
12.0
 40
13.0
 40
13.0
 40
13.0
 40
14.0
 40
14.0
 40
14.0
 40
15.0
 40
15.0
 40
15.0
 40
16.0
 40
16.0
 40
16.0
 40
17.0
 40
17.0
 40
17.0
 40
18.0
 40
18.0
 40
18.0
 40
19.0
 40
19.0
 40
19.0
 40
20.0
 40
20.0
 40
20.0
 40
21.0
 40
21.0
 40
21.0
 40
22.0
 40
22.0
 40
22.0
 40
22.0
 10
85.86149453680919
 20
-91.44744743409557
 10
85.86149453680919
 20
-91.44744743409557
 10
85.88974431978825
 20
-91.4615723255851
 10
85.88974431978825
 20
-91.4615723255851
 10
85.9524450576198
 20
-91.3830241485214
 10
86.03064872513497
 20
-91.32273497752952
 10
86.12469983188228
 20
-91.28036030306096
 10
86.2187509386296
 20
-91.23833013814091
 10
86.32520438912383
 20
-91.21697054613236
 10
86.44440469291347
 20
-91.21697054613236
 10
86.61665946717596
 20
-91.21697054613236
 10
86.76548759213875
 20
-91.24453131001435
 10
86.89088906780185
 20
-91.29930832822983
 10
87.01594603391642
 20
-91.3540853464453
 10
87.11929889847391
 20
-91.43091097576637
 10
87.20094766147433
 20
-91.52978521619305
 10
87.28225191492623
 20
-91.62831494707119
 10
87.34357461456368
 20
-91.74441466492411
 10
87.38422674128962
 20
-91.87739535065475
 10
87.42487886801557
 20
-92.01072054593392
 10
87.44520493137854
 20
-92.15713710405704
 10
87.44520493137854
 20
-92.31698953457263
 10
87.44520493137854
 20
-92.31698953457263
 10
87.44520493137854
 20
-92.5894965874559
 10
87.44520493137854
 20
-92.5894965874559
 10
87.44520493137854
 20
-92.73694667422458
 10
87.42418984891852
 20
-92.87543951273163
 10
87.38181517444995
 20
-93.00531961252555
 10
87.33944049998138
 20
-93.13554422186799
 10
87.27467270485867
 20
-93.24992139197829
 10
87.18682276998481
 20
-93.34845112285643
 10
87.09897283511094
 20
-93.4473253632831
 10
86.99010781777704
 20
-93.52552903079827
 10
86.86022771798312
 20
-93.58340663495046
 10
86.73000310864067
 20
-93.64162874865119
 10
86.57738537864411
 20
-93.67056755072728
 10
86.40203001844489
 20
-93.67056755072728
 10
86.2201289768237
 20
-93.67056755072728
 10
86.06131007495368
 20
-93.64679639187906
 10
85.92488429373779
 20
-93.59994309327966
 10
85.7884585125219
 20
-93.55308979468028
 10
85.67511487105718
 20
-93.487288470912
 10
85.58416435024658
 20
-93.40253912197485
 10
85.49321382943599
 20
-93.31813428258623
 10
85.42500093882803
 20
-93.21857102306251
 10
85.37952567842274
 20
-93.10419385295222
 10
85.33439492756597
 20
-92.98981668284192
 10
85.31165729736333
 20
-92.86510422627588
 10
85.31165729736333
 20
-92.73040099280261
 10
85.31165729736333
 20
-92.73040099280261
 10
85.31165729736333
 20
-90.63888352370743
 10
85.31165729736333
 20
-90.63888352370743
 10
85.31165729736333
 20
-90.58272846729787
 10
85.3374955135027
 20
-90.53174105411617
 10
85.38917194578144
 20
-90.48626579371087
 10
85.4408483780602
 20
-90.44079053330557
 10
85.50906126866813
 20
-90.41805290310292
 10
85.59346610805676
 20
-90.41805290310292
 10
85.67511487105718
 20
-90.41805290310292
 10
85.73988266617988
 20
-90.44079053330557
 10
85.7884585125219
 20
-90.48626579371087
 10
85.83703435886392
 20
-90.53174105411617
 10
85.86149453680919
 20
-90.58272846729787
 10
85.86149453680919
 20
-90.63888352370743
 10
85.86149453680919
 20
-90.63888352370743
 10
85.86149453680919
 20
-91.44744743409557
 10
85.86149453680919
 20
-91.44744743409557
 97
        0
 97
        0
 92
        1
 93
        1
 72
     4
 94
        3
 73
     0
 74
     1
 95
       35
 96
       31
 40
0.0
 40
0.0
 40
0.0
 40
0.0
 40
1.0
 40
1.0
 40
1.0
 40
2.0
 40
2.0
 40
2.0
 40
3.0
 40
3.0
 40
3.0
 40
4.0
 40
4.0
 40
4.0
 40
5.0
 40
5.0
 40
5.0
 40
6.0
 40
6.0
 40
6.0
 40
7.0
 40
7.0
 40
7.0
 40
8.0
 40
8.0
 40
8.0
 40
9.0
 40
9.0
 40
9.0
 40
10.0
 40
10.0
 40
10.0
 40
10.0
 10
86.35483221029698
 20
-91.72925624478901
 10
86.21702839088698
 20
-91.72925624478901
 10
86.10196220167964
 20
-91.7678413142238
 10
86.00963364267494
 20
-91.84466694354488
 10
85.91696057412172
 20
-91.92149257286594
 10
85.86769570868265
 20
-92.04275993394674
 10
85.86149453680919
 20
-92.20881353633578
 10
85.86149453680919
 20
-92.20881353633578
 10
85.86149453680919
 20
-92.74934901797148
 10
85.86149453680919
 20
-92.74934901797148
 10
85.86149453680919
 20
-92.8902534233182
 10
85.91317096908794
 20
-92.99360628787569
 10
86.01652383364544
 20
-93.05940761164398
 10
86.11987669820293
 20
-93.12520893541225
 10
86.24837875980275
 20
-93.15828185207064
 10
86.40203001844489
 20
-93.15828185207064
 10
86.54913559566506
 20
-93.15828185207064
 10
86.66764688035765
 20
-93.107983457986
 10
86.75687485342563
 20
-93.00773117936522
 10
86.8461028264936
 20
-92.90747890074445
 10
86.89088906780185
 20
-92.77449821501381
 10
86.89088906780185
 20
-92.60810010307624
 10
86.89088906780185
 20
-92.60810010307624
 10
86.89088906780185
 20
-92.3262912923828
 10
86.89088906780185
 20
-92.3262912923828
 10
86.89088906780185
 20
-92.13198790701472
 10
86.84127969281425
 20
-91.98384880114897
 10
86.7427499619361
 20
-91.8822184843341
 10
86.64387572150943
 20
-91.7802436579707
 10
86.51468464081256
 20
-91.72925624478901
 10
86.35483221029698
 20
-91.72925624478901
 97
        0
 97
        0
 75
     2
 76
     1
 98
        0
  0
SPLINE
  5
61
330
55
100
AcDbEntity
  8
Base
370
     0
100
AcDbSpline
210
0.0
220
0.0
230
1.0
 70
    11
 71
     3
 72
    47
 73
    43
 74
     0
 42
0.0000000001
 43
0.0000000001
 12
1.0
 22
0.0
 32
0.0
 13
1.0
 23
0.0
 33
0.0
 40
0.0
 40
0.0
 40
0.0
 40
0.0
 40
1.0
 40
1.0
 40
1.0
 40
2.0
 40
2.0
 40
2.0
 40
3.0
 40
3.0
 40
3.0
 40
4.0
 40
4.0
 40
4.0
 40
5.0
 40
5.0
 40
5.0
 40
6.0
 40
6.0
 40
6.0
 40
7.0
 40
7.0
 40
7.0
 40
8.0
 40
8.0
 40
8.0
 40
9.0
 40
9.0
 40
9.0
 40
10.0
 40
10.0
 40
10.0
 40
11.0
 40
11.0
 40
11.0
 40
12.0
 40
12.0
 40
12.0
 40
13.0
 40
13.0
 40
13.0
 40
14.0
 40
14.0
 40
14.0
 40
14.0
 10
88.05636487046186
 20
-90.78013243860268
 30
0.0
 10
88.05636487046186
 20
-90.72363287264459
 30
0.0
 10
88.08151406750419
 20
-90.67264545946288
 30
0.0
 10
88.13146795204031
 20
-90.62717019905759
 30
0.0
 10
88.18176634612496
 20
-90.58169493865229
 30
0.0
 10
88.25066825582996
 20
-90.55895730844964
 30
0.0
 10
88.3381736811553
 20
-90.55895730844964
 30
0.0
 10
88.416721858219
 20
-90.55895730844964
 30
0.0
 10
88.48080063424464
 20
-90.58169493865229
 30
0.0
 10
88.5310990283293
 20
-90.62717019905759
 30
0.0
 10
88.58105291286542
 20
-90.67264545946288
 30
0.0
 10
88.60620210990774
 20
-90.72363287264459
 30
0.0
 10
88.60620210990774
 20
-90.78013243860268
 30
0.0
 10
88.60620210990774
 20
-90.78013243860268
 30
0.0
 10
88.60620210990774
 20
-93.11590717760207
 30
0.0
 10
88.60620210990774
 20
-93.11590717760207
 30
0.0
 10
88.60620210990774
 20
-93.11590717760207
 30
0.0
 10
89.60734685792134
 20
-93.11590717760207
 30
0.0
 10
89.60734685792134
 20
-93.11590717760207
 30
0.0
 10
89.69519679279522
 20
-93.11590717760207
 30
0.0
 10
89.76168713566054
 20
-93.13864480780471
 30
0.0
 10
89.80716239606583
 20
-93.18412006821002
 30
0.0
 10
89.85263765647113
 20
-93.22959532861532
 30
0.0
 10
89.87537528667379
 20
-93.29126253780129
 30
0.0
 10
89.87537528667379
 20
-93.36981071486498
 30
0.0
 10
89.87537528667379
 20
-93.44181321050671
 30
0.0
 10
89.85263765647113
 20
-93.50037983375594
 30
0.0
 10
89.80716239606583
 20
-93.54585509416125
 30
0.0
 10
89.76168713566054
 20
-93.59133035456655
 30
0.0
 10
89.69519679279522
 20
-93.61406798476919
 30
0.0
 10
89.60734685792134
 20
-93.61406798476919
 30
0.0
 10
89.60734685792134
 20
-93.61406798476919
 30
0.0
 10
88.31026840772478
 20
-93.61406798476919
 30
0.0
 10
88.31026840772478
 20
-93.61406798476919
 30
0.0
 10
88.22861964472436
 20
-93.60786681289575
 30
0.0
 10
88.16591890689281
 20
-93.58271761585343
 30
0.0
 10
88.12216619423013
 20
-93.53896490319075
 30
0.0
 10
88.07806897201894
 20
-93.49486768097955
 30
0.0
 10
88.05636487046186
 20
-93.44663634418605
 30
0.0
 10
88.05636487046186
 20
-93.39323736416468
 30
0.0
 10
88.05636487046186
 20
-93.39323736416468
 30
0.0
 10
88.05636487046186
 20
-90.78013243860268
 30
0.0
 10
88.05636487046186
 20
-90.78013243860268
 30
0.0
  0
HATCH
  5
62
330
55
100
AcDbEntity
  8
Base
 62
     7
420
 16777215
100
AcDbHatch
 10
0.0
 20
0.0
 30
0.0
210
0.0
220
0.0
230
1.0
  2
SOLID
 70
     1
 71
     0
 91
        1
 92
        1
 93
        1
 72
     4
 94
        3
 73
     0
 74
     1
 95
       47
 96
       43
 40
0.0
 40
0.0
 40
0.0
 40
0.0
 40
1.0
 40
1.0
 40
1.0
 40
2.0
 40
2.0
 40
2.0
 40
3.0
 40
3.0
 40
3.0
 40
4.0
 40
4.0
 40
4.0
 40
5.0
 40
5.0
 40
5.0
 40
6.0
 40
6.0
 40
6.0
 40
7.0
 40
7.0
 40
7.0
 40
8.0
 40
8.0
 40
8.0
 40
9.0
 40
9.0
 40
9.0
 40
10.0
 40
10.0
 40
10.0
 40
11.0
 40
11.0
 40
11.0
 40
12.0
 40
12.0
 40
12.0
 40
13.0
 40
13.0
 40
13.0
 40
14.0
 40
14.0
 40
14.0
 40
14.0
 10
88.05636487046186
 20
-90.78013243860268
 10
88.05636487046186
 20
-90.72363287264459
 10
88.08151406750419
 20
-90.67264545946288
 10
88.13146795204031
 20
-90.62717019905759
 10
88.18176634612496
 20
-90.58169493865229
 10
88.25066825582996
 20
-90.55895730844964
 10
88.3381736811553
 20
-90.55895730844964
 10
88.416721858219
 20
-90.55895730844964
 10
88.48080063424464
 20
-90.58169493865229
 10
88.5310990283293
 20
-90.62717019905759
 10
88.58105291286542
 20
-90.67264545946288
 10
88.60620210990774
 20
-90.72363287264459
 10
88.60620210990774
 20
-90.78013243860268
 10
88.60620210990774
 20
-90.78013243860268
 10
88.60620210990774
 20
-93.11590717760207
 10
88.60620210990774
 20
-93.11590717760207
 10
88.60620210990774
 20
-93.11590717760207
 10
89.60734685792134
 20
-93.11590717760207
 10
89.60734685792134
 20
-93.11590717760207
 10
89.69519679279522
 20
-93.11590717760207
 10
89.76168713566054
 20
-93.13864480780471
 10
89.80716239606583
 20
-93.18412006821002
 10
89.85263765647113
 20
-93.22959532861532
 10
89.87537528667379
 20
-93.29126253780129
 10
89.87537528667379
 20
-93.36981071486498
 10
89.87537528667379
 20
-93.44181321050671
 10
89.85263765647113
 20
-93.50037983375594
 10
89.80716239606583
 20
-93.54585509416125
 10
89.76168713566054
 20
-93.59133035456655
 10
89.69519679279522
 20
-93.61406798476919
 10
89.60734685792134
 20
-93.61406798476919
 10
89.60734685792134
 20
-93.61406798476919
 10
88.31026840772478
 20
-93.61406798476919
 10
88.31026840772478
 20
-93.61406798476919
 10
88.22861964472436
 20
-93.60786681289575
 10
88.16591890689281
 20
-93.58271761585343
 10
88.12216619423013
 20
-93.53896490319075
 10
88.07806897201894
 20
-93.49486768097955
 10
88.05636487046186
 20
-93.44663634418605
 10
88.05636487046186
 20
-93.39323736416468
 10
88.05636487046186
 20
-93.39323736416468
 10
88.05636487046186
 20
-90.78013243860268
 10
88.05636487046186
 20
-90.78013243860268
 97
        0
 97
        0
 75
     2
 76
     1
 98
        0
  0
SPLINE
  5
63
330
55
100
AcDbEntity
  8
Base
370
     0
100
AcDbSpline
210
0.0
220
0.0
230
1.0
 70
    11
 71
     3
 72
    77
 73
    73
 74
     0
 42
0.0000000001
 43
0.0000000001
 12
1.0
 22
0.0
 32
0.0
 13
1.0
 23
0.0
 33
0.0
 40
0.0
 40
0.0
 40
0.0
 40
0.0
 40
1.0
 40
1.0
 40
1.0
 40
2.0
 40
2.0
 40
2.0
 40
3.0
 40
3.0
 40
3.0
 40
4.0
 40
4.0
 40
4.0
 40
5.0
 40
5.0
 40
5.0
 40
6.0
 40
6.0
 40
6.0
 40
7.0
 40
7.0
 40
7.0
 40
8.0
 40
8.0
 40
8.0
 40
9.0
 40
9.0
 40
9.0
 40
10.0
 40
10.0
 40
10.0
 40
11.0
 40
11.0
 40
11.0
 40
12.0
 40
12.0
 40
12.0
 40
13.0
 40
13.0
 40
13.0
 40
14.0
 40
14.0
 40
14.0
 40
15.0
 40
15.0
 40
15.0
 40
16.0
 40
16.0
 40
16.0
 40
17.0
 40
17.0
 40
17.0
 40
18.0
 40
18.0
 40
18.0
 40
19.0
 40
19.0
 40
19.0
 40
20.0
 40
20.0
 40
20.0
 40
21.0
 40
21.0
 40
21.0
 40
22.0
 40
22.0
 40
22.0
 40
23.0
 40
23.0
 40
23.0
 40
24.0
 40
24.0
 40
24.0
 40
24.0
 10
92.02339232172706
 20
-93.68469244221681
 30
0.0
 10
91.94484414466336
 20
-93.68469244221681
 30
0.0
 10
91.88145438773476
 20
-93.66195481201417
 30
0.0
 10
91.83287854139274
 20
-93.61647955160888
 30
0.0
 10
91.78430269505071
 20
-93.57100429120356
 30
0.0
 10
91.76018702665397
 20
-93.52001687802188
 30
0.0
 10
91.76018702665397
 20
-93.46351731206377
 30
0.0
 10
91.76018702665397
 20
-93.46351731206377
 30
0.0
 10
91.76018702665397
 20
-93.38841423048532
 30
0.0
 10
91.76018702665397
 20
-93.38841423048532
 30
0.0
 10
91.76018702665397
 20
-93.38841423048532
 30
0.0
 10
91.71781235218539
 20
-93.37428933899581
 30
0.0
 10
91.71781235218539
 20
-93.37428933899581
 30
0.0
 10
91.68956256920634
 20
-93.41528597527028
 30
0.0
 10
91.65890121938762
 20
-93.4528375160595
 30
0.0
 10
91.62617281227774
 20
-93.487288470912
 30
0.0
 10
91.59309989561935
 20
-93.5217394257645
 30
0.0
 10
91.55313678799045
 20
-93.55240077558322
 30
0.0
 10
91.50628348939105
 20
-93.57892801081965
 30
0.0
 10
91.45908568124314
 20
-93.60545524605607
 30
0.0
 10
91.40361964393061
 20
-93.62578130941904
 30
0.0
 10
91.33954086790496
 20
-93.63990620090857
 30
0.0
 10
91.2751175823308
 20
-93.65403109239809
 30
0.0
 10
91.19588038617005
 20
-93.6609212833686
 30
0.0
 10
91.10217378897124
 20
-93.6609212833686
 30
0.0
 10
90.95162311626584
 20
-93.6609212833686
 30
0.0
 10
90.82002046872928
 20
-93.63370502903511
 30
0.0
 10
90.70736584636161
 20
-93.57892801081965
 30
0.0
 10
90.59436671444543
 20
-93.52415099260418
 30
0.0
 10
90.50203815544073
 20
-93.4528375160595
 30
0.0
 10
90.430035659799
 20
-93.36498758118563
 30
0.0
 10
90.35768865460876
 20
-93.27713764631176
 30
0.0
 10
90.30394516503885
 20
-93.17688536769099
 30
0.0
 10
90.26777166244374
 20
-93.06423074532331
 30
0.0
 10
90.23194266939714
 20
-92.95123161340713
 30
0.0
 10
90.21368366332531
 20
-92.83547640510272
 30
0.0
 10
90.21368366332531
 20
-92.71627610131308
 30
0.0
 10
90.21368366332531
 20
-92.71627610131308
 30
0.0
 10
90.21368366332531
 20
-92.30286464308311
 30
0.0
 10
90.21368366332531
 20
-92.30286464308311
 30
0.0
 10
90.21368366332531
 20
-92.17126199554656
 30
0.0
 10
90.23745482217353
 20
-92.04103738620412
 30
0.0
 10
90.28430812077293
 20
-91.9125353246043
 30
0.0
 10
90.33116141937234
 20
-91.784377772553
 30
0.0
 10
90.40006332907733
 20
-91.66827805470008
 30
0.0
 10
90.49101384988792
 20
-91.56492519014259
 30
0.0
 10
90.58196437069853
 20
-91.4615723255851
 30
0.0
 10
90.69634154080882
 20
-91.377511995745
 30
0.0
 10
90.83414536021881
 20
-91.31343321971936
 30
0.0
 10
90.97194917962881
 20
-91.2493544436937
 30
0.0
 10
91.1331796483385
 20
-91.21697054613236
 30
0.0
 10
91.3181812758964
 20
-91.21697054613236
 30
0.0
 10
91.4904360501589
 20
-91.21697054613236
 30
0.0
 10
91.6392641751217
 20
-91.24039719543205
 30
0.0
 10
91.76466565078479
 20
-91.28759500357998
 30
0.0
 10
91.89006712644789
 20
-91.33444830217938
 30
0.0
 10
91.99273097190833
 20
-91.3995606068506
 30
0.0
 10
92.07265718716613
 20
-91.48258740804512
 30
0.0
 10
92.15258340242393
 20
-91.56561420923964
 30
0.0
 10
92.21115002567318
 20
-91.66345492102073
 30
0.0
 10
92.2487015664624
 20
-91.77645405293693
 30
0.0
 10
92.28659761680014
 20
-91.8891086753046
 30
0.0
 10
92.30520113242049
 20
-92.01313211277359
 30
0.0
 10
92.30520113242049
 20
-92.14783534624686
 30
0.0
 10
92.30520113242049
 20
-92.14783534624686
 30
0.0
 10
92.30520113242049
 20
-93.46351731206377
 30
0.0
 10
92.30520113242049
 20
-93.46351731206377
 30
0.0
 10
92.30520113242049
 20
-93.52001687802188
 30
0.0
 10
92.28005193537817
 20
-93.57100429120356
 30
0.0
 10
92.23009805084205
 20
-93.61647955160888
 30
0.0
 10
92.1797996567574
 20
-93.66195481201417
 30
0.0
 10
92.1108977470524
 20
-93.68469244221681
 30
0.0
 10
92.02339232172706
 20
-93.68469244221681
 30
0.0
  0
SPLINE
  5
64
330
55
100
AcDbEntity
  8
Base
370
     0
100
AcDbSpline
210
0.0
220
0.0
230
1.0
 70
    11
 71
     3
 72
    47
 73
    43
 74
     0
 42
0.0000000001
 43
0.0000000001
 12
1.0
 22
0.0
 32
0.0
 13
1.0
 23
0.0
 33
0.0
 40
0.0
 40
0.0
 40
0.0
 40
0.0
 40
1.0
 40
1.0
 40
1.0
 40
2.0
 40
2.0
 40
2.0
 40
3.0
 40
3.0
 40
3.0
 40
4.0
 40
4.0
 40
4.0
 40
5.0
 40
5.0
 40
5.0
 40
6.0
 40
6.0
 40
6.0
 40
7.0
 40
7.0
 40
7.0
 40
8.0
 40
8.0
 40
8.0
 40
9.0
 40
9.0
 40
9.0
 40
10.0
 40
10.0
 40
10.0
 40
11.0
 40
11.0
 40
11.0
 40
12.0
 40
12.0
 40
12.0
 40
13.0
 40
13.0
 40
13.0
 40
14.0
 40
14.0
 40
14.0
 40
14.0
 10
91.76018702665397
 20
-92.15713710405704
 30
0.0
 10
91.76018702665397
 20
-92.00038525947816
 30
0.0
 10
91.72160195721916
 20
-91.89014220395018
 30
0.0
 10
91.6447763278981
 20
-91.825718918376
 30
0.0
 10
91.56795069857702
 20
-91.76164014235036
 30
0.0
 10
91.45908568124314
 20
-91.72925624478901
 30
0.0
 10
91.3181812758964
 20
-91.72925624478901
 30
0.0
 10
91.23687702244452
 20
-91.72925624478901
 30
0.0
 10
91.16315197906017
 20
-91.74441466492411
 30
0.0
 10
91.0973506552919
 20
-91.77404248609726
 30
0.0
 10
91.03154933152362
 20
-91.80367030727041
 30
0.0
 10
90.97504976556553
 20
-91.84466694354488
 30
0.0
 10
90.92819646696613
 20
-91.89634337582362
 30
0.0
 10
90.88099865881821
 20
-91.94801980810237
 30
0.0
 10
90.84413613712603
 20
-92.00658643135162
 30
0.0
 10
90.81760890188961
 20
-92.07238775511989
 30
0.0
 10
90.79108166665318
 20
-92.13818907888816
 30
0.0
 10
90.7776457942607
 20
-92.20881353633578
 30
0.0
 10
90.7776457942607
 20
-92.28391661791423
 30
0.0
 10
90.7776457942607
 20
-92.28391661791423
 30
0.0
 10
90.7776457942607
 20
-92.73522412648197
 30
0.0
 10
90.7776457942607
 20
-92.73522412648197
 30
0.0
 10
90.7776457942607
 20
-92.84787874884962
 30
0.0
 10
90.82002046872928
 20
-92.94503044153367
 30
0.0
 10
90.90476981766643
 20
-93.02667920453409
 30
0.0
 10
90.98917465705506
 20
-93.107983457986
 30
0.0
 10
91.09425006935517
 20
-93.14863558471194
 30
0.0
 10
91.21965154501827
 20
-93.14863558471194
 30
0.0
 10
91.28855345472327
 20
-93.14863558471194
 30
0.0
 10
91.35504379758859
 20
-93.1369222600621
 30
0.0
 10
91.41946708316276
 20
-93.1134956107624
 30
0.0
 10
91.48354585918841
 20
-93.09006896146269
 30
0.0
 10
91.54073444424355
 20
-93.05561800661019
 30
0.0
 10
91.59068832877968
 20
-93.01014274620489
 30
0.0
 10
91.64098672286433
 20
-92.9646674857996
 30
0.0
 10
91.68163884959027
 20
-92.90747890074445
 30
0.0
 10
91.71298921850604
 20
-92.83857699103946
 30
0.0
 10
91.74433958742182
 20
-92.76967508133446
 30
0.0
 10
91.76018702665397
 20
-92.68974886607667
 30
0.0
 10
91.76018702665397
 20
-92.59879834526606
 30
0.0
 10
91.76018702665397
 20
-92.59879834526606
 30
0.0
 10
91.76018702665397
 20
-92.15713710405704
 30
0.0
 10
91.76018702665397
 20
-92.15713710405704
 30
0.0
  0
HATCH
  5
65
330
55
100
AcDbEntity
  8
Base
 62
     7
420
 16777215
100
AcDbHatch
 10
0.0
 20
0.0
 30
0.0
210
0.0
220
0.0
230
1.0
  2
SOLID
 70
     1
 71
     0
 91
        2
 92
        1
 93
        1
 72
     4
 94
        3
 73
     0
 74
     1
 95
       77
 96
       73
 40
0.0
 40
0.0
 40
0.0
 40
0.0
 40
1.0
 40
1.0
 40
1.0
 40
2.0
 40
2.0
 40
2.0
 40
3.0
 40
3.0
 40
3.0
 40
4.0
 40
4.0
 40
4.0
 40
5.0
 40
5.0
 40
5.0
 40
6.0
 40
6.0
 40
6.0
 40
7.0
 40
7.0
 40
7.0
 40
8.0
 40
8.0
 40
8.0
 40
9.0
 40
9.0
 40
9.0
 40
10.0
 40
10.0
 40
10.0
 40
11.0
 40
11.0
 40
11.0
 40
12.0
 40
12.0
 40
12.0
 40
13.0
 40
13.0
 40
13.0
 40
14.0
 40
14.0
 40
14.0
 40
15.0
 40
15.0
 40
15.0
 40
16.0
 40
16.0
 40
16.0
 40
17.0
 40
17.0
 40
17.0
 40
18.0
 40
18.0
 40
18.0
 40
19.0
 40
19.0
 40
19.0
 40
20.0
 40
20.0
 40
20.0
 40
21.0
 40
21.0
 40
21.0
 40
22.0
 40
22.0
 40
22.0
 40
23.0
 40
23.0
 40
23.0
 40
24.0
 40
24.0
 40
24.0
 40
24.0
 10
92.02339232172706
 20
-93.68469244221681
 10
91.94484414466336
 20
-93.68469244221681
 10
91.88145438773476
 20
-93.66195481201417
 10
91.83287854139274
 20
-93.61647955160888
 10
91.78430269505071
 20
-93.57100429120356
 10
91.76018702665397
 20
-93.52001687802188
 10
91.76018702665397
 20
-93.46351731206377
 10
91.76018702665397
 20
-93.46351731206377
 10
91.76018702665397
 20
-93.38841423048532
 10
91.76018702665397
 20
-93.38841423048532
 10
91.76018702665397
 20
-93.38841423048532
 10
91.71781235218539
 20
-93.37428933899581
 10
91.71781235218539
 20
-93.37428933899581
 10
91.68956256920634
 20
-93.41528597527028
 10
91.65890121938762
 20
-93.4528375160595
 10
91.62617281227774
 20
-93.487288470912
 10
91.59309989561935
 20
-93.5217394257645
 10
91.55313678799045
 20
-93.55240077558322
 10
91.50628348939105
 20
-93.57892801081965
 10
91.45908568124314
 20
-93.60545524605607
 10
91.40361964393061
 20
-93.62578130941904
 10
91.33954086790496
 20
-93.63990620090857
 10
91.2751175823308
 20
-93.65403109239809
 10
91.19588038617005
 20
-93.6609212833686
 10
91.10217378897124
 20
-93.6609212833686
 10
90.95162311626584
 20
-93.6609212833686
 10
90.82002046872928
 20
-93.63370502903511
 10
90.70736584636161
 20
-93.57892801081965
 10
90.59436671444543
 20
-93.52415099260418
 10
90.50203815544073
 20
-93.4528375160595
 10
90.430035659799
 20
-93.36498758118563
 10
90.35768865460876
 20
-93.27713764631176
 10
90.30394516503885
 20
-93.17688536769099
 10
90.26777166244374
 20
-93.06423074532331
 10
90.23194266939714
 20
-92.95123161340713
 10
90.21368366332531
 20
-92.83547640510272
 10
90.21368366332531
 20
-92.71627610131308
 10
90.21368366332531
 20
-92.71627610131308
 10
90.21368366332531
 20
-92.30286464308311
 10
90.21368366332531
 20
-92.30286464308311
 10
90.21368366332531
 20
-92.17126199554656
 10
90.23745482217353
 20
-92.04103738620412
 10
90.28430812077293
 20
-91.9125353246043
 10
90.33116141937234
 20
-91.784377772553
 10
90.40006332907733
 20
-91.66827805470008
 10
90.49101384988792
 20
-91.56492519014259
 10
90.58196437069853
 20
-91.4615723255851
 10
90.69634154080882
 20
-91.377511995745
 10
90.83414536021881
 20
-91.31343321971936
 10
90.97194917962881
 20
-91.2493544436937
 10
91.1331796483385
 20
-91.21697054613236
 10
91.3181812758964
 20
-91.21697054613236
 10
91.4904360501589
 20
-91.21697054613236
 10
91.6392641751217
 20
-91.24039719543205
 10
91.76466565078479
 20
-91.28759500357998
 10
91.89006712644789
 20
-91.33444830217938
 10
91.99273097190833
 20
-91.3995606068506
 10
92.07265718716613
 20
-91.48258740804512
 10
92.15258340242393
 20
-91.56561420923964
 10
92.21115002567318
 20
-91.66345492102073
 10
92.2487015664624
 20
-91.77645405293693
 10
92.28659761680014
 20
-91.8891086753046
 10
92.30520113242049
 20
-92.01313211277359
 10
92.30520113242049
 20
-92.14783534624686
 10
92.30520113242049
 20
-92.14783534624686
 10
92.30520113242049
 20
-93.46351731206377
 10
92.30520113242049
 20
-93.46351731206377
 10
92.30520113242049
 20
-93.52001687802188
 10
92.28005193537817
 20
-93.57100429120356
 10
92.23009805084205
 20
-93.61647955160888
 10
92.1797996567574
 20
-93.66195481201417
 10
92.1108977470524
 20
-93.68469244221681
 10
92.02339232172706
 20
-93.68469244221681
 97
        0
 97
        0
 92
        1
 93
        1
 72
     4
 94
        3
 73
     0
 74
     1
 95
       47
 96
       43
 40
0.0
 40
0.0
 40
0.0
 40
0.0
 40
1.0
 40
1.0
 40
1.0
 40
2.0
 40
2.0
 40
2.0
 40
3.0
 40
3.0
 40
3.0
 40
4.0
 40
4.0
 40
4.0
 40
5.0
 40
5.0
 40
5.0
 40
6.0
 40
6.0
 40
6.0
 40
7.0
 40
7.0
 40
7.0
 40
8.0
 40
8.0
 40
8.0
 40
9.0
 40
9.0
 40
9.0
 40
10.0
 40
10.0
 40
10.0
 40
11.0
 40
11.0
 40
11.0
 40
12.0
 40
12.0
 40
12.0
 40
13.0
 40
13.0
 40
13.0
 40
14.0
 40
14.0
 40
14.0
 40
14.0
 10
91.76018702665397
 20
-92.15713710405704
 10
91.76018702665397
 20
-92.00038525947816
 10
91.72160195721916
 20
-91.89014220395018
 10
91.6447763278981
 20
-91.825718918376
 10
91.56795069857702
 20
-91.76164014235036
 10
91.45908568124314
 20
-91.72925624478901
 10
91.3181812758964
 20
-91.72925624478901
 10
91.23687702244452
 20
-91.72925624478901
 10
91.16315197906017
 20
-91.74441466492411
 10
91.0973506552919
 20
-91.77404248609726
 10
91.03154933152362
 20
-91.80367030727041
 10
90.97504976556553
 20
-91.84466694354488
 10
90.92819646696613
 20
-91.89634337582362
 10
90.88099865881821
 20
-91.94801980810237
 10
90.84413613712603
 20
-92.00658643135162
 10
90.81760890188961
 20
-92.07238775511989
 10
90.79108166665318
 20
-92.13818907888816
 10
90.7776457942607
 20
-92.20881353633578
 10
90.7776457942607
 20
-92.28391661791423
 10
90.7776457942607
 20
-92.28391661791423
 10
90.7776457942607
 20
-92.73522412648197
 10
90.7776457942607
 20
-92.73522412648197
 10
90.7776457942607
 20
-92.84787874884962
 10
90.82002046872928
 20
-92.94503044153367
 10
90.90476981766643
 20
-93.02667920453409
 10
90.98917465705506
 20
-93.107983457986
 10
91.09425006935517
 20
-93.14863558471194
 10
91.21965154501827
 20
-93.14863558471194
 10
91.28855345472327
 20
-93.14863558471194
 10
91.35504379758859
 20
-93.1369222600621
 10
91.41946708316276
 20
-93.1134956107624
 10
91.48354585918841
 20
-93.09006896146269
 10
91.54073444424355
 20
-93.05561800661019
 10
91.59068832877968
 20
-93.01014274620489
 10
91.64098672286433
 20
-92.9646674857996
 10
91.68163884959027
 20
-92.90747890074445
 10
91.71298921850604
 20
-92.83857699103946
 10
91.74433958742182
 20
-92.76967508133446
 10
91.76018702665397
 20
-92.68974886607667
 10
91.76018702665397
 20
-92.59879834526606
 10
91.76018702665397
 20
-92.59879834526606
 10
91.76018702665397
 20
-92.15713710405704
 10
91.76018702665397
 20
-92.15713710405704
 97
        0
 97
        0
 75
     2
 76
     1
 98
        0
  0
SPLINE
  5
66
330
55
100
AcDbEntity
  8
Base
370
     0
100
AcDbSpline
210
0.0
220
0.0
230
1.0
 70
    11
 71
     3
 72
   131
 73
   127
 74
     0
 42
0.0000000001
 43
0.0000000001
 12
1.0
 22
0.0
 32
0.0
 13
1.0
 23
0.0
 33
0.0
 40
0.0
 40
0.0
 40
0.0
 40
0.0
 40
1.0
 40
1.0
 40
1.0
 40
2.0
 40
2.0
 40
2.0
 40
3.0
 40
3.0
 40
3.0
 40
4.0
 40
4.0
 40
4.0
 40
5.0
 40
5.0
 40
5.0
 40
6.0
 40
6.0
 40
6.0
 40
7.0
 40
7.0
 40
7.0
 40
8.0
 40
8.0
 40
8.0
 40
9.0
 40
9.0
 40
9.0
 40
10.0
 40
10.0
 40
10.0
 40
11.0
 40
11.0
 40
11.0
 40
12.0
 40
12.0
 40
12.0
 40
13.0
 40
13.0
 40
13.0
 40
14.0
 40
14.0
 40
14.0
 40
15.0
 40
15.0
 40
15.0
 40
16.0
 40
16.0
 40
16.0
 40
17.0
 40
17.0
 40
17.0
 40
18.0
 40
18.0
 40
18.0
 40
19.0
 40
19.0
 40
19.0
 40
20.0
 40
20.0
 40
20.0
 40
21.0
 40
21.0
 40
21.0
 40
22.0
 40
22.0
 40
22.0
 40
23.0
 40
23.0
 40
23.0
 40
24.0
 40
24.0
 40
24.0
 40
25.0
 40
25.0
 40
25.0
 40
26.0
 40
26.0
 40
26.0
 40
27.0
 40
27.0
 40
27.0
 40
28.0
 40
28.0
 40
28.0
 40
29.0
 40
29.0
 40
29.0
 40
30.0
 40
30.0
 40
30.0
 40
31.0
 40
31.0
 40
31.0
 40
32.0
 40
32.0
 40
32.0
 40
33.0
 40
33.0
 40
33.0
 40
34.0
 40
34.0
 40
34.0
 40
35.0
 40
35.0
 40
35.0
 40
36.0
 40
36.0
 40
36.0
 40
37.0
 40
37.0
 40
37.0
 40
38.0
 40
38.0
 40
38.0
 40
39.0
 40
39.0
 40
39.0
 40
40.0
 40
40.0
 40
40.0
 40
41.0
 40
41.0
 40
41.0
 40
42.0
 40
42.0
 40
42.0
 40
42.0
 10
95.37443670022957
 20
-91.22179367981171
 30
0.0
 10
95.55599323230224
 20
-91.22179367981171
 30
0.0
 10
95.70654390500765
 20
-91.24763189595109
 30
0.0
 10
95.8257442087973
 20
-91.29930832822983
 30
0.0
 10
95.94460000303842
 20
-91.35098476050858
 30
0.0
 10
96.03865110978575
 20
-91.4229872561503
 30
0.0
 10
96.10755301949074
 20
-91.51566032470352
 30
0.0
 10
96.17645492919573
 20
-91.60798888370822
 30
0.0
 10
96.22503077553776
 20
-91.71754292013915
 30
0.0
 10
96.2532805585168
 20
-91.84466694354488
 30
0.0
 10
96.28153034149585
 20
-91.97144645740207
 30
0.0
 10
96.29565523298538
 20
-92.10856125771501
 30
0.0
 10
96.29565523298538
 20
-92.25566683493518
 30
0.0
 10
96.29565523298538
 20
-92.25566683493518
 30
0.0
 10
96.29565523298538
 20
-93.44009066276408
 30
0.0
 10
96.29565523298538
 20
-93.44009066276408
 30
0.0
 10
96.29565523298538
 20
-93.49659022872217
 30
0.0
 10
96.27050603594306
 20
-93.54757764190387
 30
0.0
 10
96.22055215140693
 20
-93.59305290230917
 30
0.0
 10
96.17025375732229
 20
-93.63818365316594
 30
0.0
 10
96.10135184761728
 20
-93.6609212833686
 30
0.0
 10
96.01350191274342
 20
-93.6609212833686
 30
0.0
 10
95.93529824522824
 20
-93.6609212833686
 30
0.0
 10
95.87190848829965
 20
-93.63818365316594
 30
0.0
 10
95.82333264195762
 20
-93.59305290230917
 30
0.0
 10
95.7747567956156
 20
-93.54757764190387
 30
0.0
 10
95.75029661767033
 20
-93.49659022872217
 30
0.0
 10
95.75029661767033
 20
-93.44009066276408
 30
0.0
 10
95.75029661767033
 20
-93.44009066276408
 30
0.0
 10
95.75029661767033
 20
-92.23706331931483
 30
0.0
 10
95.75029661767033
 20
-92.23706331931483
 30
0.0
 10
95.75029661767033
 20
-92.06480854505234
 30
0.0
 10
95.71825722965751
 20
-91.93768452164662
 30
0.0
 10
95.65417845363186
 20
-91.85638026819473
 30
0.0
 10
95.58975516805769
 20
-91.77473150519431
 30
0.0
 10
95.4808901507238
 20
-91.73407937846835
 30
0.0
 10
95.32758340163018
 20
-91.73407937846835
 30
0.0
 10
95.05473183919838
 20
-91.73407937846835
 30
0.0
 10
94.91865056753102
 20
-91.90185552860002
 30
0.0
 10
94.91865056753102
 20
-92.23706331931483
 30
0.0
 10
94.91865056753102
 20
-92.23706331931483
 30
0.0
 10
94.91865056753102
 20
-93.45903868793295
 30
0.0
 10
94.91865056753102
 20
-93.45903868793295
 30
0.0
 10
94.91865056753102
 20
-93.45903868793295
 30
0.0
 10
94.90900430017231
 20
-93.50141336240152
 30
0.0
 10
94.90900430017231
 20
-93.50141336240152
 30
0.0
 10
94.90900430017231
 20
-93.50141336240152
 30
0.0
 10
94.89970254236215
 20
-93.51553825389105
 30
0.0
 10
94.89970254236215
 20
-93.51553825389105
 30
0.0
 10
94.89660195642541
 20
-93.5217394257645
 30
0.0
 10
94.89419038958575
 20
-93.5272515785409
 30
0.0
 10
94.89281235139164
 20
-93.53173020267172
 30
0.0
 10
94.89108980364902
 20
-93.53655333635108
 30
0.0
 10
94.88730019861525
 20
-93.54206548912747
 30
0.0
 10
94.8810990267418
 20
-93.54826666100092
 30
0.0
 10
94.85905041563619
 20
-93.57961702991669
 30
0.0
 10
94.82942259446305
 20
-93.60545524605607
 30
0.0
 10
94.7915265441253
 20
-93.62578130941904
 30
0.0
 10
94.75397500333608
 20
-93.64610737278201
 30
0.0
 10
94.7102222906734
 20
-93.65782069743187
 30
0.0
 10
94.65992389658875
 20
-93.6609212833686
 30
0.0
 10
94.65992389658875
 20
-93.6609212833686
 30
0.0
 10
94.63649724728906
 20
-93.6609212833686
 30
0.0
 10
94.63649724728906
 20
-93.6609212833686
 30
0.0
 10
94.56449475164733
 20
-93.6609212833686
 30
0.0
 10
94.50489459975252
 20
-93.64369580594234
 30
0.0
 10
94.45804130115312
 20
-93.60924485108984
 30
0.0
 10
94.41084349300519
 20
-93.57479389623735
 30
0.0
 10
94.38121567183204
 20
-93.5327637313173
 30
0.0
 10
94.36881332808514
 20
-93.48246533723265
 30
0.0
 10
94.36881332808514
 20
-93.48246533723265
 30
0.0
 10
94.3639901944058
 20
-93.47316357942248
 30
0.0
 10
94.3639901944058
 20
-93.47316357942248
 30
0.0
 10
94.3639901944058
 20
-93.47316357942248
 30
0.0
 10
94.3639901944058
 20
-92.23706331931483
 30
0.0
 10
94.3639901944058
 20
-92.23706331931483
 30
0.0
 10
94.3639901944058
 20
-91.90185552860002
 30
0.0
 10
94.2275644131899
 20
-91.73407937846835
 30
0.0
 10
93.95505736030664
 20
-91.73407937846835
 30
0.0
 10
93.79830551572778
 20
-91.73407937846835
 30
0.0
 10
93.68875147929683
 20
-91.77473150519431
 30
0.0
 10
93.62605074146528
 20
-91.85638026819473
 30
0.0
 10
93.56335000363373
 20
-91.93768452164662
 30
0.0
 10
93.53199963471796
 20
-92.06480854505234
 30
0.0
 10
93.53199963471796
 20
-92.23706331931483
 30
0.0
 10
93.53199963471796
 20
-92.23706331931483
 30
0.0
 10
93.53199963471796
 20
-93.44009066276408
 30
0.0
 10
93.53199963471796
 20
-93.44009066276408
 30
0.0
 10
93.53199963471796
 20
-93.49659022872217
 30
0.0
 10
93.50788396632122
 20
-93.54757764190387
 30
0.0
 10
93.45930811997918
 20
-93.59305290230917
 30
0.0
 10
93.41073227363717
 20
-93.63818365316594
 30
0.0
 10
93.34561996896595
 20
-93.6609212833686
 30
0.0
 10
93.26431571551404
 20
-93.6609212833686
 30
0.0
 10
93.1795663665769
 20
-93.6609212833686
 30
0.0
 10
93.11135347596895
 20
-93.63818365316594
 30
0.0
 10
93.0596770436902
 20
-93.59305290230917
 30
0.0
 10
93.00800061141146
 20
-93.54757764190387
 30
0.0
 10
92.98216239527208
 20
-93.49659022872217
 30
0.0
 10
92.98216239527208
 20
-93.44009066276408
 30
0.0
 10
92.98216239527208
 20
-93.44009066276408
 30
0.0
 10
92.98216239527208
 20
-92.25566683493518
 30
0.0
 10
92.98216239527208
 20
-92.25566683493518
 30
0.0
 10
92.98216239527208
 20
-92.10856125771501
 30
0.0
 10
92.99628728676161
 20
-91.97144645740207
 30
0.0
 10
93.02453706974066
 20
-91.84466694354488
 30
0.0
 10
93.0527868527197
 20
-91.71754292013915
 30
0.0
 10
93.10205171815878
 20
-91.60798888370822
 30
0.0
 10
93.1726761756064
 20
-91.51566032470352
 30
0.0
 10
93.2429561235055
 20
-91.4229872561503
 30
0.0
 10
93.33769624934986
 20
-91.35098476050858
 30
0.0
 10
93.45689655313952
 20
-91.29930832822983
 30
0.0
 10
93.57575234738063
 20
-91.24763189595109
 30
0.0
 10
93.72630302008605
 20
-91.22179367981171
 30
0.0
 10
93.90820406170724
 20
-91.22179367981171
 30
0.0
 10
94.08976059377991
 20
-91.22179367981171
 30
0.0
 10
94.23927773783976
 20
-91.25555561556716
 30
0.0
 10
94.35675549388677
 20
-91.32273497752952
 30
0.0
 10
94.47457775948232
 20
-91.39025884904042
 30
0.0
 10
94.56759533758407
 20
-91.47879780301135
 30
0.0
 10
94.63649724728906
 20
-91.5883518394423
 30
0.0
 10
94.70849974293078
 20
-91.47879780301135
 30
0.0
 10
94.8025508496781
 20
-91.39025884904042
 30
0.0
 10
94.91865056753102
 20
-91.32273497752952
 30
0.0
 10
95.03440577583541
 20
-91.25555561556716
 30
0.0
 10
95.18633448673494
 20
-91.22179367981171
 30
0.0
 10
95.37443670022957
 20
-91.22179367981171
 30
0.0
  0
HATCH
  5
67
330
55
100
AcDbEntity
  8
Base
 62
     7
420
 16777215
100
AcDbHatch
 10
0.0
 20
0.0
 30
0.0
210
0.0
220
0.0
230
1.0
  2
SOLID
 70
     1
 71
     0
 91
        1
 92
        1
 93
        1
 72
     4
 94
        3
 73
     0
 74
     1
 95
      131
 96
      127
 40
0.0
 40
0.0
 40
0.0
 40
0.0
 40
1.0
 40
1.0
 40
1.0
 40
2.0
 40
2.0
 40
2.0
 40
3.0
 40
3.0
 40
3.0
 40
4.0
 40
4.0
 40
4.0
 40
5.0
 40
5.0
 40
5.0
 40
6.0
 40
6.0
 40
6.0
 40
7.0
 40
7.0
 40
7.0
 40
8.0
 40
8.0
 40
8.0
 40
9.0
 40
9.0
 40
9.0
 40
10.0
 40
10.0
 40
10.0
 40
11.0
 40
11.0
 40
11.0
 40
12.0
 40
12.0
 40
12.0
 40
13.0
 40
13.0
 40
13.0
 40
14.0
 40
14.0
 40
14.0
 40
15.0
 40
15.0
 40
15.0
 40
16.0
 40
16.0
 40
16.0
 40
17.0
 40
17.0
 40
17.0
 40
18.0
 40
18.0
 40
18.0
 40
19.0
 40
19.0
 40
19.0
 40
20.0
 40
20.0
 40
20.0
 40
21.0
 40
21.0
 40
21.0
 40
22.0
 40
22.0
 40
22.0
 40
23.0
 40
23.0
 40
23.0
 40
24.0
 40
24.0
 40
24.0
 40
25.0
 40
25.0
 40
25.0
 40
26.0
 40
26.0
 40
26.0
 40
27.0
 40
27.0
 40
27.0
 40
28.0
 40
28.0
 40
28.0
 40
29.0
 40
29.0
 40
29.0
 40
30.0
 40
30.0
 40
30.0
 40
31.0
 40
31.0
 40
31.0
 40
32.0
 40
32.0
 40
32.0
 40
33.0
 40
33.0
 40
33.0
 40
34.0
 40
34.0
 40
34.0
 40
35.0
 40
35.0
 40
35.0
 40
36.0
 40
36.0
 40
36.0
 40
37.0
 40
37.0
 40
37.0
 40
38.0
 40
38.0
 40
38.0
 40
39.0
 40
39.0
 40
39.0
 40
40.0
 40
40.0
 40
40.0
 40
41.0
 40
41.0
 40
41.0
 40
42.0
 40
42.0
 40
42.0
 40
42.0
 10
95.37443670022957
 20
-91.22179367981171
 10
95.55599323230224
 20
-91.22179367981171
 10
95.70654390500765
 20
-91.24763189595109
 10
95.8257442087973
 20
-91.29930832822983
 10
95.94460000303842
 20
-91.35098476050858
 10
96.03865110978575
 20
-91.4229872561503
 10
96.10755301949074
 20
-91.51566032470352
 10
96.17645492919573
 20
-91.60798888370822
 10
96.22503077553776
 20
-91.71754292013915
 10
96.2532805585168
 20
-91.84466694354488
 10
96.28153034149585
 20
-91.97144645740207
 10
96.29565523298538
 20
-92.10856125771501
 10
96.29565523298538
 20
-92.25566683493518
 10
96.29565523298538
 20
-92.25566683493518
 10
96.29565523298538
 20
-93.44009066276408
 10
96.29565523298538
 20
-93.44009066276408
 10
96.29565523298538
 20
-93.49659022872217
 10
96.27050603594306
 20
-93.54757764190387
 10
96.22055215140693
 20
-93.59305290230917
 10
96.17025375732229
 20
-93.63818365316594
 10
96.10135184761728
 20
-93.6609212833686
 10
96.01350191274342
 20
-93.6609212833686
 10
95.93529824522824
 20
-93.6609212833686
 10
95.87190848829965
 20
-93.63818365316594
 10
95.82333264195762
 20
-93.59305290230917
 10
95.7747567956156
 20
-93.54757764190387
 10
95.75029661767033
 20
-93.49659022872217
 10
95.75029661767033
 20
-93.44009066276408
 10
95.75029661767033
 20
-93.44009066276408
 10
95.75029661767033
 20
-92.23706331931483
 10
95.75029661767033
 20
-92.23706331931483
 10
95.75029661767033
 20
-92.06480854505234
 10
95.71825722965751
 20
-91.93768452164662
 10
95.65417845363186
 20
-91.85638026819473
 10
95.58975516805769
 20
-91.77473150519431
 10
95.4808901507238
 20
-91.73407937846835
 10
95.32758340163018
 20
-91.73407937846835
 10
95.05473183919838
 20
-91.73407937846835
 10
94.91865056753102
 20
-91.90185552860002
 10
94.91865056753102
 20
-92.23706331931483
 10
94.91865056753102
 20
-92.23706331931483
 10
94.91865056753102
 20
-93.45903868793295
 10
94.91865056753102
 20
-93.45903868793295
 10
94.91865056753102
 20
-93.45903868793295
 10
94.90900430017231
 20
-93.50141336240152
 10
94.90900430017231
 20
-93.50141336240152
 10
94.90900430017231
 20
-93.50141336240152
 10
94.89970254236215
 20
-93.51553825389105
 10
94.89970254236215
 20
-93.51553825389105
 10
94.89660195642541
 20
-93.5217394257645
 10
94.89419038958575
 20
-93.5272515785409
 10
94.89281235139164
 20
-93.53173020267172
 10
94.89108980364902
 20
-93.53655333635108
 10
94.88730019861525
 20
-93.54206548912747
 10
94.8810990267418
 20
-93.54826666100092
 10
94.85905041563619
 20
-93.57961702991669
 10
94.82942259446305
 20
-93.60545524605607
 10
94.7915265441253
 20
-93.62578130941904
 10
94.75397500333608
 20
-93.64610737278201
 10
94.7102222906734
 20
-93.65782069743187
 10
94.65992389658875
 20
-93.6609212833686
 10
94.65992389658875
 20
-93.6609212833686
 10
94.63649724728906
 20
-93.6609212833686
 10
94.63649724728906
 20
-93.6609212833686
 10
94.56449475164733
 20
-93.6609212833686
 10
94.50489459975252
 20
-93.64369580594234
 10
94.45804130115312
 20
-93.60924485108984
 10
94.41084349300519
 20
-93.57479389623735
 10
94.38121567183204
 20
-93.5327637313173
 10
94.36881332808514
 20
-93.48246533723265
 10
94.36881332808514
 20
-93.48246533723265
 10
94.3639901944058
 20
-93.47316357942248
 10
94.3639901944058
 20
-93.47316357942248
 10
94.3639901944058
 20
-93.47316357942248
 10
94.3639901944058
 20
-92.23706331931483
 10
94.3639901944058
 20
-92.23706331931483
 10
94.3639901944058
 20
-91.90185552860002
 10
94.2275644131899
 20
-91.73407937846835
 10
93.95505736030664
 20
-91.73407937846835
 10
93.79830551572778
 20
-91.73407937846835
 10
93.68875147929683
 20
-91.77473150519431
 10
93.62605074146528
 20
-91.85638026819473
 10
93.56335000363373
 20
-91.93768452164662
 10
93.53199963471796
 20
-92.06480854505234
 10
93.53199963471796
 20
-92.23706331931483
 10
93.53199963471796
 20
-92.23706331931483
 10
93.53199963471796
 20
-93.44009066276408
 10
93.53199963471796
 20
-93.44009066276408
 10
93.53199963471796
 20
-93.49659022872217
 10
93.50788396632122
 20
-93.54757764190387
 10
93.45930811997918
 20
-93.59305290230917
 10
93.41073227363717
 20
-93.63818365316594
 10
93.34561996896595
 20
-93.6609212833686
 10
93.26431571551404
 20
-93.6609212833686
 10
93.1795663665769
 20
-93.6609212833686
 10
93.11135347596895
 20
-93.63818365316594
 10
93.0596770436902
 20
-93.59305290230917
 10
93.00800061141146
 20
-93.54757764190387
 10
92.98216239527208
 20
-93.49659022872217
 10
92.98216239527208
 20
-93.44009066276408
 10
92.98216239527208
 20
-93.44009066276408
 10
92.98216239527208
 20
-92.25566683493518
 10
92.98216239527208
 20
-92.25566683493518
 10
92.98216239527208
 20
-92.10856125771501
 10
92.99628728676161
 20
-91.97144645740207
 10
93.02453706974066
 20
-91.84466694354488
 10
93.0527868527197
 20
-91.71754292013915
 10
93.10205171815878
 20
-91.60798888370822
 10
93.1726761756064
 20
-91.51566032470352
 10
93.2429561235055
 20
-91.4229872561503
 10
93.33769624934986
 20
-91.35098476050858
 10
93.45689655313952
 20
-91.29930832822983
 10
93.57575234738063
 20
-91.24763189595109
 10
93.72630302008605
 20
-91.22179367981171
 10
93.90820406170724
 20
-91.22179367981171
 10
94.08976059377991
 20
-91.22179367981171
 10
94.23927773783976
 20
-91.25555561556716
 10
94.35675549388677
 20
-91.32273497752952
 10
94.47457775948232
 20
-91.39025884904042
 10
94.56759533758407
 20
-91.47879780301135
 10
94.63649724728906
 20
-91.5883518394423
 10
94.70849974293078
 20
-91.47879780301135
 10
94.8025508496781
 20
-91.39025884904042
 10
94.91865056753102
 20
-91.32273497752952
 10
95.03440577583541
 20
-91.25555561556716
 10
95.18633448673494
 20
-91.22179367981171
 10
95.37443670022957
 20
-91.22179367981171
 97
        0
 97
        0
 75
     2
 76
     1
 98
        0
  0
SPLINE
  5
68
330
55
100
AcDbEntity
  8
Base
370
     0
100
AcDbSpline
210
0.0
220
0.0
230
1.0
 70
    11
 71
     3
 72
    71
 73
    67
 74
     0
 42
0.0000000001
 43
0.0000000001
 12
1.0
 22
0.0
 32
0.0
 13
1.0
 23
0.0
 33
0.0
 40
0.0
 40
0.0
 40
0.0
 40
0.0
 40
1.0
 40
1.0
 40
1.0
 40
2.0
 40
2.0
 40
2.0
 40
3.0
 40
3.0
 40
3.0
 40
4.0
 40
4.0
 40
4.0
 40
5.0
 40
5.0
 40
5.0
 40
6.0
 40
6.0
 40
6.0
 40
7.0
 40
7.0
 40
7.0
 40
8.0
 40
8.0
 40
8.0
 40
9.0
 40
9.0
 40
9.0
 40
10.0
 40
10.0
 40
10.0
 40
11.0
 40
11.0
 40
11.0
 40
12.0
 40
12.0
 40
12.0
 40
13.0
 40
13.0
 40
13.0
 40
14.0
 40
14.0
 40
14.0
 40
15.0
 40
15.0
 40
15.0
 40
16.0
 40
16.0
 40
16.0
 40
17.0
 40
17.0
 40
17.0
 40
18.0
 40
18.0
 40
18.0
 40
19.0
 40
19.0
 40
19.0
 40
20.0
 40
20.0
 40
20.0
 40
21.0
 40
21.0
 40
21.0
 40
22.0
 40
22.0
 40
22.0
 40
22.0
 10
97.57413016756159
 20
-93.41666401346438
 30
0.0
 10
97.57413016756159
 20
-93.41666401346438
 30
0.0
 10
97.57413016756159
 20
-94.42711051928815
 30
0.0
 10
97.57413016756159
 20
-94.42711051928815
 30
0.0
 10
97.57413016756159
 20
-94.48361008524626
 30
0.0
 10
97.55001449916485
 20
-94.53459749842796
 30
0.0
 10
97.50143865282283
 20
-94.58007275883325
 30
0.0
 10
97.4528628064808
 20
-94.62520350969002
 30
0.0
 10
97.38775050180958
 20
-94.64794113989267
 30
0.0
 10
97.30610173880916
 20
-94.64794113989267
 30
0.0
 10
97.22169689942054
 20
-94.64794113989267
 30
0.0
 10
97.15348400881258
 20
-94.62520350969002
 30
0.0
 10
97.10180757653384
 20
-94.58007275883325
 30
0.0
 10
97.05013114425509
 20
-94.53459749842796
 30
0.0
 10
97.02429292811571
 20
-94.48361008524626
 30
0.0
 10
97.02429292811571
 20
-94.42711051928815
 30
0.0
 10
97.02429292811571
 20
-94.42711051928815
 30
0.0
 10
97.02429292811571
 20
-92.15713710405704
 30
0.0
 10
97.02429292811571
 20
-92.15713710405704
 30
0.0
 10
97.02429292811571
 20
-92.02243387058377
 30
0.0
 10
97.04599702967279
 20
-91.89772141401772
 30
0.0
 10
97.090094251884
 20
-91.78334424390744
 30
0.0
 10
97.13384696454666
 20
-91.66896707379713
 30
0.0
 10
97.19964828831493
 20
-91.56940381427341
 30
0.0
 10
97.2874982231888
 20
-91.48499897488479
 30
0.0
 10
97.37500364851415
 20
-91.40024962594765
 30
0.0
 10
97.48421317539658
 20
-91.33444830217938
 30
0.0
 10
97.61409327519048
 20
-91.28759500357998
 30
0.0
 10
97.7439733749844
 20
-91.24039719543205
 30
0.0
 10
97.89521306678688
 20
-91.21697054613236
 30
0.0
 10
98.06781235059789
 20
-91.21697054613236
 30
0.0
 10
98.24936888267057
 20
-91.21697054613236
 30
0.0
 10
98.40922131318615
 20
-91.24590934820846
 30
0.0
 10
98.54702513259615
 20
-91.30413146190918
 30
0.0
 10
98.68482895200614
 20
-91.36200906606138
 30
0.0
 10
98.79851710301938
 20
-91.44021273357654
 30
0.0
 10
98.88774507608736
 20
-91.53908697400321
 30
0.0
 10
98.97697304915533
 20
-91.63761670488137
 30
0.0
 10
99.04449692066622
 20
-91.75199387499165
 30
0.0
 10
99.08997218107152
 20
-91.8822184843341
 30
0.0
 10
99.13544744147681
 20
-92.01209858412803
 30
0.0
 10
99.15818507167947
 20
-92.15093593218359
 30
0.0
 10
99.15818507167947
 20
-92.29804150940376
 30
0.0
 10
99.15818507167947
 20
-92.29804150940376
 30
0.0
 10
99.15818507167947
 20
-92.57537169596637
 30
0.0
 10
99.15818507167947
 20
-92.57537169596637
 30
0.0
 10
99.15818507167947
 20
-92.72282178273507
 30
0.0
 10
99.13923704651059
 20
-92.8613146212421
 30
0.0
 10
99.10168550572138
 20
-92.99119472103602
 30
0.0
 10
99.06413396493215
 20
-93.12141933037847
 30
0.0
 10
99.00591185123143
 20
-93.23579650048876
 30
0.0
 10
98.92770818371625
 20
-93.3343262313669
 30
0.0
 10
98.84950451620108
 20
-93.43320047179358
 30
0.0
 10
98.74925223758031
 20
-93.51140413930875
 30
0.0
 10
98.62695134785395
 20
-93.56928174346095
 30
0.0
 10
98.50465045812757
 20
-93.62750385716167
 30
0.0
 10
98.35754488090741
 20
-93.65644265923777
 30
0.0
 10
98.18529010664491
 20
-93.65644265923777
 30
0.0
 10
98.0567880450451
 20
-93.65644265923777
 30
0.0
 10
97.94620047996858
 20
-93.63370502903511
 30
0.0
 10
97.85387192096388
 20
-93.58822976862982
 30
0.0
 10
97.76119885241066
 20
-93.54275450822452
 30
0.0
 10
97.6805836180558
 20
-93.48246533723265
 30
0.0
 10
97.61168170835082
 20
-93.4073622556542
 30
0.0
 10
97.61168170835082
 20
-93.4073622556542
 30
0.0
 10
97.57413016756159
 20
-93.41666401346438
 30
0.0
 10
97.57413016756159
 20
-93.41666401346438
 30
0.0
  0
SPLINE
  5
69
330
55
100
AcDbEntity
  8
Base
370
     0
100
AcDbSpline
210
0.0
220
0.0
230
1.0
 70
    11
 71
     3
 72
    35
 73
    31
 74
     0
 42
0.0000000001
 43
0.0000000001
 12
1.0
 22
0.0
 32
0.0
 13
1.0
 23
0.0
 33
0.0
 40
0.0
 40
0.0
 40
0.0
 40
0.0
 40
1.0
 40
1.0
 40
1.0
 40
2.0
 40
2.0
 40
2.0
 40
3.0
 40
3.0
 40
3.0
 40
4.0
 40
4.0
 40
4.0
 40
5.0
 40
5.0
 40
5.0
 40
6.0
 40
6.0
 40
6.0
 40
7.0
 40
7.0
 40
7.0
 40
8.0
 40
8.0
 40
8.0
 40
9.0
 40
9.0
 40
9.0
 40
10.0
 40
10.0
 40
10.0
 40
10.0
 10
97.57413016756159
 20
-92.64117301973464
 30
0.0
 10
97.57413016756159
 20
-92.81342779399714
 30
0.0
 10
97.62132797570952
 20
-92.94055181740285
 30
0.0
 10
97.71503457290831
 20
-93.02185607085475
 30
0.0
 10
97.80908567965564
 20
-93.10350483385517
 30
0.0
 10
97.92656343570265
 20
-93.14415696058111
 30
0.0
 10
98.06781235059789
 20
-93.14415696058111
 30
0.0
 10
98.22732027156496
 20
-93.14415696058111
 30
0.0
 10
98.35685586181036
 20
-93.09385856649646
 30
0.0
 10
98.4553855926885
 20
-92.99360628787569
 30
0.0
 10
98.55425983311517
 20
-92.89335400925494
 30
0.0
 10
98.60352469855424
 20
-92.76037332352429
 30
0.0
 10
98.60352469855424
 20
-92.59431972113524
 30
0.0
 10
98.60352469855424
 20
-92.59431972113524
 30
0.0
 10
98.60352469855424
 20
-92.2794379937834
 30
0.0
 10
98.60352469855424
 20
-92.2794379937834
 30
0.0
 10
98.60352469855424
 20
-92.11338439139436
 30
0.0
 10
98.55425983311517
 20
-91.98005919611519
 30
0.0
 10
98.4553855926885
 20
-91.87980691749442
 30
0.0
 10
98.35685586181036
 20
-91.77955463887366
 30
0.0
 10
98.22732027156496
 20
-91.72925624478901
 30
0.0
 10
98.06781235059789
 20
-91.72925624478901
 30
0.0
 10
97.92656343570265
 20
-91.72925624478901
 30
0.0
 10
97.80908567965564
 20
-91.76232916144741
 30
0.0
 10
97.71503457290831
 20
-91.82813048521568
 30
0.0
 10
97.62132797570952
 20
-91.89393180898395
 30
0.0
 10
97.57413016756159
 20
-91.99728467354144
 30
0.0
 10
97.57413016756159
 20
-92.13818907888816
 30
0.0
 10
97.57413016756159
 20
-92.13818907888816
 30
0.0
 10
97.57413016756159
 20
-92.64117301973464
 30
0.0
 10
97.57413016756159
 20
-92.64117301973464
 30
0.0
  0
HATCH
  5
6A
330
55
100
AcDbEntity
  8
Base
 62
     7
420
 16777215
100
AcDbHatch
 10
0.0
 20
0.0
 30
0.0
210
0.0
220
0.0
230
1.0
  2
SOLID
 70
     1
 71
     0
 91
        2
 92
        1
 93
        1
 72
     4
 94
        3
 73
     0
 74
     1
 95
       71
 96
       67
 40
0.0
 40
0.0
 40
0.0
 40
0.0
 40
1.0
 40
1.0
 40
1.0
 40
2.0
 40
2.0
 40
2.0
 40
3.0
 40
3.0
 40
3.0
 40
4.0
 40
4.0
 40
4.0
 40
5.0
 40
5.0
 40
5.0
 40
6.0
 40
6.0
 40
6.0
 40
7.0
 40
7.0
 40
7.0
 40
8.0
 40
8.0
 40
8.0
 40
9.0
 40
9.0
 40
9.0
 40
10.0
 40
10.0
 40
10.0
 40
11.0
 40
11.0
 40
11.0
 40
12.0
 40
12.0
 40
12.0
 40
13.0
 40
13.0
 40
13.0
 40
14.0
 40
14.0
 40
14.0
 40
15.0
 40
15.0
 40
15.0
 40
16.0
 40
16.0
 40
16.0
 40
17.0
 40
17.0
 40
17.0
 40
18.0
 40
18.0
 40
18.0
 40
19.0
 40
19.0
 40
19.0
 40
20.0
 40
20.0
 40
20.0
 40
21.0
 40
21.0
 40
21.0
 40
22.0
 40
22.0
 40
22.0
 40
22.0
 10
97.57413016756159
 20
-93.41666401346438
 10
97.57413016756159
 20
-93.41666401346438
 10
97.57413016756159
 20
-94.42711051928815
 10
97.57413016756159
 20
-94.42711051928815
 10
97.57413016756159
 20
-94.48361008524626
 10
97.55001449916485
 20
-94.53459749842796
 10
97.50143865282283
 20
-94.58007275883325
 10
97.4528628064808
 20
-94.62520350969002
 10
97.38775050180958
 20
-94.64794113989267
 10
97.30610173880916
 20
-94.64794113989267
 10
97.22169689942054
 20
-94.64794113989267
 10
97.15348400881258
 20
-94.62520350969002
 10
97.10180757653384
 20
-94.58007275883325
 10
97.05013114425509
 20
-94.53459749842796
 10
97.02429292811571
 20
-94.48361008524626
 10
97.02429292811571
 20
-94.42711051928815
 10
97.02429292811571
 20
-94.42711051928815
 10
97.02429292811571
 20
-92.15713710405704
 10
97.02429292811571
 20
-92.15713710405704
 10
97.02429292811571
 20
-92.02243387058377
 10
97.04599702967279
 20
-91.89772141401772
 10
97.090094251884
 20
-91.78334424390744
 10
97.13384696454666
 20
-91.66896707379713
 10
97.19964828831493
 20
-91.56940381427341
 10
97.2874982231888
 20
-91.48499897488479
 10
97.37500364851415
 20
-91.40024962594765
 10
97.48421317539658
 20
-91.33444830217938
 10
97.61409327519048
 20
-91.28759500357998
 10
97.7439733749844
 20
-91.24039719543205
 10
97.89521306678688
 20
-91.21697054613236
 10
98.06781235059789
 20
-91.21697054613236
 10
98.24936888267057
 20
-91.21697054613236
 10
98.40922131318615
 20
-91.24590934820846
 10
98.54702513259615
 20
-91.30413146190918
 10
98.68482895200614
 20
-91.36200906606138
 10
98.79851710301938
 20
-91.44021273357654
 10
98.88774507608736
 20
-91.53908697400321
 10
98.97697304915533
 20
-91.63761670488137
 10
99.04449692066622
 20
-91.75199387499165
 10
99.08997218107152
 20
-91.8822184843341
 10
99.13544744147681
 20
-92.01209858412803
 10
99.15818507167947
 20
-92.15093593218359
 10
99.15818507167947
 20
-92.29804150940376
 10
99.15818507167947
 20
-92.29804150940376
 10
99.15818507167947
 20
-92.57537169596637
 10
99.15818507167947
 20
-92.57537169596637
 10
99.15818507167947
 20
-92.72282178273507
 10
99.13923704651059
 20
-92.8613146212421
 10
99.10168550572138
 20
-92.99119472103602
 10
99.06413396493215
 20
-93.12141933037847
 10
99.00591185123143
 20
-93.23579650048876
 10
98.92770818371625
 20
-93.3343262313669
 10
98.84950451620108
 20
-93.43320047179358
 10
98.74925223758031
 20
-93.51140413930875
 10
98.62695134785395
 20
-93.56928174346095
 10
98.50465045812757
 20
-93.62750385716167
 10
98.35754488090741
 20
-93.65644265923777
 10
98.18529010664491
 20
-93.65644265923777
 10
98.0567880450451
 20
-93.65644265923777
 10
97.94620047996858
 20
-93.63370502903511
 10
97.85387192096388
 20
-93.58822976862982
 10
97.76119885241066
 20
-93.54275450822452
 10
97.6805836180558
 20
-93.48246533723265
 10
97.61168170835082
 20
-93.4073622556542
 10
97.61168170835082
 20
-93.4073622556542
 10
97.57413016756159
 20
-93.41666401346438
 10
97.57413016756159
 20
-93.41666401346438
 97
        0
 97
        0
 92
        1
 93
        1
 72
     4
 94
        3
 73
     0
 74
     1
 95
       35
 96
       31
 40
0.0
 40
0.0
 40
0.0
 40
0.0
 40
1.0
 40
1.0
 40
1.0
 40
2.0
 40
2.0
 40
2.0
 40
3.0
 40
3.0
 40
3.0
 40
4.0
 40
4.0
 40
4.0
 40
5.0
 40
5.0
 40
5.0
 40
6.0
 40
6.0
 40
6.0
 40
7.0
 40
7.0
 40
7.0
 40
8.0
 40
8.0
 40
8.0
 40
9.0
 40
9.0
 40
9.0
 40
10.0
 40
10.0
 40
10.0
 40
10.0
 10
97.57413016756159
 20
-92.64117301973464
 10
97.57413016756159
 20
-92.81342779399714
 10
97.62132797570952
 20
-92.94055181740285
 10
97.71503457290831
 20
-93.02185607085475
 10
97.80908567965564
 20
-93.10350483385517
 10
97.92656343570265
 20
-93.14415696058111
 10
98.06781235059789
 20
-93.14415696058111
 10
98.22732027156496
 20
-93.14415696058111
 10
98.35685586181036
 20
-93.09385856649646
 10
98.4553855926885
 20
-92.99360628787569
 10
98.55425983311517
 20
-92.89335400925494
 10
98.60352469855424
 20
-92.76037332352429
 10
98.60352469855424
 20
-92.59431972113524
 10
98.60352469855424
 20
-92.59431972113524
 10
98.60352469855424
 20
-92.2794379937834
 10
98.60352469855424
 20
-92.2794379937834
 10
98.60352469855424
 20
-92.11338439139436
 10
98.55425983311517
 20
-91.98005919611519
 10
98.4553855926885
 20
-91.87980691749442
 10
98.35685586181036
 20
-91.77955463887366
 10
98.22732027156496
 20
-91.72925624478901
 10
98.06781235059789
 20
-91.72925624478901
 10
97.92656343570265
 20
-91.72925624478901
 10
97.80908567965564
 20
-91.76232916144741
 10
97.71503457290831
 20
-91.82813048521568
 10
97.62132797570952
 20
-91.89393180898395
 10
97.57413016756159
 20
-91.99728467354144
 10
97.57413016756159
 20
-92.13818907888816
 10
97.57413016756159
 20
-92.13818907888816
 10
97.57413016756159
 20
-92.64117301973464
 10
97.57413016756159
 20
-92.64117301973464
 97
        0
 97
        0
 75
     2
 76
     1
 98
        0
  0
ENDBLK
  5
58
330
55
100
AcDbEntity
  8
0
100
AcDbBlockEnd
  0
ENDSEC
  0
SECTION
  2
ENTITIES
  0
INSERT
  5
42
330
1F
100
AcDbEntity
  8
Base
100
AcDbBlockReference
  2
block 2
 10
0.0
 20
0.0
 30
0.0
  0
INSERT
  5
48
330
1F
100
AcDbEntity
  8
Base
100
AcDbBlockReference
  2
block 3
 10
0.0
 20
0.0
 30
0.0
  0
ENDSEC
  0
SECTION
  2
OBJECTS
  0
DICTIONARY
  5
C
330
0
100
AcDbDictionary
281
     1
  3
ACAD_GROUP
350
D
  3
ACAD_LAYOUT
350
1A
  3
ACAD_MATERIAL
350
3B
  3
ACAD_MLEADERSTYLE
350
6E
  3
ACAD_MLINESTYLE
350
17
  3
ACAD_PLOTSETTINGS
350
19
  3
ACAD_PLOTSTYLENAME
350
E
  3
ACAD_TABLESTYLE
350
6D
  3
ACAD_VISUALSTYLE
350
2A
  0
SUN
  5
3F
330
29
100
AcDbSun
 90
        1
290
     0
 63
     7
421
 16777215
 40
1.0
291
     1
 91
  2455826
 92
 54000000
292
     0
 70
     2
 71
   256
280
     1
  0
DICTIONARY
  5
D
102
{ACAD_REACTORS
330
C
102
}
330
C
100
AcDbDictionary
281
     1
  0
DICTIONARY
  5
1A
102
{ACAD_REACTORS
330
C
102
}
330
C
100
AcDbDictionary
281
     1
  3
Layout1
350
1E
  3
Layout2
350
26
  3
Model
350
22
  0
DICTIONARY
  5
3B
102
{ACAD_REACTORS
330
C
102
}
330
C
100
AcDbDictionary
281
     1
  3
ByBlock
350
3D
  3
ByLayer
350
3C
  3
Global
350
3E
  0
DICTIONARY
  5
6E
102
{ACAD_REACTORS
330
C
102
}
330
C
100
AcDbDictionary
281
     1
  0
DICTIONARY
  5
17
102
{ACAD_REACTORS
330
C
102
}
330
C
100
AcDbDictionary
281
     1
  3
Standard
350
18
  0
DICTIONARY
  5
19
102
{ACAD_REACTORS
330
C
102
}
330
C
100
AcDbDictionary
281
     1
  0
ACDBDICTIONARYWDFLT
  5
E
102
{ACAD_REACTORS
330
C
102
}
330
C
100
AcDbDictionary
281
     1
  3
Normal
350
F
100
AcDbDictionaryWithDefault
340
F
  0
DICTIONARY
  5
6D
102
{ACAD_REACTORS
330
C
102
}
330
C
100
AcDbDictionary
281
     1
  0
DICTIONARY
  5
2A
102
{ACAD_REACTORS
330
C
102
}
330
C
100
AcDbDictionary
281
     1
  3
2dWireframe
350
2F
  3
3D Hidden
350
31
  3
3dWireframe
350
30
  3
Basic
350
32
  3
Brighten
350
36
  3
ColorChange
350
3A
  3
Conceptual
350
34
  3
Dim
350
35
  3
Facepattern
350
39
  3
Flat
350
2B
  3
FlatWithEdges
350
2C
  3
Gouraud
350
2D
  3
GouraudWithEdges
350
2E
  3
Linepattern
350
38
  3
Realistic
350
33
  3
Thicken
350
37
  0
LAYOUT
  5
1E
102
{ACAD_REACTORS
330
1A
102
}
330
1A
100
AcDbPlotSettings
  1

  2
none_device
  4

  6

 40
0.0
 41
0.0
 42
0.0
 43
0.0
 44
0.0
 45
0.0
 46
0.0
 47
0.0
 48
0.0
 49
0.0
140
0.0
141
0.0
142
1.0
143
1.0
 70
   688
 72
     0
 73
     0
 74
     5
  7

 75
    16
 76
     0
 77
     2
 78
   300
147
1.0
148
0.0
149
0.0
100
AcDbLayout
  1
Layout1
 70
     1
 71
     1
 10
0.0
 20
0.0
 11
12.0
 21
9.0
 12
0.0
 22
0.0
 32
0.0
 14
1.000000000000000E+20
 24
1.000000000000000E+20
 34
1.000000000000000E+20
 15
-1.000000000000000E+20
 25
-1.000000000000000E+20
 35
-1.000000000000000E+20
146
0.0
 13
0.0
 23
0.0
 33
0.0
 16
1.0
 26
0.0
 36
0.0
 17
0.0
 27
1.0
 37
0.0
 76
     0
330
1B
  0
LAYOUT
  5
26
102
{ACAD_REACTORS
330
1A
102
}
330
1A
100
AcDbPlotSettings
  1

  2
none_device
  4

  6

 40
0.0
 41
0.0
 42
0.0
 43
0.0
 44
0.0
 45
0.0
 46
0.0
 47
0.0
 48
0.0
 49
0.0
140
0.0
141
0.0
142
1.0
143
1.0
 70
   688
 72
     0
 73
     0
 74
     5
  7

 75
    16
 76
     0
 77
     2
 78
   300
147
1.0
148
0.0
149
0.0
100
AcDbLayout
  1
Layout2
 70
     1
 71
     2
 10
0.0
 20
0.0
 11
0.0
 21
0.0
 12
0.0
 22
0.0
 32
0.0
 14
0.0
 24
0.0
 34
0.0
 15
0.0
 25
0.0
 35
0.0
146
0.0
 13
0.0
 23
0.0
 33
0.0
 16
1.0
 26
0.0
 36
0.0
 17
0.0
 27
1.0
 37
0.0
 76
     0
330
23
  0
LAYOUT
  5
22
102
{ACAD_REACTORS
330
1A
102
}
330
1A
100
AcDbPlotSettings
  1

  2
none_device
  4

  6

 40
0.0
 41
0.0
 42
0.0
 43
0.0
 44
0.0
 45
0.0
 46
0.0
 47
0.0
 48
0.0
 49
0.0
140
0.0
141
0.0
142
1.0
143
1.0
 70
  1712
 72
     0
 73
     0
 74
     0
  7

 75
     0
 76
     0
 77
     2
 78
   300
147
1.0
148
0.0
149
0.0
100
AcDbLayout
  1
Model
 70
     1
 71
     0
 10
0.0
 20
0.0
 11
12.0
 21
9.0
 12
0.0
 22
0.0
 32
0.0
 14
1.000000000000000E+20
 24
1.000000000000000E+20
 34
1.000000000000000E+20
 15
-1.000000000000000E+20
 25
-1.000000000000000E+20
 35
-1.000000000000000E+20
146
0.0
 13
0.0
 23
0.0
 33
0.0
 16
1.0
 26
0.0
 36
0.0
 17
0.0
 27
1.0
 37
0.0
 76
     0
330
1F
331
29
  0
MATERIAL
  5
3D
102
{ACAD_REACTORS
330
3B
102
}
330
3B
100
AcDbMaterial
  1
ByBlock
 72
     1
 94
      127
  0
MATERIAL
  5
3C
102
{ACAD_REACTORS
330
3B
102
}
330
3B
100
AcDbMaterial
  1
ByLayer
 72
     1
 94
      127
  0
MATERIAL
  5
3E
102
{ACAD_REACTORS
330
3B
102
}
330
3B
100
AcDbMaterial
  1
Global
 72
     1
 94
      127
  0
MLINESTYLE
  5
18
102
{ACAD_REACTORS
330
17
102
}
330
17
100
AcDbMlineStyle
  2
Standard
 70
     0
  3

 62
   256
 51
90.0
 52
90.0
 71
     2
 49
0.5
 62
   256
  6
BYLAYER
 49
-0.5
 62
   256
  6
BYLAYER
  0
ACDBPLACEHOLDER
  5
F
102
{ACAD_REACTORS
330
E
102
}
330
E
  0
VISUALSTYLE
  5
2F
102
{ACAD_REACTORS
330
2A
102
}
330
2A
100
AcDbVisualStyle
  2
2dWireframe
 70
     4
177
     2
291
     0
 71
     0
176
     1
 72
     2
176
     1
 73
     0
176
     1
 90
        0
176
     1
 40
-0.6
176
     1
 41
-30.0
176
     1
 62
     5
 63
     7
421
 16777215
176
     1
 74
     1
176
     1
 91
        4
176
     1
 64
     7
176
     1
 65
   257
176
     1
 75
     1
176
     1
175
     1
176
     1
 42
1.0
176
     1
 92
        0
176
     1
 66
   257
176
     1
 43
1.0
176
     1
 76
     1
176
     1
 77
     6
176
     1
 78
     2
176
     1
 67
     7
176
     1
 79
     5
176
     1
170
     0
176
     1
171
     0
176
     1
290
     0
176
     1
 93
        1
176
     1
 44
0.0
176
     1
173
     0
176
     1
  0
VISUALSTYLE
  5
31
102
{ACAD_REACTORS
330
2A
102
}
330
2A
100
AcDbVisualStyle
  2
3D Hidden
 70
     6
177
     2
291
     0
 71
     1
176
     1
 72
     2
176
     1
 73
     2
176
     1
 90
        0
176
     1
 40
-0.6
176
     1
 41
-30.0
176
     1
 62
     5
 63
     7
421
 16777215
176
     1
 74
     2
176
     1
 91
        2
176
     1
 64
     7
176
     1
 65
   257
176
     1
 75
     2
176
     1
175
     1
176
     1
 42
40.0
176
     1
 92
        0
176
     1
 66
   257
176
     1
 43
1.0
176
     1
 76
     1
176
     1
 77
     6
176
     1
 78
     2
176
     1
 67
     7
176
     1
 79
     3
176
     1
170
     0
176
     1
171
     0
176
     1
290
     0
176
     1
 93
        1
176
     1
 44
0.0
176
     1
173
     0
176
     1
  0
VISUALSTYLE
  5
30
102
{ACAD_REACTORS
330
2A
102
}
330
2A
100
AcDbVisualStyle
  2
3dWireframe
 70
     5
177
     2
291
     0
 71
     0
176
     1
 72
     2
176
     1
 73
     0
176
     1
 90
        0
176
     1
 40
-0.6
176
     1
 41
-30.0
176
     1
 62
     5
 63
     7
421
 16777215
176
     1
 74
     1
176
     1
 91
        4
176
     1
 64
     7
176
     1
 65
   257
176
     1
 75
     1
176
     1
175
     1
176
     1
 42
1.0
176
     1
 92
        0
176
     1
 66
   257
176
     1
 43
1.0
176
     1
 76
     1
176
     1
 77
     6
176
     1
 78
     2
176
     1
 67
     7
176
     1
 79
     5
176
     1
170
     0
176
     1
171
     0
176
     1
290
     0
176
     1
 93
        1
176
     1
 44
0.0
176
     1
173
     0
176
     1
  0
VISUALSTYLE
  5
32
102
{ACAD_REACTORS
330
2A
102
}
330
2A
100
AcDbVisualStyle
  2
Basic
 70
     7
177
     2
291
     1
 71
     1
176
     1
 72
     0
176
     1
 73
     1
176
     1
 90
        0
176
     1
 40
-0.6
176
     1
 41
-30.0
176
     1
 62
     5
 63
     7
421
 16777215
176
     1
 74
     0
176
     1
 91
        4
176
     1
 64
     7
176
     1
 65
   257
176
     1
 75
     1
176
     1
175
     1
176
     1
 42
1.0
176
     1
 92
        8
176
     1
 66
     7
176
     1
 43
1.0
176
     1
 76
     1
176
     1
 77
     6
176
     1
 78
     2
176
     1
 67
     7
176
     1
 79
     5
176
     1
170
     0
176
     1
171
     0
176
     1
290
     0
176
     1
 93
        1
176
     1
 44
0.0
176
     1
173
     0
176
     1
  0
VISUALSTYLE
  5
36
102
{ACAD_REACTORS
330
2A
102
}
330
2A
100
AcDbVisualStyle
  2
Brighten
 70
    12
177
     2
291
     1
 71
     2
176
     1
 72
     2
176
     1
 73
     0
176
     1
 90
        0
176
     1
 40
-0.6
176
     1
 41
-30.0
176
     1
 62
     5
 63
     7
421
 16777215
176
     1
 74
     1
176
     1
 91
        4
176
     1
 64
     7
176
     1
 65
   257
176
     1
 75
     1
176
     1
175
     1
176
     1
 42
1.0
176
     1
 92
        8
176
     1
 66
     7
176
     1
 43
1.0
176
     1
 76
     1
176
     1
 77
     6
176
     1
 78
     2
176
     1
 67
     7
176
     1
 79
     5
176
     1
170
     0
176
     1
171
     0
176
     1
290
     0
176
     1
 93
        1
176
     1
 44
50.0
176
     1
173
     0
176
     1
  0
VISUALSTYLE
  5
3A
102
{ACAD_REACTORS
330
2A
102
}
330
2A
100
AcDbVisualStyle
  2
ColorChange
 70
    16
177
     2
291
     1
 71
     2
176
     1
 72
     2
176
     1
 73
     3
176
     1
 90
        0
176
     1
 40
-0.6
176
     1
 41
-30.0
176
     1
 62
     5
 63
     8
421
  8421504
176
     1
 74
     1
176
     1
 91
        4
176
     1
 64
     7
176
     1
 65
   257
176
     1
 75
     1
176
     1
175
     1
176
     1
 42
1.0
176
     1
 92
        8
176
     1
 66
     8
424
  8421504
176
     1
 43
1.0
176
     1
 76
     1
176
     1
 77
     6
176
     1
 78
     2
176
     1
 67
     7
176
     1
 79
     5
176
     1
170
     0
176
     1
171
     0
176
     1
290
     0
176
     1
 93
        1
176
     1
 44
0.0
176
     1
173
     0
176
     1
  0
VISUALSTYLE
  5
34
102
{ACAD_REACTORS
330
2A
102
}
330
2A
100
AcDbVisualStyle
  2
Conceptual
 70
     9
177
     2
291
     0
 71
     3
176
     1
 72
     2
176
     1
 73
     0
176
     1
 90
        0
176
     1
 40
-0.6
176
     1
 41
-30.0
176
     1
 62
     5
 63
     7
421
 16777215
176
     1
 74
     2
176
     1
 91
        2
176
     1
 64
     7
176
     1
 65
   257
176
     1
 75
     1
176
     1
175
     1
176
     1
 42
40.0
176
     1
 92
        8
176
     1
 66
     7
176
     1
 43
1.0
176
     1
 76
     1
176
     1
 77
     6
176
     1
 78
     2
176
     1
 67
     7
176
     1
 79
     3
176
     1
170
     0
176
     1
171
     0
176
     1
290
     0
176
     1
 93
        1
176
     1
 44
0.0
176
     1
173
     0
176
     1
  0
VISUALSTYLE
  5
35
102
{ACAD_REACTORS
330
2A
102
}
330
2A
100
AcDbVisualStyle
  2
Dim
 70
    11
177
     2
291
     1
 71
     2
176
     1
 72
     2
176
     1
 73
     0
176
     1
 90
        0
176
     1
 40
-0.6
176
     1
 41
-30.0
176
     1
 62
     5
 63
     7
421
 16777215
176
     1
 74
     1
176
     1
 91
        4
176
     1
 64
     7
176
     1
 65
   257
176
     1
 75
     1
176
     1
175
     1
176
     1
 42
1.0
176
     1
 92
        8
176
     1
 66
     7
176
     1
 43
1.0
176
     1
 76
     1
176
     1
 77
     6
176
     1
 78
     2
176
     1
 67
     7
176
     1
 79
     5
176
     1
170
     0
176
     1
171
     0
176
     1
290
     0
176
     1
 93
        1
176
     1
 44
-50.0
176
     1
173
     0
176
     1
  0
VISUALSTYLE
  5
39
102
{ACAD_REACTORS
330
2A
102
}
330
2A
100
AcDbVisualStyle
  2
Facepattern
 70
    15
177
     2
291
     1
 71
     2
176
     1
 72
     2
176
     1
 73
     0
176
     1
 90
        0
176
     1
 40
-0.6
176
     1
 41
-30.0
176
     1
 62
     5
 63
     7
421
 16777215
176
     1
 74
     1
176
     1
 91
        4
176
     1
 64
     7
176
     1
 65
   257
176
     1
 75
     1
176
     1
175
     1
176
     1
 42
1.0
176
     1
 92
        8
176
     1
 66
     7
176
     1
 43
1.0
176
     1
 76
     1
176
     1
 77
     6
176
     1
 78
     2
176
     1
 67
     7
176
     1
 79
     5
176
     1
170
     0
176
     1
171
     0
176
     1
290
     0
176
     1
 93
        1
176
     1
 44
0.0
176
     1
173
     0
176
     1
  0
VISUALSTYLE
  5
2B
102
{ACAD_REACTORS
330
2A
102
}
330
2A
100
AcDbVisualStyle
  2
Flat
 70
     0
177
     2
291
     1
 71
     2
176
     1
 72
     1
176
     1
 73
     1
176
     1
 90
        2
176
     1
 40
-0.6
176
     1
 41
30.0
176
     1
 62
     5
 63
     7
421
 16777215
176
     1
 74
     0
176
     1
 91
        4
176
     1
 64
     7
176
     1
 65
   257
176
     1
 75
     1
176
     1
175
     1
176
     1
 42
1.0
176
     1
 92
        8
176
     1
 66
     7
176
     1
 43
1.0
176
     1
 76
     1
176
     1
 77
     6
176
     1
 78
     2
176
     1
 67
     7
176
     1
 79
     5
176
     1
170
     0
176
     1
171
     0
176
     1
290
     0
176
     1
 93
       13
176
     1
 44
0.0
176
     1
173
     0
176
     1
  0
VISUALSTYLE
  5
2C
102
{ACAD_REACTORS
330
2A
102
}
330
2A
100
AcDbVisualStyle
  2
FlatWithEdges
 70
     1
177
     2
291
     1
 71
     2
176
     1
 72
     1
176
     1
 73
     1
176
     1
 90
        2
176
     1
 40
-0.6
176
     1
 41
30.0
176
     1
 62
     5
 63
     7
421
 16777215
176
     1
 74
     1
176
     1
 91
        4
176
     1
 64
     7
176
     1
 65
   257
176
     1
 75
     1
176
     1
175
     1
176
     1
 42
1.0
176
     1
 92
        0
176
     1
 66
   257
176
     1
 43
1.0
176
     1
 76
     1
176
     1
 77
     6
176
     1
 78
     2
176
     1
 67
     7
176
     1
 79
     5
176
     1
170
     0
176
     1
171
     0
176
     1
290
     0
176
     1
 93
       13
176
     1
 44
0.0
176
     1
173
     0
176
     1
  0
VISUALSTYLE
  5
2D
102
{ACAD_REACTORS
330
2A
102
}
330
2A
100
AcDbVisualStyle
  2
Gouraud
 70
     2
177
     2
291
     1
 71
     2
176
     1
 72
     2
176
     1
 73
     1
176
     1
 90
        2
176
     1
 40
-0.6
176
     1
 41
30.0
176
     1
 62
     5
 63
     7
421
 16777215
176
     1
 74
     0
176
     1
 91
        4
176
     1
 64
     7
176
     1
 65
   257
176
     1
 75
     1
176
     1
175
     1
176
     1
 42
1.0
176
     1
 92
        0
176
     1
 66
     7
176
     1
 43
1.0
176
     1
 76
     1
176
     1
 77
     6
176
     1
 78
     2
176
     1
 67
     7
176
     1
 79
     5
176
     1
170
     0
176
     1
171
     0
176
     1
290
     0
176
     1
 93
       13
176
     1
 44
0.0
176
     1
173
     0
176
     1
  0
VISUALSTYLE
  5
2E
102
{ACAD_REACTORS
330
2A
102
}
330
2A
100
AcDbVisualStyle
  2
GouraudWithEdges
 70
     3
177
     2
291
     1
 71
     2
176
     1
 72
     2
176
     1
 73
     1
176
     1
 90
        2
176
     1
 40
-0.6
176
     1
 41
30.0
176
     1
 62
     5
 63
     7
421
 16777215
176
     1
 74
     1
176
     1
 91
        4
176
     1
 64
     7
176
     1
 65
   257
176
     1
 75
     1
176
     1
175
     1
176
     1
 42
1.0
176
     1
 92
        0
176
     1
 66
   257
176
     1
 43
1.0
176
     1
 76
     1
176
     1
 77
     6
176
     1
 78
     2
176
     1
 67
     7
176
     1
 79
     5
176
     1
170
     0
176
     1
171
     0
176
     1
290
     0
176
     1
 93
       13
176
     1
 44
0.0
176
     1
173
     0
176
     1
  0
VISUALSTYLE
  5
38
102
{ACAD_REACTORS
330
2A
102
}
330
2A
100
AcDbVisualStyle
  2
Linepattern
 70
    14
177
     2
291
     1
 71
     2
176
     1
 72
     2
176
     1
 73
     0
176
     1
 90
        0
176
     1
 40
-0.6
176
     1
 41
-30.0
176
     1
 62
     5
 63
     7
421
 16777215
176
     1
 74
     1
176
     1
 91
        4
176
     1
 64
     7
176
     1
 65
   257
176
     1
 75
     7
176
     1
175
     7
176
     1
 42
1.0
176
     1
 92
        8
176
     1
 66
     7
176
     1
 43
1.0
176
     1
 76
     1
176
     1
 77
     6
176
     1
 78
     2
176
     1
 67
     7
176
     1
 79
     5
176
     1
170
     0
176
     1
171
     0
176
     1
290
     0
176
     1
 93
        1
176
     1
 44
0.0
176
     1
173
     0
176
     1
  0
VISUALSTYLE
  5
33
102
{ACAD_REACTORS
330
2A
102
}
330
2A
100
AcDbVisualStyle
  2
Realistic
 70
     8
177
     2
291
     0
 71
     2
176
     1
 72
     2
176
     1
 73
     0
176
     1
 90
        0
176
     1
 40
-0.6
176
     1
 41
-30.0
176
     1
 62
     5
 63
     7
421
 16777215
176
     1
 74
     1
176
     1
 91
        0
176
     1
 64
     7
176
     1
 65
   257
176
     1
 75
     1
176
     1
175
     1
176
     1
 42
1.0
176
     1
 92
        8
176
     1
 66
     8
424
  7895160
176
     1
 43
1.0
176
     1
 76
     1
176
     1
 77
     6
176
     1
 78
     2
176
     1
 67
     7
176
     1
 79
     5
176
     1
170
     0
176
     1
171
     0
176
     1
290
     0
176
     1
 93
       13
176
     1
 44
0.0
176
     1
173
     0
176
     1
  0
VISUALSTYLE
  5
37
102
{ACAD_REACTORS
330
2A
102
}
330
2A
100
AcDbVisualStyle
  2
Thicken
 70
    13
177
     2
291
     1
 71
     2
176
     1
 72
     2
176
     1
 73
     0
176
     1
 90
        0
176
     1
 40
-0.6
176
     1
 41
-30.0
176
     1
 62
     5
 63
     7
421
 16777215
176
     1
 74
     1
176
     1
 91
        4
176
     1
 64
     7
176
     1
 65
   257
176
     1
 75
     1
176
     1
175
     1
176
     1
 42
1.0
176
     1
 92
       12
176
     1
 66
     7
176
     1
 43
1.0
176
     1
 76
     1
176
     1
 77
     6
176
     1
 78
     2
176
     1
 67
     7
176
     1
 79
     5
176
     1
170
     0
176
     1
171
     0
176
     1
290
     0
176
     1
 93
        1
176
     1
 44
0.0
176
     1
173
     0
176
     1
  0
ENDSEC
  0
EOF
