<?xml version="1.0" encoding="utf-8"?>
<!-- Generator: Adobe Illustrator 19.0.0, SVG Export Plug-In . SVG Version: 6.00 Build 0)  -->
<svg version="1.1" id="Base" xmlns="http://www.w3.org/2000/svg" xmlns:xlink="http://www.w3.org/1999/xlink" x="0px" y="0px"
	 viewBox="0 0 464.3 272.7" style="enable-background:new 0 0 464.3 272.7;" xml:space="preserve">
<style type="text/css">
	.st0{fill:none;stroke:#FF0000;stroke-width:0.2835;stroke-miterlimit:10;}
</style>
<g id="Base_02">
	<path id="Cut" class="st0" d="M116.2,0C52,0,0,52,0,116.2c0,64.2,52,116.2,116.2,116.2c64.2,0,116.2-52,116.2-116.2
		C232.4,52,180.4,0,116.2,0z M116.2,144.6c-15.7,0-28.3-12.7-28.3-28.3c0-15.7,12.7-28.3,28.3-28.3c15.7,0,28.3,12.7,28.3,28.3
		C144.6,131.9,131.9,144.6,116.2,144.6z"/>
</g>
<g id="Base_01">
	<g id="Scan_1_">
		<g id="Cercle">
			<path id="XMLID_49_" d="M225,265.6h-10.1c-16.1,0-29.1-13.1-29.1-29.1c0-16.1,13.1-29.1,29.1-29.1c0.4,0,0.7,0.3,0.7,0.7
				s-0.3,0.7-0.7,0.7c-15.3,0-27.7,12.4-27.7,27.7s12.4,27.7,27.7,27.7H225c0.4,0,0.7,0.3,0.7,0.7S225.3,265.6,225,265.6z"/>
		</g>
		<g id="FabLamp">
			<path id="XMLID_46_" d="M232.8,257c0.1,0.1,0.2,0.3,0.2,0.5c0,0.2-0.1,0.4-0.2,0.5s-0.3,0.2-0.6,0.2h-2.9v2.2h2
				c0.2,0,0.4,0.1,0.6,0.2c0.1,0.1,0.2,0.3,0.2,0.5c0,0.2-0.1,0.4-0.2,0.5c-0.1,0.1-0.3,0.2-0.6,0.2h-2v3c0,0.2-0.1,0.3-0.2,0.4
				c-0.1,0.1-0.3,0.2-0.6,0.2c-0.2,0-0.4-0.1-0.6-0.2c-0.1-0.1-0.2-0.3-0.2-0.4v-7.4c0-0.2,0.1-0.3,0.2-0.4c0.1-0.1,0.3-0.2,0.6-0.2
				h3.6C232.4,256.8,232.6,256.9,232.8,257z"/>
			<path id="XMLID_43_" d="M239.1,265.6c-0.2,0-0.4-0.1-0.5-0.2s-0.2-0.3-0.2-0.4v-0.2l-0.1,0c-0.1,0.1-0.2,0.2-0.3,0.3
				c-0.1,0.1-0.2,0.2-0.3,0.3c-0.1,0.1-0.3,0.1-0.5,0.2c-0.2,0-0.4,0.1-0.7,0.1c-0.4,0-0.8-0.1-1.1-0.2c-0.3-0.2-0.6-0.4-0.8-0.6
				s-0.4-0.5-0.5-0.9c-0.1-0.3-0.2-0.6-0.2-1v-1.2c0-0.4,0.1-0.7,0.2-1.1c0.1-0.4,0.3-0.7,0.6-1s0.6-0.5,1-0.7s0.8-0.3,1.4-0.3
				c0.5,0,0.9,0.1,1.3,0.2c0.4,0.1,0.6,0.3,0.9,0.6s0.4,0.5,0.5,0.8c0.1,0.3,0.2,0.7,0.2,1.1v3.7c0,0.2-0.1,0.3-0.2,0.4
				S239.3,265.6,239.1,265.6z M238.3,261.2c0-0.4-0.1-0.8-0.3-0.9c-0.2-0.2-0.5-0.3-0.9-0.3c-0.2,0-0.4,0-0.6,0.1s-0.3,0.2-0.5,0.3
				c-0.1,0.1-0.2,0.3-0.3,0.5c-0.1,0.2-0.1,0.4-0.1,0.6v1.3c0,0.3,0.1,0.6,0.4,0.8c0.2,0.2,0.5,0.3,0.9,0.3c0.2,0,0.4,0,0.6-0.1
				c0.2-0.1,0.3-0.2,0.5-0.3c0.1-0.1,0.3-0.3,0.3-0.5s0.1-0.4,0.1-0.7V261.2z"/>
			<path id="XMLID_40_" d="M243.4,259.2L243.4,259.2c0.3-0.2,0.5-0.4,0.7-0.5c0.3-0.1,0.6-0.2,0.9-0.2c0.5,0,0.9,0.1,1.3,0.2
				c0.4,0.2,0.6,0.4,0.9,0.7c0.2,0.3,0.4,0.6,0.5,1c0.1,0.4,0.2,0.8,0.2,1.2v0.8c0,0.4-0.1,0.8-0.2,1.2c-0.1,0.4-0.3,0.7-0.6,1
				c-0.2,0.3-0.6,0.5-0.9,0.7c-0.4,0.2-0.8,0.2-1.3,0.2c-0.5,0-1-0.1-1.4-0.2s-0.7-0.3-1-0.6c-0.3-0.2-0.5-0.5-0.6-0.8
				c-0.1-0.3-0.2-0.7-0.2-1.1v-5.9c0-0.2,0.1-0.3,0.2-0.4s0.3-0.2,0.6-0.2c0.2,0,0.4,0.1,0.6,0.2s0.2,0.3,0.2,0.4V259.2z M244.8,260
				c-0.4,0-0.7,0.1-1,0.3c-0.3,0.2-0.4,0.6-0.4,1v1.5c0,0.4,0.1,0.7,0.4,0.9s0.7,0.3,1.1,0.3c0.4,0,0.8-0.1,1-0.4s0.4-0.7,0.4-1.1
				v-0.8c0-0.6-0.1-1-0.4-1.3C245.6,260.2,245.2,260,244.8,260z"/>
			<path id="XMLID_38_" d="M249.6,257.3c0-0.2,0.1-0.3,0.2-0.4c0.1-0.1,0.3-0.2,0.6-0.2c0.2,0,0.4,0.1,0.5,0.2
				c0.1,0.1,0.2,0.3,0.2,0.4v6.6h2.8c0.2,0,0.4,0.1,0.6,0.2s0.2,0.3,0.2,0.5c0,0.2-0.1,0.4-0.2,0.5s-0.3,0.2-0.6,0.2h-3.7
				c-0.2,0-0.4-0.1-0.5-0.2c-0.1-0.1-0.2-0.3-0.2-0.4V257.3z"/>
			<path id="XMLID_35_" d="M260.9,265.6c-0.2,0-0.4-0.1-0.5-0.2s-0.2-0.3-0.2-0.4v-0.2l-0.1,0c-0.1,0.1-0.2,0.2-0.3,0.3
				c-0.1,0.1-0.2,0.2-0.3,0.3c-0.1,0.1-0.3,0.1-0.5,0.2c-0.2,0-0.4,0.1-0.7,0.1c-0.4,0-0.8-0.1-1.1-0.2c-0.3-0.2-0.6-0.4-0.8-0.6
				c-0.2-0.2-0.4-0.5-0.5-0.9c-0.1-0.3-0.2-0.6-0.2-1v-1.2c0-0.4,0.1-0.7,0.2-1.1c0.1-0.4,0.3-0.7,0.6-1s0.6-0.5,1-0.7
				s0.8-0.3,1.4-0.3c0.5,0,0.9,0.1,1.3,0.2c0.4,0.1,0.6,0.3,0.9,0.6s0.4,0.5,0.5,0.8c0.1,0.3,0.2,0.7,0.2,1.1v3.7
				c0,0.2-0.1,0.3-0.2,0.4C261.3,265.5,261.1,265.6,260.9,265.6z M260.1,261.2c0-0.4-0.1-0.8-0.3-0.9c-0.2-0.2-0.5-0.3-0.9-0.3
				c-0.2,0-0.4,0-0.6,0.1s-0.3,0.2-0.5,0.3c-0.1,0.1-0.2,0.3-0.3,0.5s-0.1,0.4-0.1,0.6v1.3c0,0.3,0.1,0.6,0.4,0.8
				c0.2,0.2,0.5,0.3,0.9,0.3c0.2,0,0.4,0,0.6-0.1c0.2-0.1,0.3-0.2,0.5-0.3c0.1-0.1,0.3-0.3,0.3-0.5s0.1-0.4,0.1-0.7V261.2z"/>
			<path id="XMLID_31_" d="M270.4,258.6c0.5,0,0.9,0.1,1.3,0.2c0.3,0.1,0.6,0.4,0.8,0.6c0.2,0.3,0.3,0.6,0.4,0.9
				c0.1,0.4,0.1,0.7,0.1,1.2v3.4c0,0.2-0.1,0.3-0.2,0.4c-0.1,0.1-0.3,0.2-0.6,0.2c-0.2,0-0.4-0.1-0.5-0.2c-0.1-0.1-0.2-0.3-0.2-0.4
				v-3.4c0-0.5-0.1-0.8-0.3-1.1c-0.2-0.2-0.5-0.3-0.9-0.3c-0.8,0-1.2,0.5-1.2,1.4v3.5l0,0.1l0,0c0,0,0,0,0,0c0,0,0,0,0,0
				c-0.1,0.1-0.1,0.2-0.3,0.2c-0.1,0.1-0.2,0.1-0.4,0.1h-0.1c-0.2,0-0.4,0-0.5-0.1c-0.1-0.1-0.2-0.2-0.3-0.4l0,0v-3.5
				c0-1-0.4-1.4-1.2-1.4c-0.4,0-0.8,0.1-0.9,0.3c-0.2,0.2-0.3,0.6-0.3,1.1v3.4c0,0.2-0.1,0.3-0.2,0.4c-0.1,0.1-0.3,0.2-0.6,0.2
				c-0.2,0-0.4-0.1-0.6-0.2c-0.1-0.1-0.2-0.3-0.2-0.4v-3.4c0-0.4,0-0.8,0.1-1.2c0.1-0.4,0.2-0.7,0.4-0.9c0.2-0.3,0.5-0.5,0.8-0.6
				c0.3-0.1,0.8-0.2,1.3-0.2c0.5,0,0.9,0.1,1.3,0.3c0.3,0.2,0.6,0.4,0.8,0.8c0.2-0.3,0.5-0.6,0.8-0.8
				C269.4,258.7,269.8,258.6,270.4,258.6z"/>
			<path id="XMLID_8_" d="M276.6,264.8v2.9c0,0.2-0.1,0.3-0.2,0.4c-0.1,0.1-0.3,0.2-0.6,0.2c-0.2,0-0.4-0.1-0.6-0.2
				c-0.1-0.1-0.2-0.3-0.2-0.4v-6.4c0-0.4,0.1-0.7,0.2-1.1c0.1-0.3,0.3-0.6,0.6-0.8c0.2-0.2,0.6-0.4,0.9-0.6c0.4-0.1,0.8-0.2,1.3-0.2
				c0.5,0,1,0.1,1.4,0.2c0.4,0.2,0.7,0.4,1,0.7c0.3,0.3,0.4,0.6,0.6,1c0.1,0.4,0.2,0.8,0.2,1.2v0.8c0,0.4-0.1,0.8-0.2,1.2
				c-0.1,0.4-0.3,0.7-0.5,1c-0.2,0.3-0.5,0.5-0.9,0.7c-0.3,0.2-0.8,0.2-1.3,0.2c-0.4,0-0.7-0.1-0.9-0.2c-0.3-0.1-0.5-0.3-0.7-0.5
				L276.6,264.8z M276.6,262.6c0,0.5,0.1,0.8,0.4,1.1c0.3,0.2,0.6,0.3,1,0.3c0.5,0,0.8-0.1,1.1-0.4c0.3-0.3,0.4-0.7,0.4-1.1v-0.9
				c0-0.5-0.1-0.8-0.4-1.1c-0.3-0.3-0.6-0.4-1.1-0.4c-0.4,0-0.7,0.1-1,0.3c-0.3,0.2-0.4,0.5-0.4,0.9V262.6z"/>
		</g>
	</g>
	<path id="Cut_2_" class="st0" d="M348.1,40.3c-64.2,0-116.2,52-116.2,116.2v26.7c0,9.4-7.6,17-17,17c-20,0-36.3,16.2-36.3,36.3
		c0,20,16.2,36.3,36.3,36.3h17h116.2c64.2,0,116.2-52,116.2-116.2C464.3,92.3,412.2,40.3,348.1,40.3z M354.3,162.3h-12.5
		c-1.4-1.5-2.3-3.5-2.3-5.8c0-4.7,3.8-8.5,8.5-8.5s8.5,3.8,8.5,8.5C356.6,158.7,355.7,160.7,354.3,162.3z"/>
</g>
</svg>
